<?xml version="1.0" encoding="utf-8" standalone="no"?>
<!DOCTYPE svg PUBLIC "-//W3C//DTD SVG 1.1//EN"
  "http://www.w3.org/Graphics/SVG/1.1/DTD/svg11.dtd">
<!-- Created with matplotlib (https://matplotlib.org/) -->
<svg height="216pt" version="1.1" viewBox="0 0 288 216" width="288pt" xmlns="http://www.w3.org/2000/svg" xmlns:xlink="http://www.w3.org/1999/xlink">
 <metadata>
  <rdf:RDF xmlns:cc="http://creativecommons.org/ns#" xmlns:dc="http://purl.org/dc/elements/1.1/" xmlns:rdf="http://www.w3.org/1999/02/22-rdf-syntax-ns#">
   <cc:Work>
    <dc:type rdf:resource="http://purl.org/dc/dcmitype/StillImage"/>
    <dc:date>2021-03-23T22:54:48.251791</dc:date>
    <dc:format>image/svg+xml</dc:format>
    <dc:creator>
     <cc:Agent>
      <dc:title>Matplotlib v3.3.2, https://matplotlib.org/</dc:title>
     </cc:Agent>
    </dc:creator>
   </cc:Work>
  </rdf:RDF>
 </metadata>
 <defs>
  <style type="text/css">*{stroke-linecap:butt;stroke-linejoin:round;}</style>
 </defs>
 <g id="figure_1">
  <g id="patch_1">
   <path d="M 0 216 
L 288 216 
L 288 0 
L 0 0 
z
" style="fill:#ffffff;"/>
  </g>
  <g id="axes_1">
   <g id="patch_2">
    <path d="M 55.024436 166.496228 
L 273.96 166.496228 
L 273.96 14.27639 
L 55.024436 14.27639 
z
" style="fill:#ffffff;"/>
   </g>
   <g id="matplotlib.axis_1">
    <g id="xtick_1">
     <g id="line2d_1">
      <defs>
       <path d="M 0 0 
L 0 3.5 
" id="ma99407fe8b" style="stroke:#000000;stroke-width:0.8;"/>
      </defs>
      <g>
       <use style="stroke:#000000;stroke-width:0.8;" x="106.96409" xlink:href="#ma99407fe8b" y="166.496228"/>
      </g>
     </g>
     <g id="text_1">
      <!-- $\mathdefault{384}$ -->
      <g transform="translate(97.45298 182.490256)scale(0.13 -0.13)">
       <defs>
        <path d="M 22.09375 34 
C 31 34 34.90625 26.140625 34.90625 17.09375 
C 34.90625 5.03125 28.5 0.390625 22.703125 0.390625 
C 17.40625 0.390625 8.796875 3.015625 6.09375 10.796875 
C 6.59375 10.59375 7.09375 10.59375 7.59375 10.59375 
C 10 10.59375 11.796875 12.1875 11.796875 14.796875 
C 11.796875 17.6875 9.59375 19 7.59375 19 
C 5.90625 19 3.296875 18.1875 3.296875 14.484375 
C 3.296875 5.234375 12.296875 -2 22.90625 -2 
C 34 -2 42.5 6.75 42.5 16.984375 
C 42.5 26.84375 34.5 34 25 35.09375 
C 32.59375 36.671875 39.90625 43.375 39.90625 52.390625 
C 39.90625 60.25 32 66 23 66 
C 13.90625 66 5.90625 60.34375 5.90625 52.296875 
C 5.90625 48.796875 8.5 48.1875 9.796875 48.1875 
C 11.90625 48.1875 13.703125 49.484375 13.703125 52.09375 
C 13.703125 54.6875 11.90625 56 9.796875 56 
C 9.40625 56 8.90625 56 8.5 55.796875 
C 11.40625 62.484375 19.296875 63.6875 22.796875 63.6875 
C 26.296875 63.6875 32.90625 61.96875 32.90625 52.296875 
C 32.90625 49.484375 32.5 44.546875 29.09375 40.21875 
C 26.09375 36.390625 22.703125 36.1875 19.40625 35.890625 
C 18.90625 35.890625 16.59375 35.6875 16.203125 35.6875 
C 15.5 35.59375 15.09375 35.5 15.09375 34.796875 
C 15.09375 34.09375 15.203125 34 17.203125 34 
z
" id="CMR17-51"/>
        <path d="M 27.203125 35.765625 
C 33.5 38.96875 39.90625 43.796875 39.90625 51.53125 
C 39.90625 60.6875 31.09375 66 23 66 
C 13.90625 66 5.90625 59.375 5.90625 50.234375 
C 5.90625 47.71875 6.5 43.390625 10.40625 39.578125 
C 11.40625 38.578125 15.59375 35.5625 18.296875 33.65625 
C 13.796875 31.34375 3.296875 25.8125 3.296875 14.765625 
C 3.296875 4.40625 13.09375 -2 22.796875 -2 
C 33.5 -2 42.5 5.71875 42.5 15.96875 
C 42.5 25.109375 36.40625 29.328125 32.40625 32.046875 
z
M 14.09375 44.609375 
C 13.296875 45.109375 9.296875 48.21875 9.296875 52.9375 
C 9.296875 59.078125 15.59375 63.6875 22.796875 63.6875 
C 30.703125 63.6875 36.5 58.0625 36.5 51.53125 
C 36.5 42.1875 26.09375 36.859375 25.59375 36.859375 
C 25.5 36.859375 25.40625 36.859375 24.59375 37.46875 
z
M 32.5 24 
C 34 22.90625 38.796875 19.578125 38.796875 13.453125 
C 38.796875 6.015625 31.40625 0.390625 23 0.390625 
C 13.90625 0.390625 7 6.921875 7 14.859375 
C 7 22.796875 13.09375 29.4375 20 32.546875 
z
" id="CMR17-56"/>
        <path d="M 33.59375 64.796875 
C 33.59375 66.890625 33.5 67 31.703125 67 
L 2 19.59375 
L 2 17 
L 27.796875 17 
L 27.796875 7.1875 
C 27.796875 3.59375 27.59375 2.59375 20.59375 2.59375 
L 18.703125 2.59375 
L 18.703125 0 
C 21.90625 0.1875 27.296875 0.1875 30.703125 0.1875 
C 34.09375 0.1875 39.5 0.1875 42.703125 0 
L 42.703125 2.59375 
L 40.796875 2.59375 
C 33.796875 2.59375 33.59375 3.59375 33.59375 7.1875 
L 33.59375 17 
L 43.796875 17 
L 43.796875 19.59375 
L 33.59375 19.59375 
z
M 28.09375 58.171875 
L 28.09375 19.59375 
L 4 19.59375 
z
" id="CMR17-52"/>
       </defs>
       <use transform="scale(0.996264)" xlink:href="#CMR17-51"/>
       <use transform="translate(45.690477 0)scale(0.996264)" xlink:href="#CMR17-56"/>
       <use transform="translate(91.380954 0)scale(0.996264)" xlink:href="#CMR17-52"/>
      </g>
     </g>
    </g>
    <g id="xtick_2">
     <g id="line2d_2">
      <g>
       <use style="stroke:#000000;stroke-width:0.8;" x="162.756786" xlink:href="#ma99407fe8b" y="166.496228"/>
      </g>
     </g>
     <g id="text_2">
      <!-- $\mathdefault{386}$ -->
      <g transform="translate(153.245677 182.490256)scale(0.13 -0.13)">
       <defs>
        <path d="M 10.59375 34.34375 
C 10.59375 58 21.796875 63.6875 28.296875 63.6875 
C 30.40625 63.6875 35.5 63.265625 37.5 59.09375 
C 35.90625 59.09375 32.90625 59.09375 32.90625 55.59375 
C 32.90625 52.890625 35.09375 52 36.5 52 
C 37.40625 52 40.09375 52.390625 40.09375 55.796875 
C 40.09375 62.296875 35.09375 66 28.203125 66 
C 16.296875 66 3.796875 53.296875 3.796875 31.421875 
C 3.796875 4.015625 15.09375 -2 23.09375 -2 
C 32.796875 -2 42 6.734375 42 20.234375 
C 42 32.828125 33.90625 42 23.703125 42 
C 17.59375 42 13.09375 37.96875 10.59375 30.921875 
z
M 23.09375 0.390625 
C 10.796875 0.390625 10.796875 18.9375 10.796875 22.65625 
C 10.796875 29.90625 14.203125 40.390625 23.5 40.390625 
C 25.203125 40.390625 30.09375 40.390625 33.40625 33.4375 
C 35.203125 29.515625 35.203125 25.375 35.203125 20.34375 
C 35.203125 14.90625 35.203125 10.875 33.09375 6.84375 
C 30.90625 2.703125 27.703125 0.390625 23.09375 0.390625 
z
" id="CMR17-54"/>
       </defs>
       <use transform="scale(0.996264)" xlink:href="#CMR17-51"/>
       <use transform="translate(45.690477 0)scale(0.996264)" xlink:href="#CMR17-56"/>
       <use transform="translate(91.380954 0)scale(0.996264)" xlink:href="#CMR17-54"/>
      </g>
     </g>
    </g>
    <g id="xtick_3">
     <g id="line2d_3">
      <g>
       <use style="stroke:#000000;stroke-width:0.8;" x="218.549483" xlink:href="#ma99407fe8b" y="166.496228"/>
      </g>
     </g>
     <g id="text_3">
      <!-- $\mathdefault{388}$ -->
      <g transform="translate(209.038374 182.490256)scale(0.13 -0.13)">
       <use transform="scale(0.996264)" xlink:href="#CMR17-51"/>
       <use transform="translate(45.690477 0)scale(0.996264)" xlink:href="#CMR17-56"/>
       <use transform="translate(91.380954 0)scale(0.996264)" xlink:href="#CMR17-56"/>
      </g>
     </g>
    </g>
    <g id="text_4">
     <!-- Wavelength (nm) -->
     <g transform="translate(116.410539 198.722142)scale(0.13 -0.13)">
      <defs>
       <path d="M 86.296875 58.984375 
C 87.203125 61.6875 88.703125 65.203125 94.5 65.390625 
L 94.5 68 
C 92.796875 67.890625 89.296875 67.796875 87.5 67.796875 
C 85 67.796875 80.59375 67.796875 78.203125 68 
L 78.203125 65.390625 
C 82.703125 65.296875 84.59375 62.796875 84.59375 60.390625 
C 84.59375 59.6875 84.5 59.28125 84.09375 58.1875 
L 68.59375 8.703125 
L 52.296875 60.78125 
C 52 61.796875 51.90625 62.1875 51.90625 62.59375 
C 51.90625 65.390625 56.296875 65.390625 58.203125 65.390625 
L 58.203125 68 
C 55.296875 67.796875 50.296875 67.796875 47.203125 67.796875 
C 44.703125 67.796875 40.203125 67.796875 37.90625 68 
L 37.90625 65.390625 
C 42.5 65.390625 43.703125 65.09375 44.703125 63.296875 
C 45.09375 62.390625 46.703125 57.1875 46.703125 56.875 
C 46.703125 56.484375 46.5 55.875 46.40625 55.578125 
L 31.703125 8.8125 
L 15.40625 60.78125 
C 14.90625 62.1875 14.90625 62.390625 14.90625 62.59375 
C 14.90625 65.390625 19.296875 65.390625 21.296875 65.390625 
L 21.296875 68 
C 18.40625 67.796875 13.40625 67.796875 10.296875 67.796875 
C 7.703125 67.796875 3.296875 67.796875 0.90625 68 
L 0.90625 65.390625 
C 6.90625 65.390625 7.296875 64.796875 8.296875 61.59375 
L 27.796875 -0.3125 
C 28.296875 -1.8125 28.296875 -2 29.203125 -2 
C 30 -2 30.296875 -1.8125 30.703125 -0.40625 
L 47.703125 53.875 
L 64.703125 -0.40625 
C 65.09375 -1.8125 65.40625 -2 66.203125 -2 
C 67.09375 -2 67.09375 -1.8125 67.59375 -0.3125 
z
" id="CMR17-87"/>
       <path d="M 36 25.875 
C 36 32 36 35.546875 31.796875 39.59375 
C 28.09375 42.984375 23.796875 44 20.40625 44 
C 12.5 44 6.796875 37.625 6.796875 30.890625 
C 6.796875 27.1875 9.796875 27 10.40625 27 
C 11.703125 27 14 27.796875 14 30.59375 
C 14 33.09375 12.09375 34.1875 10.40625 34.1875 
C 10 34.1875 9.5 34.09375 9.203125 34 
C 11.296875 40.53125 16.703125 42.390625 20.203125 42.390625 
C 25.203125 42.390625 30.703125 37.828125 30.703125 29.296875 
L 30.703125 25.5 
C 24.796875 25.296875 17.703125 24.5 12.09375 21.453125 
C 5.796875 17.921875 4 12.84375 4 9 
C 4 1.203125 13 -1 18.296875 -1 
C 23.796875 -1 28.90625 2.109375 31.09375 7.890625 
C 31.296875 3.421875 34.09375 -0.609375 38.5 -0.609375 
C 40.59375 -0.609375 45.90625 0.796875 45.90625 8.796875 
L 45.90625 14.46875 
L 44.09375 14.46875 
L 44.09375 8.703125 
C 44.09375 2.515625 41.40625 1.703125 40.09375 1.703125 
C 36 1.703125 36 6.96875 36 11.4375 
z
M 30.703125 13.859375 
C 30.703125 5.046875 24.5 0.59375 19 0.59375 
C 14 0.59375 10.09375 4.34375 10.09375 9 
C 10.09375 12.046875 11.40625 17.40625 17.203125 20.65625 
C 22 23.390625 27.5 23.796875 30.703125 24 
z
" id="CMR17-97"/>
       <path d="M 39.09375 33.953125 
C 40 36.171875 41.59375 40.1875 47.40625 40.390625 
L 47.40625 43 
C 45.5 42.890625 43 42.796875 41.09375 42.796875 
C 39 42.796875 35.703125 42.796875 33.703125 43 
L 33.703125 40.390625 
C 36.203125 40.1875 37.59375 38.984375 37.59375 36.375 
C 37.59375 35.46875 37.59375 35.265625 37 33.859375 
L 26 5.921875 
L 14.09375 36.0625 
C 13.5 37.375 13.5 37.578125 13.5 37.984375 
C 13.5 40.390625 16.796875 40.390625 18.296875 40.390625 
L 18.296875 43 
C 15.90625 42.796875 11.5 42.796875 9 42.796875 
C 6.296875 42.796875 3.203125 42.796875 1 43 
L 1 40.390625 
C 4.796875 40.390625 6.90625 40.390625 8.09375 37.28125 
L 22.59375 0.6875 
C 23.203125 -0.8125 23.296875 -1 24.203125 -1 
C 25.09375 -1 25.203125 -0.8125 25.796875 0.6875 
z
" id="CMR17-118"/>
       <path d="M 38.09375 23.484375 
C 38.5 23.890625 38.5 24.09375 38.5 25.09375 
C 38.5 35.171875 33.09375 44 21.703125 44 
C 11.09375 44 2.703125 33.984375 2.703125 21.78125 
C 2.703125 8.65625 12.203125 -1 22.796875 -1 
C 34 -1 38.40625 9.671875 38.40625 11.796875 
C 38.40625 12.5 37.796875 12.5 37.59375 12.5 
C 36.90625 12.5 36.796875 12.296875 36.40625 11.078125 
C 34.203125 4.21875 28.703125 0.796875 23.5 0.796875 
C 19.203125 0.796875 14.90625 3.21875 12.203125 7.65625 
C 9.09375 12.796875 9.09375 18.75 9.09375 23.484375 
z
M 9.203125 25 
C 9.90625 39.234375 17.59375 42.390625 21.59375 42.390625 
C 28.40625 42.390625 33 36.0625 33.09375 25 
z
" id="CMR17-101"/>
       <path d="M 15.296875 69 
L 3.40625 67.890625 
L 3.40625 65.296875 
C 9.296875 65.296875 10.203125 64.703125 10.203125 59.921875 
L 10.203125 6.859375 
C 10.203125 3.09375 9.796875 2.59375 3.40625 2.59375 
L 3.40625 0 
C 5.796875 0.1875 10.203125 0.1875 12.703125 0.1875 
C 15.296875 0.1875 19.703125 0.1875 22.09375 0 
L 22.09375 2.59375 
C 15.703125 2.59375 15.296875 2.984375 15.296875 6.859375 
z
" id="CMR17-108"/>
       <path d="M 41.5 30.53125 
C 41.5 35.65625 40.5 44 28.703125 44 
C 20.796875 44 16.703125 37.875 15.203125 33.84375 
L 15.09375 33.84375 
L 15.09375 44 
L 3.296875 42.890625 
L 3.296875 40.28125 
C 9.203125 40.28125 10.09375 39.6875 10.09375 34.859375 
L 10.09375 6.921875 
C 10.09375 3.09375 9.703125 2.59375 3.296875 2.59375 
L 3.296875 0 
C 5.703125 0.1875 10.09375 0.1875 12.703125 0.1875 
C 15.296875 0.1875 19.796875 0.1875 22.203125 0 
L 22.203125 2.59375 
C 15.796875 2.59375 15.40625 3 15.40625 6.921875 
L 15.40625 26.21875 
C 15.40625 35.453125 21 42.390625 28 42.390625 
C 35.40625 42.390625 36.203125 35.765625 36.203125 30.9375 
L 36.203125 6.921875 
C 36.203125 3.09375 35.796875 2.59375 29.40625 2.59375 
L 29.40625 0 
C 31.796875 0.1875 36.203125 0.1875 38.796875 0.1875 
C 41.40625 0.1875 45.90625 0.1875 48.296875 0 
L 48.296875 2.59375 
C 41.90625 2.59375 41.5 3 41.5 6.921875 
z
" id="CMR17-110"/>
       <path d="M 11.09375 18.203125 
C 13 16.6875 16.296875 15 20.296875 15 
C 28.203125 15 35 21.234375 35 29.609375 
C 35 32.234375 34.203125 36.265625 31.203125 39.390625 
C 34 42.390625 38.09375 43.390625 40.40625 43.390625 
C 40.796875 43.390625 41.40625 43.390625 41.90625 43.09375 
C 41.5 42.984375 40.59375 42.59375 40.59375 40.984375 
C 40.59375 39.6875 41.5 38.796875 42.796875 38.796875 
C 44.296875 38.796875 45.09375 39.796875 45.09375 41.09375 
C 45.09375 42.984375 43.59375 45 40.40625 45 
C 36.40625 45 32.90625 43.09375 30.09375 40.484375 
C 27.09375 43.1875 23.5 44.1875 20.296875 44.1875 
C 12.40625 44.1875 5.59375 37.984375 5.59375 29.609375 
C 5.59375 23.859375 8.90625 20.21875 9.90625 19.21875 
C 6.90625 15.6875 6.90625 11.59375 6.90625 11.09375 
C 6.90625 8.5 7.90625 4.6875 11.296875 2.59375 
C 6.09375 1.28125 2 -2.875 2 -8.078125 
C 2 -15.5625 11.5 -21 22.90625 -21 
C 33.90625 -21 43.796875 -15.765625 43.796875 -7.96875 
C 43.796875 6 29 6 21.296875 6 
C 19 6 14.90625 6 14.40625 6.09375 
C 11.296875 6.59375 9.203125 9.390625 9.203125 12.890625 
C 9.203125 13.796875 9.203125 16 11.09375 18.203125 
z
M 20.296875 16.6875 
C 11.5 16.6875 11.5 27.59375 11.5 29.609375 
C 11.5 31.625 11.5 42.484375 20.296875 42.484375 
C 29.09375 42.484375 29.09375 31.625 29.09375 29.609375 
C 29.09375 27.59375 29.09375 16.6875 20.296875 16.6875 
z
M 22.90625 -19.3125 
C 12.90625 -19.3125 6 -13.796875 6 -8.078125 
C 6 -4.859375 7.703125 -1.84375 9.90625 -0.171875 
C 12.40625 1.59375 13.40625 1.59375 20.203125 1.59375 
C 28.40625 1.59375 39.796875 1.59375 39.796875 -8.078125 
C 39.796875 -13.796875 32.90625 -19.3125 22.90625 -19.3125 
z
" id="CMR17-103"/>
       <path d="M 15.09375 40.390625 
L 29.09375 40.390625 
L 29.09375 43 
L 15.09375 43 
L 15.09375 62 
L 13.296875 62 
C 13.09375 51.4375 9.59375 42.1875 1.09375 41.984375 
L 1.09375 40.390625 
L 9.796875 40.390625 
L 9.796875 12.15625 
C 9.796875 10.234375 9.796875 -1 21.40625 -1 
C 27.296875 -1 30.703125 4.8125 30.703125 12.25 
L 30.703125 17.984375 
L 28.90625 17.984375 
L 28.90625 12.34375 
C 28.90625 5.421875 26.203125 0.796875 22 0.796875 
C 19.09375 0.796875 15.09375 2.796875 15.09375 11.953125 
z
" id="CMR17-116"/>
       <path d="M 41.5 30.53125 
C 41.5 35.65625 40.5 44 28.703125 44 
C 20.5 44 16.5 37.375 15.296875 34.046875 
L 15.203125 34.046875 
L 15.203125 69 
L 3.296875 67.890625 
L 3.296875 65.296875 
C 9.203125 65.296875 10.09375 64.703125 10.09375 60.046875 
L 10.09375 6.921875 
C 10.09375 3.09375 9.703125 2.59375 3.296875 2.59375 
L 3.296875 0 
C 5.703125 0.1875 10.09375 0.1875 12.703125 0.1875 
C 15.296875 0.1875 19.796875 0.1875 22.203125 0 
L 22.203125 2.59375 
C 15.796875 2.59375 15.40625 3 15.40625 6.921875 
L 15.40625 26.21875 
C 15.40625 35.453125 21 42.390625 28 42.390625 
C 35.40625 42.390625 36.203125 35.765625 36.203125 30.9375 
L 36.203125 6.921875 
C 36.203125 3.09375 35.796875 2.59375 29.40625 2.59375 
L 29.40625 0 
C 31.796875 0.1875 36.203125 0.1875 38.796875 0.1875 
C 41.40625 0.1875 45.90625 0.1875 48.296875 0 
L 48.296875 2.59375 
C 41.90625 2.59375 41.5 3 41.5 6.921875 
z
" id="CMR17-104"/>
       <path d="M 30.59375 -24.40625 
C 30.59375 -24.3125 30.59375 -24.109375 30.296875 -23.8125 
C 25.703125 -19.109375 13.40625 -6.296875 13.40625 24.9375 
C 13.40625 56.171875 25.5 68.875 30.40625 73.890625 
C 30.40625 73.984375 30.59375 74.1875 30.59375 74.484375 
C 30.59375 74.796875 30.296875 75 29.90625 75 
C 28.796875 75 20.296875 67.578125 15.40625 56.5625 
C 10.40625 45.453125 9 34.65625 9 25.046875 
C 9 17.828125 9.703125 5.625 15.703125 -7.296875 
C 20.5 -17.703125 28.703125 -25 29.90625 -25 
C 30.40625 -25 30.59375 -24.8125 30.59375 -24.40625 
z
" id="CMR17-40"/>
       <path d="M 67.59375 30.53125 
C 67.59375 35.5625 66.703125 44 54.796875 44 
C 48 44 43.296875 39.375 41.5 33.953125 
L 41.40625 33.953125 
C 40.203125 42.1875 34.296875 44 28.703125 44 
C 20.796875 44 16.703125 37.875 15.203125 33.84375 
L 15.09375 33.84375 
L 15.09375 44 
L 3.296875 42.890625 
L 3.296875 40.28125 
C 9.203125 40.28125 10.09375 39.6875 10.09375 34.859375 
L 10.09375 6.921875 
C 10.09375 3.09375 9.703125 2.59375 3.296875 2.59375 
L 3.296875 0 
C 5.703125 0.1875 10.09375 0.1875 12.703125 0.1875 
C 15.296875 0.1875 19.796875 0.1875 22.203125 0 
L 22.203125 2.59375 
C 15.796875 2.59375 15.40625 3 15.40625 6.921875 
L 15.40625 26.21875 
C 15.40625 35.453125 21 42.390625 28 42.390625 
C 35.40625 42.390625 36.203125 35.765625 36.203125 30.9375 
L 36.203125 6.921875 
C 36.203125 3.09375 35.796875 2.59375 29.40625 2.59375 
L 29.40625 0 
C 31.796875 0.1875 36.203125 0.1875 38.796875 0.1875 
C 41.40625 0.1875 45.90625 0.1875 48.296875 0 
L 48.296875 2.59375 
C 41.90625 2.59375 41.5 3 41.5 6.921875 
L 41.5 26.21875 
C 41.5 35.453125 47.09375 42.390625 54.09375 42.390625 
C 61.5 42.390625 62.296875 35.765625 62.296875 30.9375 
L 62.296875 6.921875 
C 62.296875 3.09375 61.90625 2.59375 55.5 2.59375 
L 55.5 0 
C 57.90625 0.1875 62.296875 0.1875 64.90625 0.1875 
C 67.5 0.1875 72 0.1875 74.40625 0 
L 74.40625 2.59375 
C 68 2.59375 67.59375 3 67.59375 6.921875 
z
" id="CMR17-109"/>
       <path d="M 26.296875 24.9375 
C 26.296875 32.140625 25.59375 44.359375 19.59375 57.265625 
C 14.796875 67.6875 6.59375 75 5.40625 75 
C 5.09375 75 4.703125 74.890625 4.703125 74.390625 
C 4.703125 74.1875 4.796875 74.09375 4.90625 73.890625 
C 9.703125 68.875 21.90625 56.171875 21.90625 25.046875 
C 21.90625 -6.1875 9.796875 -18.90625 4.90625 -23.90625 
C 4.796875 -24.109375 4.703125 -24.203125 4.703125 -24.40625 
C 4.703125 -24.90625 5.09375 -25 5.40625 -25 
C 6.5 -25 15 -17.609375 19.90625 -6.59375 
C 24.90625 4.515625 26.296875 15.328125 26.296875 24.9375 
z
" id="CMR17-41"/>
      </defs>
      <use transform="scale(0.996264)" xlink:href="#CMR17-87"/>
      <use transform="translate(87.289395 0)scale(0.996264)" xlink:href="#CMR17-97"/>
      <use transform="translate(130.377418 0)scale(0.996264)" xlink:href="#CMR17-118"/>
      <use transform="translate(176.06788 0)scale(0.996264)" xlink:href="#CMR17-101"/>
      <use transform="translate(216.55354 0)scale(0.996264)" xlink:href="#CMR17-108"/>
      <use transform="translate(241.424599 0)scale(0.996264)" xlink:href="#CMR17-101"/>
      <use transform="translate(281.910259 0)scale(0.996264)" xlink:href="#CMR17-110"/>
      <use transform="translate(332.805629 0)scale(0.996264)" xlink:href="#CMR17-103"/>
      <use transform="translate(378.496106 0)scale(0.996264)" xlink:href="#CMR17-116"/>
      <use transform="translate(413.776874 0)scale(0.996264)" xlink:href="#CMR17-104"/>
      <use transform="translate(494.74821 0)scale(0.996264)" xlink:href="#CMR17-40"/>
      <use transform="translate(530.028978 0)scale(0.996264)" xlink:href="#CMR17-110"/>
      <use transform="translate(580.924347 0)scale(0.996264)" xlink:href="#CMR17-109"/>
      <use transform="translate(657.843937 0)scale(0.996264)" xlink:href="#CMR17-41"/>
     </g>
    </g>
   </g>
   <g id="matplotlib.axis_2">
    <g id="ytick_1">
     <g id="line2d_4">
      <defs>
       <path d="M 0 0 
L -3.5 0 
" id="mb2f8362dbf" style="stroke:#000000;stroke-width:0.8;"/>
      </defs>
      <g>
       <use style="stroke:#000000;stroke-width:0.8;" x="55.024436" xlink:href="#mb2f8362dbf" y="166.496228"/>
      </g>
     </g>
     <g id="text_5">
      <!-- $\mathdefault{0.0}$ -->
      <g transform="translate(31.820325 170.993242)scale(0.13 -0.13)">
       <defs>
        <path d="M 42 31.84375 
C 42 37.96875 41.90625 48.421875 37.703125 56.453125 
C 34 63.484375 28.09375 66 22.90625 66 
C 18.09375 66 12 63.78125 8.203125 56.5625 
C 4.203125 49.015625 3.796875 39.671875 3.796875 31.84375 
C 3.796875 26.109375 3.90625 17.375 7 9.734375 
C 11.296875 -0.609375 19 -2 22.90625 -2 
C 27.5 -2 34.5 -0.109375 38.59375 9.4375 
C 41.59375 16.375 42 24.5 42 31.84375 
z
M 22.90625 -0.40625 
C 16.5 -0.40625 12.703125 5.125 11.296875 12.75 
C 10.203125 18.6875 10.203125 27.328125 10.203125 32.953125 
C 10.203125 40.6875 10.203125 47.109375 11.5 53.234375 
C 13.40625 61.78125 19 64.390625 22.90625 64.390625 
C 27 64.390625 32.296875 61.671875 34.203125 53.4375 
C 35.5 47.71875 35.59375 40.984375 35.59375 32.953125 
C 35.59375 26.421875 35.59375 18.375 34.40625 12.453125 
C 32.296875 1.5 26.40625 -0.40625 22.90625 -0.40625 
z
" id="CMR17-48"/>
        <path d="M 18.40625 4.796875 
C 18.40625 7.6875 16 9.6875 13.59375 9.6875 
C 10.703125 9.6875 8.703125 7.296875 8.703125 4.890625 
C 8.703125 2 11.09375 0 13.5 0 
C 16.40625 0 18.40625 2.390625 18.40625 4.796875 
z
" id="CMMI12-58"/>
       </defs>
       <use transform="scale(0.996264)" xlink:href="#CMR17-48"/>
       <use transform="translate(45.690477 0)scale(0.996264)" xlink:href="#CMMI12-58"/>
       <use transform="translate(72.787654 0)scale(0.996264)" xlink:href="#CMR17-48"/>
      </g>
     </g>
    </g>
    <g id="ytick_2">
     <g id="line2d_5">
      <g>
       <use style="stroke:#000000;stroke-width:0.8;" x="55.024436" xlink:href="#mb2f8362dbf" y="129.504773"/>
      </g>
     </g>
     <g id="text_6">
      <!-- $\mathdefault{0.2}$ -->
      <g transform="translate(31.820325 134.001787)scale(0.13 -0.13)">
       <defs>
        <path d="M 41.703125 15.46875 
L 39.90625 15.46875 
C 38.90625 8.390625 38.09375 7.1875 37.703125 6.59375 
C 37.203125 5.796875 30 5.796875 28.59375 5.796875 
L 9.40625 5.796875 
C 13 9.6875 20 16.765625 28.5 24.9375 
C 34.59375 30.71875 41.703125 37.5 41.703125 47.390625 
C 41.703125 59.1875 32.296875 66 21.796875 66 
C 10.796875 66 4.09375 56.296875 4.09375 47.296875 
C 4.09375 43.390625 7 42.890625 8.203125 42.890625 
C 9.203125 42.890625 12.203125 43.484375 12.203125 46.984375 
C 12.203125 50.09375 9.59375 51 8.203125 51 
C 7.59375 51 7 50.890625 6.59375 50.6875 
C 8.5 59.1875 14.296875 63.390625 20.40625 63.390625 
C 29.09375 63.390625 34.796875 56.5 34.796875 47.390625 
C 34.796875 38.703125 29.703125 31.21875 24 24.734375 
L 4.09375 2.296875 
L 4.09375 0 
L 39.296875 0 
z
" id="CMR17-50"/>
       </defs>
       <use transform="scale(0.996264)" xlink:href="#CMR17-48"/>
       <use transform="translate(45.690477 0)scale(0.996264)" xlink:href="#CMMI12-58"/>
       <use transform="translate(72.787654 0)scale(0.996264)" xlink:href="#CMR17-50"/>
      </g>
     </g>
    </g>
    <g id="ytick_3">
     <g id="line2d_6">
      <g>
       <use style="stroke:#000000;stroke-width:0.8;" x="55.024436" xlink:href="#mb2f8362dbf" y="92.513318"/>
      </g>
     </g>
     <g id="text_7">
      <!-- $\mathdefault{0.4}$ -->
      <g transform="translate(31.820325 97.010332)scale(0.13 -0.13)">
       <use transform="scale(0.996264)" xlink:href="#CMR17-48"/>
       <use transform="translate(45.690477 0)scale(0.996264)" xlink:href="#CMMI12-58"/>
       <use transform="translate(72.787654 0)scale(0.996264)" xlink:href="#CMR17-52"/>
      </g>
     </g>
    </g>
    <g id="ytick_4">
     <g id="line2d_7">
      <g>
       <use style="stroke:#000000;stroke-width:0.8;" x="55.024436" xlink:href="#mb2f8362dbf" y="55.521863"/>
      </g>
     </g>
     <g id="text_8">
      <!-- $\mathdefault{0.6}$ -->
      <g transform="translate(31.820325 60.018877)scale(0.13 -0.13)">
       <use transform="scale(0.996264)" xlink:href="#CMR17-48"/>
       <use transform="translate(45.690477 0)scale(0.996264)" xlink:href="#CMMI12-58"/>
       <use transform="translate(72.787654 0)scale(0.996264)" xlink:href="#CMR17-54"/>
      </g>
     </g>
    </g>
    <g id="ytick_5">
     <g id="line2d_8">
      <g>
       <use style="stroke:#000000;stroke-width:0.8;" x="55.024436" xlink:href="#mb2f8362dbf" y="18.530408"/>
      </g>
     </g>
     <g id="text_9">
      <!-- $\mathdefault{0.8}$ -->
      <g transform="translate(31.820325 23.027422)scale(0.13 -0.13)">
       <use transform="scale(0.996264)" xlink:href="#CMR17-48"/>
       <use transform="translate(45.690477 0)scale(0.996264)" xlink:href="#CMMI12-58"/>
       <use transform="translate(72.787654 0)scale(0.996264)" xlink:href="#CMR17-56"/>
      </g>
     </g>
    </g>
    <g id="text_10">
     <!-- Intensity $\times 10^\mathrm{12}$ (arb. units) -->
     <g transform="translate(24.582466 167.681398)rotate(-90)scale(0.13 -0.13)">
      <defs>
       <path d="M 19.703125 60.90625 
C 19.703125 65.390625 20.90625 65.390625 28.09375 65.390625 
L 28.09375 68 
C 24.90625 67.796875 19.796875 67.796875 16.40625 67.796875 
C 13 67.796875 7.90625 67.796875 4.703125 68 
L 4.703125 65.390625 
C 11.90625 65.390625 13.09375 65.390625 13.09375 60.90625 
L 13.09375 7.078125 
C 13.09375 2.59375 11.90625 2.59375 4.703125 2.59375 
L 4.703125 0 
C 7.90625 0.1875 13 0.1875 16.40625 0.1875 
C 19.796875 0.1875 24.90625 0.1875 28.09375 0 
L 28.09375 2.59375 
C 20.90625 2.59375 19.703125 2.59375 19.703125 7.078125 
z
" id="CMR17-73"/>
       <path d="M 30.90625 42 
C 30.90625 43.796875 30.796875 43.890625 30.203125 43.890625 
C 29.796875 43.890625 29.703125 43.796875 28.5 42.296875 
C 28.203125 41.890625 27.296875 40.890625 27 40.5 
C 23.796875 43.890625 19.296875 44 17.59375 44 
C 6.5 44 2.5 38.1875 2.5 32.390625 
C 2.5 23.390625 12.703125 21.296875 15.59375 20.6875 
C 21.90625 19.390625 24.09375 19 26.203125 17.1875 
C 27.5 16 29.703125 13.796875 29.703125 10.1875 
C 29.703125 6 27.296875 0.59375 18.09375 0.59375 
C 9.40625 0.59375 6.296875 7.1875 4.5 16 
C 4.203125 17.390625 4.203125 17.5 3.40625 17.5 
C 2.59375 17.5 2.5 17.390625 2.5 15.390625 
L 2.5 1 
C 2.5 -0.8125 2.59375 -0.90625 3.203125 -0.90625 
C 3.703125 -0.90625 3.796875 -0.8125 4.296875 0 
C 4.90625 0.890625 6.40625 3.296875 7 4.296875 
C 9 1.59375 12.5 -1 18.09375 -1 
C 28 -1 33.296875 4.390625 33.296875 12.1875 
C 33.296875 17.296875 30.59375 20 29.296875 21.1875 
C 26.296875 24.296875 22.796875 25 18.59375 25.796875 
C 13.09375 27 6.09375 28.390625 6.09375 34.5 
C 6.09375 37.09375 7.5 42.59375 17.59375 42.59375 
C 28.296875 42.59375 28.90625 32.59375 29.09375 29.390625 
C 29.203125 28.890625 29.703125 28.796875 30 28.796875 
C 30.90625 28.796875 30.90625 29.09375 30.90625 30.796875 
z
" id="CMR17-115"/>
       <path d="M 15.5 61.890625 
C 15.5 64.09375 13.703125 66 11.40625 66 
C 9.203125 66 7.296875 64.1875 7.296875 61.890625 
C 7.296875 59.6875 9.09375 57.796875 11.40625 57.796875 
C 13.59375 57.796875 15.5 59.59375 15.5 61.890625 
z
M 3.796875 42.890625 
L 3.796875 40.296875 
C 9.40625 40.296875 10.203125 39.6875 10.203125 34.859375 
L 10.203125 6.921875 
C 10.203125 3.09375 9.796875 2.59375 3.40625 2.59375 
L 3.40625 0 
C 5.796875 0.1875 10.09375 0.1875 12.59375 0.1875 
C 15 0.1875 19.09375 0.1875 21.40625 0 
L 21.40625 2.59375 
C 15.5 2.59375 15.296875 3.203125 15.296875 6.8125 
L 15.296875 44 
z
" id="CMR17-105"/>
       <path d="M 39 34.109375 
C 41.5 40.296875 46 40.390625 47.40625 40.390625 
L 47.40625 43 
C 45.5 42.890625 43 42.796875 41.09375 42.796875 
C 39 42.796875 35.703125 42.796875 33.703125 43 
L 33.703125 40.390625 
C 37.5 40.09375 37.59375 37.25 37.59375 36.4375 
C 37.59375 35.4375 37.40625 34.921875 36.90625 33.71875 
L 26 6.390625 
L 14.09375 35.9375 
C 13.59375 37.15625 13.59375 37.859375 13.59375 37.96875 
C 13.59375 40.1875 15.90625 40.390625 18.296875 40.390625 
L 18.296875 43 
C 15.90625 42.796875 11.59375 42.796875 9.09375 42.796875 
C 6.40625 42.796875 3.203125 42.796875 1 43 
L 1 40.390625 
C 6.40625 40.390625 7 39.890625 8.296875 36.640625 
L 23.203125 -0.484375 
C 18.703125 -12.421875 16.09375 -19.40625 9.796875 -19.40625 
C 8.703125 -19.40625 6.203125 -19.109375 4.40625 -17.28125 
C 6.703125 -17.078125 7.703125 -15.65625 7.703125 -13.9375 
C 7.703125 -12.21875 6.5 -10.703125 4.5 -10.703125 
C 2.296875 -10.703125 1.203125 -12.21875 1.203125 -14.046875 
C 1.203125 -18.09375 5.296875 -21 9.796875 -21 
C 15.59375 -21 19.203125 -15.359375 21.203125 -10.296875 
z
" id="CMR17-121"/>
       <path d="M 38.90625 27.734375 
L 18.90625 47.59375 
C 17.703125 48.796875 17.5 49 16.703125 49 
C 15.703125 49 14.703125 48.09375 14.703125 47 
C 14.703125 46.296875 14.90625 46.09375 16 45 
L 36 24.9375 
L 16 4.890625 
C 14.90625 3.796875 14.703125 3.59375 14.703125 2.890625 
C 14.703125 1.796875 15.703125 0.890625 16.703125 0.890625 
C 17.5 0.890625 17.703125 1.09375 18.90625 2.296875 
L 38.796875 22.15625 
L 59.5 1.484375 
C 59.703125 1.390625 60.40625 0.890625 61 0.890625 
C 62.203125 0.890625 63 1.796875 63 2.890625 
C 63 3.09375 63 3.484375 62.703125 3.984375 
C 62.59375 4.1875 46.703125 19.859375 41.703125 24.9375 
L 60 43.203125 
C 60.5 43.796875 62 45.09375 62.5 45.703125 
C 62.59375 45.890625 63 46.296875 63 47 
C 63 48.09375 62.203125 49 61 49 
C 60.203125 49 59.796875 48.59375 58.703125 47.5 
z
" id="CMSY10-2"/>
       <path d="M 26.59375 63.796875 
C 26.59375 65.890625 26.5 66 25.09375 66 
C 21.203125 61.359375 15.296875 59.890625 9.703125 59.6875 
C 9.40625 59.6875 8.90625 59.6875 8.796875 59.5 
C 8.703125 59.296875 8.703125 59.09375 8.703125 57 
C 11.796875 57 17 57.59375 21 59.984375 
L 21 7.296875 
C 21 3.796875 20.796875 2.59375 12.203125 2.59375 
L 9.203125 2.59375 
L 9.203125 0 
C 14 0.09375 19 0.1875 23.796875 0.1875 
C 28.59375 0.1875 33.59375 0.09375 38.40625 0 
L 38.40625 2.59375 
L 35.40625 2.59375 
C 26.796875 2.59375 26.59375 3.6875 26.59375 7.296875 
z
" id="CMR17-49"/>
       <path d="M 15 23.703125 
C 15 33.34375 19.09375 42.390625 26.59375 42.390625 
C 27.296875 42.390625 28 42.296875 28.703125 41.984375 
C 28.703125 41.984375 26.5 41.28125 26.5 38.671875 
C 26.5 36.265625 28.40625 35.265625 29.90625 35.265625 
C 31.09375 35.265625 33.296875 35.96875 33.296875 38.78125 
C 33.296875 41.984375 30.09375 44 26.703125 44 
C 19.09375 44 15.796875 36.5625 14.796875 33.046875 
L 14.703125 33.046875 
L 14.703125 44 
L 3.09375 42.890625 
L 3.09375 40.28125 
C 9 40.28125 9.90625 39.6875 9.90625 34.859375 
L 9.90625 6.921875 
C 9.90625 3.09375 9.5 2.59375 3.09375 2.59375 
L 3.09375 0 
C 5.5 0.1875 10.09375 0.1875 12.703125 0.1875 
C 15.59375 0.1875 20.703125 0.1875 23.40625 0 
L 23.40625 2.59375 
C 16.203125 2.59375 15 2.59375 15 7.109375 
z
" id="CMR17-114"/>
       <path d="M 15 69 
L 3.09375 67.890625 
L 3.09375 65.296875 
C 9 65.296875 9.90625 64.703125 9.90625 60.046875 
L 9.90625 -0.203125 
L 11.703125 -0.203125 
L 14.59375 6.953125 
C 17.5 2.203125 21.796875 -1 27.59375 -1 
C 37.59375 -1 47.703125 7.859375 47.703125 21.59375 
C 47.703125 34.515625 38.703125 44 28.59375 44 
C 22.40625 44 18 40.671875 15 36.734375 
z
M 15.203125 31.59375 
C 15.203125 33.40625 15.203125 33.703125 16.59375 35.828125 
C 20.5 41.890625 26.09375 42.390625 28 42.390625 
C 31 42.390625 41.296875 40.78125 41.296875 21.6875 
C 41.296875 1.703125 29.5 0.59375 27.09375 0.59375 
C 24 0.59375 19.5 1.796875 16.296875 7.65625 
C 15.203125 9.578125 15.203125 9.78125 15.203125 11.59375 
z
" id="CMR17-98"/>
       <path d="M 16.59375 4.09375 
C 16.59375 6.59375 14.59375 8.1875 12.5 8.1875 
C 10.5 8.1875 8.40625 6.59375 8.40625 4.09375 
C 8.40625 1.59375 10.40625 0 12.5 0 
C 14.5 0 16.59375 1.59375 16.59375 4.09375 
z
" id="CMR17-46"/>
       <path d="M 29.40625 42.890625 
L 29.40625 40.296875 
C 35.296875 40.296875 36.203125 39.6875 36.203125 34.828125 
L 36.203125 16.453125 
C 36.203125 7.96875 31.703125 0.59375 24.296875 0.59375 
C 16.09375 0.59375 15.40625 5.546875 15.40625 10.796875 
L 15.40625 44 
L 3.296875 42.890625 
L 3.296875 40.296875 
C 7.296875 40.296875 10 40.296875 10.09375 36.25 
L 10.09375 16.859375 
C 10.09375 10.09375 10.09375 5.75 12.703125 2.921875 
C 14 1.609375 16.5 -1 23.703125 -1 
C 32.203125 -1 35.5 6.25 36.296875 8.375 
L 36.40625 8.375 
L 36.40625 -1 
L 48.296875 -0.203125 
L 48.296875 2.40625 
C 42.40625 2.40625 41.5 3.015625 41.5 7.859375 
L 41.5 44 
z
" id="CMR17-117"/>
      </defs>
      <use transform="scale(0.996264)" xlink:href="#CMR17-73"/>
      <use transform="translate(32.638409 0)scale(0.996264)" xlink:href="#CMR17-110"/>
      <use transform="translate(80.931325 0)scale(0.996264)" xlink:href="#CMR17-116"/>
      <use transform="translate(116.212093 0)scale(0.996264)" xlink:href="#CMR17-101"/>
      <use transform="translate(156.697753 0)scale(0.996264)" xlink:href="#CMR17-110"/>
      <use transform="translate(207.593123 0)scale(0.996264)" xlink:href="#CMR17-115"/>
      <use transform="translate(243.394461 0)scale(0.996264)" xlink:href="#CMR17-105"/>
      <use transform="translate(268.265519 0)scale(0.996264)" xlink:href="#CMR17-116"/>
      <use transform="translate(300.943833 0)scale(0.996264)" xlink:href="#CMR17-121"/>
      <use transform="translate(379.312715 0)scale(0.996264)" xlink:href="#CMSY10-2"/>
      <use transform="translate(456.800183 0)scale(0.996264)" xlink:href="#CMR17-49"/>
      <use transform="translate(502.49066 0)scale(0.996264)" xlink:href="#CMR17-48"/>
      <use transform="translate(548.181137 36.153639)scale(0.697382)" xlink:href="#CMR17-49"/>
      <use transform="translate(580.164319 36.153639)scale(0.697382)" xlink:href="#CMR17-50"/>
      <use transform="translate(642.721599 0)scale(0.996264)" xlink:href="#CMR17-40"/>
      <use transform="translate(678.002367 0)scale(0.996264)" xlink:href="#CMR17-97"/>
      <use transform="translate(723.692844 0)scale(0.996264)" xlink:href="#CMR17-114"/>
      <use transform="translate(758.973612 0)scale(0.996264)" xlink:href="#CMR17-98"/>
      <use transform="translate(809.868982 0)scale(0.996264)" xlink:href="#CMR17-46"/>
      <use transform="translate(875.225701 0)scale(0.996264)" xlink:href="#CMR17-117"/>
      <use transform="translate(926.121071 0)scale(0.996264)" xlink:href="#CMR17-110"/>
      <use transform="translate(977.01644 0)scale(0.996264)" xlink:href="#CMR17-105"/>
      <use transform="translate(1001.887499 0)scale(0.996264)" xlink:href="#CMR17-116"/>
      <use transform="translate(1037.168267 0)scale(0.996264)" xlink:href="#CMR17-115"/>
      <use transform="translate(1072.969604 0)scale(0.996264)" xlink:href="#CMR17-41"/>
     </g>
    </g>
   </g>
   <g id="line2d_9">
    <path clip-path="url(#p63e0db9dc0)" d="M -1 166.34811 
L 20.017247 166.130624 
L 29.502006 165.833165 
L 35.081275 165.450681 
L 38.707801 164.993336 
L 41.218472 164.476303 
L 43.171216 163.866312 
L 44.844997 163.096057 
L 46.239815 162.166968 
L 47.355669 161.124678 
L 48.192559 160.080252 
L 49.029449 158.707728 
L 49.86634 156.859377 
L 50.70323 154.298965 
L 51.261157 152.01308 
L 51.819084 149.066742 
L 52.377011 145.20774 
L 52.934938 140.075922 
L 53.492865 133.172376 
L 54.050792 123.868176 
L 54.608719 111.574104 
L 56.2825 67.385707 
L 56.561464 64.291233 
L 56.840427 64.038189 
L 57.119391 66.66461 
L 57.677317 78.717971 
L 59.072135 117.047196 
L 59.909025 132.474564 
L 60.745916 142.382496 
L 61.582806 148.77438 
L 62.419697 153.027626 
L 63.256587 155.960722 
L 64.093478 158.052599 
L 64.930368 159.589638 
L 65.767259 160.748612 
L 66.883112 161.894873 
L 67.998966 162.732761 
L 69.393784 163.495782 
L 71.067565 164.141992 
L 73.299273 164.724384 
L 76.088907 165.19288 
L 79.994396 165.590587 
L 85.573666 165.905426 
L 94.221534 166.1458 
L 109.564526 166.3195 
L 142.76118 166.429506 
L 147.224596 166.435922 
L 147.224596 166.435922 
" style="fill:none;stroke:#008000;stroke-dasharray:3.7,1.6;stroke-dashoffset:0;"/>
   </g>
   <g id="line2d_10">
    <path clip-path="url(#p63e0db9dc0)" d="M -1 166.444072 
L 35.715702 166.283032 
L 47.153205 166.03725 
L 53.011438 165.702703 
L 56.359 165.315926 
L 58.869672 164.804068 
L 60.543453 164.251922 
L 61.93827 163.555029 
L 63.054124 162.733479 
L 63.891014 161.86833 
L 64.727905 160.668167 
L 65.564795 158.941789 
L 66.122722 157.344553 
L 66.680649 155.22471 
L 67.238576 152.384336 
L 67.796503 148.584919 
L 68.35443 143.5982 
L 69.191321 133.745269 
L 70.865101 112.287773 
L 71.423028 108.884474 
L 71.701992 108.512598 
L 71.980955 109.079365 
L 72.259919 110.547591 
L 72.817846 115.76608 
L 73.9337 130.759357 
L 74.77059 141.266968 
L 75.607481 149.033534 
L 76.444371 154.199763 
L 77.281262 157.532743 
L 78.118152 159.717711 
L 78.955042 161.201967 
L 79.791933 162.249548 
L 80.907787 163.224278 
L 82.023641 163.898057 
L 83.418458 164.48303 
L 85.371203 165.019287 
L 87.881874 165.443252 
L 91.508399 165.794138 
L 96.808705 166.059519 
L 105.735537 166.258631 
L 123.5892 166.39401 
L 171.012992 166.468319 
L 182.450495 166.473785 
L 182.450495 166.473785 
" style="fill:none;stroke:#008000;stroke-dasharray:3.7,1.6;stroke-dashoffset:0;"/>
   </g>
   <g id="line2d_11">
    <path clip-path="url(#p63e0db9dc0)" d="M -1 166.470154 
L 46.641634 166.329303 
L 57.52121 166.10175 
L 62.542552 165.79864 
L 65.611151 165.401956 
L 67.563895 164.942981 
L 68.958712 164.412246 
L 70.074566 163.76456 
L 70.911457 163.059086 
L 71.748347 162.044186 
L 72.306274 161.101665 
L 72.864201 159.838818 
L 73.422128 158.112763 
L 73.980055 155.721897 
L 74.537982 152.415708 
L 75.095909 147.966953 
L 75.9328 139.212965 
L 77.048654 127.538199 
L 77.327617 125.753589 
L 77.60658 124.760882 
L 77.885544 124.646409 
L 78.164507 125.420299 
L 78.443471 127.014771 
L 79.001398 132.082994 
L 80.675179 149.765996 
L 81.512069 155.356418 
L 82.069996 157.849555 
L 82.627923 159.647947 
L 83.464814 161.484077 
L 84.301704 162.681039 
L 85.138595 163.498375 
L 86.254448 164.236239 
L 87.649266 164.830624 
L 89.323047 165.279234 
L 91.554755 165.642049 
L 94.902316 165.94366 
L 100.202623 166.174148 
L 109.966345 166.339966 
L 132.00446 166.441183 
L 174.964836 166.479093 
L 174.964836 166.479093 
" style="fill:none;stroke:#008000;stroke-dasharray:3.7,1.6;stroke-dashoffset:0;"/>
   </g>
   <g id="line2d_12">
    <path clip-path="url(#p63e0db9dc0)" d="M 0.201862 166.479159 
L 59.621084 166.345747 
L 70.50066 166.12763 
L 75.522003 165.820705 
L 78.311638 165.448499 
L 80.264382 164.966864 
L 81.659199 164.383112 
L 82.775053 163.632495 
L 83.611944 162.766997 
L 84.169871 161.94864 
L 84.727798 160.826698 
L 85.285725 159.241626 
L 85.843652 156.944506 
L 86.401579 153.580914 
L 86.959506 148.741691 
L 87.517433 142.161183 
L 89.191214 118.807833 
L 89.470177 116.66657 
L 89.74914 115.653898 
L 90.028104 115.863409 
L 90.307067 117.275565 
L 90.864994 123.102641 
L 92.817739 149.683725 
L 93.375666 154.245619 
L 93.933593 157.399125 
L 94.49152 159.553059 
L 95.049447 161.044689 
L 95.886337 162.523401 
L 96.723228 163.470306 
L 97.560118 164.112688 
L 98.675972 164.691927 
L 100.070789 165.1596 
L 102.023534 165.559306 
L 104.813169 165.878858 
L 109.276584 166.131237 
L 117.087562 166.31101 
L 133.825371 166.425276 
L 179.296419 166.479088 
L 179.296419 166.479088 
" style="fill:none;stroke:#008000;stroke-dasharray:3.7,1.6;stroke-dashoffset:0;"/>
   </g>
   <g id="line2d_13">
    <path clip-path="url(#p63e0db9dc0)" d="M 1.571251 166.483743 
L 67.12767 166.356196 
L 77.449319 166.142733 
L 81.912735 165.85873 
L 84.423406 165.515963 
L 86.097187 165.104688 
L 87.492004 164.522319 
L 88.328895 163.974552 
L 89.165785 163.157535 
L 89.723712 162.368018 
L 90.281639 161.266426 
L 90.839566 159.691772 
L 91.397493 157.415472 
L 91.95542 154.165828 
L 92.513347 149.732994 
L 93.629201 138.069824 
L 94.466091 130.479022 
L 94.745055 129.070309 
L 95.024018 128.44865 
L 95.302982 128.666516 
L 95.581945 129.705409 
L 96.139872 133.845165 
L 98.37158 155.112438 
L 98.929507 158.085338 
L 99.487434 160.15517 
L 100.045361 161.588514 
L 100.882252 162.988835 
L 101.719142 163.864871 
L 102.556033 164.447028 
L 103.671886 164.962468 
L 105.066704 165.371496 
L 107.019448 165.715554 
L 110.088047 166.005514 
L 115.109389 166.222145 
L 124.594148 166.370463 
L 148.02708 166.457239 
L 188.476786 166.483707 
L 188.476786 166.483707 
" style="fill:none;stroke:#008000;stroke-dasharray:3.7,1.6;stroke-dashoffset:0;"/>
   </g>
   <g id="line2d_14">
    <path clip-path="url(#p63e0db9dc0)" d="M 23.471358 166.469602 
L 72.847895 166.328849 
L 84.285397 166.100753 
L 89.585704 165.794641 
L 92.654302 165.420373 
L 94.607046 165.000371 
L 96.280827 164.406771 
L 97.396681 163.788448 
L 98.233572 163.122892 
L 99.070462 162.174531 
L 99.907352 160.755077 
L 100.465279 159.376022 
L 101.023206 157.43241 
L 101.581133 154.595581 
L 102.13906 150.338256 
L 102.696987 143.915797 
L 103.254914 134.563047 
L 104.091805 115.076334 
L 104.928695 95.420936 
L 105.207659 91.142757 
L 105.486622 88.814562 
L 105.765586 88.69136 
L 106.044549 90.786894 
L 106.602476 100.515321 
L 108.276257 139.125384 
L 108.834184 147.096865 
L 109.392111 152.45304 
L 109.950038 155.997696 
L 110.507965 158.384927 
L 111.065892 160.045849 
L 111.902782 161.718844 
L 112.739673 162.812678 
L 113.576563 163.567577 
L 114.692417 164.258571 
L 116.087235 164.824525 
L 117.761015 165.259111 
L 120.271687 165.650201 
L 123.898212 165.95439 
L 129.756445 166.186309 
L 140.357058 166.346896 
L 164.905844 166.445032 
L 187.78085 166.469582 
L 187.78085 166.469582 
" style="fill:none;stroke:#008000;stroke-dasharray:3.7,1.6;stroke-dashoffset:0;"/>
   </g>
   <g id="line2d_15">
    <path clip-path="url(#p63e0db9dc0)" d="M 12.777694 166.477795 
L 78.055149 166.343809 
L 90.608506 166.123037 
L 96.187776 165.830613 
L 99.535338 165.452241 
L 101.767046 164.986378 
L 103.440826 164.395818 
L 104.55668 163.785149 
L 105.393571 163.132971 
L 106.230461 162.213335 
L 107.067352 160.860501 
L 107.625279 159.57747 
L 108.183206 157.828902 
L 108.741133 155.409264 
L 109.29906 152.053659 
L 109.856987 147.49101 
L 110.693877 138.190313 
L 112.088694 121.227616 
L 112.646621 117.820529 
L 112.925585 117.479889 
L 113.204548 118.108186 
L 113.483512 119.655682 
L 114.041439 124.979596 
L 115.994183 148.257252 
L 116.831074 154.353916 
L 117.389001 157.069397 
L 117.946928 159.026465 
L 118.783818 161.021708 
L 119.620709 162.320812 
L 120.457599 163.207937 
L 121.573453 164.009842 
L 122.96827 164.657482 
L 124.642051 165.147997 
L 126.873759 165.546354 
L 130.221321 165.879145 
L 135.242664 166.12582 
L 144.169495 166.307281 
L 163.139012 166.423061 
L 212.794512 166.477723 
L 212.794512 166.477723 
" style="fill:none;stroke:#008000;stroke-dasharray:3.7,1.6;stroke-dashoffset:0;"/>
   </g>
   <g id="line2d_16">
    <path clip-path="url(#p63e0db9dc0)" d="M 45.339924 166.495414 
L 122.612809 166.385157 
L 125.402444 166.190941 
L 126.518298 165.943156 
L 127.355188 165.574606 
L 128.471042 164.76828 
L 129.307933 164.157131 
L 129.86586 163.960019 
L 130.423787 164.025512 
L 130.981714 164.328446 
L 132.934458 165.716817 
L 134.050312 166.09028 
L 135.445129 166.283032 
L 138.513728 166.413068 
L 147.440559 166.476897 
L 206.580818 166.495233 
L 214.670759 166.495414 
L 214.670759 166.495414 
" style="fill:none;stroke:#008000;stroke-dasharray:3.7,1.6;stroke-dashoffset:0;"/>
   </g>
   <g id="line2d_17">
    <path clip-path="url(#p63e0db9dc0)" d="M 68.261179 166.49141 
L 125.16973 166.374425 
L 130.470036 166.182485 
L 132.701744 165.929049 
L 134.096562 165.571199 
L 134.933452 165.161648 
L 135.491379 164.715558 
L 136.049306 164.014266 
L 136.607233 162.881422 
L 137.16516 161.091026 
L 137.723087 158.525936 
L 138.838941 152.954809 
L 139.117904 152.241926 
L 139.396868 152.051605 
L 139.675831 152.411632 
L 139.954795 153.269791 
L 140.512722 155.970536 
L 141.349612 160.292597 
L 141.907539 162.350463 
L 142.465466 163.68431 
L 143.023393 164.510369 
L 143.860284 165.215869 
L 144.697174 165.602489 
L 146.091992 165.944037 
L 148.323699 166.188643 
L 152.229188 166.348215 
L 161.434983 166.446169 
L 195.747492 166.48857 
L 210.253593 166.491384 
L 210.253593 166.491384 
" style="fill:none;stroke:#008000;stroke-dasharray:3.7,1.6;stroke-dashoffset:0;"/>
   </g>
   <g id="line2d_18">
    <path clip-path="url(#p63e0db9dc0)" d="M 76.819028 166.469638 
L 124.24282 166.327291 
L 135.122396 166.097418 
L 140.143739 165.791179 
L 143.212337 165.389733 
L 145.165082 164.923723 
L 146.559899 164.382176 
L 147.675753 163.716503 
L 148.512643 162.984237 
L 149.349534 161.914764 
L 149.907461 160.900974 
L 150.465388 159.504479 
L 151.023315 157.509502 
L 151.581242 154.547937 
L 152.139169 150.015978 
L 152.697096 143.053638 
L 153.255023 132.812449 
L 154.091913 111.783672 
L 154.928803 92.428321 
L 155.207767 89.061899 
L 155.48673 88.028184 
L 155.765694 89.451993 
L 156.044657 93.161893 
L 156.602584 105.553999 
L 157.718438 133.764552 
L 158.276365 143.723764 
L 158.834292 150.456265 
L 159.392219 154.833478 
L 159.950146 157.698911 
L 160.508073 159.634879 
L 161.066 160.994232 
L 161.902891 162.380406 
L 162.739781 163.298673 
L 163.855635 164.10985 
L 164.971489 164.64611 
L 166.64527 165.164851 
L 168.876978 165.574493 
L 171.945576 165.887518 
L 176.687955 166.129972 
L 185.05686 166.308146 
L 202.910523 166.423139 
L 233.875469 166.469479 
L 233.875469 166.469479 
" style="fill:none;stroke:#008000;stroke-dasharray:3.7,1.6;stroke-dashoffset:0;"/>
   </g>
   <g id="line2d_19">
    <path clip-path="url(#p63e0db9dc0)" d="M 83.72298 166.479794 
L 138.399823 166.349117 
L 148.442508 166.129711 
L 152.905924 165.831121 
L 155.416596 165.467805 
L 157.090376 165.028641 
L 158.20623 164.556253 
L 159.043121 164.031785 
L 159.880011 163.257194 
L 160.437938 162.514151 
L 160.995865 161.478512 
L 161.553792 159.981476 
L 162.111719 157.743588 
L 162.669646 154.339569 
L 163.227573 149.246177 
L 163.7855 142.107038 
L 165.459281 117.822157 
L 165.738244 116.318662 
L 166.017208 116.229139 
L 166.296171 117.56337 
L 166.854098 123.802863 
L 168.527879 148.864732 
L 169.085806 154.078563 
L 169.643733 157.571806 
L 170.20166 159.868016 
L 170.759587 161.401429 
L 171.317514 162.459834 
L 172.154405 163.517918 
L 172.991295 164.205285 
L 174.107149 164.802739 
L 175.501966 165.268583 
L 177.454711 165.653903 
L 180.244346 165.952383 
L 184.707761 166.181078 
L 193.076666 166.345695 
L 212.046183 166.444099 
L 248.032472 166.47978 
L 248.032472 166.47978 
" style="fill:none;stroke:#008000;stroke-dasharray:3.7,1.6;stroke-dashoffset:0;"/>
   </g>
   <g id="line2d_20">
    <path clip-path="url(#p63e0db9dc0)" d="M 69.353948 166.486091 
L 144.953052 166.362239 
L 155.832628 166.147993 
L 160.575007 165.847704 
L 163.085678 165.499474 
L 164.759459 165.083322 
L 166.154276 164.498433 
L 166.991167 163.954337 
L 167.828057 163.156386 
L 168.664948 161.93302 
L 169.222875 160.741603 
L 169.780802 159.109698 
L 170.338729 156.901782 
L 171.175619 152.338225 
L 172.8494 141.637326 
L 173.407327 139.841731 
L 173.686291 139.631085 
L 173.965254 139.910405 
L 174.244218 140.659231 
L 174.802144 143.325318 
L 177.033852 157.078831 
L 177.870743 160.102696 
L 178.707633 162.003784 
L 179.544524 163.201688 
L 180.381414 163.984627 
L 181.497268 164.660352 
L 182.892086 165.180487 
L 184.565866 165.557452 
L 187.076538 165.878346 
L 190.982027 166.126727 
L 197.956114 166.308863 
L 212.741178 166.42393 
L 258.49119 166.480897 
L 277.73967 166.486044 
L 277.73967 166.486044 
" style="fill:none;stroke:#008000;stroke-dasharray:3.7,1.6;stroke-dashoffset:0;"/>
   </g>
   <g id="line2d_21">
    <path clip-path="url(#p63e0db9dc0)" d="M 87.223366 166.491606 
L 163.380397 166.373873 
L 170.354484 166.176565 
L 173.423083 165.891703 
L 175.096863 165.537074 
L 176.212717 165.0904 
L 177.049608 164.516306 
L 177.607535 163.929357 
L 178.165462 163.088363 
L 178.723389 161.90018 
L 179.560279 159.345622 
L 181.23406 153.56557 
L 181.513024 153.107952 
L 181.791987 152.930209 
L 182.070951 153.047301 
L 182.349914 153.449349 
L 182.907841 154.957371 
L 184.860585 161.754013 
L 185.418512 162.982981 
L 185.976439 163.855616 
L 186.81333 164.697255 
L 187.65022 165.200913 
L 188.766074 165.599829 
L 190.439855 165.923225 
L 192.950526 166.156584 
L 197.692906 166.330703 
L 208.293518 166.43705 
L 244.279807 166.485624 
L 276.360608 166.491601 
L 276.360608 166.491601 
" style="fill:none;stroke:#008000;stroke-dasharray:3.7,1.6;stroke-dashoffset:0;"/>
   </g>
   <g id="line2d_22">
    <path clip-path="url(#p63e0db9dc0)" d="M 111.870664 166.489422 
L 180.774645 166.36941 
L 188.585623 166.170132 
L 191.933184 165.902381 
L 193.885929 165.558819 
L 195.280746 165.091211 
L 196.117637 164.621524 
L 196.954527 163.877626 
L 197.512454 163.123728 
L 198.070381 162.043542 
L 198.628308 160.502587 
L 199.186235 158.388158 
L 200.302089 152.834634 
L 200.860016 150.365917 
L 201.138979 149.538741 
L 201.417943 149.093804 
L 201.696906 149.07519 
L 201.97587 149.484775 
L 202.533797 151.390845 
L 204.486541 160.424303 
L 205.044468 161.987987 
L 205.602395 163.085048 
L 206.439286 164.14415 
L 207.276176 164.786749 
L 208.39203 165.304588 
L 209.786847 165.677672 
L 212.018555 165.9917 
L 215.64508 166.218928 
L 222.340204 166.369118 
L 238.79905 166.456707 
L 289 166.489065 
L 289 166.489065 
" style="fill:none;stroke:#008000;stroke-dasharray:3.7,1.6;stroke-dashoffset:0;"/>
   </g>
   <g id="line2d_23">
    <path clip-path="url(#p63e0db9dc0)" d="M 126.224917 166.481685 
L 188.15481 166.352412 
L 198.755423 166.137146 
L 203.497802 165.841296 
L 206.287437 165.456911 
L 207.961218 165.037921 
L 209.356035 164.460234 
L 210.471889 163.710956 
L 211.30878 162.843508 
L 211.866706 162.024216 
L 212.424633 160.907752 
L 212.98256 159.35122 
L 213.540487 157.147928 
L 214.098414 154.039656 
L 214.656341 149.809636 
L 216.609086 132.228956 
L 216.888049 131.358582 
L 217.167013 131.339797 
L 217.445976 132.174517 
L 218.003903 135.999591 
L 219.956648 153.96044 
L 220.514574 157.091168 
L 221.072501 159.311223 
L 221.630428 160.87933 
L 222.467319 162.446493 
L 223.304209 163.447694 
L 224.1411 164.12118 
L 225.256954 164.72135 
L 226.651771 165.198763 
L 228.604516 165.599857 
L 231.39415 165.914399 
L 235.857566 166.157676 
L 243.668544 166.327156 
L 260.96428 166.434085 
L 289 166.473072 
L 289 166.473072 
" style="fill:none;stroke:#008000;stroke-dasharray:3.7,1.6;stroke-dashoffset:0;"/>
   </g>
   <g id="line2d_24">
    <path clip-path="url(#p63e0db9dc0)" d="M 118.111134 166.493051 
L 210.727011 166.378055 
L 217.701098 166.184338 
L 220.769696 165.902988 
L 222.443477 165.555009 
L 223.559331 165.127881 
L 224.396221 164.606947 
L 225.233112 163.804489 
L 226.070002 162.624124 
L 228.30171 158.813556 
L 228.859637 158.507515 
L 229.138601 158.547287 
L 229.696528 158.999381 
L 230.254455 159.841399 
L 232.207199 163.306671 
L 233.044089 164.276334 
L 233.88098 164.913986 
L 234.996834 165.431435 
L 236.391651 165.791741 
L 238.623359 166.07958 
L 242.249884 166.276029 
L 249.502935 166.404056 
L 269.867269 166.472962 
L 289 166.485422 
L 289 166.485422 
" style="fill:none;stroke:#008000;stroke-dasharray:3.7,1.6;stroke-dashoffset:0;"/>
   </g>
   <g id="line2d_25">
    <path clip-path="url(#p63e0db9dc0)" d="M 156.881114 166.482885 
L 214.068629 166.356213 
L 223.553387 166.14127 
L 227.737839 165.844863 
L 229.969547 165.504406 
L 231.643328 165.035494 
L 232.759182 164.507927 
L 233.596072 163.89667 
L 234.432963 162.949756 
L 234.99089 161.99877 
L 235.548817 160.620418 
L 236.106744 158.566803 
L 236.664671 155.486264 
L 237.222598 151.009318 
L 238.059488 141.634021 
L 238.896379 131.992186 
L 239.175342 129.820066 
L 239.454306 128.571101 
L 239.733269 128.381131 
L 240.012233 129.271283 
L 240.291196 131.143619 
L 240.849123 136.985651 
L 241.964977 150.071126 
L 242.522904 154.815822 
L 243.080831 158.115432 
L 243.638758 160.320085 
L 244.196685 161.79513 
L 244.754612 162.807169 
L 245.591502 163.807744 
L 246.428393 164.448825 
L 247.544247 164.998525 
L 248.939064 165.421159 
L 250.891808 165.765898 
L 253.960407 166.047374 
L 258.98175 166.250985 
L 269.024435 166.390214 
L 289 166.4587 
L 289 166.4587 
" style="fill:none;stroke:#008000;stroke-dasharray:3.7,1.6;stroke-dashoffset:0;"/>
   </g>
   <g id="line2d_26">
    <path clip-path="url(#p63e0db9dc0)" d="M 188.325296 166.491199 
L 249.976226 166.374755 
L 256.113423 166.170197 
L 258.624094 165.899416 
L 260.018911 165.573754 
L 261.134765 165.07808 
L 261.971656 164.402089 
L 262.529583 163.673229 
L 263.08751 162.579236 
L 263.645437 160.986303 
L 265.319218 154.902304 
L 265.598181 154.522639 
L 265.877145 154.542378 
L 266.156108 154.958746 
L 266.714035 156.713412 
L 268.108852 161.927434 
L 268.666779 163.233162 
L 269.224706 164.10916 
L 270.061597 164.912462 
L 270.898487 165.376671 
L 272.014341 165.736497 
L 273.688122 166.021637 
L 276.477757 166.235776 
L 281.778063 166.379341 
L 289 166.440617 
L 289 166.440617 
" style="fill:none;stroke:#008000;stroke-dasharray:3.7,1.6;stroke-dashoffset:0;"/>
   </g>
   <g id="line2d_27">
    <path clip-path="url(#p63e0db9dc0)" d="M 188.325296 166.491199 
L 249.976226 166.374755 
L 256.113423 166.170197 
L 258.624094 165.899416 
L 260.018911 165.573754 
L 261.134765 165.07808 
L 261.971656 164.402089 
L 262.529583 163.673229 
L 263.08751 162.579236 
L 263.645437 160.986303 
L 265.319218 154.902304 
L 265.598181 154.522639 
L 265.877145 154.542378 
L 266.156108 154.958746 
L 266.714035 156.713412 
L 268.108852 161.927434 
L 268.666779 163.233162 
L 269.224706 164.10916 
L 270.061597 164.912462 
L 270.898487 165.376671 
L 272.014341 165.736497 
L 273.688122 166.021637 
L 276.477757 166.235776 
L 281.778063 166.379341 
L 289 166.440617 
L 289 166.440617 
" style="fill:none;stroke:#008000;stroke-dasharray:3.7,1.6;stroke-dashoffset:0;"/>
   </g>
   <g id="line2d_28">
    <path clip-path="url(#p63e0db9dc0)" d="M 55.024436 65.509556 
L 56.362066 34.806648 
L 57.699417 51.267845 
L 59.037605 108.789558 
L 60.375235 147.445628 
L 61.712586 158.136159 
L 63.0491 155.23233 
L 64.386451 145.596056 
L 65.723244 129.319815 
L 67.060595 101.946139 
L 69.733902 69.94853 
L 71.070416 57.371435 
L 72.406093 53.117418 
L 73.742607 74.757419 
L 75.078284 87.889386 
L 76.414241 84.560155 
L 77.749918 77.716736 
L 79.085595 92.883232 
L 80.421272 116.927678 
L 81.757228 124.880841 
L 83.092068 127.6552 
L 84.426909 129.319815 
L 85.761749 120.811781 
L 88.431429 75.312291 
L 89.76627 62.365282 
L 91.100552 72.907847 
L 92.434555 90.663745 
L 93.769396 92.32836 
L 95.103399 86.964599 
L 96.436566 102.501011 
L 97.770569 128.395029 
L 99.104572 136.348192 
L 100.437739 129.134858 
L 101.770905 107.3099 
L 103.104072 77.161864 
L 104.437238 39.245623 
L 105.770405 14.27639 
L 107.103571 21.674681 
L 108.435901 67.359128 
L 109.768231 88.074343 
L 111.101676 81.415881 
L 112.43289 66.619299 
L 113.765219 71.798103 
L 115.097549 102.501011 
L 116.429042 136.533149 
L 117.761371 153.752671 
L 119.092864 157.211372 
L 120.424357 159.079441 
L 121.755849 162.37168 
L 123.087342 165.133093 
L 124.417998 165.782293 
L 125.749491 165.14604 
L 127.080146 163.703373 
L 129.741458 161.243441 
L 131.072114 162.186723 
L 132.401933 164.295236 
L 133.73231 162.501151 
L 135.062129 157.710757 
L 137.721766 142.821696 
L 139.051585 138.937594 
L 140.381404 143.191611 
L 141.710107 152.310005 
L 143.039089 155.75021 
L 144.368908 154.843919 
L 147.026036 145.96597 
L 148.354739 139.122551 
L 149.683721 129.504773 
L 151.011866 118.407336 
L 152.340011 96.767335 
L 153.667877 66.434342 
L 154.996022 47.383743 
L 156.324167 40.910238 
L 157.652313 73.462718 
L 158.979342 112.118789 
L 160.307487 130.429559 
L 161.634795 127.285285 
L 162.961825 111.748874 
L 164.288296 86.409728 
L 165.615604 67.544086 
L 166.942633 66.064427 
L 168.269105 95.472634 
L 169.595576 120.626824 
L 170.921769 120.441866 
L 172.24824 116.742721 
L 173.574711 111.194002 
L 174.900067 116.742721 
L 176.226538 133.203918 
L 177.551894 142.821696 
L 178.877528 144.116397 
L 180.203163 142.266825 
L 181.528518 139.86238 
L 182.853316 143.93144 
L 184.178671 152.624432 
L 185.503469 159.708296 
L 188.152785 163.943817 
L 189.477583 165.610282 
L 192.126062 166.000542 
L 193.449744 165.785992 
L 194.773704 165.166385 
L 196.097386 162.834074 
L 197.421068 158.17315 
L 200.067873 145.596056 
L 201.391834 141.157081 
L 202.714679 145.226141 
L 204.037803 155.047372 
L 205.360648 160.096706 
L 206.682934 161.761321 
L 208.005779 162.519646 
L 209.327787 161.668843 
L 210.650911 159.375373 
L 211.972919 155.028877 
L 213.295206 147.815543 
L 214.616377 133.388875 
L 215.938385 116.742721 
L 217.259835 105.830242 
L 218.581843 114.523233 
L 219.903014 135.608363 
L 221.224464 154.085595 
L 222.544798 161.224945 
L 223.865969 160.984501 
L 225.187419 158.191646 
L 226.507753 155.139851 
L 227.828088 151.55168 
L 229.148422 150.441936 
L 230.469035 151.866107 
L 231.789369 154.899407 
L 233.108866 156.064637 
L 234.428364 153.049834 
L 235.748977 143.191611 
L 237.068474 127.470243 
L 238.387134 108.234686 
L 239.706632 96.027506 
L 241.026408 100.466481 
L 242.345068 122.476396 
L 243.663729 135.423405 
L 244.982389 138.752636 
L 246.30105 140.972124 
L 247.61971 149.276705 
L 248.937533 160.189185 
L 250.256473 164.40621 
L 251.574296 164.707691 
L 252.89212 164.591168 
L 255.527767 163.962313 
L 256.844753 163.425937 
L 258.162577 162.020262 
L 260.79655 158.931475 
L 262.113816 156.674996 
L 263.430802 151.995577 
L 264.747789 146.520842 
L 266.063939 144.671269 
L 267.380088 150.275475 
L 268.696238 157.13739 
L 270.012388 158.691031 
L 271.328537 155.213834 
L 272.644687 150.848842 
L 273.96 145.041184 
L 273.96 145.041184 
" style="fill:none;stroke:#ff0000;stroke-linecap:square;stroke-width:1.5;"/>
   </g>
   <g id="line2d_29">
    <path clip-path="url(#p63e0db9dc0)" d="M 55.024436 98.933828 
L 56.307668 65.34168 
L 56.614528 62.302763 
L 56.726114 62.047941 
L 56.781906 62.096978 
L 56.921388 62.730409 
L 57.144559 65.191901 
L 57.507211 72.371287 
L 58.232516 92.647246 
L 59.153096 116.284834 
L 59.850505 128.748294 
L 60.520017 136.952221 
L 61.189529 142.555586 
L 61.859042 146.376363 
L 62.528554 148.954134 
L 63.142274 150.514223 
L 63.728097 151.435548 
L 64.230231 151.841553 
L 64.648677 151.923764 
L 65.039225 151.78785 
L 65.457671 151.399571 
L 65.931909 150.619064 
L 66.434043 149.324997 
L 66.964074 147.309838 
L 67.522 144.272507 
L 68.13572 139.570522 
L 68.805233 132.56803 
L 69.725812 120.223713 
L 70.841666 105.827366 
L 71.315904 102.20876 
L 71.65066 101.086436 
L 71.818038 101.001371 
L 71.985416 101.229838 
L 72.236483 102.129357 
L 72.599136 104.45559 
L 73.184959 109.9241 
L 74.300813 120.345641 
L 74.747155 122.665117 
L 75.054015 123.346159 
L 75.249289 123.379806 
L 75.444563 123.114118 
L 75.723527 122.262619 
L 76.169869 120.014973 
L 77.22993 114.399985 
L 77.508893 113.940875 
L 77.648375 113.983754 
L 77.843649 114.373726 
L 78.122613 115.608153 
L 78.513162 118.576995 
L 79.126881 125.326157 
L 80.605388 142.126188 
L 81.2749 147.131807 
L 81.88862 150.226184 
L 82.474443 152.15318 
L 83.03237 153.280932 
L 83.506608 153.799422 
L 83.925053 153.954964 
L 84.287706 153.862439 
L 84.678255 153.509272 
L 85.0967 152.794761 
L 85.543042 151.55926 
L 86.017279 149.549908 
L 86.519414 146.387391 
L 87.077341 141.282376 
L 87.718957 133.131249 
L 89.44853 109.498644 
L 89.783287 107.864711 
L 89.978561 107.666312 
L 90.118043 107.861843 
L 90.341213 108.721747 
L 90.67597 111.081537 
L 91.345482 117.891789 
L 92.042891 124.220295 
L 92.43344 126.15281 
L 92.712403 126.650253 
L 92.879781 126.604991 
L 93.075056 126.256631 
L 93.381915 125.177171 
L 94.051428 121.715759 
L 94.581458 119.568116 
L 94.860422 119.17884 
L 95.0278 119.26932 
L 95.223074 119.705695 
L 95.502038 120.949765 
L 95.920483 124.055247 
L 96.589996 131.058278 
L 97.789539 143.519949 
L 98.431155 147.94382 
L 98.989081 150.35919 
L 99.463319 151.523419 
L 99.853868 151.959579 
L 100.160728 151.999871 
L 100.439692 151.809988 
L 100.774448 151.28521 
L 101.164997 150.215093 
L 101.611338 148.253301 
L 102.085576 145.025453 
L 102.559814 140.193469 
L 103.089845 132.307942 
L 103.703564 119.510714 
L 105.237864 85.263879 
L 105.544723 82.898747 
L 105.684205 82.69165 
L 105.712101 82.716748 
L 105.823687 83.037175 
L 106.018961 84.420728 
L 106.325821 88.499705 
L 106.827955 98.744123 
L 108.111187 126.00792 
L 108.641218 132.39368 
L 109.031767 134.906811 
L 109.338627 135.697331 
L 109.506005 135.726318 
L 109.673383 135.490268 
L 109.92445 134.671031 
L 110.287103 132.597242 
L 110.817133 128.042048 
L 112.379329 113.607163 
L 112.686189 112.672201 
L 112.853567 112.622087 
L 113.020945 112.909681 
L 113.272012 113.966921 
L 113.634664 116.713939 
L 114.164695 122.703375 
L 116.145336 146.791018 
L 116.842744 151.866364 
L 117.512257 155.183515 
L 118.181769 157.457149 
L 118.907074 159.161041 
L 119.688172 160.43952 
L 120.552959 161.433462 
L 121.529331 162.219742 
L 122.673081 162.851252 
L 123.98421 163.31786 
L 125.323234 163.56582 
L 126.411192 163.557316 
L 127.275979 163.330326 
L 128.112869 162.865689 
L 129.675065 161.91909 
L 130.205095 161.902228 
L 130.763022 162.123843 
L 131.711498 162.806602 
L 132.68787 163.400535 
L 133.441072 163.602572 
L 134.194273 163.579115 
L 134.919578 163.336985 
L 135.533298 162.903348 
L 136.063329 162.257641 
L 136.565463 161.273889 
L 137.067597 159.760689 
L 137.65342 157.189727 
L 139.020341 150.717981 
L 139.299305 150.326589 
L 139.494579 150.378331 
L 139.71775 150.76153 
L 140.052506 151.897858 
L 140.666226 154.99831 
L 141.558909 159.256469 
L 142.144732 161.021792 
L 142.702659 162.031498 
L 143.288483 162.633849 
L 143.930099 162.975743 
L 144.711197 163.131797 
L 145.631776 163.084902 
L 146.636045 162.811479 
L 147.58452 162.328196 
L 148.421411 161.660168 
L 149.174612 160.770981 
L 149.844125 159.624844 
L 150.457844 158.106259 
L 151.015771 156.10114 
L 151.545802 153.307494 
L 152.047936 149.398202 
L 152.55007 143.638337 
L 153.080101 134.816721 
L 153.721717 119.998602 
L 154.977053 89.833938 
L 155.311809 86.4641 
L 155.479187 86.061061 
L 155.507083 86.080437 
L 155.618669 86.404603 
L 155.813943 87.897956 
L 156.120803 92.398747 
L 156.622937 103.812688 
L 157.961962 135.724076 
L 158.547785 144.187325 
L 159.105712 149.242084 
L 159.635743 152.146587 
L 160.137877 153.735134 
L 160.556322 154.418002 
L 160.891079 154.608383 
L 161.170042 154.53553 
L 161.476902 154.202876 
L 161.839554 153.43033 
L 162.258 151.92675 
L 162.704341 149.407505 
L 163.206476 145.139114 
L 163.792299 137.952879 
L 165.633458 112.931604 
L 165.884525 112.25896 
L 165.99611 112.328498 
L 166.163488 112.855037 
L 166.414556 114.541388 
L 166.805104 118.93767 
L 167.669891 132.131816 
L 168.423093 141.93616 
L 168.98102 146.528932 
L 169.427361 148.599182 
L 169.790014 149.378641 
L 170.041081 149.504182 
L 170.264252 149.358906 
L 170.543215 148.865715 
L 170.933764 147.654059 
L 171.491691 145.069867 
L 173.137576 136.815712 
L 173.472332 136.234787 
L 173.695503 136.211067 
L 173.918673 136.48792 
L 174.225533 137.341134 
L 174.643978 139.266813 
L 175.369283 143.887626 
L 176.568826 151.380853 
L 177.210442 154.061106 
L 177.740473 155.423706 
L 178.158918 155.974691 
L 178.493674 156.096155 
L 178.800534 155.967332 
L 179.163187 155.534257 
L 179.637425 154.562955 
L 180.474315 152.197382 
L 181.171724 150.514411 
L 181.534376 150.102667 
L 181.785444 150.077046 
L 182.036511 150.279338 
L 182.371267 150.893191 
L 182.845505 152.326754 
L 183.821877 156.243564 
L 184.742456 159.49192 
L 185.439865 161.188545 
L 186.109378 162.276285 
L 186.834683 163.044371 
L 187.671573 163.606357 
L 188.703738 164.02735 
L 190.042763 164.324787 
L 191.688647 164.458399 
L 193.362428 164.379929 
L 194.757246 164.10087 
L 195.78941 163.678996 
L 196.598405 163.115527 
L 197.267917 162.380648 
L 197.881637 161.35833 
L 198.46746 159.914421 
L 199.08118 157.749433 
L 199.834381 154.180363 
L 200.922339 149.059834 
L 201.312887 148.110574 
L 201.563955 147.918334 
L 201.759229 148.010469 
L 202.010296 148.430889 
L 202.372949 149.564425 
L 202.986668 152.403582 
L 204.214108 158.138556 
L 204.88362 160.196213 
L 205.525236 161.471831 
L 206.166852 162.267526 
L 206.864261 162.777065 
L 207.617462 163.055054 
L 208.454353 163.130298 
L 209.347036 162.98527 
L 210.183926 162.628323 
L 210.937128 162.073366 
L 211.634536 161.276593 
L 212.276152 160.181292 
L 212.861976 158.718563 
L 213.419903 156.710979 
L 213.97783 153.850936 
L 214.591549 149.440057 
L 215.372647 141.989737 
L 216.376916 132.677296 
L 216.767464 130.768154 
L 217.018532 130.371831 
L 217.158013 130.453287 
L 217.353288 130.925428 
L 217.632251 132.274845 
L 218.078593 135.751495 
L 220.198715 154.302448 
L 220.840331 157.239199 
L 221.454051 159.084248 
L 222.095667 160.332945 
L 222.737283 161.109777 
L 223.378899 161.544717 
L 223.992619 161.698234 
L 224.578442 161.618797 
L 225.164265 161.308859 
L 225.777985 160.720033 
L 226.50329 159.688187 
L 228.400242 156.779546 
L 228.818687 156.578589 
L 229.181339 156.628338 
L 229.599785 156.935752 
L 230.157712 157.676997 
L 232.361523 160.978692 
L 232.975243 161.364937 
L 233.505273 161.452547 
L 234.007408 161.318763 
L 234.509542 160.949511 
L 235.011676 160.289264 
L 235.513811 159.23523 
L 236.015945 157.618942 
L 236.518079 155.198574 
L 237.04811 151.467277 
L 237.661829 145.415092 
L 239.251921 128.594548 
L 239.558781 127.618689 
L 239.698263 127.603651 
L 239.865641 127.944355 
L 240.116708 129.156463 
L 240.479361 132.177422 
L 241.148873 140.027696 
L 242.153141 151.22784 
L 242.794757 155.989803 
L 243.408477 158.942189 
L 244.022197 160.837384 
L 244.663813 162.127444 
L 245.389118 163.086578 
L 246.226008 163.814137 
L 247.230277 164.383329 
L 248.513509 164.843577 
L 250.243083 165.2119 
L 252.614272 165.475535 
L 255.599181 165.580875 
L 258.165645 165.467297 
L 259.81153 165.191725 
L 260.899488 164.797955 
L 261.680585 164.290171 
L 262.322201 163.605295 
L 262.880128 162.679296 
L 263.438055 161.300115 
L 264.079671 159.062987 
L 265.307111 154.642135 
L 265.641867 154.22059 
L 265.865038 154.25831 
L 266.116105 154.604253 
L 266.478757 155.587751 
L 267.176166 158.33291 
L 268.068849 161.544942 
L 268.710465 163.049269 
L 269.352081 164.00204 
L 270.04949 164.647548 
L 270.914277 165.134558 
L 272.058027 165.507917 
L 273.731808 165.801534 
L 273.954979 165.82835 
L 273.954979 165.82835 
" style="fill:none;stroke:#0000ff;stroke-linecap:square;stroke-width:1.5;"/>
   </g>
   <g id="patch_3">
    <path d="M 55.024436 166.496228 
L 55.024436 14.27639 
" style="fill:none;stroke:#000000;stroke-linecap:square;stroke-linejoin:miter;stroke-width:0.8;"/>
   </g>
   <g id="patch_4">
    <path d="M 273.96 166.496228 
L 273.96 14.27639 
" style="fill:none;stroke:#000000;stroke-linecap:square;stroke-linejoin:miter;stroke-width:0.8;"/>
   </g>
   <g id="patch_5">
    <path d="M 55.024436 166.496228 
L 273.96 166.496228 
" style="fill:none;stroke:#000000;stroke-linecap:square;stroke-linejoin:miter;stroke-width:0.8;"/>
   </g>
   <g id="patch_6">
    <path d="M 55.024436 14.27639 
L 273.96 14.27639 
" style="fill:none;stroke:#000000;stroke-linecap:square;stroke-linejoin:miter;stroke-width:0.8;"/>
   </g>
  </g>
 </g>
 <defs>
  <clipPath id="p63e0db9dc0">
   <rect height="152.219837" width="218.935564" x="55.024436" y="14.27639"/>
  </clipPath>
 </defs>
</svg>
