<?xml version="1.0" encoding="utf-8" standalone="no"?>
<!DOCTYPE svg PUBLIC "-//W3C//DTD SVG 1.1//EN"
  "http://www.w3.org/Graphics/SVG/1.1/DTD/svg11.dtd">
<!-- Created with matplotlib (https://matplotlib.org/) -->
<svg height="216pt" version="1.1" viewBox="0 0 288 216" width="288pt" xmlns="http://www.w3.org/2000/svg" xmlns:xlink="http://www.w3.org/1999/xlink">
 <metadata>
  <rdf:RDF xmlns:cc="http://creativecommons.org/ns#" xmlns:dc="http://purl.org/dc/elements/1.1/" xmlns:rdf="http://www.w3.org/1999/02/22-rdf-syntax-ns#">
   <cc:Work>
    <dc:type rdf:resource="http://purl.org/dc/dcmitype/StillImage"/>
    <dc:date>2021-03-23T22:53:17.828241</dc:date>
    <dc:format>image/svg+xml</dc:format>
    <dc:creator>
     <cc:Agent>
      <dc:title>Matplotlib v3.3.2, https://matplotlib.org/</dc:title>
     </cc:Agent>
    </dc:creator>
   </cc:Work>
  </rdf:RDF>
 </metadata>
 <defs>
  <style type="text/css">*{stroke-linecap:butt;stroke-linejoin:round;}</style>
 </defs>
 <g id="figure_1">
  <g id="patch_1">
   <path d="M 0 216 
L 288 216 
L 288 0 
L 0 0 
z
" style="fill:#ffffff;"/>
  </g>
  <g id="axes_1">
   <g id="patch_2">
    <path d="M 45.161064 166.496228 
L 273.96 166.496228 
L 273.96 14.04 
L 45.161064 14.04 
z
" style="fill:#ffffff;"/>
   </g>
   <g id="matplotlib.axis_1">
    <g id="xtick_1">
     <g id="line2d_1">
      <defs>
       <path d="M 0 0 
L 0 3.5 
" id="m57344ea5d5" style="stroke:#000000;stroke-width:0.8;"/>
      </defs>
      <g>
       <use style="stroke:#000000;stroke-width:0.8;" x="88.671178" xlink:href="#m57344ea5d5" y="166.496228"/>
      </g>
     </g>
     <g id="text_1">
      <!-- $\mathdefault{260}$ -->
      <g transform="translate(79.160069 182.490256)scale(0.13 -0.13)">
       <defs>
        <path d="M 41.703125 15.46875 
L 39.90625 15.46875 
C 38.90625 8.390625 38.09375 7.1875 37.703125 6.59375 
C 37.203125 5.796875 30 5.796875 28.59375 5.796875 
L 9.40625 5.796875 
C 13 9.6875 20 16.765625 28.5 24.9375 
C 34.59375 30.71875 41.703125 37.5 41.703125 47.390625 
C 41.703125 59.1875 32.296875 66 21.796875 66 
C 10.796875 66 4.09375 56.296875 4.09375 47.296875 
C 4.09375 43.390625 7 42.890625 8.203125 42.890625 
C 9.203125 42.890625 12.203125 43.484375 12.203125 46.984375 
C 12.203125 50.09375 9.59375 51 8.203125 51 
C 7.59375 51 7 50.890625 6.59375 50.6875 
C 8.5 59.1875 14.296875 63.390625 20.40625 63.390625 
C 29.09375 63.390625 34.796875 56.5 34.796875 47.390625 
C 34.796875 38.703125 29.703125 31.21875 24 24.734375 
L 4.09375 2.296875 
L 4.09375 0 
L 39.296875 0 
z
" id="CMR17-50"/>
        <path d="M 10.59375 34.34375 
C 10.59375 58 21.796875 63.6875 28.296875 63.6875 
C 30.40625 63.6875 35.5 63.265625 37.5 59.09375 
C 35.90625 59.09375 32.90625 59.09375 32.90625 55.59375 
C 32.90625 52.890625 35.09375 52 36.5 52 
C 37.40625 52 40.09375 52.390625 40.09375 55.796875 
C 40.09375 62.296875 35.09375 66 28.203125 66 
C 16.296875 66 3.796875 53.296875 3.796875 31.421875 
C 3.796875 4.015625 15.09375 -2 23.09375 -2 
C 32.796875 -2 42 6.734375 42 20.234375 
C 42 32.828125 33.90625 42 23.703125 42 
C 17.59375 42 13.09375 37.96875 10.59375 30.921875 
z
M 23.09375 0.390625 
C 10.796875 0.390625 10.796875 18.9375 10.796875 22.65625 
C 10.796875 29.90625 14.203125 40.390625 23.5 40.390625 
C 25.203125 40.390625 30.09375 40.390625 33.40625 33.4375 
C 35.203125 29.515625 35.203125 25.375 35.203125 20.34375 
C 35.203125 14.90625 35.203125 10.875 33.09375 6.84375 
C 30.90625 2.703125 27.703125 0.390625 23.09375 0.390625 
z
" id="CMR17-54"/>
        <path d="M 42 31.84375 
C 42 37.96875 41.90625 48.421875 37.703125 56.453125 
C 34 63.484375 28.09375 66 22.90625 66 
C 18.09375 66 12 63.78125 8.203125 56.5625 
C 4.203125 49.015625 3.796875 39.671875 3.796875 31.84375 
C 3.796875 26.109375 3.90625 17.375 7 9.734375 
C 11.296875 -0.609375 19 -2 22.90625 -2 
C 27.5 -2 34.5 -0.109375 38.59375 9.4375 
C 41.59375 16.375 42 24.5 42 31.84375 
z
M 22.90625 -0.40625 
C 16.5 -0.40625 12.703125 5.125 11.296875 12.75 
C 10.203125 18.6875 10.203125 27.328125 10.203125 32.953125 
C 10.203125 40.6875 10.203125 47.109375 11.5 53.234375 
C 13.40625 61.78125 19 64.390625 22.90625 64.390625 
C 27 64.390625 32.296875 61.671875 34.203125 53.4375 
C 35.5 47.71875 35.59375 40.984375 35.59375 32.953125 
C 35.59375 26.421875 35.59375 18.375 34.40625 12.453125 
C 32.296875 1.5 26.40625 -0.40625 22.90625 -0.40625 
z
" id="CMR17-48"/>
       </defs>
       <use transform="scale(0.996264)" xlink:href="#CMR17-50"/>
       <use transform="translate(45.690477 0)scale(0.996264)" xlink:href="#CMR17-54"/>
       <use transform="translate(91.380954 0)scale(0.996264)" xlink:href="#CMR17-48"/>
      </g>
     </g>
    </g>
    <g id="xtick_2">
     <g id="line2d_2">
      <g>
       <use style="stroke:#000000;stroke-width:0.8;" x="134.536451" xlink:href="#m57344ea5d5" y="166.496228"/>
      </g>
     </g>
     <g id="text_2">
      <!-- $\mathdefault{280}$ -->
      <g transform="translate(125.025341 182.490256)scale(0.13 -0.13)">
       <defs>
        <path d="M 27.203125 35.765625 
C 33.5 38.96875 39.90625 43.796875 39.90625 51.53125 
C 39.90625 60.6875 31.09375 66 23 66 
C 13.90625 66 5.90625 59.375 5.90625 50.234375 
C 5.90625 47.71875 6.5 43.390625 10.40625 39.578125 
C 11.40625 38.578125 15.59375 35.5625 18.296875 33.65625 
C 13.796875 31.34375 3.296875 25.8125 3.296875 14.765625 
C 3.296875 4.40625 13.09375 -2 22.796875 -2 
C 33.5 -2 42.5 5.71875 42.5 15.96875 
C 42.5 25.109375 36.40625 29.328125 32.40625 32.046875 
z
M 14.09375 44.609375 
C 13.296875 45.109375 9.296875 48.21875 9.296875 52.9375 
C 9.296875 59.078125 15.59375 63.6875 22.796875 63.6875 
C 30.703125 63.6875 36.5 58.0625 36.5 51.53125 
C 36.5 42.1875 26.09375 36.859375 25.59375 36.859375 
C 25.5 36.859375 25.40625 36.859375 24.59375 37.46875 
z
M 32.5 24 
C 34 22.90625 38.796875 19.578125 38.796875 13.453125 
C 38.796875 6.015625 31.40625 0.390625 23 0.390625 
C 13.90625 0.390625 7 6.921875 7 14.859375 
C 7 22.796875 13.09375 29.4375 20 32.546875 
z
" id="CMR17-56"/>
       </defs>
       <use transform="scale(0.996264)" xlink:href="#CMR17-50"/>
       <use transform="translate(45.690477 0)scale(0.996264)" xlink:href="#CMR17-56"/>
       <use transform="translate(91.380954 0)scale(0.996264)" xlink:href="#CMR17-48"/>
      </g>
     </g>
    </g>
    <g id="xtick_3">
     <g id="line2d_3">
      <g>
       <use style="stroke:#000000;stroke-width:0.8;" x="180.401723" xlink:href="#m57344ea5d5" y="166.496228"/>
      </g>
     </g>
     <g id="text_3">
      <!-- $\mathdefault{300}$ -->
      <g transform="translate(170.890614 182.490256)scale(0.13 -0.13)">
       <defs>
        <path d="M 22.09375 34 
C 31 34 34.90625 26.140625 34.90625 17.09375 
C 34.90625 5.03125 28.5 0.390625 22.703125 0.390625 
C 17.40625 0.390625 8.796875 3.015625 6.09375 10.796875 
C 6.59375 10.59375 7.09375 10.59375 7.59375 10.59375 
C 10 10.59375 11.796875 12.1875 11.796875 14.796875 
C 11.796875 17.6875 9.59375 19 7.59375 19 
C 5.90625 19 3.296875 18.1875 3.296875 14.484375 
C 3.296875 5.234375 12.296875 -2 22.90625 -2 
C 34 -2 42.5 6.75 42.5 16.984375 
C 42.5 26.84375 34.5 34 25 35.09375 
C 32.59375 36.671875 39.90625 43.375 39.90625 52.390625 
C 39.90625 60.25 32 66 23 66 
C 13.90625 66 5.90625 60.34375 5.90625 52.296875 
C 5.90625 48.796875 8.5 48.1875 9.796875 48.1875 
C 11.90625 48.1875 13.703125 49.484375 13.703125 52.09375 
C 13.703125 54.6875 11.90625 56 9.796875 56 
C 9.40625 56 8.90625 56 8.5 55.796875 
C 11.40625 62.484375 19.296875 63.6875 22.796875 63.6875 
C 26.296875 63.6875 32.90625 61.96875 32.90625 52.296875 
C 32.90625 49.484375 32.5 44.546875 29.09375 40.21875 
C 26.09375 36.390625 22.703125 36.1875 19.40625 35.890625 
C 18.90625 35.890625 16.59375 35.6875 16.203125 35.6875 
C 15.5 35.59375 15.09375 35.5 15.09375 34.796875 
C 15.09375 34.09375 15.203125 34 17.203125 34 
z
" id="CMR17-51"/>
       </defs>
       <use transform="scale(0.996264)" xlink:href="#CMR17-51"/>
       <use transform="translate(45.690477 0)scale(0.996264)" xlink:href="#CMR17-48"/>
       <use transform="translate(91.380954 0)scale(0.996264)" xlink:href="#CMR17-48"/>
      </g>
     </g>
    </g>
    <g id="xtick_4">
     <g id="line2d_4">
      <g>
       <use style="stroke:#000000;stroke-width:0.8;" x="226.266996" xlink:href="#m57344ea5d5" y="166.496228"/>
      </g>
     </g>
     <g id="text_4">
      <!-- $\mathdefault{320}$ -->
      <g transform="translate(216.755887 182.490256)scale(0.13 -0.13)">
       <use transform="scale(0.996264)" xlink:href="#CMR17-51"/>
       <use transform="translate(45.690477 0)scale(0.996264)" xlink:href="#CMR17-50"/>
       <use transform="translate(91.380954 0)scale(0.996264)" xlink:href="#CMR17-48"/>
      </g>
     </g>
    </g>
    <g id="xtick_5">
     <g id="line2d_5">
      <g>
       <use style="stroke:#000000;stroke-width:0.8;" x="272.132269" xlink:href="#m57344ea5d5" y="166.496228"/>
      </g>
     </g>
     <g id="text_5">
      <!-- $\mathdefault{340}$ -->
      <g transform="translate(262.62116 182.490256)scale(0.13 -0.13)">
       <defs>
        <path d="M 33.59375 64.796875 
C 33.59375 66.890625 33.5 67 31.703125 67 
L 2 19.59375 
L 2 17 
L 27.796875 17 
L 27.796875 7.1875 
C 27.796875 3.59375 27.59375 2.59375 20.59375 2.59375 
L 18.703125 2.59375 
L 18.703125 0 
C 21.90625 0.1875 27.296875 0.1875 30.703125 0.1875 
C 34.09375 0.1875 39.5 0.1875 42.703125 0 
L 42.703125 2.59375 
L 40.796875 2.59375 
C 33.796875 2.59375 33.59375 3.59375 33.59375 7.1875 
L 33.59375 17 
L 43.796875 17 
L 43.796875 19.59375 
L 33.59375 19.59375 
z
M 28.09375 58.171875 
L 28.09375 19.59375 
L 4 19.59375 
z
" id="CMR17-52"/>
       </defs>
       <use transform="scale(0.996264)" xlink:href="#CMR17-51"/>
       <use transform="translate(45.690477 0)scale(0.996264)" xlink:href="#CMR17-52"/>
       <use transform="translate(91.380954 0)scale(0.996264)" xlink:href="#CMR17-48"/>
      </g>
     </g>
    </g>
    <g id="text_6">
     <!-- Wavelength (nm) -->
     <g transform="translate(111.478852 198.722142)scale(0.13 -0.13)">
      <defs>
       <path d="M 86.296875 58.984375 
C 87.203125 61.6875 88.703125 65.203125 94.5 65.390625 
L 94.5 68 
C 92.796875 67.890625 89.296875 67.796875 87.5 67.796875 
C 85 67.796875 80.59375 67.796875 78.203125 68 
L 78.203125 65.390625 
C 82.703125 65.296875 84.59375 62.796875 84.59375 60.390625 
C 84.59375 59.6875 84.5 59.28125 84.09375 58.1875 
L 68.59375 8.703125 
L 52.296875 60.78125 
C 52 61.796875 51.90625 62.1875 51.90625 62.59375 
C 51.90625 65.390625 56.296875 65.390625 58.203125 65.390625 
L 58.203125 68 
C 55.296875 67.796875 50.296875 67.796875 47.203125 67.796875 
C 44.703125 67.796875 40.203125 67.796875 37.90625 68 
L 37.90625 65.390625 
C 42.5 65.390625 43.703125 65.09375 44.703125 63.296875 
C 45.09375 62.390625 46.703125 57.1875 46.703125 56.875 
C 46.703125 56.484375 46.5 55.875 46.40625 55.578125 
L 31.703125 8.8125 
L 15.40625 60.78125 
C 14.90625 62.1875 14.90625 62.390625 14.90625 62.59375 
C 14.90625 65.390625 19.296875 65.390625 21.296875 65.390625 
L 21.296875 68 
C 18.40625 67.796875 13.40625 67.796875 10.296875 67.796875 
C 7.703125 67.796875 3.296875 67.796875 0.90625 68 
L 0.90625 65.390625 
C 6.90625 65.390625 7.296875 64.796875 8.296875 61.59375 
L 27.796875 -0.3125 
C 28.296875 -1.8125 28.296875 -2 29.203125 -2 
C 30 -2 30.296875 -1.8125 30.703125 -0.40625 
L 47.703125 53.875 
L 64.703125 -0.40625 
C 65.09375 -1.8125 65.40625 -2 66.203125 -2 
C 67.09375 -2 67.09375 -1.8125 67.59375 -0.3125 
z
" id="CMR17-87"/>
       <path d="M 36 25.875 
C 36 32 36 35.546875 31.796875 39.59375 
C 28.09375 42.984375 23.796875 44 20.40625 44 
C 12.5 44 6.796875 37.625 6.796875 30.890625 
C 6.796875 27.1875 9.796875 27 10.40625 27 
C 11.703125 27 14 27.796875 14 30.59375 
C 14 33.09375 12.09375 34.1875 10.40625 34.1875 
C 10 34.1875 9.5 34.09375 9.203125 34 
C 11.296875 40.53125 16.703125 42.390625 20.203125 42.390625 
C 25.203125 42.390625 30.703125 37.828125 30.703125 29.296875 
L 30.703125 25.5 
C 24.796875 25.296875 17.703125 24.5 12.09375 21.453125 
C 5.796875 17.921875 4 12.84375 4 9 
C 4 1.203125 13 -1 18.296875 -1 
C 23.796875 -1 28.90625 2.109375 31.09375 7.890625 
C 31.296875 3.421875 34.09375 -0.609375 38.5 -0.609375 
C 40.59375 -0.609375 45.90625 0.796875 45.90625 8.796875 
L 45.90625 14.46875 
L 44.09375 14.46875 
L 44.09375 8.703125 
C 44.09375 2.515625 41.40625 1.703125 40.09375 1.703125 
C 36 1.703125 36 6.96875 36 11.4375 
z
M 30.703125 13.859375 
C 30.703125 5.046875 24.5 0.59375 19 0.59375 
C 14 0.59375 10.09375 4.34375 10.09375 9 
C 10.09375 12.046875 11.40625 17.40625 17.203125 20.65625 
C 22 23.390625 27.5 23.796875 30.703125 24 
z
" id="CMR17-97"/>
       <path d="M 39.09375 33.953125 
C 40 36.171875 41.59375 40.1875 47.40625 40.390625 
L 47.40625 43 
C 45.5 42.890625 43 42.796875 41.09375 42.796875 
C 39 42.796875 35.703125 42.796875 33.703125 43 
L 33.703125 40.390625 
C 36.203125 40.1875 37.59375 38.984375 37.59375 36.375 
C 37.59375 35.46875 37.59375 35.265625 37 33.859375 
L 26 5.921875 
L 14.09375 36.0625 
C 13.5 37.375 13.5 37.578125 13.5 37.984375 
C 13.5 40.390625 16.796875 40.390625 18.296875 40.390625 
L 18.296875 43 
C 15.90625 42.796875 11.5 42.796875 9 42.796875 
C 6.296875 42.796875 3.203125 42.796875 1 43 
L 1 40.390625 
C 4.796875 40.390625 6.90625 40.390625 8.09375 37.28125 
L 22.59375 0.6875 
C 23.203125 -0.8125 23.296875 -1 24.203125 -1 
C 25.09375 -1 25.203125 -0.8125 25.796875 0.6875 
z
" id="CMR17-118"/>
       <path d="M 38.09375 23.484375 
C 38.5 23.890625 38.5 24.09375 38.5 25.09375 
C 38.5 35.171875 33.09375 44 21.703125 44 
C 11.09375 44 2.703125 33.984375 2.703125 21.78125 
C 2.703125 8.65625 12.203125 -1 22.796875 -1 
C 34 -1 38.40625 9.671875 38.40625 11.796875 
C 38.40625 12.5 37.796875 12.5 37.59375 12.5 
C 36.90625 12.5 36.796875 12.296875 36.40625 11.078125 
C 34.203125 4.21875 28.703125 0.796875 23.5 0.796875 
C 19.203125 0.796875 14.90625 3.21875 12.203125 7.65625 
C 9.09375 12.796875 9.09375 18.75 9.09375 23.484375 
z
M 9.203125 25 
C 9.90625 39.234375 17.59375 42.390625 21.59375 42.390625 
C 28.40625 42.390625 33 36.0625 33.09375 25 
z
" id="CMR17-101"/>
       <path d="M 15.296875 69 
L 3.40625 67.890625 
L 3.40625 65.296875 
C 9.296875 65.296875 10.203125 64.703125 10.203125 59.921875 
L 10.203125 6.859375 
C 10.203125 3.09375 9.796875 2.59375 3.40625 2.59375 
L 3.40625 0 
C 5.796875 0.1875 10.203125 0.1875 12.703125 0.1875 
C 15.296875 0.1875 19.703125 0.1875 22.09375 0 
L 22.09375 2.59375 
C 15.703125 2.59375 15.296875 2.984375 15.296875 6.859375 
z
" id="CMR17-108"/>
       <path d="M 41.5 30.53125 
C 41.5 35.65625 40.5 44 28.703125 44 
C 20.796875 44 16.703125 37.875 15.203125 33.84375 
L 15.09375 33.84375 
L 15.09375 44 
L 3.296875 42.890625 
L 3.296875 40.28125 
C 9.203125 40.28125 10.09375 39.6875 10.09375 34.859375 
L 10.09375 6.921875 
C 10.09375 3.09375 9.703125 2.59375 3.296875 2.59375 
L 3.296875 0 
C 5.703125 0.1875 10.09375 0.1875 12.703125 0.1875 
C 15.296875 0.1875 19.796875 0.1875 22.203125 0 
L 22.203125 2.59375 
C 15.796875 2.59375 15.40625 3 15.40625 6.921875 
L 15.40625 26.21875 
C 15.40625 35.453125 21 42.390625 28 42.390625 
C 35.40625 42.390625 36.203125 35.765625 36.203125 30.9375 
L 36.203125 6.921875 
C 36.203125 3.09375 35.796875 2.59375 29.40625 2.59375 
L 29.40625 0 
C 31.796875 0.1875 36.203125 0.1875 38.796875 0.1875 
C 41.40625 0.1875 45.90625 0.1875 48.296875 0 
L 48.296875 2.59375 
C 41.90625 2.59375 41.5 3 41.5 6.921875 
z
" id="CMR17-110"/>
       <path d="M 11.09375 18.203125 
C 13 16.6875 16.296875 15 20.296875 15 
C 28.203125 15 35 21.234375 35 29.609375 
C 35 32.234375 34.203125 36.265625 31.203125 39.390625 
C 34 42.390625 38.09375 43.390625 40.40625 43.390625 
C 40.796875 43.390625 41.40625 43.390625 41.90625 43.09375 
C 41.5 42.984375 40.59375 42.59375 40.59375 40.984375 
C 40.59375 39.6875 41.5 38.796875 42.796875 38.796875 
C 44.296875 38.796875 45.09375 39.796875 45.09375 41.09375 
C 45.09375 42.984375 43.59375 45 40.40625 45 
C 36.40625 45 32.90625 43.09375 30.09375 40.484375 
C 27.09375 43.1875 23.5 44.1875 20.296875 44.1875 
C 12.40625 44.1875 5.59375 37.984375 5.59375 29.609375 
C 5.59375 23.859375 8.90625 20.21875 9.90625 19.21875 
C 6.90625 15.6875 6.90625 11.59375 6.90625 11.09375 
C 6.90625 8.5 7.90625 4.6875 11.296875 2.59375 
C 6.09375 1.28125 2 -2.875 2 -8.078125 
C 2 -15.5625 11.5 -21 22.90625 -21 
C 33.90625 -21 43.796875 -15.765625 43.796875 -7.96875 
C 43.796875 6 29 6 21.296875 6 
C 19 6 14.90625 6 14.40625 6.09375 
C 11.296875 6.59375 9.203125 9.390625 9.203125 12.890625 
C 9.203125 13.796875 9.203125 16 11.09375 18.203125 
z
M 20.296875 16.6875 
C 11.5 16.6875 11.5 27.59375 11.5 29.609375 
C 11.5 31.625 11.5 42.484375 20.296875 42.484375 
C 29.09375 42.484375 29.09375 31.625 29.09375 29.609375 
C 29.09375 27.59375 29.09375 16.6875 20.296875 16.6875 
z
M 22.90625 -19.3125 
C 12.90625 -19.3125 6 -13.796875 6 -8.078125 
C 6 -4.859375 7.703125 -1.84375 9.90625 -0.171875 
C 12.40625 1.59375 13.40625 1.59375 20.203125 1.59375 
C 28.40625 1.59375 39.796875 1.59375 39.796875 -8.078125 
C 39.796875 -13.796875 32.90625 -19.3125 22.90625 -19.3125 
z
" id="CMR17-103"/>
       <path d="M 15.09375 40.390625 
L 29.09375 40.390625 
L 29.09375 43 
L 15.09375 43 
L 15.09375 62 
L 13.296875 62 
C 13.09375 51.4375 9.59375 42.1875 1.09375 41.984375 
L 1.09375 40.390625 
L 9.796875 40.390625 
L 9.796875 12.15625 
C 9.796875 10.234375 9.796875 -1 21.40625 -1 
C 27.296875 -1 30.703125 4.8125 30.703125 12.25 
L 30.703125 17.984375 
L 28.90625 17.984375 
L 28.90625 12.34375 
C 28.90625 5.421875 26.203125 0.796875 22 0.796875 
C 19.09375 0.796875 15.09375 2.796875 15.09375 11.953125 
z
" id="CMR17-116"/>
       <path d="M 41.5 30.53125 
C 41.5 35.65625 40.5 44 28.703125 44 
C 20.5 44 16.5 37.375 15.296875 34.046875 
L 15.203125 34.046875 
L 15.203125 69 
L 3.296875 67.890625 
L 3.296875 65.296875 
C 9.203125 65.296875 10.09375 64.703125 10.09375 60.046875 
L 10.09375 6.921875 
C 10.09375 3.09375 9.703125 2.59375 3.296875 2.59375 
L 3.296875 0 
C 5.703125 0.1875 10.09375 0.1875 12.703125 0.1875 
C 15.296875 0.1875 19.796875 0.1875 22.203125 0 
L 22.203125 2.59375 
C 15.796875 2.59375 15.40625 3 15.40625 6.921875 
L 15.40625 26.21875 
C 15.40625 35.453125 21 42.390625 28 42.390625 
C 35.40625 42.390625 36.203125 35.765625 36.203125 30.9375 
L 36.203125 6.921875 
C 36.203125 3.09375 35.796875 2.59375 29.40625 2.59375 
L 29.40625 0 
C 31.796875 0.1875 36.203125 0.1875 38.796875 0.1875 
C 41.40625 0.1875 45.90625 0.1875 48.296875 0 
L 48.296875 2.59375 
C 41.90625 2.59375 41.5 3 41.5 6.921875 
z
" id="CMR17-104"/>
       <path d="M 30.59375 -24.40625 
C 30.59375 -24.3125 30.59375 -24.109375 30.296875 -23.8125 
C 25.703125 -19.109375 13.40625 -6.296875 13.40625 24.9375 
C 13.40625 56.171875 25.5 68.875 30.40625 73.890625 
C 30.40625 73.984375 30.59375 74.1875 30.59375 74.484375 
C 30.59375 74.796875 30.296875 75 29.90625 75 
C 28.796875 75 20.296875 67.578125 15.40625 56.5625 
C 10.40625 45.453125 9 34.65625 9 25.046875 
C 9 17.828125 9.703125 5.625 15.703125 -7.296875 
C 20.5 -17.703125 28.703125 -25 29.90625 -25 
C 30.40625 -25 30.59375 -24.8125 30.59375 -24.40625 
z
" id="CMR17-40"/>
       <path d="M 67.59375 30.53125 
C 67.59375 35.5625 66.703125 44 54.796875 44 
C 48 44 43.296875 39.375 41.5 33.953125 
L 41.40625 33.953125 
C 40.203125 42.1875 34.296875 44 28.703125 44 
C 20.796875 44 16.703125 37.875 15.203125 33.84375 
L 15.09375 33.84375 
L 15.09375 44 
L 3.296875 42.890625 
L 3.296875 40.28125 
C 9.203125 40.28125 10.09375 39.6875 10.09375 34.859375 
L 10.09375 6.921875 
C 10.09375 3.09375 9.703125 2.59375 3.296875 2.59375 
L 3.296875 0 
C 5.703125 0.1875 10.09375 0.1875 12.703125 0.1875 
C 15.296875 0.1875 19.796875 0.1875 22.203125 0 
L 22.203125 2.59375 
C 15.796875 2.59375 15.40625 3 15.40625 6.921875 
L 15.40625 26.21875 
C 15.40625 35.453125 21 42.390625 28 42.390625 
C 35.40625 42.390625 36.203125 35.765625 36.203125 30.9375 
L 36.203125 6.921875 
C 36.203125 3.09375 35.796875 2.59375 29.40625 2.59375 
L 29.40625 0 
C 31.796875 0.1875 36.203125 0.1875 38.796875 0.1875 
C 41.40625 0.1875 45.90625 0.1875 48.296875 0 
L 48.296875 2.59375 
C 41.90625 2.59375 41.5 3 41.5 6.921875 
L 41.5 26.21875 
C 41.5 35.453125 47.09375 42.390625 54.09375 42.390625 
C 61.5 42.390625 62.296875 35.765625 62.296875 30.9375 
L 62.296875 6.921875 
C 62.296875 3.09375 61.90625 2.59375 55.5 2.59375 
L 55.5 0 
C 57.90625 0.1875 62.296875 0.1875 64.90625 0.1875 
C 67.5 0.1875 72 0.1875 74.40625 0 
L 74.40625 2.59375 
C 68 2.59375 67.59375 3 67.59375 6.921875 
z
" id="CMR17-109"/>
       <path d="M 26.296875 24.9375 
C 26.296875 32.140625 25.59375 44.359375 19.59375 57.265625 
C 14.796875 67.6875 6.59375 75 5.40625 75 
C 5.09375 75 4.703125 74.890625 4.703125 74.390625 
C 4.703125 74.1875 4.796875 74.09375 4.90625 73.890625 
C 9.703125 68.875 21.90625 56.171875 21.90625 25.046875 
C 21.90625 -6.1875 9.796875 -18.90625 4.90625 -23.90625 
C 4.796875 -24.109375 4.703125 -24.203125 4.703125 -24.40625 
C 4.703125 -24.90625 5.09375 -25 5.40625 -25 
C 6.5 -25 15 -17.609375 19.90625 -6.59375 
C 24.90625 4.515625 26.296875 15.328125 26.296875 24.9375 
z
" id="CMR17-41"/>
      </defs>
      <use transform="scale(0.996264)" xlink:href="#CMR17-87"/>
      <use transform="translate(87.289395 0)scale(0.996264)" xlink:href="#CMR17-97"/>
      <use transform="translate(130.377418 0)scale(0.996264)" xlink:href="#CMR17-118"/>
      <use transform="translate(176.06788 0)scale(0.996264)" xlink:href="#CMR17-101"/>
      <use transform="translate(216.55354 0)scale(0.996264)" xlink:href="#CMR17-108"/>
      <use transform="translate(241.424599 0)scale(0.996264)" xlink:href="#CMR17-101"/>
      <use transform="translate(281.910259 0)scale(0.996264)" xlink:href="#CMR17-110"/>
      <use transform="translate(332.805629 0)scale(0.996264)" xlink:href="#CMR17-103"/>
      <use transform="translate(378.496106 0)scale(0.996264)" xlink:href="#CMR17-116"/>
      <use transform="translate(413.776874 0)scale(0.996264)" xlink:href="#CMR17-104"/>
      <use transform="translate(494.74821 0)scale(0.996264)" xlink:href="#CMR17-40"/>
      <use transform="translate(530.028978 0)scale(0.996264)" xlink:href="#CMR17-110"/>
      <use transform="translate(580.924347 0)scale(0.996264)" xlink:href="#CMR17-109"/>
      <use transform="translate(657.843937 0)scale(0.996264)" xlink:href="#CMR17-41"/>
     </g>
    </g>
   </g>
   <g id="matplotlib.axis_2">
    <g id="ytick_1">
     <g id="line2d_6">
      <defs>
       <path d="M 0 0 
L -3.5 0 
" id="m14626ff0ca" style="stroke:#000000;stroke-width:0.8;"/>
      </defs>
      <g>
       <use style="stroke:#000000;stroke-width:0.8;" x="45.161064" xlink:href="#m14626ff0ca" y="166.496228"/>
      </g>
     </g>
     <g id="text_7">
      <!-- $\mathdefault{0}$ -->
      <g transform="translate(31.820325 170.993242)scale(0.13 -0.13)">
       <use transform="scale(0.996264)" xlink:href="#CMR17-48"/>
      </g>
     </g>
    </g>
    <g id="ytick_2">
     <g id="line2d_7">
      <g>
       <use style="stroke:#000000;stroke-width:0.8;" x="45.161064" xlink:href="#m14626ff0ca" y="125.677961"/>
      </g>
     </g>
     <g id="text_8">
      <!-- $\mathdefault{2}$ -->
      <g transform="translate(31.820325 130.174975)scale(0.13 -0.13)">
       <use transform="scale(0.996264)" xlink:href="#CMR17-50"/>
      </g>
     </g>
    </g>
    <g id="ytick_3">
     <g id="line2d_8">
      <g>
       <use style="stroke:#000000;stroke-width:0.8;" x="45.161064" xlink:href="#m14626ff0ca" y="84.859693"/>
      </g>
     </g>
     <g id="text_9">
      <!-- $\mathdefault{4}$ -->
      <g transform="translate(31.820325 89.356708)scale(0.13 -0.13)">
       <use transform="scale(0.996264)" xlink:href="#CMR17-52"/>
      </g>
     </g>
    </g>
    <g id="ytick_4">
     <g id="line2d_9">
      <g>
       <use style="stroke:#000000;stroke-width:0.8;" x="45.161064" xlink:href="#m14626ff0ca" y="44.041426"/>
      </g>
     </g>
     <g id="text_10">
      <!-- $\mathdefault{6}$ -->
      <g transform="translate(31.820325 48.53844)scale(0.13 -0.13)">
       <use transform="scale(0.996264)" xlink:href="#CMR17-54"/>
      </g>
     </g>
    </g>
    <g id="text_11">
     <!-- Intensity $\times 10^\mathrm{12}$ (arb. units) -->
     <g transform="translate(24.582466 167.563203)rotate(-90)scale(0.13 -0.13)">
      <defs>
       <path d="M 19.703125 60.90625 
C 19.703125 65.390625 20.90625 65.390625 28.09375 65.390625 
L 28.09375 68 
C 24.90625 67.796875 19.796875 67.796875 16.40625 67.796875 
C 13 67.796875 7.90625 67.796875 4.703125 68 
L 4.703125 65.390625 
C 11.90625 65.390625 13.09375 65.390625 13.09375 60.90625 
L 13.09375 7.078125 
C 13.09375 2.59375 11.90625 2.59375 4.703125 2.59375 
L 4.703125 0 
C 7.90625 0.1875 13 0.1875 16.40625 0.1875 
C 19.796875 0.1875 24.90625 0.1875 28.09375 0 
L 28.09375 2.59375 
C 20.90625 2.59375 19.703125 2.59375 19.703125 7.078125 
z
" id="CMR17-73"/>
       <path d="M 30.90625 42 
C 30.90625 43.796875 30.796875 43.890625 30.203125 43.890625 
C 29.796875 43.890625 29.703125 43.796875 28.5 42.296875 
C 28.203125 41.890625 27.296875 40.890625 27 40.5 
C 23.796875 43.890625 19.296875 44 17.59375 44 
C 6.5 44 2.5 38.1875 2.5 32.390625 
C 2.5 23.390625 12.703125 21.296875 15.59375 20.6875 
C 21.90625 19.390625 24.09375 19 26.203125 17.1875 
C 27.5 16 29.703125 13.796875 29.703125 10.1875 
C 29.703125 6 27.296875 0.59375 18.09375 0.59375 
C 9.40625 0.59375 6.296875 7.1875 4.5 16 
C 4.203125 17.390625 4.203125 17.5 3.40625 17.5 
C 2.59375 17.5 2.5 17.390625 2.5 15.390625 
L 2.5 1 
C 2.5 -0.8125 2.59375 -0.90625 3.203125 -0.90625 
C 3.703125 -0.90625 3.796875 -0.8125 4.296875 0 
C 4.90625 0.890625 6.40625 3.296875 7 4.296875 
C 9 1.59375 12.5 -1 18.09375 -1 
C 28 -1 33.296875 4.390625 33.296875 12.1875 
C 33.296875 17.296875 30.59375 20 29.296875 21.1875 
C 26.296875 24.296875 22.796875 25 18.59375 25.796875 
C 13.09375 27 6.09375 28.390625 6.09375 34.5 
C 6.09375 37.09375 7.5 42.59375 17.59375 42.59375 
C 28.296875 42.59375 28.90625 32.59375 29.09375 29.390625 
C 29.203125 28.890625 29.703125 28.796875 30 28.796875 
C 30.90625 28.796875 30.90625 29.09375 30.90625 30.796875 
z
" id="CMR17-115"/>
       <path d="M 15.5 61.890625 
C 15.5 64.09375 13.703125 66 11.40625 66 
C 9.203125 66 7.296875 64.1875 7.296875 61.890625 
C 7.296875 59.6875 9.09375 57.796875 11.40625 57.796875 
C 13.59375 57.796875 15.5 59.59375 15.5 61.890625 
z
M 3.796875 42.890625 
L 3.796875 40.296875 
C 9.40625 40.296875 10.203125 39.6875 10.203125 34.859375 
L 10.203125 6.921875 
C 10.203125 3.09375 9.796875 2.59375 3.40625 2.59375 
L 3.40625 0 
C 5.796875 0.1875 10.09375 0.1875 12.59375 0.1875 
C 15 0.1875 19.09375 0.1875 21.40625 0 
L 21.40625 2.59375 
C 15.5 2.59375 15.296875 3.203125 15.296875 6.8125 
L 15.296875 44 
z
" id="CMR17-105"/>
       <path d="M 39 34.109375 
C 41.5 40.296875 46 40.390625 47.40625 40.390625 
L 47.40625 43 
C 45.5 42.890625 43 42.796875 41.09375 42.796875 
C 39 42.796875 35.703125 42.796875 33.703125 43 
L 33.703125 40.390625 
C 37.5 40.09375 37.59375 37.25 37.59375 36.4375 
C 37.59375 35.4375 37.40625 34.921875 36.90625 33.71875 
L 26 6.390625 
L 14.09375 35.9375 
C 13.59375 37.15625 13.59375 37.859375 13.59375 37.96875 
C 13.59375 40.1875 15.90625 40.390625 18.296875 40.390625 
L 18.296875 43 
C 15.90625 42.796875 11.59375 42.796875 9.09375 42.796875 
C 6.40625 42.796875 3.203125 42.796875 1 43 
L 1 40.390625 
C 6.40625 40.390625 7 39.890625 8.296875 36.640625 
L 23.203125 -0.484375 
C 18.703125 -12.421875 16.09375 -19.40625 9.796875 -19.40625 
C 8.703125 -19.40625 6.203125 -19.109375 4.40625 -17.28125 
C 6.703125 -17.078125 7.703125 -15.65625 7.703125 -13.9375 
C 7.703125 -12.21875 6.5 -10.703125 4.5 -10.703125 
C 2.296875 -10.703125 1.203125 -12.21875 1.203125 -14.046875 
C 1.203125 -18.09375 5.296875 -21 9.796875 -21 
C 15.59375 -21 19.203125 -15.359375 21.203125 -10.296875 
z
" id="CMR17-121"/>
       <path d="M 38.90625 27.734375 
L 18.90625 47.59375 
C 17.703125 48.796875 17.5 49 16.703125 49 
C 15.703125 49 14.703125 48.09375 14.703125 47 
C 14.703125 46.296875 14.90625 46.09375 16 45 
L 36 24.9375 
L 16 4.890625 
C 14.90625 3.796875 14.703125 3.59375 14.703125 2.890625 
C 14.703125 1.796875 15.703125 0.890625 16.703125 0.890625 
C 17.5 0.890625 17.703125 1.09375 18.90625 2.296875 
L 38.796875 22.15625 
L 59.5 1.484375 
C 59.703125 1.390625 60.40625 0.890625 61 0.890625 
C 62.203125 0.890625 63 1.796875 63 2.890625 
C 63 3.09375 63 3.484375 62.703125 3.984375 
C 62.59375 4.1875 46.703125 19.859375 41.703125 24.9375 
L 60 43.203125 
C 60.5 43.796875 62 45.09375 62.5 45.703125 
C 62.59375 45.890625 63 46.296875 63 47 
C 63 48.09375 62.203125 49 61 49 
C 60.203125 49 59.796875 48.59375 58.703125 47.5 
z
" id="CMSY10-2"/>
       <path d="M 26.59375 63.796875 
C 26.59375 65.890625 26.5 66 25.09375 66 
C 21.203125 61.359375 15.296875 59.890625 9.703125 59.6875 
C 9.40625 59.6875 8.90625 59.6875 8.796875 59.5 
C 8.703125 59.296875 8.703125 59.09375 8.703125 57 
C 11.796875 57 17 57.59375 21 59.984375 
L 21 7.296875 
C 21 3.796875 20.796875 2.59375 12.203125 2.59375 
L 9.203125 2.59375 
L 9.203125 0 
C 14 0.09375 19 0.1875 23.796875 0.1875 
C 28.59375 0.1875 33.59375 0.09375 38.40625 0 
L 38.40625 2.59375 
L 35.40625 2.59375 
C 26.796875 2.59375 26.59375 3.6875 26.59375 7.296875 
z
" id="CMR17-49"/>
       <path d="M 15 23.703125 
C 15 33.34375 19.09375 42.390625 26.59375 42.390625 
C 27.296875 42.390625 28 42.296875 28.703125 41.984375 
C 28.703125 41.984375 26.5 41.28125 26.5 38.671875 
C 26.5 36.265625 28.40625 35.265625 29.90625 35.265625 
C 31.09375 35.265625 33.296875 35.96875 33.296875 38.78125 
C 33.296875 41.984375 30.09375 44 26.703125 44 
C 19.09375 44 15.796875 36.5625 14.796875 33.046875 
L 14.703125 33.046875 
L 14.703125 44 
L 3.09375 42.890625 
L 3.09375 40.28125 
C 9 40.28125 9.90625 39.6875 9.90625 34.859375 
L 9.90625 6.921875 
C 9.90625 3.09375 9.5 2.59375 3.09375 2.59375 
L 3.09375 0 
C 5.5 0.1875 10.09375 0.1875 12.703125 0.1875 
C 15.59375 0.1875 20.703125 0.1875 23.40625 0 
L 23.40625 2.59375 
C 16.203125 2.59375 15 2.59375 15 7.109375 
z
" id="CMR17-114"/>
       <path d="M 15 69 
L 3.09375 67.890625 
L 3.09375 65.296875 
C 9 65.296875 9.90625 64.703125 9.90625 60.046875 
L 9.90625 -0.203125 
L 11.703125 -0.203125 
L 14.59375 6.953125 
C 17.5 2.203125 21.796875 -1 27.59375 -1 
C 37.59375 -1 47.703125 7.859375 47.703125 21.59375 
C 47.703125 34.515625 38.703125 44 28.59375 44 
C 22.40625 44 18 40.671875 15 36.734375 
z
M 15.203125 31.59375 
C 15.203125 33.40625 15.203125 33.703125 16.59375 35.828125 
C 20.5 41.890625 26.09375 42.390625 28 42.390625 
C 31 42.390625 41.296875 40.78125 41.296875 21.6875 
C 41.296875 1.703125 29.5 0.59375 27.09375 0.59375 
C 24 0.59375 19.5 1.796875 16.296875 7.65625 
C 15.203125 9.578125 15.203125 9.78125 15.203125 11.59375 
z
" id="CMR17-98"/>
       <path d="M 16.59375 4.09375 
C 16.59375 6.59375 14.59375 8.1875 12.5 8.1875 
C 10.5 8.1875 8.40625 6.59375 8.40625 4.09375 
C 8.40625 1.59375 10.40625 0 12.5 0 
C 14.5 0 16.59375 1.59375 16.59375 4.09375 
z
" id="CMR17-46"/>
       <path d="M 29.40625 42.890625 
L 29.40625 40.296875 
C 35.296875 40.296875 36.203125 39.6875 36.203125 34.828125 
L 36.203125 16.453125 
C 36.203125 7.96875 31.703125 0.59375 24.296875 0.59375 
C 16.09375 0.59375 15.40625 5.546875 15.40625 10.796875 
L 15.40625 44 
L 3.296875 42.890625 
L 3.296875 40.296875 
C 7.296875 40.296875 10 40.296875 10.09375 36.25 
L 10.09375 16.859375 
C 10.09375 10.09375 10.09375 5.75 12.703125 2.921875 
C 14 1.609375 16.5 -1 23.703125 -1 
C 32.203125 -1 35.5 6.25 36.296875 8.375 
L 36.40625 8.375 
L 36.40625 -1 
L 48.296875 -0.203125 
L 48.296875 2.40625 
C 42.40625 2.40625 41.5 3.015625 41.5 7.859375 
L 41.5 44 
z
" id="CMR17-117"/>
      </defs>
      <use transform="scale(0.996264)" xlink:href="#CMR17-73"/>
      <use transform="translate(32.638409 0)scale(0.996264)" xlink:href="#CMR17-110"/>
      <use transform="translate(80.931325 0)scale(0.996264)" xlink:href="#CMR17-116"/>
      <use transform="translate(116.212093 0)scale(0.996264)" xlink:href="#CMR17-101"/>
      <use transform="translate(156.697753 0)scale(0.996264)" xlink:href="#CMR17-110"/>
      <use transform="translate(207.593123 0)scale(0.996264)" xlink:href="#CMR17-115"/>
      <use transform="translate(243.394461 0)scale(0.996264)" xlink:href="#CMR17-105"/>
      <use transform="translate(268.265519 0)scale(0.996264)" xlink:href="#CMR17-116"/>
      <use transform="translate(300.943833 0)scale(0.996264)" xlink:href="#CMR17-121"/>
      <use transform="translate(379.312715 0)scale(0.996264)" xlink:href="#CMSY10-2"/>
      <use transform="translate(456.800183 0)scale(0.996264)" xlink:href="#CMR17-49"/>
      <use transform="translate(502.49066 0)scale(0.996264)" xlink:href="#CMR17-48"/>
      <use transform="translate(548.181137 36.153639)scale(0.697382)" xlink:href="#CMR17-49"/>
      <use transform="translate(580.164319 36.153639)scale(0.697382)" xlink:href="#CMR17-50"/>
      <use transform="translate(642.721599 0)scale(0.996264)" xlink:href="#CMR17-40"/>
      <use transform="translate(678.002367 0)scale(0.996264)" xlink:href="#CMR17-97"/>
      <use transform="translate(723.692844 0)scale(0.996264)" xlink:href="#CMR17-114"/>
      <use transform="translate(758.973612 0)scale(0.996264)" xlink:href="#CMR17-98"/>
      <use transform="translate(809.868982 0)scale(0.996264)" xlink:href="#CMR17-46"/>
      <use transform="translate(875.225701 0)scale(0.996264)" xlink:href="#CMR17-117"/>
      <use transform="translate(926.121071 0)scale(0.996264)" xlink:href="#CMR17-110"/>
      <use transform="translate(977.01644 0)scale(0.996264)" xlink:href="#CMR17-105"/>
      <use transform="translate(1001.887499 0)scale(0.996264)" xlink:href="#CMR17-116"/>
      <use transform="translate(1037.168267 0)scale(0.996264)" xlink:href="#CMR17-115"/>
      <use transform="translate(1072.969604 0)scale(0.996264)" xlink:href="#CMR17-41"/>
     </g>
    </g>
   </g>
   <g id="line2d_10">
    <path clip-path="url(#pdd0cb37780)" d="M 45.161064 142.617541 
L 45.404173 93.635621 
L 45.773411 149.209692 
L 46.018767 137.923441 
L 46.511819 165.826808 
L 46.757221 163.557312 
L 47.002578 158.393802 
L 47.124121 158.985667 
L 47.371793 166.202336 
L 47.495629 166.869715 
L 47.619466 166.786037 
L 47.738715 166.853388 
L 47.864822 166.753383 
L 47.986388 164.787983 
L 48.355603 149.760738 
L 48.477169 143.842089 
L 48.600959 148.53619 
L 48.846362 163.638949 
L 49.08947 164.753288 
L 49.213307 162.353174 
L 49.582499 149.617874 
L 49.704042 150.128103 
L 49.825585 149.0056 
L 50.073281 159.37344 
L 50.194801 158.699939 
L 50.440157 146.617732 
L 50.685559 151.005695 
L 50.807102 147.495324 
L 50.930938 138.331623 
L 51.29786 160.904125 
L 51.421697 160.08776 
L 51.54324 160.577579 
L 51.664805 161.72049 
L 51.788642 158.618302 
L 52.031682 149.311737 
L 52.400943 163.169539 
L 52.522463 164.414496 
L 52.646299 164.292041 
L 52.767819 163.740995 
L 52.889385 161.577626 
L 53.25633 142.005267 
L 53.501687 146.821823 
L 53.747066 155.332432 
L 53.868632 156.230433 
L 54.235508 164.843088 
L 54.48091 161.475581 
L 54.847855 165.224739 
L 54.967059 164.95942 
L 55.093212 163.863449 
L 55.457841 158.638711 
L 55.824763 162.598083 
L 55.946306 162.455219 
L 56.067849 161.598036 
L 56.191708 159.026485 
L 56.432478 146.821823 
L 56.556314 149.311737 
L 56.68015 155.352841 
L 56.799423 153.618064 
L 57.044779 140.780719 
L 57.164029 143.229815 
L 57.411701 153.801747 
L 57.77633 151.84247 
L 58.143252 149.862784 
L 58.264795 149.556647 
L 58.629401 160.78167 
L 58.874803 156.679434 
L 59.117912 153.128245 
L 59.360952 158.148892 
L 59.482518 156.944753 
L 59.725627 152.06697 
L 59.968667 158.90403 
L 60.216363 156.659025 
L 60.457178 161.046989 
L 60.581015 161.312308 
L 60.700218 159.84285 
L 61.064893 141.392993 
L 61.310249 150.740377 
L 61.551042 158.557075 
L 61.674878 156.352888 
L 61.915648 145.066637 
L 62.039484 144.454363 
L 62.16105 146.638141 
L 62.525679 160.271442 
L 62.644929 158.557075 
L 62.768765 155.107931 
L 62.890308 155.414068 
L 63.009558 157.087617 
L 63.374164 150.332194 
L 63.619566 135.678436 
L 63.741109 134.453888 
L 63.981879 143.433907 
L 64.103445 143.229815 
L 64.346553 114.452937 
L 64.468073 126.494326 
L 64.711159 162.251128 
L 64.832702 162.291946 
L 64.954245 161.353126 
L 65.073518 161.455172 
L 65.195038 160.904125 
L 65.438124 152.169016 
L 65.681233 144.046181 
L 65.924273 159.475486 
L 66.165089 157.046799 
L 66.286632 156.944753 
L 66.529717 152.862926 
L 66.77051 149.0056 
L 67.013596 159.434667 
L 67.135116 158.516256 
L 67.256682 153.454791 
L 67.497475 138.739806 
L 67.85981 159.271394 
L 67.981353 159.250985 
L 68.102919 160.046941 
L 68.226755 159.250985 
L 68.343689 155.658978 
L 68.589068 138.943897 
L 68.708318 142.209359 
L 68.951404 151.332241 
L 69.554532 118.534764 
L 69.673782 119.147038 
L 69.919161 149.332146 
L 70.038411 150.250557 
L 70.159931 146.209549 
L 70.281497 137.923441 
L 70.400746 142.209359 
L 70.643855 152.53638 
L 71.244668 142.005267 
L 71.487753 134.249797 
L 71.609296 133.025249 
L 71.730862 128.535239 
L 71.850066 129.555696 
L 72.090882 139.556171 
L 72.212425 138.943897 
L 72.57476 123.637047 
L 72.69401 128.739331 
L 73.056323 159.250985 
L 73.177889 160.026532 
L 73.297161 159.291804 
L 73.418681 154.271157 
L 73.659451 135.882527 
L 73.778724 138.331623 
L 74.02181 147.658597 
L 74.141059 145.47482 
L 74.381852 133.841614 
L 74.503418 135.270253 
L 74.624938 134.045705 
L 74.863438 118.330672 
L 75.10423 146.148322 
L 75.345023 138.739806 
L 75.468859 132.617066 
L 75.826608 150.617922 
L 76.186651 155.005885 
L 76.310487 153.740519 
L 76.427443 154.148702 
L 76.548986 153.618064 
L 76.792095 155.883478 
L 76.909029 154.495657 
L 77.271387 134.045705 
L 77.509864 147.046323 
L 77.869883 165.794153 
L 77.991449 166.612152 
L 78.229971 166.56766 
L 78.351492 166.430306 
L 78.592284 164.671651 
L 78.830784 166.069677 
L 78.952304 165.926813 
L 79.190826 165.09412 
L 79.312392 164.710428 
L 79.553139 160.700034 
L 79.670141 158.638711 
L 79.793954 158.965257 
L 79.913204 160.455124 
L 80.032454 155.332432 
L 80.273269 127.514783 
L 80.392519 128.535239 
L 80.752539 162.128673 
L 80.871788 162.720538 
L 80.988722 161.149035 
L 81.231854 154.699748 
L 81.711123 164.455314 
L 81.830372 165.334948 
L 81.947306 164.739001 
L 82.190438 161.781718 
L 82.42896 165.659453 
L 82.548141 165.828849 
L 82.669707 164.810433 
L 83.027456 155.781433 
L 83.146706 156.761071 
L 83.265978 155.271204 
L 83.387521 152.271062 
L 83.864474 159.353031 
L 84.10529 165.534957 
L 84.343812 166.141109 
L 84.463062 165.979877 
L 84.582312 164.661447 
L 84.820811 154.65893 
L 84.940015 155.556932 
L 85.183124 163.251175 
L 85.30008 160.353078 
L 85.660146 131.392518 
L 85.896352 159.924487 
L 86.015602 160.189805 
L 86.137099 160.006123 
L 86.373305 164.494092 
L 86.492554 164.610424 
L 86.61412 163.006266 
L 87.208076 147.148369 
L 87.327325 147.556552 
L 87.804347 162.761356 
L 87.923597 161.822536 
L 88.045094 159.557122 
L 88.164344 154.311975 
L 88.2813 142.821633 
L 88.641365 82.002415 
L 88.758299 93.839712 
L 88.999138 155.965115 
L 89.235321 162.700129 
L 89.35457 163.026675 
L 89.476136 163.026675 
L 89.595409 162.638901 
L 89.712343 161.72049 
L 89.831592 159.189758 
L 90.306298 137.107075 
L 90.427795 124.657504 
L 90.547045 129.147513 
L 90.783251 158.822393 
L 90.9025 159.434667 
L 91.141023 157.148845 
L 91.257956 154.169111 
L 91.618022 119.351129 
L 91.854228 146.087094 
L 91.973478 138.739806 
L 92.092727 140.372537 
L 92.33125 161.393944 
L 92.448183 162.373583 
L 92.567456 160.904125 
L 92.686705 156.434525 
L 92.925205 143.229815 
L 93.161411 158.863212 
L 93.280661 160.393897 
L 93.39991 159.965305 
L 93.755366 154.985476 
L 93.874616 155.536523 
L 94.110822 161.455172 
L 94.351569 158.291756 
L 94.466278 154.618112 
L 94.704777 130.780244 
L 94.824027 135.678436 
L 95.060233 156.128388 
L 95.417937 140.984811 
L 95.651895 144.046181 
L 95.771145 137.107075 
L 96.007351 98.533813 
L 96.48435 161.516399 
L 96.71824 164.08795 
L 96.83749 164.353269 
L 97.076012 163.822631 
L 97.309902 164.169586 
L 97.550718 163.14913 
L 97.784608 164.73696 
L 97.903857 164.645119 
L 98.023107 164.80431 
L 98.256997 165.434953 
L 98.376247 165.304334 
L 98.495519 165.357398 
L 98.731703 166.081922 
L 98.848659 165.955386 
L 99.206408 165.326784 
L 99.321117 165.453321 
L 99.795823 166.439694 
L 99.912779 166.298463 
L 100.387485 165.112488 
L 100.740624 165.447198 
L 100.859874 165.312498 
L 100.976831 165.369643 
L 101.213014 165.983958 
L 101.44922 165.92069 
L 101.802428 165.76354 
L 101.921701 165.845176 
L 102.274841 165.210452 
L 102.391774 165.51863 
L 102.511024 165.469648 
L 102.74723 164.583892 
L 102.98112 165.29413 
L 103.10037 165.073711 
L 103.217326 164.496133 
L 103.453578 161.006171 
L 103.687468 153.679292 
L 103.925991 158.046846 
L 104.15988 155.740614 
L 104.515336 164.95942 
L 104.749226 165.18392 
L 105.102435 165.422707 
L 105.453258 164.790024 
L 105.923423 165.885995 
L 106.042673 165.796194 
L 106.278879 165.824767 
L 106.629702 165.392094 
L 106.746659 165.657412 
L 106.865909 165.534957 
L 106.985158 165.214534 
L 107.216824 165.36148 
L 107.455323 165.153307 
L 107.686897 165.524753 
L 107.920856 164.796147 
L 108.040105 163.985904 
L 108.273995 159.924487 
L 108.390952 161.332717 
L 108.627158 165.671699 
L 108.863341 165.934976 
L 109.33119 165.261475 
L 109.562787 166.000286 
L 109.682036 165.583939 
L 109.918288 162.536856 
L 110.035245 159.699986 
L 110.152178 159.638759 
L 110.386068 165.308416 
L 110.503025 165.649249 
L 111.20708 164.785942 
L 111.791862 166.418673 
L 111.908818 166.269686 
L 112.140461 165.483935 
L 112.376667 165.147184 
L 112.493601 164.026723 
L 112.727491 160.516352 
L 112.961449 165.002279 
L 113.078406 164.86962 
L 113.312296 163.312403 
L 113.663188 165.132898 
L 113.897078 164.661447 
L 114.014011 165.267598 
L 114.130968 165.214534 
L 114.36261 163.047084 
L 114.479567 161.332717 
L 114.713457 162.271537 
L 114.830459 161.863354 
L 115.064349 153.638474 
L 115.181306 155.536523 
L 115.415195 162.43481 
L 115.529905 162.128673 
L 115.763794 164.46756 
L 115.880728 163.37363 
L 116.114687 158.842803 
L 116.231643 159.577531 
L 116.463217 163.475676 
L 116.580219 162.802174 
L 116.931066 165.136979 
L 117.047999 164.771656 
L 117.279665 163.740995 
L 117.396598 163.679767 
L 117.515848 163.37363 
L 117.632804 163.679767 
L 117.745197 162.312355 
L 118.096021 148.250462 
L 118.44462 164.067541 
L 118.561576 163.965495 
L 118.793219 161.312308 
L 118.912468 161.700081 
L 119.144042 164.865538 
L 119.258751 164.394087 
L 119.492641 162.638901 
L 119.726531 163.761404 
L 119.84124 162.883811 
L 120.072814 157.4958 
L 120.30902 151.107741 
L 120.423729 151.903697 
L 120.540663 149.556647 
L 120.886945 115.881576 
L 121.120835 156.271252 
L 121.237792 158.740757 
L 121.467118 146.087094 
L 121.703324 131.800701 
L 121.934967 152.842517 
L 122.049607 155.230386 
L 122.164316 146.087094 
L 122.515163 91.390616 
L 122.746805 123.024773 
L 122.861445 122.208408 
L 123.093088 84.655602 
L 123.441618 156.883526 
L 123.558621 157.577436 
L 123.673261 156.699844 
L 123.787901 153.4752 
L 124.02186 145.270729 
L 124.138793 144.862546 
L 124.253434 145.883003 
L 124.599716 108.126106 
L 124.948315 161.883763 
L 125.294598 164.608383 
L 125.528488 165.141061 
L 125.643197 164.830842 
L 125.991727 161.189853 
L 126.33801 165.302293 
L 126.684293 165.265557 
L 126.801295 164.818597 
L 126.913619 163.006266 
L 127.262218 146.923869 
L 127.610817 160.434715 
L 128.186381 165.743131 
L 128.303383 165.657412 
L 128.53498 166.49566 
L 128.649666 166.444797 
L 128.995949 165.843135 
L 129.110589 165.857422 
L 129.573828 163.475676 
L 130.034751 156.577389 
L 130.381034 164.271632 
L 130.495743 164.08795 
L 130.61036 163.577722 
L 130.956666 156.434525 
L 131.417635 162.638901 
L 131.646916 163.720586 
L 131.880874 160.944943 
L 131.995515 159.516304 
L 132.107907 159.720395 
L 132.222548 158.393802 
L 132.45419 140.372537 
L 132.56883 128.943422 
L 132.683471 134.249797 
L 132.917429 153.413973 
L 133.029753 154.087474 
L 133.144463 150.046466 
L 133.25908 139.964354 
L 133.488429 75.267401 
L 133.722319 14.04 
L 133.949352 110.983384 
L 134.064061 115.473394 
L 134.293388 96.288808 
L 134.527278 146.087094 
L 134.756627 151.903697 
L 134.871267 147.536143 
L 134.98366 136.086619 
L 135.327627 52.613262 
L 135.78855 157.230481 
L 136.017899 161.189853 
L 136.247225 162.598083 
L 136.364182 162.90422 
L 136.593508 163.985904 
L 137.049891 163.740995 
L 137.281464 164.592056 
L 137.396173 164.634915 
L 137.625431 163.679767 
L 137.74014 163.067493 
L 137.967173 164.730838 
L 138.081813 164.659406 
L 138.311163 161.475581 
L 138.425849 159.61835 
L 138.540489 160.700034 
L 138.769838 164.353269 
L 139.111512 165.981918 
L 139.572481 166.629295 
L 139.799514 166.347037 
L 140.026547 165.904363 
L 140.258143 166.607049 
L 140.37283 166.512188 
L 140.60211 165.734967 
L 140.829143 166.298055 
L 141.170885 164.498173 
L 141.287819 164.690019 
L 141.514852 166.360711 
L 141.629492 165.769663 
L 141.973528 160.720443 
L 142.429841 166.27785 
L 142.544527 166.086004 
L 142.656874 165.269639 
L 142.886201 162.006218 
L 143.00091 162.393992 
L 143.227943 163.84304 
L 143.340267 164.210405 
L 143.569616 164.108359 
L 143.798942 160.944943 
L 143.913583 159.414258 
L 144.025976 159.944896 
L 144.367649 164.98187 
L 144.480042 165.198207 
L 144.709368 163.945086 
L 144.938717 164.57981 
L 145.051041 164.679815 
L 145.165751 164.210405 
L 145.392784 164.975747 
L 145.507424 165.016565 
L 145.734457 162.945038 
L 145.849143 163.271585 
L 146.076176 164.455314 
L 146.190816 163.965495 
L 146.305457 161.25108 
L 146.644883 132.821157 
L 147.101242 165.267598 
L 147.213658 165.234943 
L 147.896982 161.679672 
L 148.009375 161.108216 
L 148.124015 161.516399 
L 148.351048 166.069677 
L 148.465757 166.539699 
L 148.692767 166.257441 
L 149.032193 165.832931 
L 149.259226 166.315607 
L 149.600899 166.124781 
L 149.940325 166.336832 
L 150.167359 166.228868 
L 150.623718 164.928806 
L 150.960782 165.40638 
L 151.075491 165.208411 
L 151.300208 163.598131 
L 151.527241 162.536856 
L 151.754274 164.900233 
L 151.866667 164.853292 
L 151.9836 164.485928 
L 152.210633 165.028811 
L 152.433057 164.798188 
L 152.660159 165.690067 
L 152.772483 165.530876 
L 152.887169 164.845129 
L 152.999493 162.945038 
L 153.111909 155.863069 
L 153.453559 112.412024 
L 153.680593 157.761119 
L 153.790692 160.740852 
L 153.905378 160.128578 
L 154.357151 164.679815 
L 154.581868 165.065547 
L 154.696508 165.261475 
L 155.038228 164.949215 
L 155.15062 164.763492 
L 155.262944 164.908397 
L 155.487684 165.712517 
L 156.051827 165.863545 
L 156.16422 165.692108 
L 156.505893 163.720586 
L 156.730679 165.018606 
L 156.843003 164.890029 
L 156.955396 164.485928 
L 157.40483 165.381889 
L 157.517246 165.432912 
L 157.856671 166.106413 
L 158.196029 165.973754 
L 158.420814 166.1656 
L 158.760172 165.288007 
L 158.870248 165.359439 
L 159.095034 165.408421 
L 159.659131 166.2105 
L 159.996241 166.267645 
L 160.108633 166.228868 
L 160.221026 166.034981 
L 160.448059 165.567612 
L 160.672776 166.399897 
L 160.782876 166.506779 
L 161.344703 166.281932 
L 161.459343 166.041104 
L 161.684129 165.222698 
L 161.796453 165.430871 
L 162.021192 166.14315 
L 162.133585 166.151313 
L 162.468379 165.859463 
L 162.690871 165.892117 
L 162.803195 165.753335 
L 163.027981 165.18392 
L 163.365091 166.053349 
L 163.479731 165.618635 
L 163.704448 162.332764 
L 163.92694 163.84304 
L 164.039264 162.026627 
L 164.26405 156.659025 
L 164.488767 164.455314 
L 164.711191 165.22882 
L 164.823583 165.22678 
L 164.935976 165.408421 
L 165.046007 164.849211 
L 165.1584 163.577722 
L 165.270793 163.924677 
L 165.493194 165.579858 
L 165.605586 165.410462 
L 165.720227 164.434905 
L 165.832619 159.944896 
L 166.055043 146.250367 
L 166.279829 161.679672 
L 166.392153 162.414401 
L 166.502252 162.21031 
L 166.614645 160.822489 
L 166.951755 165.255352 
L 167.174156 164.373678 
L 167.508972 165.447198 
L 167.619049 164.598178 
L 167.841541 161.108216 
L 168.066258 164.992075 
L 168.290975 165.483935 
L 168.403391 163.128721 
L 168.625792 157.169254 
L 168.738185 157.761119 
L 168.850577 157.516209 
L 168.960608 159.291804 
L 169.185394 165.194125 
L 169.407795 165.006361 
L 169.630287 165.914567 
L 169.742611 165.583939 
L 169.965103 160.251033 
L 170.299897 165.726803 
L 170.520073 165.481894 
L 170.632397 165.214534 
L 170.74479 164.292041 
L 170.969507 165.190043 
L 171.07729 165.341071 
L 171.304324 164.047132 
L 171.526793 165.555367 
L 171.749217 166.239073 
L 171.971709 166.48388 
L 172.084033 166.431939 
L 172.19411 166.024777 
L 172.416602 163.720586 
L 172.528926 162.353174 
L 172.751396 163.924677 
L 172.97382 159.638759 
L 173.306389 166.224786 
L 173.418713 165.849258 
L 173.751282 161.577626 
L 173.973682 165.788031 
L 174.086075 166.134986 
L 174.196175 165.467607 
L 174.416328 158.965257 
L 174.638752 165.714558 
L 174.751145 166.239073 
L 175.083645 166.196213 
L 175.528538 166.378671 
L 175.640931 166.126822 
L 175.861038 165.016565 
L 176.083508 165.583939 
L 176.416008 163.863449 
L 176.526108 164.006313 
L 176.638501 163.37363 
L 177.081078 148.964782 
L 177.19347 152.148607 
L 177.413578 163.536903 
L 177.523678 164.067541 
L 177.746147 163.679767 
L 177.968571 165.671699 
L 178.188724 166.026818 
L 178.301117 165.916608 
L 178.411148 165.98804 
L 178.631324 166.27785 
L 178.963824 166.384794 
L 179.073901 165.841094 
L 179.296393 160.761261 
L 179.628871 166.173763 
L 179.73897 166.155395 
L 179.959146 165.802317 
L 180.179323 166.281932 
L 180.289331 165.426789 
L 180.5118 162.842993 
L 180.6219 163.251175 
L 180.734224 161.02658 
L 180.9544 162.169491 
L 181.064477 162.291946 
L 181.174576 160.210215 
L 181.507054 165.892117 
L 181.72723 166.230909 
L 181.837329 166.214582 
L 181.947406 166.063554 
L 182.279906 162.90422 
L 182.389983 161.72049 
L 182.610159 163.61854 
L 182.72019 163.659358 
L 183.050443 166.230909 
L 183.16052 166.130904 
L 183.823273 166.44745 
L 184.15348 166.090086 
L 184.373633 165.581898 
L 184.593809 164.31245 
L 184.813986 165.218616 
L 184.923993 164.741042 
L 185.034093 164.794106 
L 185.14417 161.02658 
L 185.364346 147.944325 
L 185.694599 165.600267 
L 185.80463 165.83089 
L 185.914706 165.551285 
L 186.024806 164.659406 
L 186.242666 164.983911 
L 186.352743 164.08795 
L 186.462842 161.659263 
L 186.572919 162.312355 
L 186.793026 166.020695 
L 187.013202 166.502779 
L 187.123279 166.438674 
L 187.233356 166.147231 
L 187.451239 164.75941 
L 187.671392 165.134938 
L 187.781423 164.918602 
L 188.111676 166.492452 
L 188.659789 166.350711 
L 188.769819 166.396019 
L 188.879896 166.290095 
L 188.98768 164.839006 
L 189.097756 161.781718 
L 189.207856 162.169491 
L 189.428009 166.061513 
L 189.645892 166.412346 
L 190.193936 164.698183 
L 190.304013 164.875742 
L 190.629656 166.030899 
L 190.739756 165.973754 
L 190.852149 165.753335 
L 191.070009 165.867626 
L 191.180085 165.485976 
L 191.290116 164.524705 
L 191.507976 160.373488 
L 191.835913 165.849258 
L 192.056089 165.932936 
L 192.163873 166.039063 
L 192.384049 166.486717 
L 192.491809 166.56419 
L 192.601909 166.447042 
L 192.929846 165.702312 
L 193.147706 165.690067 
L 193.257736 165.620676 
L 193.475596 165.081875 
L 193.803533 159.985714 
L 194.021416 161.618445 
L 194.131493 160.638806 
L 194.459429 165.959467 
L 194.567213 166.239073 
L 194.677312 165.957427 
L 194.895173 165.177798 
L 195.113033 165.926813 
L 195.440969 165.981918 
L 195.548753 165.592103 
L 195.876643 161.169444 
L 195.984473 161.618445 
L 196.310116 166.071718 
L 196.527976 166.351119 
L 196.63576 166.286014 
L 196.855867 165.598226 
L 197.073727 163.557312 
L 197.291587 161.210262 
L 197.509447 164.047132 
L 197.619547 164.271632 
L 197.837407 158.067256 
L 198.270811 163.904268 
L 198.38091 163.496085 
L 198.596454 155.985524 
L 199.032174 164.863497 
L 199.139958 164.414496 
L 199.250034 159.455077 
L 199.467917 148.270871 
L 199.683461 160.842898 
L 200.006857 164.08795 
L 200.116865 163.414449 
L 200.442577 158.352983 
L 200.552608 158.516256 
L 200.770468 151.924106 
L 201.096112 162.149082 
L 201.311724 163.904268 
L 201.421755 163.659358 
L 201.529584 162.43481 
L 201.637368 157.005981 
L 201.855228 128.943422 
L 202.288654 161.700081 
L 202.504198 163.414449 
L 202.611982 163.475676 
L 202.827526 161.842945 
L 203.260952 164.994115 
L 203.586596 161.475581 
L 203.912285 165.149225 
L 204.127852 165.65333 
L 204.343396 164.414496 
L 204.561256 164.814515 
L 204.776823 164.665528 
L 204.884583 164.189996 
L 204.992366 164.596137 
L 205.210226 165.92069 
L 205.423546 166.332342 
L 205.63909 166.368262 
L 205.964733 166.090086 
L 206.290377 166.359078 
L 206.505943 166.523372 
L 206.613704 166.494126 
L 206.829271 166.269686 
L 207.044883 166.467859 
L 207.581461 165.802317 
L 207.797074 166.10029 
L 208.012641 165.477812 
L 208.120424 165.583939 
L 208.446044 166.298871 
L 208.984938 166.415816 
L 209.416118 165.877831 
L 209.734836 166.430306 
L 209.950448 166.161518 
L 210.276092 165.281884 
L 210.491636 165.441075 
L 211.136066 166.002327 
L 211.243849 165.957427 
L 211.349316 165.773744 
L 211.562613 164.851252 
L 211.670396 164.963502 
L 211.993723 165.845176 
L 212.20929 165.918649 
L 212.745914 165.908445 
L 213.280267 166.112536 
L 213.603594 165.714558 
L 214.034705 166.153354 
L 214.248001 165.998245 
L 214.887799 164.787983 
L 215.208902 164.930847 
L 215.316685 164.904315 
L 215.424446 164.75941 
L 215.640012 165.069629 
L 215.747773 164.434905 
L 215.961092 162.985857 
L 216.174343 164.047132 
L 216.387593 164.210405 
L 216.493129 164.149177 
L 216.60089 163.475676 
L 216.706357 161.761309 
L 216.81414 153.352746 
L 217.02746 125.882052 
L 217.45857 156.618207 
L 217.669574 158.842803 
L 217.775041 159.046894 
L 217.882801 159.944896 
L 218.096121 162.781765 
L 218.309371 163.108312 
L 218.632699 162.230719 
L 218.846018 162.67972 
L 218.951485 162.149082 
L 219.162488 159.414258 
L 219.802286 165.059425 
L 220.231149 165.532917 
L 220.655403 164.939011 
L 221.08195 163.781813 
L 221.292884 161.761309 
L 221.400668 158.985667 
L 221.508451 145.883003 
L 221.719454 104.452462 
L 222.038241 143.637998 
L 222.146001 146.556504 
L 222.464788 160.577579 
L 222.785799 164.026723 
L 222.996825 164.777779 
L 223.102292 164.879824 
L 223.313295 164.230814 
L 223.421056 164.394087 
L 223.739843 165.40638 
L 223.950777 165.510467 
L 224.060854 165.326784 
L 224.269564 162.883811 
L 224.375031 162.985857 
L 224.693817 164.08795 
L 224.907114 164.026723 
L 225.331367 165.230861 
L 225.436835 165.096161 
L 225.647838 164.651242 
L 225.755621 164.808392 
L 226.072092 165.822726 
L 226.179875 165.494139 
L 226.388562 164.230814 
L 226.496345 164.524705 
L 226.70728 165.610471 
L 226.815109 165.141061 
L 227.026043 163.679767 
L 227.342514 165.700271 
L 227.553517 165.896199 
L 227.6613 165.939058 
L 227.977771 166.442348 
L 228.294241 166.408672 
L 228.610712 165.914567 
L 228.823962 164.865538 
L 228.929498 164.790024 
L 229.140433 163.924677 
L 229.245969 164.251223 
L 229.351436 163.965495 
L 229.562439 162.965448 
L 230.089844 165.359439 
L 230.303163 163.659358 
L 231.144791 166.083963 
L 231.250258 166.024777 
L 231.566728 163.067493 
L 231.672196 163.108312 
L 231.880906 164.128768 
L 232.094156 164.251223 
L 232.199692 164.108359 
L 232.305159 163.557312 
L 232.516162 164.455314 
L 232.62163 164.006313 
L 232.828 161.659263 
L 232.933536 161.72049 
L 233.04132 160.78167 
L 233.146787 161.067398 
L 233.463257 164.581851 
L 233.568725 164.841047 
L 233.671944 164.690019 
L 233.880654 164.128768 
L 233.986122 164.271632 
L 234.093882 162.740947 
L 234.304885 148.413735 
L 234.513595 155.434477 
L 234.616746 155.863069 
L 234.722282 151.12815 
L 234.827749 151.679197 
L 235.038752 160.251033 
L 235.14422 160.904125 
L 235.355223 154.209929 
L 235.772551 163.067493 
L 235.983554 157.679482 
L 236.089021 158.557075 
L 236.300025 162.802174 
L 236.820572 166.061513 
L 236.926108 166.241114 
L 237.033892 166.175804 
L 237.34573 164.31245 
L 237.55444 160.006123 
L 237.87091 164.741042 
L 237.976377 165.247189 
L 238.081913 165.190043 
L 238.496994 160.985762 
L 238.705681 162.516447 
L 238.813464 162.332764 
L 239.334012 165.761499 
L 239.542699 165.924772 
L 239.648167 165.892117 
L 239.962321 164.830842 
L 240.065563 165.108407 
L 240.171031 164.957379 
L 240.27425 164.600219 
L 240.485254 159.720395 
L 240.590721 160.536761 
L 240.797115 164.006313 
L 241.111269 164.95942 
L 241.214511 164.957379 
L 241.319979 164.814515 
L 241.423198 164.879824 
L 241.737353 165.516589 
L 242.15475 166.088045 
L 242.363437 166.220704 
L 242.46661 166.155395 
L 242.675297 165.083916 
L 242.883984 164.108359 
L 243.301381 165.602308 
L 243.716462 165.990081 
L 244.13379 165.412503 
L 244.445697 163.720586 
L 244.966245 165.539039 
L 245.069488 165.590062 
L 245.278175 165.075752 
L 245.587719 165.908445 
L 245.798723 165.841094 
L 246.314707 163.883859 
L 246.52571 162.455219 
L 246.938497 165.128816 
L 247.252652 165.85334 
L 247.667732 165.998245 
L 247.97503 166.348466 
L 248.807507 166.422959 
L 249.117052 166.432347 
L 249.529885 166.455818 
L 249.635353 166.441531 
L 249.944966 165.365562 
L 250.360047 166.149272 
L 250.463198 166.167641 
L 250.564124 165.802317 
L 250.770518 164.473683 
L 251.084672 165.639044 
L 251.187892 165.749253 
L 251.39197 165.688026 
L 251.80705 166.249277 
L 252.21759 166.394794 
L 252.423984 166.377447 
L 252.529451 166.31928 
L 252.836749 165.769663 
L 253.146362 166.331322 
L 253.251829 166.297851 
L 253.455907 165.908445 
L 253.76552 166.321525 
L 253.974207 166.395407 
L 254.075134 166.259482 
L 254.384679 164.767574 
L 254.588825 160.883716 
L 255.00159 164.941052 
L 255.311203 165.655371 
L 255.414354 165.510467 
L 255.721651 165.969672 
L 255.824894 165.843135 
L 256.134439 162.67972 
L 256.338585 164.747165 
L 256.441736 164.994115 
L 256.645882 163.863449 
L 256.75135 163.965495 
L 256.955427 165.169634 
L 257.161798 165.390053 
L 257.363651 163.475676 
L 257.469118 163.577722 
L 257.675558 164.84717 
L 257.877342 165.130857 
L 258.189249 165.430871 
L 258.290107 165.430871 
L 258.393326 165.006361 
L 258.597404 163.128721 
L 258.69833 163.047084 
L 258.907017 155.822251 
L 259.521635 163.822631 
L 259.826616 164.765533 
L 259.92979 164.614506 
L 260.239404 164.189996 
L 260.340307 163.026675 
L 260.441234 156.740662 
L 260.645311 137.719349 
L 261.055828 158.455029 
L 261.365373 162.1899 
L 261.66813 164.271632 
L 261.872207 163.883859 
L 262.282679 164.836965 
L 262.486825 165.008402 
L 262.587729 165.057384 
L 262.791806 164.973706 
L 262.894957 165.000238 
L 262.9982 164.775738 
L 263.099103 164.108359 
L 263.406424 150.332194 
L 263.711405 160.965352 
L 264.119629 163.720586 
L 264.62871 164.91452 
L 265.036934 165.11657 
L 265.445135 164.189996 
L 265.750139 162.618492 
L 265.850997 160.516352 
L 266.055143 154.169111 
L 266.360124 161.7409 
L 266.766032 163.985904 
L 266.866959 164.292041 
L 267.073352 163.924677 
L 267.376017 164.55736 
L 267.47926 164.583892 
L 267.582411 164.149177 
L 267.784241 163.108312 
L 267.986025 164.434905 
L 268.190172 164.749206 
L 268.293323 164.394087 
L 268.492837 158.516256 
L 268.593763 159.087712 
L 268.90106 163.169539 
L 269.203748 164.394087 
L 269.306991 164.189996 
L 269.511046 163.189948 
L 269.813802 164.812474 
L 270.01788 164.822679 
L 270.31832 165.367603 
L 270.524714 165.106366 
L 270.825086 165.445157 
L 271.031479 164.455314 
L 271.33192 165.522712 
L 271.535997 165.843135 
L 271.939612 166.053349 
L 272.242346 166.110495 
L 272.545033 166.265604 
L 272.950941 166.198254 
L 273.455482 166.319689 
L 273.556386 166.517657 
L 273.758216 166.353364 
L 273.96 166.288055 
L 273.96 166.288055 
" style="fill:none;stroke:#ff0000;stroke-linecap:square;stroke-width:1.5;"/>
   </g>
   <g id="line2d_11">
    <path clip-path="url(#pdd0cb37780)" d="M 45.161064 142.584024 
L 45.404173 98.762216 
L 45.773411 148.031695 
L 46.018767 140.153239 
L 46.511819 165.596989 
L 46.757221 163.47424 
L 47.002578 158.976991 
L 47.124121 159.501824 
L 47.371793 165.85725 
L 47.495629 166.758901 
L 47.738715 166.826849 
L 47.864822 166.476356 
L 47.986388 164.451998 
L 48.477169 145.411435 
L 48.600959 149.468036 
L 48.846362 163.162909 
L 48.967905 164.516382 
L 49.08947 164.385482 
L 49.213307 161.84739 
L 49.582499 149.957209 
L 49.825585 149.804298 
L 50.073281 158.391885 
L 50.194801 157.71684 
L 50.440157 147.561859 
L 50.685559 150.069603 
L 50.930938 140.573173 
L 51.052458 145.25507 
L 51.29786 160.070966 
L 51.54324 160.671906 
L 51.664805 161.094739 
L 51.788642 157.898778 
L 52.031682 150.459968 
L 52.400943 163.005522 
L 52.522463 164.209884 
L 52.646299 164.224196 
L 52.767819 163.492704 
L 52.889385 160.853098 
L 53.25633 142.737094 
L 53.380121 144.026773 
L 54.235508 164.44008 
L 54.48091 161.929874 
L 54.847855 165.122691 
L 54.967059 164.840687 
L 55.214755 161.639211 
L 55.457841 158.985749 
L 55.824763 162.546234 
L 55.946306 162.345615 
L 56.067849 161.344689 
L 56.191708 158.427063 
L 56.432478 148.058026 
L 56.556314 149.824224 
L 56.68015 154.196692 
L 56.799423 152.820568 
L 57.044779 142.025393 
L 57.164029 143.749601 
L 57.411701 153.052957 
L 57.533244 153.190071 
L 58.143252 149.948762 
L 58.264795 150.342789 
L 58.629401 160.415733 
L 58.874803 156.726807 
L 59.117912 153.612583 
L 59.360952 157.488475 
L 59.482518 156.61028 
L 59.725627 152.88678 
L 59.968667 158.305524 
L 60.216363 157.155248 
L 60.581015 161.038583 
L 60.700218 159.068286 
L 61.064893 142.630759 
L 61.429499 154.099517 
L 61.551042 157.536161 
L 61.674878 155.635285 
L 61.915648 145.654562 
L 62.039484 144.876306 
L 62.16105 146.999068 
L 62.525679 159.392713 
L 62.644929 158.307868 
L 62.768765 155.656418 
L 62.890308 155.625921 
L 63.009558 156.501808 
L 63.25496 152.111212 
L 63.374164 149.382555 
L 63.619566 136.488711 
L 63.741109 135.461193 
L 63.981879 142.817957 
L 64.103445 141.450576 
L 64.346553 118.759273 
L 64.468073 128.804586 
L 64.711159 160.906211 
L 64.832702 162.135298 
L 65.195038 160.470727 
L 65.438124 152.028239 
L 65.681233 145.686031 
L 65.924273 158.31439 
L 66.043546 158.247982 
L 66.408197 155.343385 
L 66.651238 149.840253 
L 66.77051 149.95483 
L 67.013596 158.605169 
L 67.135116 157.879474 
L 67.497475 140.677018 
L 67.85981 158.769694 
L 68.102919 159.809022 
L 68.226755 158.794396 
L 68.465232 147.600693 
L 68.589068 140.739141 
L 68.708318 142.981468 
L 68.951404 150.213785 
L 69.554532 120.556978 
L 69.673782 121.862954 
L 69.919161 147.756332 
L 70.038411 149.473096 
L 70.281497 139.845767 
L 70.400746 142.835646 
L 70.643855 151.92925 
L 71.006168 146.996787 
L 71.730862 129.378075 
L 71.850066 130.302856 
L 72.090882 138.82354 
L 72.212425 138.410856 
L 72.57476 125.155222 
L 72.69401 129.857556 
L 73.056323 158.59421 
L 73.177889 159.782715 
L 73.297161 158.631685 
L 73.537931 144.540015 
L 73.659451 137.543667 
L 73.778724 138.955086 
L 74.02181 146.880829 
L 74.141059 144.510778 
L 74.381852 134.536916 
L 74.503418 134.861812 
L 74.624938 132.43722 
L 74.863438 121.454469 
L 75.10423 143.913738 
L 75.22575 142.953536 
L 75.468859 134.655628 
L 75.948151 152.742362 
L 76.186651 154.79653 
L 76.310487 153.990054 
L 76.548986 153.930146 
L 76.792095 155.540981 
L 76.909029 153.618224 
L 77.271387 135.245673 
L 77.390591 139.178332 
L 77.869883 165.364456 
L 78.112992 166.587951 
L 78.229971 166.548877 
L 78.351492 166.312302 
L 78.592284 164.88696 
L 78.830784 165.913287 
L 78.952304 165.846796 
L 79.312392 164.55532 
L 79.670141 159.015565 
L 79.793954 159.138978 
L 79.913204 159.405049 
L 80.032454 153.845453 
L 80.273269 129.719253 
L 80.392519 130.565858 
L 80.752539 161.052112 
L 80.871788 162.357622 
L 80.988722 160.76639 
L 81.231854 155.463633 
L 81.830372 165.096453 
L 81.947306 164.51923 
L 82.190438 162.25884 
L 82.548141 165.642219 
L 82.669707 164.532298 
L 83.027456 156.239242 
L 83.146706 156.376717 
L 83.387521 153.00038 
L 83.506725 154.255618 
L 84.10529 165.276467 
L 84.343812 166.080917 
L 84.463062 165.792813 
L 84.582312 164.177397 
L 84.820811 155.69775 
L 84.940015 156.344108 
L 85.183124 162.504975 
L 85.30008 159.285493 
L 85.660146 134.861172 
L 85.896352 158.257657 
L 86.373305 164.176245 
L 86.492554 164.340879 
L 86.61412 162.655761 
L 87.091119 149.096827 
L 87.208076 147.546172 
L 87.327325 148.245143 
L 87.804347 162.53496 
L 87.923597 161.615682 
L 88.045094 159.074024 
L 88.164344 153.262744 
L 88.402866 118.660905 
L 88.641365 86.271724 
L 88.758299 97.712103 
L 88.999138 152.940491 
L 89.235321 162.623108 
L 89.35457 162.974585 
L 89.476136 162.964969 
L 89.595409 162.548437 
L 89.712343 161.462331 
L 89.950842 154.021633 
L 90.427795 127.266468 
L 90.547045 131.475296 
L 90.783251 157.217773 
L 90.9025 159.177971 
L 91.02175 158.454121 
L 91.141023 156.873701 
L 91.257956 152.947624 
L 91.618022 123.166238 
L 91.854228 143.583484 
L 91.973478 140.14156 
L 92.092727 142.203203 
L 92.33125 160.308366 
L 92.448183 161.964682 
L 92.567456 160.421019 
L 92.925205 145.283844 
L 93.280661 160.07431 
L 93.39991 159.791713 
L 93.755366 155.348314 
L 93.874616 156.121753 
L 94.110822 160.981892 
L 94.230072 160.116538 
L 94.351569 157.972995 
L 94.466278 153.402098 
L 94.704777 133.523378 
L 94.824027 137.407262 
L 95.060233 154.484936 
L 95.417937 141.542897 
L 95.534939 142.850374 
L 95.651895 142.751683 
L 95.771145 134.479665 
L 96.007351 103.721742 
L 96.601306 162.963501 
L 96.83749 164.251875 
L 97.076012 163.899108 
L 97.192946 164.098822 
L 97.309902 164.050237 
L 97.550718 163.354607 
L 97.784608 164.626478 
L 98.023107 164.853525 
L 98.256997 165.387583 
L 98.376247 165.333115 
L 98.495519 165.404251 
L 98.731703 165.999618 
L 98.848659 165.927526 
L 99.206408 165.380438 
L 99.321117 165.485257 
L 99.795823 166.4098 
L 99.912779 166.267836 
L 100.387485 165.150729 
L 101.093764 165.72246 
L 101.32997 165.977678 
L 102.038635 165.627525 
L 102.274841 165.270986 
L 102.391774 165.460716 
L 102.511024 165.391504 
L 102.74723 164.697884 
L 102.98112 165.200197 
L 103.10037 165.012936 
L 103.217326 164.392487 
L 103.453578 160.666451 
L 103.687468 154.602871 
L 103.925991 157.590884 
L 104.15988 156.513009 
L 104.515336 164.759231 
L 104.749226 165.195239 
L 105.102435 165.386417 
L 105.453258 164.854792 
L 105.923423 165.867113 
L 106.393519 165.629235 
L 106.512769 165.397156 
L 106.629702 165.426721 
L 106.746659 165.595116 
L 107.333757 165.221813 
L 107.455323 165.202005 
L 107.686897 165.452645 
L 107.920856 164.732137 
L 108.040105 163.784944 
L 108.273995 160.494064 
L 108.390952 161.611146 
L 108.627158 165.506814 
L 108.863341 165.90672 
L 109.095007 165.600908 
L 109.33119 165.342852 
L 109.562787 165.879066 
L 109.682036 165.478476 
L 109.918288 162.400916 
L 110.035245 160.161631 
L 110.152178 160.250108 
L 110.386068 165.022418 
L 110.503025 165.567491 
L 110.970873 165.22643 
L 111.20708 164.884525 
L 111.791862 166.369489 
L 111.908818 166.221414 
L 112.376667 164.999858 
L 112.727491 161.138982 
L 112.961449 164.663473 
L 113.078406 164.730212 
L 113.312296 163.504596 
L 113.663188 165.019626 
L 113.897078 164.764892 
L 114.014011 165.159254 
L 114.130968 165.096196 
L 114.36261 163.003615 
L 114.479567 161.686455 
L 114.5965 161.791037 
L 114.713457 162.118339 
L 114.830459 161.364155 
L 115.064349 154.73953 
L 115.181306 156.140106 
L 115.415195 162.155358 
L 115.529905 162.408367 
L 115.763794 164.13269 
L 115.880728 163.187384 
L 116.114687 159.348051 
L 116.231643 159.934353 
L 116.463217 163.194994 
L 116.580219 163.062562 
L 116.931066 165.031793 
L 117.632804 163.38728 
L 117.745197 161.911082 
L 118.096021 149.939286 
L 118.561576 163.802203 
L 118.793219 161.64282 
L 118.912468 162.023571 
L 119.144042 164.644618 
L 119.258751 164.305498 
L 119.492641 162.853356 
L 119.726531 163.51562 
L 119.84124 162.625286 
L 120.072814 157.289701 
L 120.30902 151.575382 
L 120.423729 151.364903 
L 120.540663 147.95557 
L 120.886945 120.016238 
L 121.237792 157.474333 
L 121.467118 145.927813 
L 121.703324 134.627852 
L 122.049607 153.228139 
L 122.164316 144.313069 
L 122.515163 97.13254 
L 122.746805 121.645419 
L 122.861445 118.897682 
L 123.093088 91.706619 
L 123.558621 157.278486 
L 123.673261 156.290275 
L 124.138793 145.070152 
L 124.253434 143.263154 
L 124.599716 113.015711 
L 124.948315 161.017742 
L 125.179958 163.954629 
L 125.411555 164.93397 
L 125.528488 165.057448 
L 125.643197 164.687051 
L 125.991727 161.63893 
L 126.33801 165.181548 
L 126.452719 165.310897 
L 126.684293 165.187948 
L 126.801295 164.570172 
L 126.913619 162.463712 
L 127.262218 148.464793 
L 127.723141 161.87965 
L 127.9571 165.214376 
L 128.186381 165.718907 
L 128.303383 165.746224 
L 128.53498 166.421199 
L 128.649666 166.406105 
L 128.995949 165.841562 
L 129.110589 165.757053 
L 129.573828 163.275028 
L 130.034751 157.222603 
L 130.381034 164.098329 
L 130.495743 164.02595 
L 130.61036 163.309938 
L 130.956666 157.08699 
L 131.417635 162.734282 
L 131.646916 163.527211 
L 131.880874 161.003602 
L 132.222548 157.488354 
L 132.56883 131.818263 
L 132.683471 135.814474 
L 132.917429 152.759335 
L 133.029753 153.249406 
L 133.144463 148.966975 
L 133.25908 137.721789 
L 133.488429 74.455171 
L 133.722319 25.902659 
L 134.064061 111.948866 
L 134.178679 101.880335 
L 134.293388 101.792776 
L 134.641918 150.626996 
L 134.756627 151.060874 
L 134.871267 146.229876 
L 135.0983 109.439247 
L 135.327627 61.728571 
L 135.78855 156.940563 
L 136.017899 161.094422 
L 136.247225 162.575877 
L 136.708148 163.922897 
L 137.049891 163.810992 
L 137.281464 164.534902 
L 137.396173 164.57106 
L 137.625431 163.685634 
L 137.74014 163.274677 
L 137.967173 164.528756 
L 138.081813 164.464064 
L 138.425849 160.123735 
L 138.540489 160.934458 
L 138.884478 165.028166 
L 139.111512 165.969015 
L 139.457794 166.551287 
L 139.572481 166.603764 
L 139.799514 166.351785 
L 140.026547 165.996069 
L 140.258143 166.516998 
L 140.37283 166.445867 
L 140.60211 165.840392 
L 140.829143 166.158424 
L 141.170885 164.616495 
L 141.287819 164.844732 
L 141.514852 166.153316 
L 141.629492 165.596246 
L 141.973528 161.233783 
L 142.429841 166.161548 
L 142.544527 165.971685 
L 142.77156 163.587281 
L 142.886201 162.339961 
L 143.00091 162.520477 
L 143.227943 163.841223 
L 143.457269 164.161794 
L 143.569616 163.923622 
L 143.913583 159.777582 
L 144.025976 160.270945 
L 144.367649 164.895721 
L 144.480042 165.045373 
L 144.709368 164.112243 
L 145.051041 164.583646 
L 145.165751 164.376698 
L 145.392784 164.935306 
L 145.507424 164.838079 
L 145.734457 163.190244 
L 145.849143 163.364517 
L 146.076176 164.306253 
L 146.190816 163.569349 
L 146.305457 160.433059 
L 146.644883 136.108662 
L 147.101242 165.062862 
L 147.213658 165.116117 
L 147.896982 161.652122 
L 148.009375 161.284338 
L 148.124015 161.90108 
L 148.465757 166.440946 
L 148.578081 166.440912 
L 149.032193 165.889779 
L 149.259226 166.272298 
L 149.600899 166.147426 
L 149.940325 166.337462 
L 150.167359 166.184489 
L 150.623718 164.987772 
L 150.960782 165.360536 
L 151.075491 165.143008 
L 151.527241 162.775142 
L 151.866667 164.798077 
L 151.9836 164.601459 
L 152.210633 164.954449 
L 152.433057 164.890664 
L 152.660159 165.589949 
L 152.772483 165.435214 
L 152.887169 164.61122 
L 152.999493 161.993919 
L 153.111909 154.014148 
L 153.453559 117.274549 
L 153.790692 160.051018 
L 153.905378 160.451809 
L 154.357151 164.655012 
L 154.811194 165.17482 
L 155.15062 164.823182 
L 155.262944 164.975389 
L 155.487684 165.66966 
L 155.824794 165.826564 
L 156.051827 165.8271 
L 156.16422 165.610343 
L 156.505893 163.91076 
L 156.730679 164.887244 
L 156.843003 164.841073 
L 156.955396 164.609985 
L 157.856671 166.070103 
L 158.196029 165.996956 
L 158.420814 166.110775 
L 158.870248 165.353776 
L 159.095034 165.440253 
L 159.771524 166.266567 
L 159.996241 166.270728 
L 160.108633 166.200723 
L 160.448059 165.667004 
L 160.782876 166.47646 
L 161.344703 166.234315 
L 161.684129 165.315864 
L 161.796453 165.474337 
L 162.021192 166.096291 
L 162.133585 166.123885 
L 162.468379 165.862493 
L 162.690871 165.867171 
L 163.027981 165.277079 
L 163.365091 165.939966 
L 163.479731 165.400765 
L 163.704448 162.824682 
L 163.92694 163.43544 
L 164.26405 157.593006 
L 164.601114 165.076887 
L 164.823583 165.256886 
L 164.935976 165.271791 
L 165.1584 163.866972 
L 165.270793 164.097225 
L 165.493194 165.476106 
L 165.605586 165.259708 
L 165.720227 163.792451 
L 166.055043 148.363535 
L 166.392153 162.220583 
L 166.502252 162.005642 
L 166.614645 161.361831 
L 166.951755 165.076555 
L 167.174156 164.51324 
L 167.508972 165.252569 
L 167.619049 164.234136 
L 167.841541 161.642261 
L 168.178651 165.276993 
L 168.290975 165.025056 
L 168.625792 157.357288 
L 168.738185 157.62242 
L 168.850577 157.890477 
L 169.295471 165.124114 
L 169.407795 165.112638 
L 169.630287 165.765703 
L 169.742611 165.148531 
L 169.965103 161.053262 
L 170.409997 165.612108 
L 170.520073 165.457793 
L 170.74479 164.550937 
L 171.07729 165.209331 
L 171.304324 164.266538 
L 171.4144 164.638913 
L 171.636893 166.016151 
L 171.971709 166.461588 
L 172.084033 166.364758 
L 172.19411 165.934448 
L 172.528926 162.820226 
L 172.751396 163.531799 
L 172.97382 160.679761 
L 173.306389 166.042315 
L 173.418713 165.650417 
L 173.751282 162.053916 
L 174.086075 165.93289 
L 174.196175 164.937042 
L 174.416328 160.182303 
L 174.751145 166.128671 
L 175.196038 166.270299 
L 175.528538 166.330284 
L 175.861038 165.140785 
L 175.973431 165.340929 
L 176.083508 165.428789 
L 176.416008 163.89454 
L 176.526108 163.856636 
L 176.638501 162.846034 
L 177.081078 150.572405 
L 177.19347 152.861391 
L 177.413578 162.790243 
L 177.523678 163.911731 
L 177.63607 163.842729 
L 177.746147 163.930219 
L 178.078647 165.904848 
L 178.301117 165.949445 
L 178.963824 166.281027 
L 179.073901 165.424448 
L 179.296393 161.640619 
L 179.628871 166.070224 
L 179.73897 166.11837 
L 179.959146 165.89572 
L 180.179323 166.096251 
L 180.734224 161.54015 
L 180.8443 161.671085 
L 180.9544 162.096189 
L 181.064477 161.898967 
L 181.174576 160.972422 
L 181.617153 166.109921 
L 181.837329 166.186808 
L 181.947406 165.94251 
L 182.389983 162.122871 
L 182.500083 162.706766 
L 183.050443 166.122762 
L 183.933372 166.358594 
L 184.15348 166.067459 
L 184.373633 165.469387 
L 184.593809 164.542898 
L 184.813986 165.109944 
L 184.923993 164.822361 
L 185.034093 164.06414 
L 185.364346 150.047407 
L 185.694599 165.247641 
L 185.80463 165.727264 
L 186.242666 164.788704 
L 186.462842 162.229477 
L 186.572919 162.622072 
L 186.903103 166.361443 
L 187.013202 166.474777 
L 187.123279 166.393955 
L 187.343455 165.354035 
L 187.451239 164.926898 
L 187.671392 165.092591 
L 187.781423 165.085016 
L 188.111676 166.449987 
L 188.659789 166.364762 
L 188.769819 166.362579 
L 188.879896 166.026721 
L 189.097756 162.421859 
L 189.207856 162.588626 
L 189.428009 165.876731 
L 189.645892 166.351533 
L 190.083837 165.182311 
L 190.193936 164.817961 
L 190.304013 164.925157 
L 190.629656 165.981264 
L 191.070009 165.787667 
L 191.180085 165.369169 
L 191.507976 161.109476 
L 191.835913 165.739801 
L 192.056089 165.960831 
L 192.273949 166.306108 
L 192.491809 166.526523 
L 192.601909 166.40883 
L 192.929846 165.729751 
L 193.147706 165.688136 
L 193.367813 165.379407 
L 193.475596 164.806679 
L 193.803533 160.24171 
L 194.021416 161.379662 
L 194.131493 161.247172 
L 194.459429 165.840663 
L 194.567213 166.128682 
L 194.895173 165.274311 
L 195.223109 165.957199 
L 195.330893 165.99851 
L 195.440969 165.907282 
L 195.548753 165.266908 
L 195.876643 161.332612 
L 195.984473 161.890312 
L 196.310116 165.961685 
L 196.527976 166.325262 
L 196.63576 166.25546 
L 196.855867 165.521092 
L 197.291587 161.686162 
L 197.509447 163.861489 
L 197.619547 163.608779 
L 197.837407 158.955422 
L 197.945167 160.053912 
L 198.16305 163.609257 
L 198.270811 163.781814 
L 198.38091 162.793529 
L 198.596454 157.186549 
L 199.032174 164.680637 
L 199.139958 163.546646 
L 199.467917 149.998478 
L 199.793538 162.364076 
L 200.006857 163.851026 
L 200.116865 163.1008 
L 200.442577 158.419285 
L 200.552608 157.662115 
L 200.770468 153.317668 
L 201.096112 162.098781 
L 201.311724 163.742264 
L 201.421755 163.448808 
L 201.529584 161.569918 
L 201.745151 141.196473 
L 201.855228 132.985894 
L 202.396415 162.975901 
L 202.504198 163.38322 
L 202.611982 163.245101 
L 202.827526 162.113075 
L 203.260952 164.723024 
L 203.586596 161.850002 
L 204.020069 165.479514 
L 204.127852 165.518604 
L 204.343396 164.583985 
L 204.669039 164.758085 
L 204.884583 164.360088 
L 204.992366 164.689589 
L 205.315762 166.165627 
L 205.531329 166.349067 
L 205.746873 166.25758 
L 205.964733 166.122486 
L 206.505943 166.508272 
L 206.9371 166.355801 
L 207.044883 166.415991 
L 207.581461 165.838907 
L 207.797074 166.028429 
L 208.120424 165.615867 
L 208.553828 166.331783 
L 208.984938 166.379187 
L 209.416118 165.921695 
L 209.734836 166.395757 
L 209.950448 166.121697 
L 210.276092 165.326603 
L 210.707202 165.645743 
L 210.920499 165.753455 
L 211.136066 165.965975 
L 211.243849 165.927787 
L 211.457077 165.34237 
L 211.562613 164.974608 
L 211.670396 165.018865 
L 211.993723 165.816566 
L 212.20929 165.914722 
L 212.745914 165.91088 
L 213.280267 166.080237 
L 213.603594 165.747076 
L 214.140241 166.103624 
L 214.355785 165.758225 
L 214.782332 164.84281 
L 214.995582 164.854127 
L 215.316685 164.882696 
L 215.424446 164.822543 
L 215.640012 164.919612 
L 215.961092 163.159207 
L 216.174343 164.007903 
L 216.387593 164.179395 
L 216.493129 164.024339 
L 216.60089 163.230301 
L 216.706357 160.412786 
L 217.02746 129.209964 
L 217.564038 157.933463 
L 218.309371 163.040307 
L 218.632699 162.358426 
L 218.846018 162.5398 
L 218.951485 161.932528 
L 219.162488 159.85565 
L 219.375739 162.443705 
L 219.589035 164.309726 
L 219.910069 165.20934 
L 220.231149 165.485246 
L 220.54762 165.198522 
L 221.08195 163.703499 
L 221.292884 161.391108 
L 221.400668 156.902306 
L 221.719454 109.87375 
L 222.146001 147.240619 
L 222.464788 160.333439 
L 222.785799 164.00689 
L 222.996825 164.753074 
L 223.102292 164.801869 
L 223.313295 164.336464 
L 223.421056 164.466508 
L 223.739843 165.385239 
L 223.950777 165.454222 
L 224.060854 165.168237 
L 224.375031 163.068924 
L 224.693817 164.026984 
L 224.907114 164.084685 
L 225.331367 165.173613 
L 225.436835 165.082071 
L 225.647838 164.732708 
L 225.755621 164.87817 
L 226.072092 165.725987 
L 226.388562 164.372401 
L 226.496345 164.595123 
L 226.70728 165.422484 
L 227.026043 163.908954 
L 227.342514 165.670713 
L 227.553517 165.90861 
L 227.766768 166.162454 
L 227.977771 166.437059 
L 228.188774 166.476688 
L 228.507492 166.135436 
L 229.562439 163.144817 
L 229.986693 165.262707 
L 230.089844 165.173335 
L 230.303163 163.879807 
L 230.40863 163.939015 
L 230.936104 165.281975 
L 231.144791 165.986346 
L 231.250258 165.866688 
L 231.566728 163.286461 
L 231.672196 163.305642 
L 231.880906 164.138287 
L 232.094156 164.216008 
L 232.305159 163.808881 
L 232.516162 164.32095 
L 232.62163 163.723762 
L 232.828 161.779893 
L 233.04132 161.022991 
L 233.146787 161.336495 
L 233.463257 164.504056 
L 233.568725 164.753923 
L 233.671944 164.633952 
L 233.986122 163.914396 
L 234.093882 161.493425 
L 234.304885 150.609167 
L 234.513595 154.931496 
L 234.616746 154.840021 
L 234.722282 152.18803 
L 234.827749 152.721501 
L 235.038752 159.754521 
L 235.14422 160.063257 
L 235.355223 155.311769 
L 235.458397 156.709088 
L 235.667084 161.974369 
L 235.772551 162.512025 
L 235.983554 158.546883 
L 236.089021 158.964541 
L 236.400951 163.457871 
L 236.926108 166.188807 
L 237.033892 166.089548 
L 237.242579 165.174945 
L 237.55444 160.666348 
L 237.976377 165.125835 
L 238.081913 165.00404 
L 238.496994 161.390008 
L 238.602461 161.7545 
L 239.43948 165.881916 
L 239.542699 165.912063 
L 239.648167 165.799911 
L 239.962321 164.897805 
L 240.065563 165.021467 
L 240.171031 164.900277 
L 240.27425 164.214482 
L 240.485254 160.413317 
L 240.590721 160.831861 
L 240.902582 164.436413 
L 241.111269 164.930705 
L 241.423198 164.926346 
L 241.946063 165.841961 
L 242.257901 166.161075 
L 242.363437 166.194422 
L 242.46661 166.086539 
L 242.675297 165.049954 
L 242.883984 164.229479 
L 243.404532 165.726164 
L 243.716462 165.94705 
L 243.922856 165.714347 
L 244.13379 165.318576 
L 244.445697 163.877545 
L 245.069488 165.505092 
L 245.278175 165.179187 
L 245.693255 165.898779 
L 245.901942 165.533235 
L 246.110652 165.088266 
L 246.314707 163.807248 
L 246.52571 162.690445 
L 247.041648 165.436116 
L 247.252652 165.82559 
L 247.768659 166.147959 
L 248.082813 166.367582 
L 249.635353 166.363763 
L 249.944966 165.46957 
L 250.360047 166.136392 
L 250.463198 166.08209 
L 250.770518 164.664437 
L 250.873738 164.938713 
L 251.187892 165.702988 
L 251.39197 165.715351 
L 251.910293 166.311308 
L 252.320741 166.399123 
L 252.529451 166.281286 
L 252.836749 165.829478 
L 253.146362 166.299936 
L 253.251829 166.266737 
L 253.455907 165.989886 
L 253.974207 166.357079 
L 254.075134 166.182592 
L 254.281505 165.236704 
L 254.384679 164.402019 
L 254.588825 161.486133 
L 254.795196 163.513517 
L 255.104809 165.235942 
L 255.311203 165.603285 
L 255.414354 165.576936 
L 255.721651 165.918291 
L 255.824894 165.644907 
L 256.134439 162.992237 
L 256.441736 164.829583 
L 256.645882 164.017726 
L 256.75135 164.105169 
L 257.058647 165.336266 
L 257.161798 165.204521 
L 257.469118 163.731506 
L 257.778732 164.951664 
L 258.086029 165.35111 
L 258.189249 165.41166 
L 258.290107 165.336737 
L 258.494253 164.00178 
L 258.69833 162.43291 
L 258.907017 157.014691 
L 259.007944 157.735057 
L 259.312925 162.667846 
L 259.723396 164.493062 
L 259.826616 164.687964 
L 260.13623 164.337608 
L 260.239404 163.938486 
L 260.340307 161.865353 
L 260.645311 140.165215 
L 261.156686 159.993495 
L 261.567226 163.741685 
L 261.66813 164.086624 
L 261.872207 163.944545 
L 262.383582 164.964149 
L 262.587729 165.023018 
L 262.894957 164.944242 
L 262.9982 164.653089 
L 263.099103 163.334718 
L 263.406424 151.817326 
L 263.711405 160.724361 
L 264.018725 163.208609 
L 264.424633 164.618829 
L 264.832788 165.01797 
L 265.036934 165.060917 
L 265.341915 164.585535 
L 265.646919 163.236206 
L 265.750139 162.279945 
L 266.055143 155.08591 
L 266.463367 162.425308 
L 266.766032 163.971905 
L 266.866959 164.181223 
L 267.073352 164.015945 
L 267.376017 164.519612 
L 267.47926 164.482366 
L 267.784241 163.31897 
L 268.089245 164.590404 
L 268.190172 164.627479 
L 268.293323 163.950161 
L 268.492837 159.417659 
L 268.593763 159.433367 
L 268.90106 163.150416 
L 269.203748 164.256559 
L 269.306991 164.070271 
L 269.511046 163.427519 
L 269.813802 164.76123 
L 270.11649 164.985722 
L 270.31832 165.290379 
L 270.524714 165.170138 
L 270.825086 165.31988 
L 271.031479 164.643375 
L 271.535997 165.838871 
L 271.939612 166.051348 
L 272.242346 166.111538 
L 272.545033 166.254584 
L 273.253698 166.209152 
L 273.758216 166.355798 
L 273.96 166.294484 
L 273.96 166.294484 
" style="fill:none;stroke:#0000ff;stroke-linecap:square;stroke-width:1.5;"/>
   </g>
   <g id="patch_3">
    <path d="M 45.161064 166.496228 
L 45.161064 14.04 
" style="fill:none;stroke:#000000;stroke-linecap:square;stroke-linejoin:miter;stroke-width:0.8;"/>
   </g>
   <g id="patch_4">
    <path d="M 273.96 166.496228 
L 273.96 14.04 
" style="fill:none;stroke:#000000;stroke-linecap:square;stroke-linejoin:miter;stroke-width:0.8;"/>
   </g>
   <g id="patch_5">
    <path d="M 45.161064 166.496228 
L 273.96 166.496228 
" style="fill:none;stroke:#000000;stroke-linecap:square;stroke-linejoin:miter;stroke-width:0.8;"/>
   </g>
   <g id="patch_6">
    <path d="M 45.161064 14.04 
L 273.96 14.04 
" style="fill:none;stroke:#000000;stroke-linecap:square;stroke-linejoin:miter;stroke-width:0.8;"/>
   </g>
  </g>
 </g>
 <defs>
  <clipPath id="pdd0cb37780">
   <rect height="152.456228" width="228.798936" x="45.161064" y="14.04"/>
  </clipPath>
 </defs>
</svg>
