<?xml version="1.0" encoding="utf-8" standalone="no"?>
<!DOCTYPE svg PUBLIC "-//W3C//DTD SVG 1.1//EN"
  "http://www.w3.org/Graphics/SVG/1.1/DTD/svg11.dtd">
<!-- Created with matplotlib (https://matplotlib.org/) -->
<svg height="216pt" version="1.1" viewBox="0 0 288 216" width="288pt" xmlns="http://www.w3.org/2000/svg" xmlns:xlink="http://www.w3.org/1999/xlink">
 <metadata>
  <rdf:RDF xmlns:cc="http://creativecommons.org/ns#" xmlns:dc="http://purl.org/dc/elements/1.1/" xmlns:rdf="http://www.w3.org/1999/02/22-rdf-syntax-ns#">
   <cc:Work>
    <dc:type rdf:resource="http://purl.org/dc/dcmitype/StillImage"/>
    <dc:date>2021-03-23T22:53:17.611862</dc:date>
    <dc:format>image/svg+xml</dc:format>
    <dc:creator>
     <cc:Agent>
      <dc:title>Matplotlib v3.3.2, https://matplotlib.org/</dc:title>
     </cc:Agent>
    </dc:creator>
   </cc:Work>
  </rdf:RDF>
 </metadata>
 <defs>
  <style type="text/css">*{stroke-linecap:butt;stroke-linejoin:round;}</style>
 </defs>
 <g id="figure_1">
  <g id="patch_1">
   <path d="M 0 216 
L 288 216 
L 288 0 
L 0 0 
z
" style="fill:#ffffff;"/>
  </g>
  <g id="axes_1">
   <g id="patch_2">
    <path d="M 52.756452 166.496228 
L 273.96 166.496228 
L 273.96 14.04 
L 52.756452 14.04 
z
" style="fill:#ffffff;"/>
   </g>
   <g id="matplotlib.axis_1">
    <g id="xtick_1">
     <g id="line2d_1">
      <defs>
       <path d="M 0 0 
L 0 3.5 
" id="m770333fbde" style="stroke:#000000;stroke-width:0.8;"/>
      </defs>
      <g>
       <use style="stroke:#000000;stroke-width:0.8;" x="94.82217" xlink:href="#m770333fbde" y="166.496228"/>
      </g>
     </g>
     <g id="text_1">
      <!-- $\mathdefault{260}$ -->
      <g transform="translate(85.311061 182.490256)scale(0.13 -0.13)">
       <defs>
        <path d="M 41.703125 15.46875 
L 39.90625 15.46875 
C 38.90625 8.390625 38.09375 7.1875 37.703125 6.59375 
C 37.203125 5.796875 30 5.796875 28.59375 5.796875 
L 9.40625 5.796875 
C 13 9.6875 20 16.765625 28.5 24.9375 
C 34.59375 30.71875 41.703125 37.5 41.703125 47.390625 
C 41.703125 59.1875 32.296875 66 21.796875 66 
C 10.796875 66 4.09375 56.296875 4.09375 47.296875 
C 4.09375 43.390625 7 42.890625 8.203125 42.890625 
C 9.203125 42.890625 12.203125 43.484375 12.203125 46.984375 
C 12.203125 50.09375 9.59375 51 8.203125 51 
C 7.59375 51 7 50.890625 6.59375 50.6875 
C 8.5 59.1875 14.296875 63.390625 20.40625 63.390625 
C 29.09375 63.390625 34.796875 56.5 34.796875 47.390625 
C 34.796875 38.703125 29.703125 31.21875 24 24.734375 
L 4.09375 2.296875 
L 4.09375 0 
L 39.296875 0 
z
" id="CMR17-50"/>
        <path d="M 10.59375 34.34375 
C 10.59375 58 21.796875 63.6875 28.296875 63.6875 
C 30.40625 63.6875 35.5 63.265625 37.5 59.09375 
C 35.90625 59.09375 32.90625 59.09375 32.90625 55.59375 
C 32.90625 52.890625 35.09375 52 36.5 52 
C 37.40625 52 40.09375 52.390625 40.09375 55.796875 
C 40.09375 62.296875 35.09375 66 28.203125 66 
C 16.296875 66 3.796875 53.296875 3.796875 31.421875 
C 3.796875 4.015625 15.09375 -2 23.09375 -2 
C 32.796875 -2 42 6.734375 42 20.234375 
C 42 32.828125 33.90625 42 23.703125 42 
C 17.59375 42 13.09375 37.96875 10.59375 30.921875 
z
M 23.09375 0.390625 
C 10.796875 0.390625 10.796875 18.9375 10.796875 22.65625 
C 10.796875 29.90625 14.203125 40.390625 23.5 40.390625 
C 25.203125 40.390625 30.09375 40.390625 33.40625 33.4375 
C 35.203125 29.515625 35.203125 25.375 35.203125 20.34375 
C 35.203125 14.90625 35.203125 10.875 33.09375 6.84375 
C 30.90625 2.703125 27.703125 0.390625 23.09375 0.390625 
z
" id="CMR17-54"/>
        <path d="M 42 31.84375 
C 42 37.96875 41.90625 48.421875 37.703125 56.453125 
C 34 63.484375 28.09375 66 22.90625 66 
C 18.09375 66 12 63.78125 8.203125 56.5625 
C 4.203125 49.015625 3.796875 39.671875 3.796875 31.84375 
C 3.796875 26.109375 3.90625 17.375 7 9.734375 
C 11.296875 -0.609375 19 -2 22.90625 -2 
C 27.5 -2 34.5 -0.109375 38.59375 9.4375 
C 41.59375 16.375 42 24.5 42 31.84375 
z
M 22.90625 -0.40625 
C 16.5 -0.40625 12.703125 5.125 11.296875 12.75 
C 10.203125 18.6875 10.203125 27.328125 10.203125 32.953125 
C 10.203125 40.6875 10.203125 47.109375 11.5 53.234375 
C 13.40625 61.78125 19 64.390625 22.90625 64.390625 
C 27 64.390625 32.296875 61.671875 34.203125 53.4375 
C 35.5 47.71875 35.59375 40.984375 35.59375 32.953125 
C 35.59375 26.421875 35.59375 18.375 34.40625 12.453125 
C 32.296875 1.5 26.40625 -0.40625 22.90625 -0.40625 
z
" id="CMR17-48"/>
       </defs>
       <use transform="scale(0.996264)" xlink:href="#CMR17-50"/>
       <use transform="translate(45.690477 0)scale(0.996264)" xlink:href="#CMR17-54"/>
       <use transform="translate(91.380954 0)scale(0.996264)" xlink:href="#CMR17-48"/>
      </g>
     </g>
    </g>
    <g id="xtick_2">
     <g id="line2d_2">
      <g>
       <use style="stroke:#000000;stroke-width:0.8;" x="139.164864" xlink:href="#m770333fbde" y="166.496228"/>
      </g>
     </g>
     <g id="text_2">
      <!-- $\mathdefault{280}$ -->
      <g transform="translate(129.653754 182.490256)scale(0.13 -0.13)">
       <defs>
        <path d="M 27.203125 35.765625 
C 33.5 38.96875 39.90625 43.796875 39.90625 51.53125 
C 39.90625 60.6875 31.09375 66 23 66 
C 13.90625 66 5.90625 59.375 5.90625 50.234375 
C 5.90625 47.71875 6.5 43.390625 10.40625 39.578125 
C 11.40625 38.578125 15.59375 35.5625 18.296875 33.65625 
C 13.796875 31.34375 3.296875 25.8125 3.296875 14.765625 
C 3.296875 4.40625 13.09375 -2 22.796875 -2 
C 33.5 -2 42.5 5.71875 42.5 15.96875 
C 42.5 25.109375 36.40625 29.328125 32.40625 32.046875 
z
M 14.09375 44.609375 
C 13.296875 45.109375 9.296875 48.21875 9.296875 52.9375 
C 9.296875 59.078125 15.59375 63.6875 22.796875 63.6875 
C 30.703125 63.6875 36.5 58.0625 36.5 51.53125 
C 36.5 42.1875 26.09375 36.859375 25.59375 36.859375 
C 25.5 36.859375 25.40625 36.859375 24.59375 37.46875 
z
M 32.5 24 
C 34 22.90625 38.796875 19.578125 38.796875 13.453125 
C 38.796875 6.015625 31.40625 0.390625 23 0.390625 
C 13.90625 0.390625 7 6.921875 7 14.859375 
C 7 22.796875 13.09375 29.4375 20 32.546875 
z
" id="CMR17-56"/>
       </defs>
       <use transform="scale(0.996264)" xlink:href="#CMR17-50"/>
       <use transform="translate(45.690477 0)scale(0.996264)" xlink:href="#CMR17-56"/>
       <use transform="translate(91.380954 0)scale(0.996264)" xlink:href="#CMR17-48"/>
      </g>
     </g>
    </g>
    <g id="xtick_3">
     <g id="line2d_3">
      <g>
       <use style="stroke:#000000;stroke-width:0.8;" x="183.507557" xlink:href="#m770333fbde" y="166.496228"/>
      </g>
     </g>
     <g id="text_3">
      <!-- $\mathdefault{300}$ -->
      <g transform="translate(173.996448 182.490256)scale(0.13 -0.13)">
       <defs>
        <path d="M 22.09375 34 
C 31 34 34.90625 26.140625 34.90625 17.09375 
C 34.90625 5.03125 28.5 0.390625 22.703125 0.390625 
C 17.40625 0.390625 8.796875 3.015625 6.09375 10.796875 
C 6.59375 10.59375 7.09375 10.59375 7.59375 10.59375 
C 10 10.59375 11.796875 12.1875 11.796875 14.796875 
C 11.796875 17.6875 9.59375 19 7.59375 19 
C 5.90625 19 3.296875 18.1875 3.296875 14.484375 
C 3.296875 5.234375 12.296875 -2 22.90625 -2 
C 34 -2 42.5 6.75 42.5 16.984375 
C 42.5 26.84375 34.5 34 25 35.09375 
C 32.59375 36.671875 39.90625 43.375 39.90625 52.390625 
C 39.90625 60.25 32 66 23 66 
C 13.90625 66 5.90625 60.34375 5.90625 52.296875 
C 5.90625 48.796875 8.5 48.1875 9.796875 48.1875 
C 11.90625 48.1875 13.703125 49.484375 13.703125 52.09375 
C 13.703125 54.6875 11.90625 56 9.796875 56 
C 9.40625 56 8.90625 56 8.5 55.796875 
C 11.40625 62.484375 19.296875 63.6875 22.796875 63.6875 
C 26.296875 63.6875 32.90625 61.96875 32.90625 52.296875 
C 32.90625 49.484375 32.5 44.546875 29.09375 40.21875 
C 26.09375 36.390625 22.703125 36.1875 19.40625 35.890625 
C 18.90625 35.890625 16.59375 35.6875 16.203125 35.6875 
C 15.5 35.59375 15.09375 35.5 15.09375 34.796875 
C 15.09375 34.09375 15.203125 34 17.203125 34 
z
" id="CMR17-51"/>
       </defs>
       <use transform="scale(0.996264)" xlink:href="#CMR17-51"/>
       <use transform="translate(45.690477 0)scale(0.996264)" xlink:href="#CMR17-48"/>
       <use transform="translate(91.380954 0)scale(0.996264)" xlink:href="#CMR17-48"/>
      </g>
     </g>
    </g>
    <g id="xtick_4">
     <g id="line2d_4">
      <g>
       <use style="stroke:#000000;stroke-width:0.8;" x="227.85025" xlink:href="#m770333fbde" y="166.496228"/>
      </g>
     </g>
     <g id="text_4">
      <!-- $\mathdefault{320}$ -->
      <g transform="translate(218.339141 182.490256)scale(0.13 -0.13)">
       <use transform="scale(0.996264)" xlink:href="#CMR17-51"/>
       <use transform="translate(45.690477 0)scale(0.996264)" xlink:href="#CMR17-50"/>
       <use transform="translate(91.380954 0)scale(0.996264)" xlink:href="#CMR17-48"/>
      </g>
     </g>
    </g>
    <g id="xtick_5">
     <g id="line2d_5">
      <g>
       <use style="stroke:#000000;stroke-width:0.8;" x="272.192944" xlink:href="#m770333fbde" y="166.496228"/>
      </g>
     </g>
     <g id="text_5">
      <!-- $\mathdefault{340}$ -->
      <g transform="translate(262.681835 182.490256)scale(0.13 -0.13)">
       <defs>
        <path d="M 33.59375 64.796875 
C 33.59375 66.890625 33.5 67 31.703125 67 
L 2 19.59375 
L 2 17 
L 27.796875 17 
L 27.796875 7.1875 
C 27.796875 3.59375 27.59375 2.59375 20.59375 2.59375 
L 18.703125 2.59375 
L 18.703125 0 
C 21.90625 0.1875 27.296875 0.1875 30.703125 0.1875 
C 34.09375 0.1875 39.5 0.1875 42.703125 0 
L 42.703125 2.59375 
L 40.796875 2.59375 
C 33.796875 2.59375 33.59375 3.59375 33.59375 7.1875 
L 33.59375 17 
L 43.796875 17 
L 43.796875 19.59375 
L 33.59375 19.59375 
z
M 28.09375 58.171875 
L 28.09375 19.59375 
L 4 19.59375 
z
" id="CMR17-52"/>
       </defs>
       <use transform="scale(0.996264)" xlink:href="#CMR17-51"/>
       <use transform="translate(45.690477 0)scale(0.996264)" xlink:href="#CMR17-52"/>
       <use transform="translate(91.380954 0)scale(0.996264)" xlink:href="#CMR17-48"/>
      </g>
     </g>
    </g>
    <g id="text_6">
     <!-- Wavelength (nm) -->
     <g transform="translate(115.276547 198.722142)scale(0.13 -0.13)">
      <defs>
       <path d="M 86.296875 58.984375 
C 87.203125 61.6875 88.703125 65.203125 94.5 65.390625 
L 94.5 68 
C 92.796875 67.890625 89.296875 67.796875 87.5 67.796875 
C 85 67.796875 80.59375 67.796875 78.203125 68 
L 78.203125 65.390625 
C 82.703125 65.296875 84.59375 62.796875 84.59375 60.390625 
C 84.59375 59.6875 84.5 59.28125 84.09375 58.1875 
L 68.59375 8.703125 
L 52.296875 60.78125 
C 52 61.796875 51.90625 62.1875 51.90625 62.59375 
C 51.90625 65.390625 56.296875 65.390625 58.203125 65.390625 
L 58.203125 68 
C 55.296875 67.796875 50.296875 67.796875 47.203125 67.796875 
C 44.703125 67.796875 40.203125 67.796875 37.90625 68 
L 37.90625 65.390625 
C 42.5 65.390625 43.703125 65.09375 44.703125 63.296875 
C 45.09375 62.390625 46.703125 57.1875 46.703125 56.875 
C 46.703125 56.484375 46.5 55.875 46.40625 55.578125 
L 31.703125 8.8125 
L 15.40625 60.78125 
C 14.90625 62.1875 14.90625 62.390625 14.90625 62.59375 
C 14.90625 65.390625 19.296875 65.390625 21.296875 65.390625 
L 21.296875 68 
C 18.40625 67.796875 13.40625 67.796875 10.296875 67.796875 
C 7.703125 67.796875 3.296875 67.796875 0.90625 68 
L 0.90625 65.390625 
C 6.90625 65.390625 7.296875 64.796875 8.296875 61.59375 
L 27.796875 -0.3125 
C 28.296875 -1.8125 28.296875 -2 29.203125 -2 
C 30 -2 30.296875 -1.8125 30.703125 -0.40625 
L 47.703125 53.875 
L 64.703125 -0.40625 
C 65.09375 -1.8125 65.40625 -2 66.203125 -2 
C 67.09375 -2 67.09375 -1.8125 67.59375 -0.3125 
z
" id="CMR17-87"/>
       <path d="M 36 25.875 
C 36 32 36 35.546875 31.796875 39.59375 
C 28.09375 42.984375 23.796875 44 20.40625 44 
C 12.5 44 6.796875 37.625 6.796875 30.890625 
C 6.796875 27.1875 9.796875 27 10.40625 27 
C 11.703125 27 14 27.796875 14 30.59375 
C 14 33.09375 12.09375 34.1875 10.40625 34.1875 
C 10 34.1875 9.5 34.09375 9.203125 34 
C 11.296875 40.53125 16.703125 42.390625 20.203125 42.390625 
C 25.203125 42.390625 30.703125 37.828125 30.703125 29.296875 
L 30.703125 25.5 
C 24.796875 25.296875 17.703125 24.5 12.09375 21.453125 
C 5.796875 17.921875 4 12.84375 4 9 
C 4 1.203125 13 -1 18.296875 -1 
C 23.796875 -1 28.90625 2.109375 31.09375 7.890625 
C 31.296875 3.421875 34.09375 -0.609375 38.5 -0.609375 
C 40.59375 -0.609375 45.90625 0.796875 45.90625 8.796875 
L 45.90625 14.46875 
L 44.09375 14.46875 
L 44.09375 8.703125 
C 44.09375 2.515625 41.40625 1.703125 40.09375 1.703125 
C 36 1.703125 36 6.96875 36 11.4375 
z
M 30.703125 13.859375 
C 30.703125 5.046875 24.5 0.59375 19 0.59375 
C 14 0.59375 10.09375 4.34375 10.09375 9 
C 10.09375 12.046875 11.40625 17.40625 17.203125 20.65625 
C 22 23.390625 27.5 23.796875 30.703125 24 
z
" id="CMR17-97"/>
       <path d="M 39.09375 33.953125 
C 40 36.171875 41.59375 40.1875 47.40625 40.390625 
L 47.40625 43 
C 45.5 42.890625 43 42.796875 41.09375 42.796875 
C 39 42.796875 35.703125 42.796875 33.703125 43 
L 33.703125 40.390625 
C 36.203125 40.1875 37.59375 38.984375 37.59375 36.375 
C 37.59375 35.46875 37.59375 35.265625 37 33.859375 
L 26 5.921875 
L 14.09375 36.0625 
C 13.5 37.375 13.5 37.578125 13.5 37.984375 
C 13.5 40.390625 16.796875 40.390625 18.296875 40.390625 
L 18.296875 43 
C 15.90625 42.796875 11.5 42.796875 9 42.796875 
C 6.296875 42.796875 3.203125 42.796875 1 43 
L 1 40.390625 
C 4.796875 40.390625 6.90625 40.390625 8.09375 37.28125 
L 22.59375 0.6875 
C 23.203125 -0.8125 23.296875 -1 24.203125 -1 
C 25.09375 -1 25.203125 -0.8125 25.796875 0.6875 
z
" id="CMR17-118"/>
       <path d="M 38.09375 23.484375 
C 38.5 23.890625 38.5 24.09375 38.5 25.09375 
C 38.5 35.171875 33.09375 44 21.703125 44 
C 11.09375 44 2.703125 33.984375 2.703125 21.78125 
C 2.703125 8.65625 12.203125 -1 22.796875 -1 
C 34 -1 38.40625 9.671875 38.40625 11.796875 
C 38.40625 12.5 37.796875 12.5 37.59375 12.5 
C 36.90625 12.5 36.796875 12.296875 36.40625 11.078125 
C 34.203125 4.21875 28.703125 0.796875 23.5 0.796875 
C 19.203125 0.796875 14.90625 3.21875 12.203125 7.65625 
C 9.09375 12.796875 9.09375 18.75 9.09375 23.484375 
z
M 9.203125 25 
C 9.90625 39.234375 17.59375 42.390625 21.59375 42.390625 
C 28.40625 42.390625 33 36.0625 33.09375 25 
z
" id="CMR17-101"/>
       <path d="M 15.296875 69 
L 3.40625 67.890625 
L 3.40625 65.296875 
C 9.296875 65.296875 10.203125 64.703125 10.203125 59.921875 
L 10.203125 6.859375 
C 10.203125 3.09375 9.796875 2.59375 3.40625 2.59375 
L 3.40625 0 
C 5.796875 0.1875 10.203125 0.1875 12.703125 0.1875 
C 15.296875 0.1875 19.703125 0.1875 22.09375 0 
L 22.09375 2.59375 
C 15.703125 2.59375 15.296875 2.984375 15.296875 6.859375 
z
" id="CMR17-108"/>
       <path d="M 41.5 30.53125 
C 41.5 35.65625 40.5 44 28.703125 44 
C 20.796875 44 16.703125 37.875 15.203125 33.84375 
L 15.09375 33.84375 
L 15.09375 44 
L 3.296875 42.890625 
L 3.296875 40.28125 
C 9.203125 40.28125 10.09375 39.6875 10.09375 34.859375 
L 10.09375 6.921875 
C 10.09375 3.09375 9.703125 2.59375 3.296875 2.59375 
L 3.296875 0 
C 5.703125 0.1875 10.09375 0.1875 12.703125 0.1875 
C 15.296875 0.1875 19.796875 0.1875 22.203125 0 
L 22.203125 2.59375 
C 15.796875 2.59375 15.40625 3 15.40625 6.921875 
L 15.40625 26.21875 
C 15.40625 35.453125 21 42.390625 28 42.390625 
C 35.40625 42.390625 36.203125 35.765625 36.203125 30.9375 
L 36.203125 6.921875 
C 36.203125 3.09375 35.796875 2.59375 29.40625 2.59375 
L 29.40625 0 
C 31.796875 0.1875 36.203125 0.1875 38.796875 0.1875 
C 41.40625 0.1875 45.90625 0.1875 48.296875 0 
L 48.296875 2.59375 
C 41.90625 2.59375 41.5 3 41.5 6.921875 
z
" id="CMR17-110"/>
       <path d="M 11.09375 18.203125 
C 13 16.6875 16.296875 15 20.296875 15 
C 28.203125 15 35 21.234375 35 29.609375 
C 35 32.234375 34.203125 36.265625 31.203125 39.390625 
C 34 42.390625 38.09375 43.390625 40.40625 43.390625 
C 40.796875 43.390625 41.40625 43.390625 41.90625 43.09375 
C 41.5 42.984375 40.59375 42.59375 40.59375 40.984375 
C 40.59375 39.6875 41.5 38.796875 42.796875 38.796875 
C 44.296875 38.796875 45.09375 39.796875 45.09375 41.09375 
C 45.09375 42.984375 43.59375 45 40.40625 45 
C 36.40625 45 32.90625 43.09375 30.09375 40.484375 
C 27.09375 43.1875 23.5 44.1875 20.296875 44.1875 
C 12.40625 44.1875 5.59375 37.984375 5.59375 29.609375 
C 5.59375 23.859375 8.90625 20.21875 9.90625 19.21875 
C 6.90625 15.6875 6.90625 11.59375 6.90625 11.09375 
C 6.90625 8.5 7.90625 4.6875 11.296875 2.59375 
C 6.09375 1.28125 2 -2.875 2 -8.078125 
C 2 -15.5625 11.5 -21 22.90625 -21 
C 33.90625 -21 43.796875 -15.765625 43.796875 -7.96875 
C 43.796875 6 29 6 21.296875 6 
C 19 6 14.90625 6 14.40625 6.09375 
C 11.296875 6.59375 9.203125 9.390625 9.203125 12.890625 
C 9.203125 13.796875 9.203125 16 11.09375 18.203125 
z
M 20.296875 16.6875 
C 11.5 16.6875 11.5 27.59375 11.5 29.609375 
C 11.5 31.625 11.5 42.484375 20.296875 42.484375 
C 29.09375 42.484375 29.09375 31.625 29.09375 29.609375 
C 29.09375 27.59375 29.09375 16.6875 20.296875 16.6875 
z
M 22.90625 -19.3125 
C 12.90625 -19.3125 6 -13.796875 6 -8.078125 
C 6 -4.859375 7.703125 -1.84375 9.90625 -0.171875 
C 12.40625 1.59375 13.40625 1.59375 20.203125 1.59375 
C 28.40625 1.59375 39.796875 1.59375 39.796875 -8.078125 
C 39.796875 -13.796875 32.90625 -19.3125 22.90625 -19.3125 
z
" id="CMR17-103"/>
       <path d="M 15.09375 40.390625 
L 29.09375 40.390625 
L 29.09375 43 
L 15.09375 43 
L 15.09375 62 
L 13.296875 62 
C 13.09375 51.4375 9.59375 42.1875 1.09375 41.984375 
L 1.09375 40.390625 
L 9.796875 40.390625 
L 9.796875 12.15625 
C 9.796875 10.234375 9.796875 -1 21.40625 -1 
C 27.296875 -1 30.703125 4.8125 30.703125 12.25 
L 30.703125 17.984375 
L 28.90625 17.984375 
L 28.90625 12.34375 
C 28.90625 5.421875 26.203125 0.796875 22 0.796875 
C 19.09375 0.796875 15.09375 2.796875 15.09375 11.953125 
z
" id="CMR17-116"/>
       <path d="M 41.5 30.53125 
C 41.5 35.65625 40.5 44 28.703125 44 
C 20.5 44 16.5 37.375 15.296875 34.046875 
L 15.203125 34.046875 
L 15.203125 69 
L 3.296875 67.890625 
L 3.296875 65.296875 
C 9.203125 65.296875 10.09375 64.703125 10.09375 60.046875 
L 10.09375 6.921875 
C 10.09375 3.09375 9.703125 2.59375 3.296875 2.59375 
L 3.296875 0 
C 5.703125 0.1875 10.09375 0.1875 12.703125 0.1875 
C 15.296875 0.1875 19.796875 0.1875 22.203125 0 
L 22.203125 2.59375 
C 15.796875 2.59375 15.40625 3 15.40625 6.921875 
L 15.40625 26.21875 
C 15.40625 35.453125 21 42.390625 28 42.390625 
C 35.40625 42.390625 36.203125 35.765625 36.203125 30.9375 
L 36.203125 6.921875 
C 36.203125 3.09375 35.796875 2.59375 29.40625 2.59375 
L 29.40625 0 
C 31.796875 0.1875 36.203125 0.1875 38.796875 0.1875 
C 41.40625 0.1875 45.90625 0.1875 48.296875 0 
L 48.296875 2.59375 
C 41.90625 2.59375 41.5 3 41.5 6.921875 
z
" id="CMR17-104"/>
       <path d="M 30.59375 -24.40625 
C 30.59375 -24.3125 30.59375 -24.109375 30.296875 -23.8125 
C 25.703125 -19.109375 13.40625 -6.296875 13.40625 24.9375 
C 13.40625 56.171875 25.5 68.875 30.40625 73.890625 
C 30.40625 73.984375 30.59375 74.1875 30.59375 74.484375 
C 30.59375 74.796875 30.296875 75 29.90625 75 
C 28.796875 75 20.296875 67.578125 15.40625 56.5625 
C 10.40625 45.453125 9 34.65625 9 25.046875 
C 9 17.828125 9.703125 5.625 15.703125 -7.296875 
C 20.5 -17.703125 28.703125 -25 29.90625 -25 
C 30.40625 -25 30.59375 -24.8125 30.59375 -24.40625 
z
" id="CMR17-40"/>
       <path d="M 67.59375 30.53125 
C 67.59375 35.5625 66.703125 44 54.796875 44 
C 48 44 43.296875 39.375 41.5 33.953125 
L 41.40625 33.953125 
C 40.203125 42.1875 34.296875 44 28.703125 44 
C 20.796875 44 16.703125 37.875 15.203125 33.84375 
L 15.09375 33.84375 
L 15.09375 44 
L 3.296875 42.890625 
L 3.296875 40.28125 
C 9.203125 40.28125 10.09375 39.6875 10.09375 34.859375 
L 10.09375 6.921875 
C 10.09375 3.09375 9.703125 2.59375 3.296875 2.59375 
L 3.296875 0 
C 5.703125 0.1875 10.09375 0.1875 12.703125 0.1875 
C 15.296875 0.1875 19.796875 0.1875 22.203125 0 
L 22.203125 2.59375 
C 15.796875 2.59375 15.40625 3 15.40625 6.921875 
L 15.40625 26.21875 
C 15.40625 35.453125 21 42.390625 28 42.390625 
C 35.40625 42.390625 36.203125 35.765625 36.203125 30.9375 
L 36.203125 6.921875 
C 36.203125 3.09375 35.796875 2.59375 29.40625 2.59375 
L 29.40625 0 
C 31.796875 0.1875 36.203125 0.1875 38.796875 0.1875 
C 41.40625 0.1875 45.90625 0.1875 48.296875 0 
L 48.296875 2.59375 
C 41.90625 2.59375 41.5 3 41.5 6.921875 
L 41.5 26.21875 
C 41.5 35.453125 47.09375 42.390625 54.09375 42.390625 
C 61.5 42.390625 62.296875 35.765625 62.296875 30.9375 
L 62.296875 6.921875 
C 62.296875 3.09375 61.90625 2.59375 55.5 2.59375 
L 55.5 0 
C 57.90625 0.1875 62.296875 0.1875 64.90625 0.1875 
C 67.5 0.1875 72 0.1875 74.40625 0 
L 74.40625 2.59375 
C 68 2.59375 67.59375 3 67.59375 6.921875 
z
" id="CMR17-109"/>
       <path d="M 26.296875 24.9375 
C 26.296875 32.140625 25.59375 44.359375 19.59375 57.265625 
C 14.796875 67.6875 6.59375 75 5.40625 75 
C 5.09375 75 4.703125 74.890625 4.703125 74.390625 
C 4.703125 74.1875 4.796875 74.09375 4.90625 73.890625 
C 9.703125 68.875 21.90625 56.171875 21.90625 25.046875 
C 21.90625 -6.1875 9.796875 -18.90625 4.90625 -23.90625 
C 4.796875 -24.109375 4.703125 -24.203125 4.703125 -24.40625 
C 4.703125 -24.90625 5.09375 -25 5.40625 -25 
C 6.5 -25 15 -17.609375 19.90625 -6.59375 
C 24.90625 4.515625 26.296875 15.328125 26.296875 24.9375 
z
" id="CMR17-41"/>
      </defs>
      <use transform="scale(0.996264)" xlink:href="#CMR17-87"/>
      <use transform="translate(87.289395 0)scale(0.996264)" xlink:href="#CMR17-97"/>
      <use transform="translate(130.377418 0)scale(0.996264)" xlink:href="#CMR17-118"/>
      <use transform="translate(176.06788 0)scale(0.996264)" xlink:href="#CMR17-101"/>
      <use transform="translate(216.55354 0)scale(0.996264)" xlink:href="#CMR17-108"/>
      <use transform="translate(241.424599 0)scale(0.996264)" xlink:href="#CMR17-101"/>
      <use transform="translate(281.910259 0)scale(0.996264)" xlink:href="#CMR17-110"/>
      <use transform="translate(332.805629 0)scale(0.996264)" xlink:href="#CMR17-103"/>
      <use transform="translate(378.496106 0)scale(0.996264)" xlink:href="#CMR17-116"/>
      <use transform="translate(413.776874 0)scale(0.996264)" xlink:href="#CMR17-104"/>
      <use transform="translate(494.74821 0)scale(0.996264)" xlink:href="#CMR17-40"/>
      <use transform="translate(530.028978 0)scale(0.996264)" xlink:href="#CMR17-110"/>
      <use transform="translate(580.924347 0)scale(0.996264)" xlink:href="#CMR17-109"/>
      <use transform="translate(657.843937 0)scale(0.996264)" xlink:href="#CMR17-41"/>
     </g>
    </g>
   </g>
   <g id="matplotlib.axis_2">
    <g id="ytick_1">
     <g id="line2d_6">
      <defs>
       <path d="M 0 0 
L -3.5 0 
" id="mb0538caca2" style="stroke:#000000;stroke-width:0.8;"/>
      </defs>
      <g>
       <use style="stroke:#000000;stroke-width:0.8;" x="52.756452" xlink:href="#mb0538caca2" y="166.496228"/>
      </g>
     </g>
     <g id="text_7">
      <!-- $\mathdefault{0.0}$ -->
      <g transform="translate(29.55234 170.993242)scale(0.13 -0.13)">
       <defs>
        <path d="M 18.40625 4.796875 
C 18.40625 7.6875 16 9.6875 13.59375 9.6875 
C 10.703125 9.6875 8.703125 7.296875 8.703125 4.890625 
C 8.703125 2 11.09375 0 13.5 0 
C 16.40625 0 18.40625 2.390625 18.40625 4.796875 
z
" id="CMMI12-58"/>
       </defs>
       <use transform="scale(0.996264)" xlink:href="#CMR17-48"/>
       <use transform="translate(45.690477 0)scale(0.996264)" xlink:href="#CMMI12-58"/>
       <use transform="translate(72.787654 0)scale(0.996264)" xlink:href="#CMR17-48"/>
      </g>
     </g>
    </g>
    <g id="ytick_2">
     <g id="line2d_7">
      <g>
       <use style="stroke:#000000;stroke-width:0.8;" x="52.756452" xlink:href="#mb0538caca2" y="136.004982"/>
      </g>
     </g>
     <g id="text_8">
      <!-- $\mathdefault{0.2}$ -->
      <g transform="translate(29.55234 140.501996)scale(0.13 -0.13)">
       <use transform="scale(0.996264)" xlink:href="#CMR17-48"/>
       <use transform="translate(45.690477 0)scale(0.996264)" xlink:href="#CMMI12-58"/>
       <use transform="translate(72.787654 0)scale(0.996264)" xlink:href="#CMR17-50"/>
      </g>
     </g>
    </g>
    <g id="ytick_3">
     <g id="line2d_8">
      <g>
       <use style="stroke:#000000;stroke-width:0.8;" x="52.756452" xlink:href="#mb0538caca2" y="105.513737"/>
      </g>
     </g>
     <g id="text_9">
      <!-- $\mathdefault{0.4}$ -->
      <g transform="translate(29.55234 110.010751)scale(0.13 -0.13)">
       <use transform="scale(0.996264)" xlink:href="#CMR17-48"/>
       <use transform="translate(45.690477 0)scale(0.996264)" xlink:href="#CMMI12-58"/>
       <use transform="translate(72.787654 0)scale(0.996264)" xlink:href="#CMR17-52"/>
      </g>
     </g>
    </g>
    <g id="ytick_4">
     <g id="line2d_9">
      <g>
       <use style="stroke:#000000;stroke-width:0.8;" x="52.756452" xlink:href="#mb0538caca2" y="75.022491"/>
      </g>
     </g>
     <g id="text_10">
      <!-- $\mathdefault{0.6}$ -->
      <g transform="translate(29.55234 79.519505)scale(0.13 -0.13)">
       <use transform="scale(0.996264)" xlink:href="#CMR17-48"/>
       <use transform="translate(45.690477 0)scale(0.996264)" xlink:href="#CMMI12-58"/>
       <use transform="translate(72.787654 0)scale(0.996264)" xlink:href="#CMR17-54"/>
      </g>
     </g>
    </g>
    <g id="ytick_5">
     <g id="line2d_10">
      <g>
       <use style="stroke:#000000;stroke-width:0.8;" x="52.756452" xlink:href="#mb0538caca2" y="44.531246"/>
      </g>
     </g>
     <g id="text_11">
      <!-- $\mathdefault{0.8}$ -->
      <g transform="translate(29.55234 49.02826)scale(0.13 -0.13)">
       <use transform="scale(0.996264)" xlink:href="#CMR17-48"/>
       <use transform="translate(45.690477 0)scale(0.996264)" xlink:href="#CMMI12-58"/>
       <use transform="translate(72.787654 0)scale(0.996264)" xlink:href="#CMR17-56"/>
      </g>
     </g>
    </g>
    <g id="ytick_6">
     <g id="line2d_11">
      <g>
       <use style="stroke:#000000;stroke-width:0.8;" x="52.756452" xlink:href="#mb0538caca2" y="14.04"/>
      </g>
     </g>
     <g id="text_12">
      <!-- $\mathdefault{1.0}$ -->
      <g transform="translate(29.55234 18.537014)scale(0.13 -0.13)">
       <defs>
        <path d="M 26.59375 63.796875 
C 26.59375 65.890625 26.5 66 25.09375 66 
C 21.203125 61.359375 15.296875 59.890625 9.703125 59.6875 
C 9.40625 59.6875 8.90625 59.6875 8.796875 59.5 
C 8.703125 59.296875 8.703125 59.09375 8.703125 57 
C 11.796875 57 17 57.59375 21 59.984375 
L 21 7.296875 
C 21 3.796875 20.796875 2.59375 12.203125 2.59375 
L 9.203125 2.59375 
L 9.203125 0 
C 14 0.09375 19 0.1875 23.796875 0.1875 
C 28.59375 0.1875 33.59375 0.09375 38.40625 0 
L 38.40625 2.59375 
L 35.40625 2.59375 
C 26.796875 2.59375 26.59375 3.6875 26.59375 7.296875 
z
" id="CMR17-49"/>
       </defs>
       <use transform="scale(0.996264)" xlink:href="#CMR17-49"/>
       <use transform="translate(45.690477 0)scale(0.996264)" xlink:href="#CMMI12-58"/>
       <use transform="translate(72.787654 0)scale(0.996264)" xlink:href="#CMR17-48"/>
      </g>
     </g>
    </g>
    <g id="text_13">
     <!--  Norm. intensity -->
     <g transform="translate(23.034028 134.333992)rotate(-90)scale(0.13 -0.13)">
      <defs>
       <path d="M 20.5 66.796875 
C 19.796875 67.890625 19.703125 68 17.796875 68 
L 5.09375 68 
L 5.09375 65.390625 
L 7 65.390625 
C 11 65.390625 12.796875 64.890625 13.09375 64.796875 
L 13.09375 9.75 
C 13.09375 7.265625 13.09375 2.59375 5.09375 2.59375 
L 5.09375 0 
C 7.40625 0.1875 11.59375 0.1875 14.09375 0.1875 
C 16.59375 0.1875 20.796875 0.1875 23.09375 0 
L 23.09375 2.59375 
C 15.09375 2.59375 15.09375 7.265625 15.09375 9.75 
L 15.09375 63.390625 
C 15.796875 62.796875 15.796875 62.609375 16.5 61.609375 
L 53.59375 1.1875 
C 54.296875 0 54.59375 0 55.09375 0 
C 56.09375 0 56.09375 0.296875 56.09375 2.1875 
L 56.09375 58.21875 
C 56.09375 60.703125 56.09375 65.390625 64.09375 65.390625 
L 64.09375 68 
C 61.796875 67.796875 57.59375 67.796875 55.09375 67.796875 
C 52.59375 67.796875 48.40625 67.796875 46.09375 68 
L 46.09375 65.390625 
C 54.09375 65.390625 54.09375 60.703125 54.09375 58.21875 
L 54.09375 12.140625 
z
" id="CMR17-78"/>
       <path d="M 43.09375 21.1875 
C 43.09375 34 33.796875 44 22.90625 44 
C 12 44 2.703125 34 2.703125 21.1875 
C 2.703125 8.59375 12 -1 22.90625 -1 
C 33.796875 -1 43.09375 8.59375 43.09375 21.1875 
z
M 22.90625 0.796875 
C 18.203125 0.796875 14.203125 3.59375 11.90625 7.5 
C 9.40625 12 9.09375 17.59375 9.09375 22 
C 9.09375 26.1875 9.296875 31.390625 11.90625 35.890625 
C 13.90625 39.1875 17.796875 42.390625 22.90625 42.390625 
C 27.40625 42.390625 31.203125 39.890625 33.59375 36.390625 
C 36.703125 31.6875 36.703125 25.09375 36.703125 22 
C 36.703125 18.09375 36.5 12.09375 33.796875 7.296875 
C 31 2.6875 26.703125 0.796875 22.90625 0.796875 
z
" id="CMR17-111"/>
       <path d="M 15 23.703125 
C 15 33.34375 19.09375 42.390625 26.59375 42.390625 
C 27.296875 42.390625 28 42.296875 28.703125 41.984375 
C 28.703125 41.984375 26.5 41.28125 26.5 38.671875 
C 26.5 36.265625 28.40625 35.265625 29.90625 35.265625 
C 31.09375 35.265625 33.296875 35.96875 33.296875 38.78125 
C 33.296875 41.984375 30.09375 44 26.703125 44 
C 19.09375 44 15.796875 36.5625 14.796875 33.046875 
L 14.703125 33.046875 
L 14.703125 44 
L 3.09375 42.890625 
L 3.09375 40.28125 
C 9 40.28125 9.90625 39.6875 9.90625 34.859375 
L 9.90625 6.921875 
C 9.90625 3.09375 9.5 2.59375 3.09375 2.59375 
L 3.09375 0 
C 5.5 0.1875 10.09375 0.1875 12.703125 0.1875 
C 15.59375 0.1875 20.703125 0.1875 23.40625 0 
L 23.40625 2.59375 
C 16.203125 2.59375 15 2.59375 15 7.109375 
z
" id="CMR17-114"/>
       <path d="M 16.59375 4.09375 
C 16.59375 6.59375 14.59375 8.1875 12.5 8.1875 
C 10.5 8.1875 8.40625 6.59375 8.40625 4.09375 
C 8.40625 1.59375 10.40625 0 12.5 0 
C 14.5 0 16.59375 1.59375 16.59375 4.09375 
z
" id="CMR17-46"/>
       <path d="M 15.5 61.890625 
C 15.5 64.09375 13.703125 66 11.40625 66 
C 9.203125 66 7.296875 64.1875 7.296875 61.890625 
C 7.296875 59.6875 9.09375 57.796875 11.40625 57.796875 
C 13.59375 57.796875 15.5 59.59375 15.5 61.890625 
z
M 3.796875 42.890625 
L 3.796875 40.296875 
C 9.40625 40.296875 10.203125 39.6875 10.203125 34.859375 
L 10.203125 6.921875 
C 10.203125 3.09375 9.796875 2.59375 3.40625 2.59375 
L 3.40625 0 
C 5.796875 0.1875 10.09375 0.1875 12.59375 0.1875 
C 15 0.1875 19.09375 0.1875 21.40625 0 
L 21.40625 2.59375 
C 15.5 2.59375 15.296875 3.203125 15.296875 6.8125 
L 15.296875 44 
z
" id="CMR17-105"/>
       <path d="M 30.90625 42 
C 30.90625 43.796875 30.796875 43.890625 30.203125 43.890625 
C 29.796875 43.890625 29.703125 43.796875 28.5 42.296875 
C 28.203125 41.890625 27.296875 40.890625 27 40.5 
C 23.796875 43.890625 19.296875 44 17.59375 44 
C 6.5 44 2.5 38.1875 2.5 32.390625 
C 2.5 23.390625 12.703125 21.296875 15.59375 20.6875 
C 21.90625 19.390625 24.09375 19 26.203125 17.1875 
C 27.5 16 29.703125 13.796875 29.703125 10.1875 
C 29.703125 6 27.296875 0.59375 18.09375 0.59375 
C 9.40625 0.59375 6.296875 7.1875 4.5 16 
C 4.203125 17.390625 4.203125 17.5 3.40625 17.5 
C 2.59375 17.5 2.5 17.390625 2.5 15.390625 
L 2.5 1 
C 2.5 -0.8125 2.59375 -0.90625 3.203125 -0.90625 
C 3.703125 -0.90625 3.796875 -0.8125 4.296875 0 
C 4.90625 0.890625 6.40625 3.296875 7 4.296875 
C 9 1.59375 12.5 -1 18.09375 -1 
C 28 -1 33.296875 4.390625 33.296875 12.1875 
C 33.296875 17.296875 30.59375 20 29.296875 21.1875 
C 26.296875 24.296875 22.796875 25 18.59375 25.796875 
C 13.09375 27 6.09375 28.390625 6.09375 34.5 
C 6.09375 37.09375 7.5 42.59375 17.59375 42.59375 
C 28.296875 42.59375 28.90625 32.59375 29.09375 29.390625 
C 29.203125 28.890625 29.703125 28.796875 30 28.796875 
C 30.90625 28.796875 30.90625 29.09375 30.90625 30.796875 
z
" id="CMR17-115"/>
       <path d="M 39 34.109375 
C 41.5 40.296875 46 40.390625 47.40625 40.390625 
L 47.40625 43 
C 45.5 42.890625 43 42.796875 41.09375 42.796875 
C 39 42.796875 35.703125 42.796875 33.703125 43 
L 33.703125 40.390625 
C 37.5 40.09375 37.59375 37.25 37.59375 36.4375 
C 37.59375 35.4375 37.40625 34.921875 36.90625 33.71875 
L 26 6.390625 
L 14.09375 35.9375 
C 13.59375 37.15625 13.59375 37.859375 13.59375 37.96875 
C 13.59375 40.1875 15.90625 40.390625 18.296875 40.390625 
L 18.296875 43 
C 15.90625 42.796875 11.59375 42.796875 9.09375 42.796875 
C 6.40625 42.796875 3.203125 42.796875 1 43 
L 1 40.390625 
C 6.40625 40.390625 7 39.890625 8.296875 36.640625 
L 23.203125 -0.484375 
C 18.703125 -12.421875 16.09375 -19.40625 9.796875 -19.40625 
C 8.703125 -19.40625 6.203125 -19.109375 4.40625 -17.28125 
C 6.703125 -17.078125 7.703125 -15.65625 7.703125 -13.9375 
C 7.703125 -12.21875 6.5 -10.703125 4.5 -10.703125 
C 2.296875 -10.703125 1.203125 -12.21875 1.203125 -14.046875 
C 1.203125 -18.09375 5.296875 -21 9.796875 -21 
C 15.59375 -21 19.203125 -15.359375 21.203125 -10.296875 
z
" id="CMR17-121"/>
      </defs>
      <use transform="scale(0.996264)" xlink:href="#CMR17-78"/>
      <use transform="translate(69.07243 0)scale(0.996264)" xlink:href="#CMR17-111"/>
      <use transform="translate(114.762907 0)scale(0.996264)" xlink:href="#CMR17-114"/>
      <use transform="translate(150.043675 0)scale(0.996264)" xlink:href="#CMR17-109"/>
      <use transform="translate(226.963265 0)scale(0.996264)" xlink:href="#CMR17-46"/>
      <use transform="translate(292.319984 0)scale(0.996264)" xlink:href="#CMR17-105"/>
      <use transform="translate(317.191042 0)scale(0.996264)" xlink:href="#CMR17-110"/>
      <use transform="translate(365.483958 0)scale(0.996264)" xlink:href="#CMR17-116"/>
      <use transform="translate(400.764726 0)scale(0.996264)" xlink:href="#CMR17-101"/>
      <use transform="translate(441.250386 0)scale(0.996264)" xlink:href="#CMR17-110"/>
      <use transform="translate(492.145756 0)scale(0.996264)" xlink:href="#CMR17-115"/>
      <use transform="translate(527.947094 0)scale(0.996264)" xlink:href="#CMR17-105"/>
      <use transform="translate(552.818152 0)scale(0.996264)" xlink:href="#CMR17-116"/>
      <use transform="translate(585.496466 0)scale(0.996264)" xlink:href="#CMR17-121"/>
     </g>
    </g>
   </g>
   <g id="line2d_12">
    <path clip-path="url(#p1cdbc1b174)" d="M 52.756452 142.617541 
L 52.991491 93.635621 
L 53.348471 149.209692 
L 53.585683 137.923441 
L 54.062367 165.826808 
L 54.299622 163.557312 
L 54.536833 158.393802 
L 54.654342 158.985667 
L 54.893792 166.202336 
L 55.013517 166.869715 
L 55.133243 166.786037 
L 55.248534 166.853388 
L 55.370454 166.753383 
L 55.487984 164.787983 
L 55.844943 149.760738 
L 55.962473 143.842089 
L 56.082154 148.53619 
L 56.31941 163.638949 
L 56.554448 164.753288 
L 56.674173 162.353174 
L 57.03111 149.617874 
L 57.148618 150.128103 
L 57.266126 149.0056 
L 57.505599 159.37344 
L 57.623085 158.699939 
L 57.860296 146.617732 
L 58.097552 151.005695 
L 58.21506 147.495324 
L 58.334785 138.331623 
L 58.689527 160.904125 
L 58.809252 160.08776 
L 58.92676 160.577579 
L 59.04429 161.72049 
L 59.164016 158.618302 
L 59.398988 149.311737 
L 59.755991 163.169539 
L 59.873477 164.414496 
L 59.993202 164.292041 
L 60.110688 163.740995 
L 60.228218 161.577626 
L 60.582982 142.005267 
L 60.820193 146.821823 
L 61.057426 155.332432 
L 61.174957 156.230433 
L 61.529654 164.843088 
L 61.76691 161.475581 
L 62.121673 165.224739 
L 62.23692 164.95942 
L 62.358885 163.863449 
L 62.711409 158.638711 
L 63.06615 162.598083 
L 63.183659 162.455219 
L 63.301167 161.598036 
L 63.420914 159.026485 
L 63.653691 146.821823 
L 63.773416 149.311737 
L 63.893142 155.352841 
L 64.008455 153.618064 
L 64.245666 140.780719 
L 64.360957 143.229815 
L 64.600408 153.801747 
L 64.952932 151.84247 
L 65.307674 149.862784 
L 65.425182 149.556647 
L 65.777684 160.78167 
L 66.01494 156.679434 
L 66.249978 153.128245 
L 66.48495 158.148892 
L 66.60248 156.944753 
L 66.837519 152.06697 
L 67.072491 158.90403 
L 67.311963 156.659025 
L 67.544785 161.046989 
L 67.66451 161.312308 
L 67.779757 159.84285 
L 68.132325 141.392993 
L 68.369537 150.740377 
L 68.602336 158.557075 
L 68.722061 156.352888 
L 68.954838 145.066637 
L 69.074563 144.454363 
L 69.192094 146.638141 
L 69.544618 160.271442 
L 69.659909 158.557075 
L 69.779634 155.107931 
L 69.897142 155.414068 
L 70.012433 157.087617 
L 70.364936 150.332194 
L 70.602191 135.678436 
L 70.719699 134.453888 
L 70.952476 143.433907 
L 71.070007 143.229815 
L 71.305045 114.452937 
L 71.422531 126.494326 
L 71.657547 162.251128 
L 71.775055 162.291946 
L 71.892564 161.353126 
L 72.007877 161.455172 
L 72.125363 160.904125 
L 72.360379 152.169016 
L 72.595417 144.046181 
L 72.830389 159.475486 
L 73.063211 157.046799 
L 73.180719 156.944753 
L 73.415735 152.862926 
L 73.648534 149.0056 
L 73.883551 159.434667 
L 74.001036 158.516256 
L 74.118567 153.454791 
L 74.351366 138.739806 
L 74.701673 159.271394 
L 74.819181 159.250985 
L 74.936712 160.046941 
L 75.056437 159.250985 
L 75.169489 155.658978 
L 75.406722 138.943897 
L 75.522013 142.209359 
L 75.757029 151.332241 
L 76.340136 118.534764 
L 76.455427 119.147038 
L 76.69266 149.332146 
L 76.807951 150.250557 
L 76.925437 146.209549 
L 77.042967 137.923441 
L 77.393297 152.53638 
L 77.974164 142.005267 
L 78.20918 134.249797 
L 78.326688 133.025249 
L 78.444219 128.535239 
L 78.559465 129.555696 
L 78.792287 139.556171 
L 78.909795 138.943897 
L 79.260102 123.637047 
L 79.375393 128.739331 
L 79.725678 159.250985 
L 79.843208 160.026532 
L 79.958522 159.291804 
L 80.076008 154.271157 
L 80.308785 135.882527 
L 80.424098 138.331623 
L 80.659114 147.658597 
L 80.774405 145.47482 
L 81.007204 133.841614 
L 81.124735 135.270253 
L 81.24222 134.045705 
L 81.472802 118.330672 
L 81.705602 146.148322 
L 81.938401 138.739806 
L 82.058126 132.617066 
L 82.403999 150.617922 
L 82.752089 155.005885 
L 82.871814 153.740519 
L 82.984888 154.148702 
L 83.102396 153.618064 
L 83.337435 155.883478 
L 83.450487 154.495657 
L 83.800816 134.045705 
L 84.031376 147.046323 
L 84.379444 165.794153 
L 84.496974 166.612152 
L 84.727578 166.56766 
L 84.845064 166.430306 
L 85.077863 164.671651 
L 85.308445 166.069677 
L 85.425931 165.926813 
L 85.656536 165.09412 
L 85.774066 164.710428 
L 86.006821 160.700034 
L 86.119939 158.638711 
L 86.239642 158.965257 
L 86.354933 160.455124 
L 86.470224 155.332432 
L 86.703045 127.514783 
L 86.818336 128.535239 
L 87.166404 162.128673 
L 87.281695 162.720538 
L 87.394747 161.149035 
L 87.629808 154.699748 
L 88.208458 165.334948 
L 88.321509 164.739001 
L 88.55657 161.781718 
L 88.787174 165.659453 
L 88.902399 165.828849 
L 89.019929 164.810433 
L 89.365802 155.781433 
L 89.481093 156.761071 
L 89.596406 155.271204 
L 89.713914 152.271062 
L 90.175034 159.353031 
L 90.407855 165.534957 
L 90.638459 166.141109 
L 90.75375 165.979877 
L 90.869041 164.661447 
L 91.099623 154.65893 
L 91.21487 155.556932 
L 91.449908 163.251175 
L 91.562982 160.353078 
L 91.911095 131.392518 
L 92.13946 159.924487 
L 92.254751 160.189805 
L 92.372214 160.006123 
L 92.600579 164.494092 
L 92.71587 164.610424 
L 92.833401 163.006266 
L 93.407638 147.148369 
L 93.522929 147.556552 
L 93.984116 162.761356 
L 94.099407 161.822536 
L 94.21687 159.557122 
L 94.332161 154.311975 
L 94.445235 142.821633 
L 94.793348 82.002415 
L 94.906399 93.839712 
L 95.139243 155.965115 
L 95.367585 162.700129 
L 95.600407 163.026675 
L 95.71572 162.638901 
L 95.828772 161.72049 
L 95.944063 159.189758 
L 96.403009 137.107075 
L 96.520473 124.657504 
L 96.635764 129.147513 
L 96.864129 158.822393 
L 96.97942 159.434667 
L 97.210024 157.148845 
L 97.323076 154.169111 
L 97.671188 119.351129 
L 97.899553 146.087094 
L 98.014844 138.739806 
L 98.130135 140.372537 
L 98.360739 161.393944 
L 98.473791 162.373583 
L 98.589104 160.904125 
L 98.934977 143.229815 
L 99.278633 160.393897 
L 99.393924 159.965305 
L 99.73758 154.985476 
L 99.852871 155.536523 
L 100.081236 161.455172 
L 100.313991 158.291756 
L 100.424892 154.618112 
L 100.655474 130.780244 
L 100.770765 135.678436 
L 100.99913 156.128388 
L 101.344958 140.984811 
L 101.57115 144.046181 
L 101.686441 137.107075 
L 101.914806 98.533813 
L 102.37597 161.516399 
L 102.602096 164.08795 
L 102.717387 164.353269 
L 102.947991 163.822631 
L 103.174117 164.169586 
L 103.406938 163.14913 
L 103.633063 164.73696 
L 103.748354 164.645119 
L 103.863645 164.80431 
L 104.089771 165.434953 
L 104.205062 165.304334 
L 104.320375 165.357398 
L 104.548718 166.081922 
L 104.661792 165.955386 
L 105.007665 165.326784 
L 105.118566 165.453321 
L 105.577513 166.439694 
L 105.690587 166.298463 
L 106.149533 165.112488 
L 106.49095 165.447198 
L 106.606241 165.312498 
L 106.719315 165.369643 
L 106.947658 165.983958 
L 107.176023 165.92069 
L 107.517506 165.76354 
L 107.632819 165.845176 
L 107.974235 165.210452 
L 108.087287 165.51863 
L 108.202578 165.469648 
L 108.430943 164.583892 
L 108.657068 165.29413 
L 108.772359 165.073711 
L 108.885433 164.496133 
L 109.113843 161.006171 
L 109.339968 153.679292 
L 109.570572 158.046846 
L 109.796698 155.740614 
L 110.140354 164.95942 
L 110.366479 165.18392 
L 110.707962 165.422707 
L 111.04714 164.790024 
L 111.501697 165.885995 
L 111.616988 165.796194 
L 111.845352 165.824767 
L 112.18453 165.392094 
L 112.297604 165.657412 
L 112.412895 165.534957 
L 112.528186 165.214534 
L 112.752161 165.36148 
L 112.982743 165.153307 
L 113.206629 165.524753 
L 113.432821 164.796147 
L 113.548112 163.985904 
L 113.774237 159.924487 
L 113.887311 161.332717 
L 114.115676 165.671699 
L 114.344019 165.934976 
L 114.796337 165.261475 
L 115.020245 166.000286 
L 115.135536 165.583939 
L 115.363945 162.536856 
L 115.590071 159.638759 
L 115.816196 165.308416 
L 115.92927 165.649249 
L 116.609953 164.785942 
L 117.175322 166.418673 
L 117.288396 166.269686 
L 117.62764 165.38393 
L 117.740714 165.147184 
L 117.853765 164.026723 
L 118.079891 160.516352 
L 118.306083 165.002279 
L 118.419157 164.86962 
L 118.645282 163.312403 
L 118.984526 165.132898 
L 119.210652 164.661447 
L 119.323703 165.267598 
L 119.436777 165.214534 
L 119.66073 163.047084 
L 119.773804 161.332717 
L 119.999929 162.271537 
L 120.113048 161.863354 
L 120.339173 153.638474 
L 120.452247 155.536523 
L 120.678373 162.43481 
L 120.789274 162.128673 
L 121.015399 164.46756 
L 121.128451 163.37363 
L 121.354643 158.842803 
L 121.467717 159.577531 
L 121.691603 163.475676 
L 121.804721 162.802174 
L 122.143921 165.136979 
L 122.256973 164.771656 
L 122.480947 163.740995 
L 122.593999 163.679767 
L 122.70929 163.37363 
L 122.822364 163.679767 
L 122.931026 162.312355 
L 123.270203 148.250462 
L 123.60723 164.067541 
L 123.720304 163.965495 
L 123.944256 161.312308 
L 124.059547 161.700081 
L 124.283434 164.865538 
L 124.394335 164.394087 
L 124.62046 162.638901 
L 124.846586 163.761404 
L 124.957487 162.883811 
L 125.181373 157.4958 
L 125.409738 151.107741 
L 125.520639 151.903697 
L 125.633691 149.556647 
L 125.968478 115.881576 
L 126.307678 158.740757 
L 126.529391 146.087094 
L 126.757756 131.800701 
L 126.981709 152.842517 
L 127.092543 155.230386 
L 127.203444 146.087094 
L 127.542644 91.390616 
L 127.766596 123.024773 
L 127.877431 122.208408 
L 128.101384 84.655602 
L 128.438344 156.883526 
L 128.551462 157.577436 
L 128.662297 156.699844 
L 129.112375 144.862546 
L 129.22321 145.883003 
L 129.557997 108.126106 
L 129.895024 161.883763 
L 130.229811 164.608383 
L 130.455937 165.141061 
L 130.566838 164.830842 
L 130.903798 161.189853 
L 131.238585 165.302293 
L 131.573372 165.265557 
L 131.686491 164.818597 
L 131.795086 163.006266 
L 132.132112 146.923869 
L 132.469139 160.434715 
L 133.025596 165.743131 
L 133.138714 165.657412 
L 133.362622 166.49566 
L 133.473501 166.444797 
L 133.808288 165.843135 
L 133.919123 165.857422 
L 134.366984 163.475676 
L 134.812606 156.577389 
L 135.147393 164.271632 
L 135.258295 164.08795 
L 135.369107 163.577722 
L 135.703916 156.434525 
L 136.149583 162.638901 
L 136.371252 163.720586 
L 136.597444 160.944943 
L 136.708278 159.516304 
L 136.81694 159.720395 
L 136.927775 158.393802 
L 137.151728 140.372537 
L 137.262562 128.943422 
L 137.373397 134.249797 
L 137.599589 153.413973 
L 137.708184 154.087474 
L 137.819085 150.046466 
L 137.929897 139.964354 
L 138.151633 75.267401 
L 138.377759 14.04 
L 138.597255 110.983384 
L 138.708156 115.473394 
L 138.92987 96.288808 
L 139.155995 146.087094 
L 139.377731 151.903697 
L 139.488565 147.536143 
L 139.597227 136.086619 
L 139.929775 52.613262 
L 140.375397 157.230481 
L 140.708012 162.169491 
L 141.153633 163.985904 
L 141.264468 163.924677 
L 141.594865 163.740995 
L 141.818752 164.592056 
L 141.929653 164.634915 
L 142.1513 163.679767 
L 142.262201 163.067493 
L 142.481697 164.730838 
L 142.592532 164.659406 
L 142.814267 161.475581 
L 142.925146 159.61835 
L 143.035981 160.700034 
L 143.257716 164.353269 
L 143.588047 165.981918 
L 144.033714 166.629295 
L 144.25321 166.347037 
L 144.472706 165.904363 
L 144.696615 166.607049 
L 144.807494 166.512188 
L 145.029163 165.734967 
L 145.248659 166.298055 
L 145.579056 164.498173 
L 145.692108 164.690019 
L 145.911604 166.360711 
L 146.022439 165.769663 
L 146.355054 160.720443 
L 146.796219 166.27785 
L 146.907098 166.086004 
L 147.015715 165.269639 
L 147.237429 162.006218 
L 147.34833 162.393992 
L 147.567826 163.84304 
L 147.676421 164.210405 
L 147.898157 164.108359 
L 148.119871 160.944943 
L 148.230705 159.414258 
L 148.339367 159.944896 
L 148.669698 164.98187 
L 148.77836 165.198207 
L 149.000073 163.945086 
L 149.221809 164.57981 
L 149.330404 164.679815 
L 149.441305 164.210405 
L 149.660801 164.975747 
L 149.771636 165.016565 
L 149.991132 162.945038 
L 150.102011 163.271585 
L 150.321507 164.455314 
L 150.432342 163.965495 
L 150.543177 161.25108 
L 150.871335 132.821157 
L 151.312544 165.267598 
L 151.421228 165.234943 
L 152.19053 161.108216 
L 152.301364 161.516399 
L 152.520861 166.069677 
L 152.631762 166.539699 
L 152.851236 166.257441 
L 153.179394 165.832931 
L 153.39889 166.315607 
L 153.729221 166.124781 
L 154.057379 166.336832 
L 154.276876 166.228868 
L 154.718086 164.928806 
L 155.04396 165.40638 
L 155.154861 165.208411 
L 155.372118 163.598131 
L 155.591614 162.536856 
L 155.811111 164.900233 
L 155.919772 164.853292 
L 156.032824 164.485928 
L 156.252321 165.028811 
L 156.46736 164.798188 
L 156.686923 165.690067 
L 156.795519 165.530876 
L 156.906397 164.845129 
L 157.014993 162.945038 
L 157.123677 155.863069 
L 157.453985 112.412024 
L 157.673482 157.761119 
L 157.779926 160.740852 
L 157.890805 160.128578 
L 158.327581 164.679815 
L 158.766551 165.179839 
L 159.094709 164.763492 
L 159.203305 164.908397 
L 159.420584 165.712517 
L 159.965999 165.863545 
L 160.074661 165.692108 
L 160.404992 163.720586 
L 160.622315 165.018606 
L 160.73091 164.890029 
L 160.839572 164.485928 
L 161.274086 165.381889 
L 161.38277 165.432912 
L 161.710928 166.106413 
L 162.03902 165.973754 
L 162.256343 166.1656 
L 162.584435 165.288007 
L 162.690857 165.359439 
L 162.908181 165.408421 
L 163.453552 166.2105 
L 163.779471 166.267645 
L 163.888132 166.228868 
L 163.996794 166.034981 
L 164.21629 165.567612 
L 164.433547 166.399897 
L 164.539992 166.506779 
L 165.083168 166.281932 
L 165.194002 166.041104 
L 165.411326 165.222698 
L 165.628583 165.877831 
L 165.845862 166.151313 
L 166.169542 165.859463 
L 166.384648 165.892117 
L 166.493243 165.753335 
L 166.710567 165.18392 
L 167.036486 166.053349 
L 167.14732 165.618635 
L 167.364577 162.332764 
L 167.579684 163.84304 
L 167.688279 162.026627 
L 167.905603 156.659025 
L 168.12286 164.455314 
L 168.337899 165.22882 
L 168.446561 165.22678 
L 168.555223 165.408421 
L 168.661601 164.849211 
L 168.770263 163.577722 
L 168.878925 163.924677 
L 169.093942 165.579858 
L 169.202604 165.410462 
L 169.313439 164.434905 
L 169.4221 159.944896 
L 169.63714 146.250367 
L 169.854464 161.679672 
L 169.963059 162.414401 
L 170.069504 162.21031 
L 170.178166 160.822489 
L 170.504084 165.255352 
L 170.719102 164.373678 
L 171.042804 165.447198 
L 171.149226 164.598178 
L 171.364333 161.108216 
L 171.58159 164.992075 
L 171.798847 165.483935 
L 171.907531 163.128721 
L 172.122548 157.169254 
L 172.23121 157.761119 
L 172.339872 157.516209 
L 172.44625 159.291804 
L 172.663574 165.194125 
L 172.878591 165.006361 
L 173.093698 165.914567 
L 173.202293 165.583939 
L 173.417399 160.251033 
L 173.741079 165.726803 
L 173.953946 165.481894 
L 174.062541 165.214534 
L 174.171203 164.292041 
L 174.492665 165.341071 
L 174.712162 164.047132 
L 175.248708 166.420102 
L 175.465987 166.431939 
L 175.57241 166.024777 
L 175.787516 163.720586 
L 175.896112 162.353174 
L 176.111196 163.924677 
L 176.326236 159.638759 
L 176.647765 166.224786 
L 176.75636 165.849258 
L 177.077889 161.577626 
L 177.401568 166.134986 
L 177.508013 165.467607 
L 177.720858 158.965257 
L 178.044559 166.239073 
L 178.366022 166.196213 
L 178.796146 166.378671 
L 178.904808 166.126822 
L 179.117608 165.016565 
L 179.332692 165.583939 
L 179.654155 163.863449 
L 179.760599 164.006313 
L 179.869261 163.37363 
L 180.297146 148.964782 
L 180.405808 152.148607 
L 180.618608 163.536903 
L 180.725053 164.067541 
L 180.940137 163.679767 
L 181.155177 165.671699 
L 181.368022 166.026818 
L 181.476684 165.916608 
L 181.583062 165.98804 
L 181.795929 166.27785 
L 182.117391 166.384794 
L 182.223814 165.841094 
L 182.43892 160.761261 
L 182.76036 166.173763 
L 182.866805 166.155395 
L 183.079672 165.802317 
L 183.292539 166.281932 
L 183.398895 165.426789 
L 183.613979 162.842993 
L 183.720424 163.251175 
L 183.829019 161.02658 
L 184.041886 162.169491 
L 184.148309 162.291946 
L 184.254754 160.210215 
L 184.576194 165.892117 
L 184.789061 166.230909 
L 184.895505 166.214582 
L 185.001928 166.063554 
L 185.32339 162.90422 
L 185.429813 161.72049 
L 185.64268 163.61854 
L 185.749058 163.659358 
L 186.068348 166.230909 
L 186.17477 166.130904 
L 186.815522 166.44745 
L 187.134767 166.090086 
L 187.347612 165.581898 
L 187.560479 164.31245 
L 187.773346 165.218616 
L 187.879702 164.741042 
L 187.986147 164.794106 
L 188.092569 161.02658 
L 188.305436 147.944325 
L 188.624726 165.600267 
L 188.731104 165.83089 
L 188.837527 165.551285 
L 188.943971 164.659406 
L 189.154599 164.983911 
L 189.261021 164.08795 
L 189.367466 161.659263 
L 189.473889 162.312355 
L 189.686689 166.020695 
L 189.899556 166.502779 
L 190.005979 166.438674 
L 190.112401 166.147231 
L 190.323051 164.75941 
L 190.535896 165.134938 
L 190.642274 164.918602 
L 190.961564 166.492452 
L 191.491481 166.350711 
L 191.597859 166.396019 
L 191.704282 166.290095 
L 191.808487 164.839006 
L 191.914909 161.781718 
L 192.021354 162.169491 
L 192.234199 166.061513 
L 192.444849 166.412346 
L 192.9747 164.698183 
L 193.081122 164.875742 
L 193.395955 166.030899 
L 193.5024 165.973754 
L 193.611062 165.753335 
L 193.82169 165.867626 
L 193.928112 165.485976 
L 194.03449 164.524705 
L 194.245118 160.373488 
L 194.562168 165.849258 
L 194.775035 165.932936 
L 194.879241 166.039063 
L 195.092108 166.486717 
L 195.196291 166.56419 
L 195.302736 166.447042 
L 195.619786 165.702312 
L 195.830414 165.690067 
L 195.936792 165.620676 
L 196.14742 165.081875 
L 196.46447 159.985714 
L 196.67512 161.618445 
L 196.781542 160.638806 
L 197.098592 165.959467 
L 197.202798 166.239073 
L 197.309242 165.957427 
L 197.51987 165.177798 
L 197.730498 165.926813 
L 198.047548 165.981918 
L 198.151754 165.592103 
L 198.46876 161.169444 
L 198.573009 161.618445 
L 198.887842 166.071718 
L 199.09847 166.351119 
L 199.202675 166.286014 
L 199.415476 165.598226 
L 199.626104 163.557312 
L 199.836732 161.210262 
L 200.047359 164.047132 
L 200.153804 164.271632 
L 200.364432 158.067256 
L 200.783448 163.904268 
L 200.889893 163.496085 
L 201.098281 155.985524 
L 201.519537 164.863497 
L 201.623742 164.414496 
L 201.730165 159.455077 
L 201.940815 148.270871 
L 202.149203 160.842898 
L 202.461863 164.08795 
L 202.568219 163.414449 
L 202.883119 158.352983 
L 202.989497 158.516256 
L 203.200125 151.924106 
L 203.514958 162.149082 
L 203.723413 163.904268 
L 203.829791 163.659358 
L 203.934041 162.43481 
L 204.038246 157.005981 
L 204.248874 128.943422 
L 204.667912 161.700081 
L 204.876301 163.414449 
L 204.980506 163.475676 
L 205.188895 161.842945 
L 205.607933 164.994115 
L 205.922766 161.475581 
L 206.237644 165.149225 
L 206.446054 165.65333 
L 206.654443 164.414496 
L 206.865071 164.814515 
L 207.073481 164.665528 
L 207.177665 164.189996 
L 207.28187 164.596137 
L 207.492498 165.92069 
L 207.698736 166.332342 
L 207.907124 166.368262 
L 208.221957 166.090086 
L 208.53679 166.359078 
L 208.745201 166.523372 
L 208.849384 166.494126 
L 209.057795 166.269686 
L 209.26625 166.467859 
L 209.785015 165.802317 
L 209.99347 166.10029 
L 210.201881 165.477812 
L 210.306086 165.583939 
L 210.725102 166.336628 
L 211.141901 166.415816 
L 211.558767 165.877831 
L 211.866904 166.430306 
L 212.075359 166.161518 
L 212.390192 165.281884 
L 212.598581 165.441075 
L 213.221618 166.002327 
L 213.325823 165.957427 
L 213.531972 165.36148 
L 213.634005 164.851252 
L 213.73821 164.963502 
L 214.050804 165.845176 
L 214.259215 165.918649 
L 214.778024 165.908445 
L 215.294639 166.112536 
L 215.607233 165.714558 
L 216.024032 166.153354 
L 216.230248 165.998245 
L 216.848806 164.787983 
L 217.159249 164.930847 
L 217.263454 164.904315 
L 217.367638 164.75941 
L 217.576048 165.069629 
L 217.680231 164.434905 
L 217.886469 162.985857 
L 218.092641 164.047132 
L 218.298812 164.210405 
L 218.400845 164.149177 
L 218.505028 163.475676 
L 218.606994 161.761309 
L 218.711199 153.352746 
L 218.917437 125.882052 
L 219.334236 156.618207 
L 219.538235 158.842803 
L 219.640201 159.046894 
L 219.846416 161.781718 
L 220.054827 163.108312 
L 220.156793 163.108312 
L 220.469387 162.230719 
L 220.675625 162.67972 
L 220.777591 162.149082 
L 220.981589 159.414258 
L 221.600148 165.059425 
L 222.014774 165.532917 
L 222.424944 164.939011 
L 222.837331 163.781813 
L 223.041263 161.761309 
L 223.145468 158.985667 
L 223.249674 145.883003 
L 223.453672 104.452462 
L 223.761876 143.637998 
L 223.866059 146.556504 
L 224.174263 160.577579 
L 224.484618 164.026723 
L 224.688638 164.777779 
L 224.790604 164.879824 
L 224.994603 164.230814 
L 225.098786 164.394087 
L 225.40699 165.40638 
L 225.610922 165.510467 
L 225.717345 165.326784 
L 225.919126 162.883811 
L 226.021092 162.985857 
L 226.329296 164.08795 
L 226.535512 164.026723 
L 226.945682 165.230861 
L 227.047648 165.096161 
L 227.251646 164.651242 
L 227.355851 164.808392 
L 227.661816 165.822726 
L 227.766021 165.494139 
L 227.967781 164.230814 
L 228.071986 164.524705 
L 228.275918 165.610471 
L 228.380168 165.141061 
L 228.5841 163.679767 
L 228.890064 165.700271 
L 229.094063 165.896199 
L 229.198268 165.939058 
L 229.504233 166.442348 
L 229.810197 166.408672 
L 230.116162 165.914567 
L 230.322333 164.865538 
L 230.424366 164.790024 
L 230.628298 163.924677 
L 230.73033 164.251223 
L 230.832296 163.965495 
L 231.036295 162.965448 
L 231.546192 165.359439 
L 231.75243 163.659358 
L 232.566118 166.083963 
L 232.668084 166.024777 
L 232.974049 163.067493 
L 233.076015 163.108312 
L 233.277796 164.128768 
L 233.483967 164.251223 
L 233.586 164.108359 
L 233.687966 163.557312 
L 233.891964 164.455314 
L 233.99393 164.006313 
L 234.19345 161.659263 
L 234.295483 161.72049 
L 234.399688 160.78167 
L 234.501654 161.067398 
L 234.807619 164.581851 
L 234.909585 164.841047 
L 235.009378 164.690019 
L 235.21116 164.128768 
L 235.313126 164.271632 
L 235.417309 162.740947 
L 235.621307 148.413735 
L 235.823089 155.434477 
L 235.922815 155.863069 
L 236.024848 151.12815 
L 236.126814 151.679197 
L 236.330813 160.251033 
L 236.432779 160.904125 
L 236.636777 154.209929 
L 237.040251 163.067493 
L 237.24425 157.679482 
L 237.346216 158.557075 
L 237.550214 162.802174 
L 238.053482 166.061513 
L 238.155514 166.241114 
L 238.25972 166.175804 
L 238.561206 164.31245 
L 238.762987 160.006123 
L 239.068952 164.741042 
L 239.170918 165.247189 
L 239.27295 165.190043 
L 239.674252 160.985762 
L 239.876011 162.516447 
L 239.980216 162.332764 
L 240.483484 165.761499 
L 240.685243 165.924772 
L 240.787209 165.892117 
L 241.090934 164.830842 
L 241.19075 165.108407 
L 241.292716 164.957379 
L 241.392509 164.600219 
L 241.596507 159.720395 
L 241.698473 160.536761 
L 241.898016 164.006313 
L 242.201741 164.95942 
L 242.301556 164.957379 
L 242.403522 164.814515 
L 242.503316 164.879824 
L 242.90679 165.704353 
L 243.412341 166.220704 
L 243.51209 166.155395 
L 243.713849 165.083916 
L 243.915608 164.108359 
L 244.319149 165.602308 
L 244.72045 165.990081 
L 245.123924 165.412503 
L 245.425477 163.720586 
L 245.928744 165.539039 
L 246.02856 165.590062 
L 246.230319 165.075752 
L 246.529588 165.908445 
L 246.733586 165.841094 
L 247.232442 163.883859 
L 247.43644 162.455219 
L 247.835524 165.128816 
L 248.13925 165.85334 
L 248.540551 165.998245 
L 248.837647 166.348466 
L 249.642489 166.422959 
L 249.941758 166.432347 
L 250.340887 166.455818 
L 250.442853 166.441531 
L 250.742188 165.365562 
L 251.143489 166.149272 
L 251.243216 166.167641 
L 251.340792 165.802317 
L 251.540334 164.473683 
L 251.84406 165.639044 
L 251.943853 165.749253 
L 252.141156 165.688026 
L 252.542457 166.249277 
L 252.939368 166.394794 
L 253.138911 166.377447 
L 253.240877 166.31928 
L 253.537973 165.769663 
L 253.837308 166.331322 
L 253.939274 166.297851 
L 254.136577 165.908445 
L 254.435912 166.321525 
L 254.637671 166.395407 
L 254.735247 166.259482 
L 255.034516 164.767574 
L 255.231886 160.883716 
L 255.630948 164.941052 
L 255.930283 165.655371 
L 256.03001 165.510467 
L 256.327106 165.969672 
L 256.426921 165.843135 
L 256.72619 162.67972 
L 257.023286 164.994115 
L 257.220655 163.863449 
L 257.322621 163.965495 
L 257.619718 165.390053 
L 257.719444 165.390053 
L 257.914596 163.475676 
L 258.016562 163.577722 
L 258.216149 164.84717 
L 258.411235 165.130857 
L 258.712787 165.430871 
L 258.810297 165.430871 
L 258.91009 165.006361 
L 259.107393 163.128721 
L 259.204969 163.047084 
L 259.406728 155.822251 
L 260.000942 163.822631 
L 260.295799 164.765533 
L 260.395548 164.614506 
L 260.694883 164.189996 
L 260.792437 163.026675 
L 260.890013 156.740662 
L 261.087316 137.719349 
L 261.484205 158.455029 
L 261.783474 162.1899 
L 262.07618 164.271632 
L 262.273483 163.883859 
L 262.670328 164.836965 
L 262.867697 165.008402 
L 262.965251 165.057384 
L 263.162554 164.973706 
L 263.262281 165.000238 
L 263.362096 164.775738 
L 263.45965 164.108359 
L 263.756768 150.332194 
L 264.051625 160.965352 
L 264.446297 163.720586 
L 264.938479 164.91452 
L 265.333151 165.11657 
L 265.727801 164.189996 
L 266.02268 162.618492 
L 266.12019 160.516352 
L 266.317559 154.169111 
L 266.612416 161.7409 
L 267.004849 163.985904 
L 267.102425 164.292041 
L 267.301967 163.924677 
L 267.594584 164.55736 
L 267.6944 164.583892 
L 267.794126 164.149177 
L 267.989256 163.108312 
L 268.184342 164.434905 
L 268.381711 164.749206 
L 268.481438 164.394087 
L 268.674329 158.516256 
L 268.771905 159.087712 
L 269.069001 163.169539 
L 269.361641 164.394087 
L 269.461456 164.189996 
L 269.658737 163.189948 
L 269.951443 164.812474 
L 270.148746 164.822679 
L 270.439212 165.367603 
L 270.638754 165.106366 
L 270.929155 165.445157 
L 271.128697 164.455314 
L 271.419164 165.522712 
L 271.714043 165.922731 
L 271.909173 166.051309 
L 272.299366 166.110495 
L 272.592006 166.265604 
L 272.984439 166.198254 
L 273.47223 166.319689 
L 273.569784 166.517657 
L 273.764914 166.353364 
L 273.96 166.288055 
L 273.96 166.288055 
" style="fill:none;stroke:#ff0000;stroke-linecap:square;stroke-width:1.5;"/>
   </g>
   <g id="line2d_13">
    <defs>
     <path d="M 0 1.25 
C 0.331504 1.25 0.649475 1.118292 0.883883 0.883883 
C 1.118292 0.649475 1.25 0.331504 1.25 0 
C 1.25 -0.331504 1.118292 -0.649475 0.883883 -0.883883 
C 0.649475 -1.118292 0.331504 -1.25 0 -1.25 
C -0.331504 -1.25 -0.649475 -1.118292 -0.883883 -0.883883 
C -1.118292 -0.649475 -1.25 -0.331504 -1.25 0 
C -1.25 0.331504 -1.118292 0.649475 -0.883883 0.883883 
C -0.649475 1.118292 -0.331504 1.25 0 1.25 
z
" id="me73dbe8866" style="stroke:#000000;"/>
    </defs>
    <g clip-path="url(#p1cdbc1b174)">
     <use style="stroke:#000000;" x="52.991491" xlink:href="#me73dbe8866" y="98.762216"/>
     <use style="stroke:#000000;" x="53.585683" xlink:href="#me73dbe8866" y="140.153239"/>
     <use style="stroke:#000000;" x="54.536833" xlink:href="#me73dbe8866" y="158.976991"/>
     <use style="stroke:#000000;" x="55.962473" xlink:href="#me73dbe8866" y="145.411435"/>
     <use style="stroke:#000000;" x="57.266126" xlink:href="#me73dbe8866" y="149.804298"/>
     <use style="stroke:#000000;" x="57.860296" xlink:href="#me73dbe8866" y="147.561859"/>
     <use style="stroke:#000000;" x="58.334785" xlink:href="#me73dbe8866" y="140.573173"/>
     <use style="stroke:#000000;" x="59.398988" xlink:href="#me73dbe8866" y="150.459968"/>
     <use style="stroke:#000000;" x="60.582982" xlink:href="#me73dbe8866" y="142.737094"/>
     <use style="stroke:#000000;" x="61.76691" xlink:href="#me73dbe8866" y="161.929874"/>
     <use style="stroke:#000000;" x="62.711409" xlink:href="#me73dbe8866" y="158.985749"/>
     <use style="stroke:#000000;" x="63.653691" xlink:href="#me73dbe8866" y="148.058026"/>
     <use style="stroke:#000000;" x="64.245666" xlink:href="#me73dbe8866" y="142.025393"/>
     <use style="stroke:#000000;" x="65.307674" xlink:href="#me73dbe8866" y="149.948762"/>
     <use style="stroke:#000000;" x="66.249978" xlink:href="#me73dbe8866" y="153.612583"/>
     <use style="stroke:#000000;" x="66.837519" xlink:href="#me73dbe8866" y="152.88678"/>
     <use style="stroke:#000000;" x="67.311963" xlink:href="#me73dbe8866" y="157.155248"/>
     <use style="stroke:#000000;" x="68.132325" xlink:href="#me73dbe8866" y="142.630759"/>
     <use style="stroke:#000000;" x="69.074563" xlink:href="#me73dbe8866" y="144.876306"/>
     <use style="stroke:#000000;" x="69.897142" xlink:href="#me73dbe8866" y="155.625921"/>
     <use style="stroke:#000000;" x="70.719699" xlink:href="#me73dbe8866" y="135.461193"/>
     <use style="stroke:#000000;" x="71.305045" xlink:href="#me73dbe8866" y="118.759273"/>
     <use style="stroke:#000000;" x="72.595417" xlink:href="#me73dbe8866" y="145.686031"/>
     <use style="stroke:#000000;" x="73.533221" xlink:href="#me73dbe8866" y="149.840253"/>
     <use style="stroke:#000000;" x="74.351366" xlink:href="#me73dbe8866" y="140.677018"/>
     <use style="stroke:#000000;" x="75.406722" xlink:href="#me73dbe8866" y="140.739141"/>
     <use style="stroke:#000000;" x="76.340136" xlink:href="#me73dbe8866" y="120.556978"/>
     <use style="stroke:#000000;" x="77.042967" xlink:href="#me73dbe8866" y="139.845767"/>
     <use style="stroke:#000000;" x="78.444219" xlink:href="#me73dbe8866" y="129.378075"/>
     <use style="stroke:#000000;" x="79.260102" xlink:href="#me73dbe8866" y="125.155222"/>
     <use style="stroke:#000000;" x="80.308785" xlink:href="#me73dbe8866" y="137.543667"/>
     <use style="stroke:#000000;" x="81.007204" xlink:href="#me73dbe8866" y="134.536916"/>
     <use style="stroke:#000000;" x="81.472802" xlink:href="#me73dbe8866" y="121.454469"/>
     <use style="stroke:#000000;" x="82.058126" xlink:href="#me73dbe8866" y="134.655628"/>
     <use style="stroke:#000000;" x="82.871814" xlink:href="#me73dbe8866" y="153.990054"/>
     <use style="stroke:#000000;" x="83.102396" xlink:href="#me73dbe8866" y="153.930146"/>
     <use style="stroke:#000000;" x="83.800816" xlink:href="#me73dbe8866" y="135.245673"/>
     <use style="stroke:#000000;" x="85.077863" xlink:href="#me73dbe8866" y="164.88696"/>
     <use style="stroke:#000000;" x="86.119939" xlink:href="#me73dbe8866" y="159.015565"/>
     <use style="stroke:#000000;" x="86.703045" xlink:href="#me73dbe8866" y="129.719253"/>
     <use style="stroke:#000000;" x="87.629808" xlink:href="#me73dbe8866" y="155.463633"/>
     <use style="stroke:#000000;" x="88.55657" xlink:href="#me73dbe8866" y="162.25884"/>
     <use style="stroke:#000000;" x="89.365802" xlink:href="#me73dbe8866" y="156.239242"/>
     <use style="stroke:#000000;" x="89.713914" xlink:href="#me73dbe8866" y="153.00038"/>
     <use style="stroke:#000000;" x="91.099623" xlink:href="#me73dbe8866" y="155.69775"/>
     <use style="stroke:#000000;" x="91.911095" xlink:href="#me73dbe8866" y="134.861172"/>
     <use style="stroke:#000000;" x="93.407638" xlink:href="#me73dbe8866" y="147.546172"/>
     <use style="stroke:#000000;" x="94.793348" xlink:href="#me73dbe8866" y="86.271724"/>
     <use style="stroke:#000000;" x="96.520473" xlink:href="#me73dbe8866" y="127.266468"/>
     <use style="stroke:#000000;" x="97.671188" xlink:href="#me73dbe8866" y="123.166238"/>
     <use style="stroke:#000000;" x="98.014844" xlink:href="#me73dbe8866" y="140.14156"/>
     <use style="stroke:#000000;" x="98.934977" xlink:href="#me73dbe8866" y="145.283844"/>
     <use style="stroke:#000000;" x="99.73758" xlink:href="#me73dbe8866" y="155.348314"/>
     <use style="stroke:#000000;" x="100.655474" xlink:href="#me73dbe8866" y="133.523378"/>
     <use style="stroke:#000000;" x="101.344958" xlink:href="#me73dbe8866" y="141.542897"/>
     <use style="stroke:#000000;" x="101.914806" xlink:href="#me73dbe8866" y="103.721742"/>
     <use style="stroke:#000000;" x="102.947991" xlink:href="#me73dbe8866" y="163.899108"/>
     <use style="stroke:#000000;" x="103.406938" xlink:href="#me73dbe8866" y="163.354607"/>
     <use style="stroke:#000000;" x="104.205062" xlink:href="#me73dbe8866" y="165.333115"/>
     <use style="stroke:#000000;" x="105.007665" xlink:href="#me73dbe8866" y="165.380438"/>
     <use style="stroke:#000000;" x="106.149533" xlink:href="#me73dbe8866" y="165.150729"/>
     <use style="stroke:#000000;" x="106.606241" xlink:href="#me73dbe8866" y="165.343441"/>
     <use style="stroke:#000000;" x="107.404387" xlink:href="#me73dbe8866" y="165.765849"/>
     <use style="stroke:#000000;" x="107.974235" xlink:href="#me73dbe8866" y="165.270986"/>
     <use style="stroke:#000000;" x="108.430943" xlink:href="#me73dbe8866" y="164.697884"/>
     <use style="stroke:#000000;" x="109.339968" xlink:href="#me73dbe8866" y="154.602871"/>
     <use style="stroke:#000000;" x="109.796698" xlink:href="#me73dbe8866" y="156.513009"/>
     <use style="stroke:#000000;" x="111.04714" xlink:href="#me73dbe8866" y="164.854792"/>
     <use style="stroke:#000000;" x="111.616988" xlink:href="#me73dbe8866" y="165.821898"/>
     <use style="stroke:#000000;" x="112.071478" xlink:href="#me73dbe8866" y="165.397156"/>
     <use style="stroke:#000000;" x="112.528186" xlink:href="#me73dbe8866" y="165.283071"/>
     <use style="stroke:#000000;" x="112.982743" xlink:href="#me73dbe8866" y="165.202005"/>
     <use style="stroke:#000000;" x="113.774237" xlink:href="#me73dbe8866" y="160.494064"/>
     <use style="stroke:#000000;" x="114.796337" xlink:href="#me73dbe8866" y="165.342852"/>
     <use style="stroke:#000000;" x="115.477019" xlink:href="#me73dbe8866" y="160.161631"/>
     <use style="stroke:#000000;" x="116.609953" xlink:href="#me73dbe8866" y="164.884525"/>
     <use style="stroke:#000000;" x="118.079891" xlink:href="#me73dbe8866" y="161.138982"/>
     <use style="stroke:#000000;" x="118.645282" xlink:href="#me73dbe8866" y="163.504596"/>
     <use style="stroke:#000000;" x="119.0976" xlink:href="#me73dbe8866" y="164.757748"/>
     <use style="stroke:#000000;" x="119.773804" xlink:href="#me73dbe8866" y="161.686455"/>
     <use style="stroke:#000000;" x="120.339173" xlink:href="#me73dbe8866" y="154.73953"/>
     <use style="stroke:#000000;" x="121.354643" xlink:href="#me73dbe8866" y="159.348051"/>
     <use style="stroke:#000000;" x="121.804721" xlink:href="#me73dbe8866" y="163.062562"/>
     <use style="stroke:#000000;" x="123.270203" xlink:href="#me73dbe8866" y="149.939286"/>
     <use style="stroke:#000000;" x="123.944256" xlink:href="#me73dbe8866" y="161.64282"/>
     <use style="stroke:#000000;" x="124.62046" xlink:href="#me73dbe8866" y="162.853356"/>
     <use style="stroke:#000000;" x="125.968478" xlink:href="#me73dbe8866" y="120.016238"/>
     <use style="stroke:#000000;" x="126.757756" xlink:href="#me73dbe8866" y="134.627852"/>
     <use style="stroke:#000000;" x="127.542644" xlink:href="#me73dbe8866" y="97.13254"/>
     <use style="stroke:#000000;" x="128.101384" xlink:href="#me73dbe8866" y="91.706619"/>
     <use style="stroke:#000000;" x="129.557997" xlink:href="#me73dbe8866" y="113.015711"/>
     <use style="stroke:#000000;" x="130.903798" xlink:href="#me73dbe8866" y="161.63893"/>
     <use style="stroke:#000000;" x="132.132112" xlink:href="#me73dbe8866" y="148.464793"/>
     <use style="stroke:#000000;" x="134.812606" xlink:href="#me73dbe8866" y="157.222603"/>
     <use style="stroke:#000000;" x="135.703916" xlink:href="#me73dbe8866" y="157.08699"/>
     <use style="stroke:#000000;" x="137.262562" xlink:href="#me73dbe8866" y="131.818263"/>
     <use style="stroke:#000000;" x="138.377759" xlink:href="#me73dbe8866" y="25.902659"/>
     <use style="stroke:#000000;" x="138.92987" xlink:href="#me73dbe8866" y="101.792776"/>
     <use style="stroke:#000000;" x="139.929775" xlink:href="#me73dbe8866" y="61.728571"/>
     <use style="stroke:#000000;" x="141.483964" xlink:href="#me73dbe8866" y="163.722328"/>
     <use style="stroke:#000000;" x="142.262201" xlink:href="#me73dbe8866" y="163.274677"/>
     <use style="stroke:#000000;" x="142.925146" xlink:href="#me73dbe8866" y="160.123735"/>
     <use style="stroke:#000000;" x="144.472706" xlink:href="#me73dbe8866" y="165.996069"/>
     <use style="stroke:#000000;" x="145.029163" xlink:href="#me73dbe8866" y="165.840392"/>
     <use style="stroke:#000000;" x="145.579056" xlink:href="#me73dbe8866" y="164.616495"/>
     <use style="stroke:#000000;" x="146.355054" xlink:href="#me73dbe8866" y="161.233783"/>
     <use style="stroke:#000000;" x="147.237429" xlink:href="#me73dbe8866" y="162.339961"/>
     <use style="stroke:#000000;" x="148.230705" xlink:href="#me73dbe8866" y="159.777582"/>
     <use style="stroke:#000000;" x="149.000073" xlink:href="#me73dbe8866" y="164.112243"/>
     <use style="stroke:#000000;" x="149.441305" xlink:href="#me73dbe8866" y="164.376698"/>
     <use style="stroke:#000000;" x="149.991132" xlink:href="#me73dbe8866" y="163.190244"/>
     <use style="stroke:#000000;" x="150.871335" xlink:href="#me73dbe8866" y="136.108662"/>
     <use style="stroke:#000000;" x="152.19053" xlink:href="#me73dbe8866" y="161.284338"/>
     <use style="stroke:#000000;" x="153.070732" xlink:href="#me73dbe8866" y="165.878847"/>
     <use style="stroke:#000000;" x="153.618387" xlink:href="#me73dbe8866" y="166.144888"/>
     <use style="stroke:#000000;" x="154.718086" xlink:href="#me73dbe8866" y="164.987772"/>
     <use style="stroke:#000000;" x="155.591614" xlink:href="#me73dbe8866" y="162.775142"/>
     <use style="stroke:#000000;" x="156.032824" xlink:href="#me73dbe8866" y="164.601459"/>
     <use style="stroke:#000000;" x="156.358743" xlink:href="#me73dbe8866" y="164.863979"/>
     <use style="stroke:#000000;" x="157.453985" xlink:href="#me73dbe8866" y="117.274549"/>
     <use style="stroke:#000000;" x="159.094709" xlink:href="#me73dbe8866" y="164.823182"/>
     <use style="stroke:#000000;" x="160.404992" xlink:href="#me73dbe8866" y="163.91076"/>
     <use style="stroke:#000000;" x="160.839572" xlink:href="#me73dbe8866" y="164.609985"/>
     <use style="stroke:#000000;" x="161.930425" xlink:href="#me73dbe8866" y="165.972879"/>
     <use style="stroke:#000000;" x="162.584435" xlink:href="#me73dbe8866" y="165.339758"/>
     <use style="stroke:#000000;" x="164.107629" xlink:href="#me73dbe8866" y="165.665268"/>
     <use style="stroke:#000000;" x="165.411326" xlink:href="#me73dbe8866" y="165.315864"/>
     <use style="stroke:#000000;" x="166.169542" xlink:href="#me73dbe8866" y="165.862493"/>
     <use style="stroke:#000000;" x="166.710567" xlink:href="#me73dbe8866" y="165.277079"/>
     <use style="stroke:#000000;" x="167.364577" xlink:href="#me73dbe8866" y="162.824682"/>
     <use style="stroke:#000000;" x="167.905603" xlink:href="#me73dbe8866" y="157.593006"/>
     <use style="stroke:#000000;" x="168.770263" xlink:href="#me73dbe8866" y="163.866972"/>
     <use style="stroke:#000000;" x="169.63714" xlink:href="#me73dbe8866" y="148.363535"/>
     <use style="stroke:#000000;" x="170.178166" xlink:href="#me73dbe8866" y="161.361831"/>
     <use style="stroke:#000000;" x="170.719102" xlink:href="#me73dbe8866" y="164.51324"/>
     <use style="stroke:#000000;" x="171.364333" xlink:href="#me73dbe8866" y="161.642261"/>
     <use style="stroke:#000000;" x="172.122548" xlink:href="#me73dbe8866" y="157.357288"/>
     <use style="stroke:#000000;" x="172.878591" xlink:href="#me73dbe8866" y="165.112638"/>
     <use style="stroke:#000000;" x="173.417399" xlink:href="#me73dbe8866" y="161.053262"/>
     <use style="stroke:#000000;" x="174.171203" xlink:href="#me73dbe8866" y="164.550937"/>
     <use style="stroke:#000000;" x="174.712162" xlink:href="#me73dbe8866" y="164.266538"/>
     <use style="stroke:#000000;" x="175.896112" xlink:href="#me73dbe8866" y="162.820226"/>
     <use style="stroke:#000000;" x="176.326236" xlink:href="#me73dbe8866" y="160.679761"/>
     <use style="stroke:#000000;" x="177.077889" xlink:href="#me73dbe8866" y="162.053916"/>
     <use style="stroke:#000000;" x="177.720858" xlink:href="#me73dbe8866" y="160.182303"/>
     <use style="stroke:#000000;" x="178.259599" xlink:href="#me73dbe8866" y="166.195169"/>
     <use style="stroke:#000000;" x="179.117608" xlink:href="#me73dbe8866" y="165.140785"/>
     <use style="stroke:#000000;" x="180.297146" xlink:href="#me73dbe8866" y="150.572405"/>
     <use style="stroke:#000000;" x="180.833715" xlink:href="#me73dbe8866" y="163.842729"/>
     <use style="stroke:#000000;" x="181.476684" xlink:href="#me73dbe8866" y="165.949445"/>
     <use style="stroke:#000000;" x="182.43892" xlink:href="#me73dbe8866" y="161.640619"/>
     <use style="stroke:#000000;" x="183.079672" xlink:href="#me73dbe8866" y="165.89572"/>
     <use style="stroke:#000000;" x="183.829019" xlink:href="#me73dbe8866" y="161.54015"/>
     <use style="stroke:#000000;" x="184.254754" xlink:href="#me73dbe8866" y="160.972422"/>
     <use style="stroke:#000000;" x="185.429813" xlink:href="#me73dbe8866" y="162.122871"/>
     <use style="stroke:#000000;" x="187.560479" xlink:href="#me73dbe8866" y="164.542898"/>
     <use style="stroke:#000000;" x="188.305436" xlink:href="#me73dbe8866" y="150.047407"/>
     <use style="stroke:#000000;" x="189.367466" xlink:href="#me73dbe8866" y="162.229477"/>
     <use style="stroke:#000000;" x="190.323051" xlink:href="#me73dbe8866" y="164.926898"/>
     <use style="stroke:#000000;" x="190.642274" xlink:href="#me73dbe8866" y="165.085016"/>
     <use style="stroke:#000000;" x="191.914909" xlink:href="#me73dbe8866" y="162.421859"/>
     <use style="stroke:#000000;" x="192.9747" xlink:href="#me73dbe8866" y="164.817961"/>
     <use style="stroke:#000000;" x="193.611062" xlink:href="#me73dbe8866" y="165.806953"/>
     <use style="stroke:#000000;" x="194.245118" xlink:href="#me73dbe8866" y="161.109476"/>
     <use style="stroke:#000000;" x="195.619786" xlink:href="#me73dbe8866" y="165.729751"/>
     <use style="stroke:#000000;" x="196.46447" xlink:href="#me73dbe8866" y="160.24171"/>
     <use style="stroke:#000000;" x="196.781542" xlink:href="#me73dbe8866" y="161.247172"/>
     <use style="stroke:#000000;" x="197.51987" xlink:href="#me73dbe8866" y="165.274311"/>
     <use style="stroke:#000000;" x="198.46876" xlink:href="#me73dbe8866" y="161.332612"/>
     <use style="stroke:#000000;" x="199.836732" xlink:href="#me73dbe8866" y="161.686162"/>
     <use style="stroke:#000000;" x="200.364432" xlink:href="#me73dbe8866" y="158.955422"/>
     <use style="stroke:#000000;" x="201.098281" xlink:href="#me73dbe8866" y="157.186549"/>
     <use style="stroke:#000000;" x="201.940815" xlink:href="#me73dbe8866" y="149.998478"/>
     <use style="stroke:#000000;" x="203.200125" xlink:href="#me73dbe8866" y="153.317668"/>
     <use style="stroke:#000000;" x="204.248874" xlink:href="#me73dbe8866" y="132.985894"/>
     <use style="stroke:#000000;" x="205.188895" xlink:href="#me73dbe8866" y="162.113075"/>
     <use style="stroke:#000000;" x="205.922766" xlink:href="#me73dbe8866" y="161.850002"/>
     <use style="stroke:#000000;" x="206.654443" xlink:href="#me73dbe8866" y="164.583985"/>
     <use style="stroke:#000000;" x="207.177665" xlink:href="#me73dbe8866" y="164.360088"/>
     <use style="stroke:#000000;" x="208.221957" xlink:href="#me73dbe8866" y="166.122486"/>
     <use style="stroke:#000000;" x="209.057795" xlink:href="#me73dbe8866" y="166.291954"/>
     <use style="stroke:#000000;" x="209.785015" xlink:href="#me73dbe8866" y="165.838907"/>
     <use style="stroke:#000000;" x="210.201881" xlink:href="#me73dbe8866" y="165.568492"/>
     <use style="stroke:#000000;" x="210.933513" xlink:href="#me73dbe8866" y="166.341577"/>
     <use style="stroke:#000000;" x="211.454562" xlink:href="#me73dbe8866" y="165.907798"/>
     <use style="stroke:#000000;" x="212.390192" xlink:href="#me73dbe8866" y="165.326603"/>
     <use style="stroke:#000000;" x="213.634005" xlink:href="#me73dbe8866" y="164.974608"/>
     <use style="stroke:#000000;" x="214.571809" xlink:href="#me73dbe8866" y="165.868374"/>
     <use style="stroke:#000000;" x="215.607233" xlink:href="#me73dbe8866" y="165.747076"/>
     <use style="stroke:#000000;" x="216.848806" xlink:href="#me73dbe8866" y="164.803762"/>
     <use style="stroke:#000000;" x="217.367638" xlink:href="#me73dbe8866" y="164.822543"/>
     <use style="stroke:#000000;" x="217.886469" xlink:href="#me73dbe8866" y="163.159207"/>
     <use style="stroke:#000000;" x="218.917437" xlink:href="#me73dbe8866" y="129.209964"/>
     <use style="stroke:#000000;" x="220.469387" xlink:href="#me73dbe8866" y="162.358426"/>
     <use style="stroke:#000000;" x="220.981589" xlink:href="#me73dbe8866" y="159.85565"/>
     <use style="stroke:#000000;" x="223.453672" xlink:href="#me73dbe8866" y="109.87375"/>
     <use style="stroke:#000000;" x="224.994603" xlink:href="#me73dbe8866" y="164.336464"/>
     <use style="stroke:#000000;" x="226.021092" xlink:href="#me73dbe8866" y="163.068924"/>
     <use style="stroke:#000000;" x="227.251646" xlink:href="#me73dbe8866" y="164.732708"/>
     <use style="stroke:#000000;" x="227.967781" xlink:href="#me73dbe8866" y="164.372401"/>
     <use style="stroke:#000000;" x="228.5841" xlink:href="#me73dbe8866" y="163.908954"/>
     <use style="stroke:#000000;" x="230.628298" xlink:href="#me73dbe8866" y="164.068353"/>
     <use style="stroke:#000000;" x="231.036295" xlink:href="#me73dbe8866" y="163.144817"/>
     <use style="stroke:#000000;" x="231.75243" xlink:href="#me73dbe8866" y="163.879807"/>
     <use style="stroke:#000000;" x="232.974049" xlink:href="#me73dbe8866" y="163.286461"/>
     <use style="stroke:#000000;" x="233.687966" xlink:href="#me73dbe8866" y="163.808881"/>
     <use style="stroke:#000000;" x="234.399688" xlink:href="#me73dbe8866" y="161.022991"/>
     <use style="stroke:#000000;" x="235.621307" xlink:href="#me73dbe8866" y="150.609167"/>
     <use style="stroke:#000000;" x="236.024848" xlink:href="#me73dbe8866" y="152.18803"/>
     <use style="stroke:#000000;" x="236.636777" xlink:href="#me73dbe8866" y="155.311769"/>
     <use style="stroke:#000000;" x="237.24425" xlink:href="#me73dbe8866" y="158.546883"/>
     <use style="stroke:#000000;" x="238.762987" xlink:href="#me73dbe8866" y="160.666348"/>
     <use style="stroke:#000000;" x="239.674252" xlink:href="#me73dbe8866" y="161.390008"/>
     <use style="stroke:#000000;" x="241.090934" xlink:href="#me73dbe8866" y="164.897805"/>
     <use style="stroke:#000000;" x="241.596507" xlink:href="#me73dbe8866" y="160.413317"/>
     <use style="stroke:#000000;" x="242.403522" xlink:href="#me73dbe8866" y="164.857236"/>
     <use style="stroke:#000000;" x="243.915608" xlink:href="#me73dbe8866" y="164.229479"/>
     <use style="stroke:#000000;" x="245.425477" xlink:href="#me73dbe8866" y="163.877545"/>
     <use style="stroke:#000000;" x="246.230319" xlink:href="#me73dbe8866" y="165.179187"/>
     <use style="stroke:#000000;" x="247.43644" xlink:href="#me73dbe8866" y="162.690445"/>
     <use style="stroke:#000000;" x="248.338792" xlink:href="#me73dbe8866" y="165.862726"/>
     <use style="stroke:#000000;" x="249.742216" xlink:href="#me73dbe8866" y="166.406116"/>
     <use style="stroke:#000000;" x="250.742188" xlink:href="#me73dbe8866" y="165.46957"/>
     <use style="stroke:#000000;" x="251.540334" xlink:href="#me73dbe8866" y="164.664437"/>
     <use style="stroke:#000000;" x="252.041429" xlink:href="#me73dbe8866" y="165.672057"/>
     <use style="stroke:#000000;" x="253.537973" xlink:href="#me73dbe8866" y="165.829478"/>
     <use style="stroke:#000000;" x="254.136577" xlink:href="#me73dbe8866" y="165.989886"/>
     <use style="stroke:#000000;" x="255.231886" xlink:href="#me73dbe8866" y="161.486133"/>
     <use style="stroke:#000000;" x="256.03001" xlink:href="#me73dbe8866" y="165.576936"/>
     <use style="stroke:#000000;" x="256.72619" xlink:href="#me73dbe8866" y="162.992237"/>
     <use style="stroke:#000000;" x="257.220655" xlink:href="#me73dbe8866" y="164.017726"/>
     <use style="stroke:#000000;" x="257.914596" xlink:href="#me73dbe8866" y="163.725072"/>
     <use style="stroke:#000000;" x="259.406728" xlink:href="#me73dbe8866" y="157.014691"/>
     <use style="stroke:#000000;" x="261.087316" xlink:href="#me73dbe8866" y="140.165215"/>
     <use style="stroke:#000000;" x="262.273483" xlink:href="#me73dbe8866" y="163.944545"/>
     <use style="stroke:#000000;" x="263.067217" xlink:href="#me73dbe8866" y="164.965928"/>
     <use style="stroke:#000000;" x="263.756768" xlink:href="#me73dbe8866" y="151.817326"/>
     <use style="stroke:#000000;" x="266.317559" xlink:href="#me73dbe8866" y="155.08591"/>
     <use style="stroke:#000000;" x="267.301967" xlink:href="#me73dbe8866" y="164.015945"/>
     <use style="stroke:#000000;" x="267.989256" xlink:href="#me73dbe8866" y="163.31897"/>
     <use style="stroke:#000000;" x="268.674329" xlink:href="#me73dbe8866" y="159.417659"/>
     <use style="stroke:#000000;" x="269.658737" xlink:href="#me73dbe8866" y="163.427519"/>
     <use style="stroke:#000000;" x="270.638754" xlink:href="#me73dbe8866" y="165.170138"/>
     <use style="stroke:#000000;" x="271.128697" xlink:href="#me73dbe8866" y="164.643375"/>
     <use style="stroke:#000000;" x="272.104236" xlink:href="#me73dbe8866" y="166.046229"/>
     <use style="stroke:#000000;" x="272.886885" xlink:href="#me73dbe8866" y="166.198221"/>
     <use style="stroke:#000000;" x="273.179591" xlink:href="#me73dbe8866" y="166.205845"/>
    </g>
   </g>
   <g id="patch_3">
    <path d="M 52.756452 166.496228 
L 52.756452 14.04 
" style="fill:none;stroke:#000000;stroke-linecap:square;stroke-linejoin:miter;stroke-width:0.8;"/>
   </g>
   <g id="patch_4">
    <path d="M 273.96 166.496228 
L 273.96 14.04 
" style="fill:none;stroke:#000000;stroke-linecap:square;stroke-linejoin:miter;stroke-width:0.8;"/>
   </g>
   <g id="patch_5">
    <path d="M 52.756452 166.496228 
L 273.96 166.496228 
" style="fill:none;stroke:#000000;stroke-linecap:square;stroke-linejoin:miter;stroke-width:0.8;"/>
   </g>
   <g id="patch_6">
    <path d="M 52.756452 14.04 
L 273.96 14.04 
" style="fill:none;stroke:#000000;stroke-linecap:square;stroke-linejoin:miter;stroke-width:0.8;"/>
   </g>
  </g>
 </g>
 <defs>
  <clipPath id="p1cdbc1b174">
   <rect height="152.456228" width="221.203548" x="52.756452" y="14.04"/>
  </clipPath>
 </defs>
</svg>
