<?xml version="1.0" encoding="utf-8" standalone="no"?>
<!DOCTYPE svg PUBLIC "-//W3C//DTD SVG 1.1//EN"
  "http://www.w3.org/Graphics/SVG/1.1/DTD/svg11.dtd">
<!-- Created with matplotlib (https://matplotlib.org/) -->
<svg height="216pt" version="1.1" viewBox="0 0 288 216" width="288pt" xmlns="http://www.w3.org/2000/svg" xmlns:xlink="http://www.w3.org/1999/xlink">
 <metadata>
  <rdf:RDF xmlns:cc="http://creativecommons.org/ns#" xmlns:dc="http://purl.org/dc/elements/1.1/" xmlns:rdf="http://www.w3.org/1999/02/22-rdf-syntax-ns#">
   <cc:Work>
    <dc:type rdf:resource="http://purl.org/dc/dcmitype/StillImage"/>
    <dc:date>2021-03-23T22:55:19.121293</dc:date>
    <dc:format>image/svg+xml</dc:format>
    <dc:creator>
     <cc:Agent>
      <dc:title>Matplotlib v3.3.2, https://matplotlib.org/</dc:title>
     </cc:Agent>
    </dc:creator>
   </cc:Work>
  </rdf:RDF>
 </metadata>
 <defs>
  <style type="text/css">*{stroke-linecap:butt;stroke-linejoin:round;}</style>
 </defs>
 <g id="figure_1">
  <g id="patch_1">
   <path d="M 0 216 
L 288 216 
L 288 0 
L 0 0 
z
" style="fill:#ffffff;"/>
  </g>
  <g id="axes_1">
   <g id="patch_2">
    <path d="M 55.024436 166.496228 
L 273.96 166.496228 
L 273.96 14.27639 
L 55.024436 14.27639 
z
" style="fill:#ffffff;"/>
   </g>
   <g id="matplotlib.axis_1">
    <g id="xtick_1">
     <g id="line2d_1">
      <defs>
       <path d="M 0 0 
L 0 3.5 
" id="mea5391ee6a" style="stroke:#000000;stroke-width:0.8;"/>
      </defs>
      <g>
       <use style="stroke:#000000;stroke-width:0.8;" x="106.96409" xlink:href="#mea5391ee6a" y="166.496228"/>
      </g>
     </g>
     <g id="text_1">
      <!-- $\mathdefault{384}$ -->
      <g transform="translate(97.45298 182.490256)scale(0.13 -0.13)">
       <defs>
        <path d="M 22.09375 34 
C 31 34 34.90625 26.140625 34.90625 17.09375 
C 34.90625 5.03125 28.5 0.390625 22.703125 0.390625 
C 17.40625 0.390625 8.796875 3.015625 6.09375 10.796875 
C 6.59375 10.59375 7.09375 10.59375 7.59375 10.59375 
C 10 10.59375 11.796875 12.1875 11.796875 14.796875 
C 11.796875 17.6875 9.59375 19 7.59375 19 
C 5.90625 19 3.296875 18.1875 3.296875 14.484375 
C 3.296875 5.234375 12.296875 -2 22.90625 -2 
C 34 -2 42.5 6.75 42.5 16.984375 
C 42.5 26.84375 34.5 34 25 35.09375 
C 32.59375 36.671875 39.90625 43.375 39.90625 52.390625 
C 39.90625 60.25 32 66 23 66 
C 13.90625 66 5.90625 60.34375 5.90625 52.296875 
C 5.90625 48.796875 8.5 48.1875 9.796875 48.1875 
C 11.90625 48.1875 13.703125 49.484375 13.703125 52.09375 
C 13.703125 54.6875 11.90625 56 9.796875 56 
C 9.40625 56 8.90625 56 8.5 55.796875 
C 11.40625 62.484375 19.296875 63.6875 22.796875 63.6875 
C 26.296875 63.6875 32.90625 61.96875 32.90625 52.296875 
C 32.90625 49.484375 32.5 44.546875 29.09375 40.21875 
C 26.09375 36.390625 22.703125 36.1875 19.40625 35.890625 
C 18.90625 35.890625 16.59375 35.6875 16.203125 35.6875 
C 15.5 35.59375 15.09375 35.5 15.09375 34.796875 
C 15.09375 34.09375 15.203125 34 17.203125 34 
z
" id="CMR17-51"/>
        <path d="M 27.203125 35.765625 
C 33.5 38.96875 39.90625 43.796875 39.90625 51.53125 
C 39.90625 60.6875 31.09375 66 23 66 
C 13.90625 66 5.90625 59.375 5.90625 50.234375 
C 5.90625 47.71875 6.5 43.390625 10.40625 39.578125 
C 11.40625 38.578125 15.59375 35.5625 18.296875 33.65625 
C 13.796875 31.34375 3.296875 25.8125 3.296875 14.765625 
C 3.296875 4.40625 13.09375 -2 22.796875 -2 
C 33.5 -2 42.5 5.71875 42.5 15.96875 
C 42.5 25.109375 36.40625 29.328125 32.40625 32.046875 
z
M 14.09375 44.609375 
C 13.296875 45.109375 9.296875 48.21875 9.296875 52.9375 
C 9.296875 59.078125 15.59375 63.6875 22.796875 63.6875 
C 30.703125 63.6875 36.5 58.0625 36.5 51.53125 
C 36.5 42.1875 26.09375 36.859375 25.59375 36.859375 
C 25.5 36.859375 25.40625 36.859375 24.59375 37.46875 
z
M 32.5 24 
C 34 22.90625 38.796875 19.578125 38.796875 13.453125 
C 38.796875 6.015625 31.40625 0.390625 23 0.390625 
C 13.90625 0.390625 7 6.921875 7 14.859375 
C 7 22.796875 13.09375 29.4375 20 32.546875 
z
" id="CMR17-56"/>
        <path d="M 33.59375 64.796875 
C 33.59375 66.890625 33.5 67 31.703125 67 
L 2 19.59375 
L 2 17 
L 27.796875 17 
L 27.796875 7.1875 
C 27.796875 3.59375 27.59375 2.59375 20.59375 2.59375 
L 18.703125 2.59375 
L 18.703125 0 
C 21.90625 0.1875 27.296875 0.1875 30.703125 0.1875 
C 34.09375 0.1875 39.5 0.1875 42.703125 0 
L 42.703125 2.59375 
L 40.796875 2.59375 
C 33.796875 2.59375 33.59375 3.59375 33.59375 7.1875 
L 33.59375 17 
L 43.796875 17 
L 43.796875 19.59375 
L 33.59375 19.59375 
z
M 28.09375 58.171875 
L 28.09375 19.59375 
L 4 19.59375 
z
" id="CMR17-52"/>
       </defs>
       <use transform="scale(0.996264)" xlink:href="#CMR17-51"/>
       <use transform="translate(45.690477 0)scale(0.996264)" xlink:href="#CMR17-56"/>
       <use transform="translate(91.380954 0)scale(0.996264)" xlink:href="#CMR17-52"/>
      </g>
     </g>
    </g>
    <g id="xtick_2">
     <g id="line2d_2">
      <g>
       <use style="stroke:#000000;stroke-width:0.8;" x="162.756786" xlink:href="#mea5391ee6a" y="166.496228"/>
      </g>
     </g>
     <g id="text_2">
      <!-- $\mathdefault{386}$ -->
      <g transform="translate(153.245677 182.490256)scale(0.13 -0.13)">
       <defs>
        <path d="M 10.59375 34.34375 
C 10.59375 58 21.796875 63.6875 28.296875 63.6875 
C 30.40625 63.6875 35.5 63.265625 37.5 59.09375 
C 35.90625 59.09375 32.90625 59.09375 32.90625 55.59375 
C 32.90625 52.890625 35.09375 52 36.5 52 
C 37.40625 52 40.09375 52.390625 40.09375 55.796875 
C 40.09375 62.296875 35.09375 66 28.203125 66 
C 16.296875 66 3.796875 53.296875 3.796875 31.421875 
C 3.796875 4.015625 15.09375 -2 23.09375 -2 
C 32.796875 -2 42 6.734375 42 20.234375 
C 42 32.828125 33.90625 42 23.703125 42 
C 17.59375 42 13.09375 37.96875 10.59375 30.921875 
z
M 23.09375 0.390625 
C 10.796875 0.390625 10.796875 18.9375 10.796875 22.65625 
C 10.796875 29.90625 14.203125 40.390625 23.5 40.390625 
C 25.203125 40.390625 30.09375 40.390625 33.40625 33.4375 
C 35.203125 29.515625 35.203125 25.375 35.203125 20.34375 
C 35.203125 14.90625 35.203125 10.875 33.09375 6.84375 
C 30.90625 2.703125 27.703125 0.390625 23.09375 0.390625 
z
" id="CMR17-54"/>
       </defs>
       <use transform="scale(0.996264)" xlink:href="#CMR17-51"/>
       <use transform="translate(45.690477 0)scale(0.996264)" xlink:href="#CMR17-56"/>
       <use transform="translate(91.380954 0)scale(0.996264)" xlink:href="#CMR17-54"/>
      </g>
     </g>
    </g>
    <g id="xtick_3">
     <g id="line2d_3">
      <g>
       <use style="stroke:#000000;stroke-width:0.8;" x="218.549483" xlink:href="#mea5391ee6a" y="166.496228"/>
      </g>
     </g>
     <g id="text_3">
      <!-- $\mathdefault{388}$ -->
      <g transform="translate(209.038374 182.490256)scale(0.13 -0.13)">
       <use transform="scale(0.996264)" xlink:href="#CMR17-51"/>
       <use transform="translate(45.690477 0)scale(0.996264)" xlink:href="#CMR17-56"/>
       <use transform="translate(91.380954 0)scale(0.996264)" xlink:href="#CMR17-56"/>
      </g>
     </g>
    </g>
    <g id="text_4">
     <!-- Wavelength (nm) -->
     <g transform="translate(116.410539 198.722142)scale(0.13 -0.13)">
      <defs>
       <path d="M 86.296875 58.984375 
C 87.203125 61.6875 88.703125 65.203125 94.5 65.390625 
L 94.5 68 
C 92.796875 67.890625 89.296875 67.796875 87.5 67.796875 
C 85 67.796875 80.59375 67.796875 78.203125 68 
L 78.203125 65.390625 
C 82.703125 65.296875 84.59375 62.796875 84.59375 60.390625 
C 84.59375 59.6875 84.5 59.28125 84.09375 58.1875 
L 68.59375 8.703125 
L 52.296875 60.78125 
C 52 61.796875 51.90625 62.1875 51.90625 62.59375 
C 51.90625 65.390625 56.296875 65.390625 58.203125 65.390625 
L 58.203125 68 
C 55.296875 67.796875 50.296875 67.796875 47.203125 67.796875 
C 44.703125 67.796875 40.203125 67.796875 37.90625 68 
L 37.90625 65.390625 
C 42.5 65.390625 43.703125 65.09375 44.703125 63.296875 
C 45.09375 62.390625 46.703125 57.1875 46.703125 56.875 
C 46.703125 56.484375 46.5 55.875 46.40625 55.578125 
L 31.703125 8.8125 
L 15.40625 60.78125 
C 14.90625 62.1875 14.90625 62.390625 14.90625 62.59375 
C 14.90625 65.390625 19.296875 65.390625 21.296875 65.390625 
L 21.296875 68 
C 18.40625 67.796875 13.40625 67.796875 10.296875 67.796875 
C 7.703125 67.796875 3.296875 67.796875 0.90625 68 
L 0.90625 65.390625 
C 6.90625 65.390625 7.296875 64.796875 8.296875 61.59375 
L 27.796875 -0.3125 
C 28.296875 -1.8125 28.296875 -2 29.203125 -2 
C 30 -2 30.296875 -1.8125 30.703125 -0.40625 
L 47.703125 53.875 
L 64.703125 -0.40625 
C 65.09375 -1.8125 65.40625 -2 66.203125 -2 
C 67.09375 -2 67.09375 -1.8125 67.59375 -0.3125 
z
" id="CMR17-87"/>
       <path d="M 36 25.875 
C 36 32 36 35.546875 31.796875 39.59375 
C 28.09375 42.984375 23.796875 44 20.40625 44 
C 12.5 44 6.796875 37.625 6.796875 30.890625 
C 6.796875 27.1875 9.796875 27 10.40625 27 
C 11.703125 27 14 27.796875 14 30.59375 
C 14 33.09375 12.09375 34.1875 10.40625 34.1875 
C 10 34.1875 9.5 34.09375 9.203125 34 
C 11.296875 40.53125 16.703125 42.390625 20.203125 42.390625 
C 25.203125 42.390625 30.703125 37.828125 30.703125 29.296875 
L 30.703125 25.5 
C 24.796875 25.296875 17.703125 24.5 12.09375 21.453125 
C 5.796875 17.921875 4 12.84375 4 9 
C 4 1.203125 13 -1 18.296875 -1 
C 23.796875 -1 28.90625 2.109375 31.09375 7.890625 
C 31.296875 3.421875 34.09375 -0.609375 38.5 -0.609375 
C 40.59375 -0.609375 45.90625 0.796875 45.90625 8.796875 
L 45.90625 14.46875 
L 44.09375 14.46875 
L 44.09375 8.703125 
C 44.09375 2.515625 41.40625 1.703125 40.09375 1.703125 
C 36 1.703125 36 6.96875 36 11.4375 
z
M 30.703125 13.859375 
C 30.703125 5.046875 24.5 0.59375 19 0.59375 
C 14 0.59375 10.09375 4.34375 10.09375 9 
C 10.09375 12.046875 11.40625 17.40625 17.203125 20.65625 
C 22 23.390625 27.5 23.796875 30.703125 24 
z
" id="CMR17-97"/>
       <path d="M 39.09375 33.953125 
C 40 36.171875 41.59375 40.1875 47.40625 40.390625 
L 47.40625 43 
C 45.5 42.890625 43 42.796875 41.09375 42.796875 
C 39 42.796875 35.703125 42.796875 33.703125 43 
L 33.703125 40.390625 
C 36.203125 40.1875 37.59375 38.984375 37.59375 36.375 
C 37.59375 35.46875 37.59375 35.265625 37 33.859375 
L 26 5.921875 
L 14.09375 36.0625 
C 13.5 37.375 13.5 37.578125 13.5 37.984375 
C 13.5 40.390625 16.796875 40.390625 18.296875 40.390625 
L 18.296875 43 
C 15.90625 42.796875 11.5 42.796875 9 42.796875 
C 6.296875 42.796875 3.203125 42.796875 1 43 
L 1 40.390625 
C 4.796875 40.390625 6.90625 40.390625 8.09375 37.28125 
L 22.59375 0.6875 
C 23.203125 -0.8125 23.296875 -1 24.203125 -1 
C 25.09375 -1 25.203125 -0.8125 25.796875 0.6875 
z
" id="CMR17-118"/>
       <path d="M 38.09375 23.484375 
C 38.5 23.890625 38.5 24.09375 38.5 25.09375 
C 38.5 35.171875 33.09375 44 21.703125 44 
C 11.09375 44 2.703125 33.984375 2.703125 21.78125 
C 2.703125 8.65625 12.203125 -1 22.796875 -1 
C 34 -1 38.40625 9.671875 38.40625 11.796875 
C 38.40625 12.5 37.796875 12.5 37.59375 12.5 
C 36.90625 12.5 36.796875 12.296875 36.40625 11.078125 
C 34.203125 4.21875 28.703125 0.796875 23.5 0.796875 
C 19.203125 0.796875 14.90625 3.21875 12.203125 7.65625 
C 9.09375 12.796875 9.09375 18.75 9.09375 23.484375 
z
M 9.203125 25 
C 9.90625 39.234375 17.59375 42.390625 21.59375 42.390625 
C 28.40625 42.390625 33 36.0625 33.09375 25 
z
" id="CMR17-101"/>
       <path d="M 15.296875 69 
L 3.40625 67.890625 
L 3.40625 65.296875 
C 9.296875 65.296875 10.203125 64.703125 10.203125 59.921875 
L 10.203125 6.859375 
C 10.203125 3.09375 9.796875 2.59375 3.40625 2.59375 
L 3.40625 0 
C 5.796875 0.1875 10.203125 0.1875 12.703125 0.1875 
C 15.296875 0.1875 19.703125 0.1875 22.09375 0 
L 22.09375 2.59375 
C 15.703125 2.59375 15.296875 2.984375 15.296875 6.859375 
z
" id="CMR17-108"/>
       <path d="M 41.5 30.53125 
C 41.5 35.65625 40.5 44 28.703125 44 
C 20.796875 44 16.703125 37.875 15.203125 33.84375 
L 15.09375 33.84375 
L 15.09375 44 
L 3.296875 42.890625 
L 3.296875 40.28125 
C 9.203125 40.28125 10.09375 39.6875 10.09375 34.859375 
L 10.09375 6.921875 
C 10.09375 3.09375 9.703125 2.59375 3.296875 2.59375 
L 3.296875 0 
C 5.703125 0.1875 10.09375 0.1875 12.703125 0.1875 
C 15.296875 0.1875 19.796875 0.1875 22.203125 0 
L 22.203125 2.59375 
C 15.796875 2.59375 15.40625 3 15.40625 6.921875 
L 15.40625 26.21875 
C 15.40625 35.453125 21 42.390625 28 42.390625 
C 35.40625 42.390625 36.203125 35.765625 36.203125 30.9375 
L 36.203125 6.921875 
C 36.203125 3.09375 35.796875 2.59375 29.40625 2.59375 
L 29.40625 0 
C 31.796875 0.1875 36.203125 0.1875 38.796875 0.1875 
C 41.40625 0.1875 45.90625 0.1875 48.296875 0 
L 48.296875 2.59375 
C 41.90625 2.59375 41.5 3 41.5 6.921875 
z
" id="CMR17-110"/>
       <path d="M 11.09375 18.203125 
C 13 16.6875 16.296875 15 20.296875 15 
C 28.203125 15 35 21.234375 35 29.609375 
C 35 32.234375 34.203125 36.265625 31.203125 39.390625 
C 34 42.390625 38.09375 43.390625 40.40625 43.390625 
C 40.796875 43.390625 41.40625 43.390625 41.90625 43.09375 
C 41.5 42.984375 40.59375 42.59375 40.59375 40.984375 
C 40.59375 39.6875 41.5 38.796875 42.796875 38.796875 
C 44.296875 38.796875 45.09375 39.796875 45.09375 41.09375 
C 45.09375 42.984375 43.59375 45 40.40625 45 
C 36.40625 45 32.90625 43.09375 30.09375 40.484375 
C 27.09375 43.1875 23.5 44.1875 20.296875 44.1875 
C 12.40625 44.1875 5.59375 37.984375 5.59375 29.609375 
C 5.59375 23.859375 8.90625 20.21875 9.90625 19.21875 
C 6.90625 15.6875 6.90625 11.59375 6.90625 11.09375 
C 6.90625 8.5 7.90625 4.6875 11.296875 2.59375 
C 6.09375 1.28125 2 -2.875 2 -8.078125 
C 2 -15.5625 11.5 -21 22.90625 -21 
C 33.90625 -21 43.796875 -15.765625 43.796875 -7.96875 
C 43.796875 6 29 6 21.296875 6 
C 19 6 14.90625 6 14.40625 6.09375 
C 11.296875 6.59375 9.203125 9.390625 9.203125 12.890625 
C 9.203125 13.796875 9.203125 16 11.09375 18.203125 
z
M 20.296875 16.6875 
C 11.5 16.6875 11.5 27.59375 11.5 29.609375 
C 11.5 31.625 11.5 42.484375 20.296875 42.484375 
C 29.09375 42.484375 29.09375 31.625 29.09375 29.609375 
C 29.09375 27.59375 29.09375 16.6875 20.296875 16.6875 
z
M 22.90625 -19.3125 
C 12.90625 -19.3125 6 -13.796875 6 -8.078125 
C 6 -4.859375 7.703125 -1.84375 9.90625 -0.171875 
C 12.40625 1.59375 13.40625 1.59375 20.203125 1.59375 
C 28.40625 1.59375 39.796875 1.59375 39.796875 -8.078125 
C 39.796875 -13.796875 32.90625 -19.3125 22.90625 -19.3125 
z
" id="CMR17-103"/>
       <path d="M 15.09375 40.390625 
L 29.09375 40.390625 
L 29.09375 43 
L 15.09375 43 
L 15.09375 62 
L 13.296875 62 
C 13.09375 51.4375 9.59375 42.1875 1.09375 41.984375 
L 1.09375 40.390625 
L 9.796875 40.390625 
L 9.796875 12.15625 
C 9.796875 10.234375 9.796875 -1 21.40625 -1 
C 27.296875 -1 30.703125 4.8125 30.703125 12.25 
L 30.703125 17.984375 
L 28.90625 17.984375 
L 28.90625 12.34375 
C 28.90625 5.421875 26.203125 0.796875 22 0.796875 
C 19.09375 0.796875 15.09375 2.796875 15.09375 11.953125 
z
" id="CMR17-116"/>
       <path d="M 41.5 30.53125 
C 41.5 35.65625 40.5 44 28.703125 44 
C 20.5 44 16.5 37.375 15.296875 34.046875 
L 15.203125 34.046875 
L 15.203125 69 
L 3.296875 67.890625 
L 3.296875 65.296875 
C 9.203125 65.296875 10.09375 64.703125 10.09375 60.046875 
L 10.09375 6.921875 
C 10.09375 3.09375 9.703125 2.59375 3.296875 2.59375 
L 3.296875 0 
C 5.703125 0.1875 10.09375 0.1875 12.703125 0.1875 
C 15.296875 0.1875 19.796875 0.1875 22.203125 0 
L 22.203125 2.59375 
C 15.796875 2.59375 15.40625 3 15.40625 6.921875 
L 15.40625 26.21875 
C 15.40625 35.453125 21 42.390625 28 42.390625 
C 35.40625 42.390625 36.203125 35.765625 36.203125 30.9375 
L 36.203125 6.921875 
C 36.203125 3.09375 35.796875 2.59375 29.40625 2.59375 
L 29.40625 0 
C 31.796875 0.1875 36.203125 0.1875 38.796875 0.1875 
C 41.40625 0.1875 45.90625 0.1875 48.296875 0 
L 48.296875 2.59375 
C 41.90625 2.59375 41.5 3 41.5 6.921875 
z
" id="CMR17-104"/>
       <path d="M 30.59375 -24.40625 
C 30.59375 -24.3125 30.59375 -24.109375 30.296875 -23.8125 
C 25.703125 -19.109375 13.40625 -6.296875 13.40625 24.9375 
C 13.40625 56.171875 25.5 68.875 30.40625 73.890625 
C 30.40625 73.984375 30.59375 74.1875 30.59375 74.484375 
C 30.59375 74.796875 30.296875 75 29.90625 75 
C 28.796875 75 20.296875 67.578125 15.40625 56.5625 
C 10.40625 45.453125 9 34.65625 9 25.046875 
C 9 17.828125 9.703125 5.625 15.703125 -7.296875 
C 20.5 -17.703125 28.703125 -25 29.90625 -25 
C 30.40625 -25 30.59375 -24.8125 30.59375 -24.40625 
z
" id="CMR17-40"/>
       <path d="M 67.59375 30.53125 
C 67.59375 35.5625 66.703125 44 54.796875 44 
C 48 44 43.296875 39.375 41.5 33.953125 
L 41.40625 33.953125 
C 40.203125 42.1875 34.296875 44 28.703125 44 
C 20.796875 44 16.703125 37.875 15.203125 33.84375 
L 15.09375 33.84375 
L 15.09375 44 
L 3.296875 42.890625 
L 3.296875 40.28125 
C 9.203125 40.28125 10.09375 39.6875 10.09375 34.859375 
L 10.09375 6.921875 
C 10.09375 3.09375 9.703125 2.59375 3.296875 2.59375 
L 3.296875 0 
C 5.703125 0.1875 10.09375 0.1875 12.703125 0.1875 
C 15.296875 0.1875 19.796875 0.1875 22.203125 0 
L 22.203125 2.59375 
C 15.796875 2.59375 15.40625 3 15.40625 6.921875 
L 15.40625 26.21875 
C 15.40625 35.453125 21 42.390625 28 42.390625 
C 35.40625 42.390625 36.203125 35.765625 36.203125 30.9375 
L 36.203125 6.921875 
C 36.203125 3.09375 35.796875 2.59375 29.40625 2.59375 
L 29.40625 0 
C 31.796875 0.1875 36.203125 0.1875 38.796875 0.1875 
C 41.40625 0.1875 45.90625 0.1875 48.296875 0 
L 48.296875 2.59375 
C 41.90625 2.59375 41.5 3 41.5 6.921875 
L 41.5 26.21875 
C 41.5 35.453125 47.09375 42.390625 54.09375 42.390625 
C 61.5 42.390625 62.296875 35.765625 62.296875 30.9375 
L 62.296875 6.921875 
C 62.296875 3.09375 61.90625 2.59375 55.5 2.59375 
L 55.5 0 
C 57.90625 0.1875 62.296875 0.1875 64.90625 0.1875 
C 67.5 0.1875 72 0.1875 74.40625 0 
L 74.40625 2.59375 
C 68 2.59375 67.59375 3 67.59375 6.921875 
z
" id="CMR17-109"/>
       <path d="M 26.296875 24.9375 
C 26.296875 32.140625 25.59375 44.359375 19.59375 57.265625 
C 14.796875 67.6875 6.59375 75 5.40625 75 
C 5.09375 75 4.703125 74.890625 4.703125 74.390625 
C 4.703125 74.1875 4.796875 74.09375 4.90625 73.890625 
C 9.703125 68.875 21.90625 56.171875 21.90625 25.046875 
C 21.90625 -6.1875 9.796875 -18.90625 4.90625 -23.90625 
C 4.796875 -24.109375 4.703125 -24.203125 4.703125 -24.40625 
C 4.703125 -24.90625 5.09375 -25 5.40625 -25 
C 6.5 -25 15 -17.609375 19.90625 -6.59375 
C 24.90625 4.515625 26.296875 15.328125 26.296875 24.9375 
z
" id="CMR17-41"/>
      </defs>
      <use transform="scale(0.996264)" xlink:href="#CMR17-87"/>
      <use transform="translate(87.289395 0)scale(0.996264)" xlink:href="#CMR17-97"/>
      <use transform="translate(130.377418 0)scale(0.996264)" xlink:href="#CMR17-118"/>
      <use transform="translate(176.06788 0)scale(0.996264)" xlink:href="#CMR17-101"/>
      <use transform="translate(216.55354 0)scale(0.996264)" xlink:href="#CMR17-108"/>
      <use transform="translate(241.424599 0)scale(0.996264)" xlink:href="#CMR17-101"/>
      <use transform="translate(281.910259 0)scale(0.996264)" xlink:href="#CMR17-110"/>
      <use transform="translate(332.805629 0)scale(0.996264)" xlink:href="#CMR17-103"/>
      <use transform="translate(378.496106 0)scale(0.996264)" xlink:href="#CMR17-116"/>
      <use transform="translate(413.776874 0)scale(0.996264)" xlink:href="#CMR17-104"/>
      <use transform="translate(494.74821 0)scale(0.996264)" xlink:href="#CMR17-40"/>
      <use transform="translate(530.028978 0)scale(0.996264)" xlink:href="#CMR17-110"/>
      <use transform="translate(580.924347 0)scale(0.996264)" xlink:href="#CMR17-109"/>
      <use transform="translate(657.843937 0)scale(0.996264)" xlink:href="#CMR17-41"/>
     </g>
    </g>
   </g>
   <g id="matplotlib.axis_2">
    <g id="ytick_1">
     <g id="line2d_4">
      <defs>
       <path d="M 0 0 
L -3.5 0 
" id="m2ea7cfbac0" style="stroke:#000000;stroke-width:0.8;"/>
      </defs>
      <g>
       <use style="stroke:#000000;stroke-width:0.8;" x="55.024436" xlink:href="#m2ea7cfbac0" y="166.496228"/>
      </g>
     </g>
     <g id="text_5">
      <!-- $\mathdefault{0.0}$ -->
      <g transform="translate(31.820325 170.993242)scale(0.13 -0.13)">
       <defs>
        <path d="M 42 31.84375 
C 42 37.96875 41.90625 48.421875 37.703125 56.453125 
C 34 63.484375 28.09375 66 22.90625 66 
C 18.09375 66 12 63.78125 8.203125 56.5625 
C 4.203125 49.015625 3.796875 39.671875 3.796875 31.84375 
C 3.796875 26.109375 3.90625 17.375 7 9.734375 
C 11.296875 -0.609375 19 -2 22.90625 -2 
C 27.5 -2 34.5 -0.109375 38.59375 9.4375 
C 41.59375 16.375 42 24.5 42 31.84375 
z
M 22.90625 -0.40625 
C 16.5 -0.40625 12.703125 5.125 11.296875 12.75 
C 10.203125 18.6875 10.203125 27.328125 10.203125 32.953125 
C 10.203125 40.6875 10.203125 47.109375 11.5 53.234375 
C 13.40625 61.78125 19 64.390625 22.90625 64.390625 
C 27 64.390625 32.296875 61.671875 34.203125 53.4375 
C 35.5 47.71875 35.59375 40.984375 35.59375 32.953125 
C 35.59375 26.421875 35.59375 18.375 34.40625 12.453125 
C 32.296875 1.5 26.40625 -0.40625 22.90625 -0.40625 
z
" id="CMR17-48"/>
        <path d="M 18.40625 4.796875 
C 18.40625 7.6875 16 9.6875 13.59375 9.6875 
C 10.703125 9.6875 8.703125 7.296875 8.703125 4.890625 
C 8.703125 2 11.09375 0 13.5 0 
C 16.40625 0 18.40625 2.390625 18.40625 4.796875 
z
" id="CMMI12-58"/>
       </defs>
       <use transform="scale(0.996264)" xlink:href="#CMR17-48"/>
       <use transform="translate(45.690477 0)scale(0.996264)" xlink:href="#CMMI12-58"/>
       <use transform="translate(72.787654 0)scale(0.996264)" xlink:href="#CMR17-48"/>
      </g>
     </g>
    </g>
    <g id="ytick_2">
     <g id="line2d_5">
      <g>
       <use style="stroke:#000000;stroke-width:0.8;" x="55.024436" xlink:href="#m2ea7cfbac0" y="129.504773"/>
      </g>
     </g>
     <g id="text_6">
      <!-- $\mathdefault{0.2}$ -->
      <g transform="translate(31.820325 134.001787)scale(0.13 -0.13)">
       <defs>
        <path d="M 41.703125 15.46875 
L 39.90625 15.46875 
C 38.90625 8.390625 38.09375 7.1875 37.703125 6.59375 
C 37.203125 5.796875 30 5.796875 28.59375 5.796875 
L 9.40625 5.796875 
C 13 9.6875 20 16.765625 28.5 24.9375 
C 34.59375 30.71875 41.703125 37.5 41.703125 47.390625 
C 41.703125 59.1875 32.296875 66 21.796875 66 
C 10.796875 66 4.09375 56.296875 4.09375 47.296875 
C 4.09375 43.390625 7 42.890625 8.203125 42.890625 
C 9.203125 42.890625 12.203125 43.484375 12.203125 46.984375 
C 12.203125 50.09375 9.59375 51 8.203125 51 
C 7.59375 51 7 50.890625 6.59375 50.6875 
C 8.5 59.1875 14.296875 63.390625 20.40625 63.390625 
C 29.09375 63.390625 34.796875 56.5 34.796875 47.390625 
C 34.796875 38.703125 29.703125 31.21875 24 24.734375 
L 4.09375 2.296875 
L 4.09375 0 
L 39.296875 0 
z
" id="CMR17-50"/>
       </defs>
       <use transform="scale(0.996264)" xlink:href="#CMR17-48"/>
       <use transform="translate(45.690477 0)scale(0.996264)" xlink:href="#CMMI12-58"/>
       <use transform="translate(72.787654 0)scale(0.996264)" xlink:href="#CMR17-50"/>
      </g>
     </g>
    </g>
    <g id="ytick_3">
     <g id="line2d_6">
      <g>
       <use style="stroke:#000000;stroke-width:0.8;" x="55.024436" xlink:href="#m2ea7cfbac0" y="92.513318"/>
      </g>
     </g>
     <g id="text_7">
      <!-- $\mathdefault{0.4}$ -->
      <g transform="translate(31.820325 97.010332)scale(0.13 -0.13)">
       <use transform="scale(0.996264)" xlink:href="#CMR17-48"/>
       <use transform="translate(45.690477 0)scale(0.996264)" xlink:href="#CMMI12-58"/>
       <use transform="translate(72.787654 0)scale(0.996264)" xlink:href="#CMR17-52"/>
      </g>
     </g>
    </g>
    <g id="ytick_4">
     <g id="line2d_7">
      <g>
       <use style="stroke:#000000;stroke-width:0.8;" x="55.024436" xlink:href="#m2ea7cfbac0" y="55.521863"/>
      </g>
     </g>
     <g id="text_8">
      <!-- $\mathdefault{0.6}$ -->
      <g transform="translate(31.820325 60.018877)scale(0.13 -0.13)">
       <use transform="scale(0.996264)" xlink:href="#CMR17-48"/>
       <use transform="translate(45.690477 0)scale(0.996264)" xlink:href="#CMMI12-58"/>
       <use transform="translate(72.787654 0)scale(0.996264)" xlink:href="#CMR17-54"/>
      </g>
     </g>
    </g>
    <g id="ytick_5">
     <g id="line2d_8">
      <g>
       <use style="stroke:#000000;stroke-width:0.8;" x="55.024436" xlink:href="#m2ea7cfbac0" y="18.530408"/>
      </g>
     </g>
     <g id="text_9">
      <!-- $\mathdefault{0.8}$ -->
      <g transform="translate(31.820325 23.027422)scale(0.13 -0.13)">
       <use transform="scale(0.996264)" xlink:href="#CMR17-48"/>
       <use transform="translate(45.690477 0)scale(0.996264)" xlink:href="#CMMI12-58"/>
       <use transform="translate(72.787654 0)scale(0.996264)" xlink:href="#CMR17-56"/>
      </g>
     </g>
    </g>
    <g id="text_10">
     <!-- Intensity $\times 10^\mathrm{12}$ (arb. units) -->
     <g transform="translate(24.582466 167.681398)rotate(-90)scale(0.13 -0.13)">
      <defs>
       <path d="M 19.703125 60.90625 
C 19.703125 65.390625 20.90625 65.390625 28.09375 65.390625 
L 28.09375 68 
C 24.90625 67.796875 19.796875 67.796875 16.40625 67.796875 
C 13 67.796875 7.90625 67.796875 4.703125 68 
L 4.703125 65.390625 
C 11.90625 65.390625 13.09375 65.390625 13.09375 60.90625 
L 13.09375 7.078125 
C 13.09375 2.59375 11.90625 2.59375 4.703125 2.59375 
L 4.703125 0 
C 7.90625 0.1875 13 0.1875 16.40625 0.1875 
C 19.796875 0.1875 24.90625 0.1875 28.09375 0 
L 28.09375 2.59375 
C 20.90625 2.59375 19.703125 2.59375 19.703125 7.078125 
z
" id="CMR17-73"/>
       <path d="M 30.90625 42 
C 30.90625 43.796875 30.796875 43.890625 30.203125 43.890625 
C 29.796875 43.890625 29.703125 43.796875 28.5 42.296875 
C 28.203125 41.890625 27.296875 40.890625 27 40.5 
C 23.796875 43.890625 19.296875 44 17.59375 44 
C 6.5 44 2.5 38.1875 2.5 32.390625 
C 2.5 23.390625 12.703125 21.296875 15.59375 20.6875 
C 21.90625 19.390625 24.09375 19 26.203125 17.1875 
C 27.5 16 29.703125 13.796875 29.703125 10.1875 
C 29.703125 6 27.296875 0.59375 18.09375 0.59375 
C 9.40625 0.59375 6.296875 7.1875 4.5 16 
C 4.203125 17.390625 4.203125 17.5 3.40625 17.5 
C 2.59375 17.5 2.5 17.390625 2.5 15.390625 
L 2.5 1 
C 2.5 -0.8125 2.59375 -0.90625 3.203125 -0.90625 
C 3.703125 -0.90625 3.796875 -0.8125 4.296875 0 
C 4.90625 0.890625 6.40625 3.296875 7 4.296875 
C 9 1.59375 12.5 -1 18.09375 -1 
C 28 -1 33.296875 4.390625 33.296875 12.1875 
C 33.296875 17.296875 30.59375 20 29.296875 21.1875 
C 26.296875 24.296875 22.796875 25 18.59375 25.796875 
C 13.09375 27 6.09375 28.390625 6.09375 34.5 
C 6.09375 37.09375 7.5 42.59375 17.59375 42.59375 
C 28.296875 42.59375 28.90625 32.59375 29.09375 29.390625 
C 29.203125 28.890625 29.703125 28.796875 30 28.796875 
C 30.90625 28.796875 30.90625 29.09375 30.90625 30.796875 
z
" id="CMR17-115"/>
       <path d="M 15.5 61.890625 
C 15.5 64.09375 13.703125 66 11.40625 66 
C 9.203125 66 7.296875 64.1875 7.296875 61.890625 
C 7.296875 59.6875 9.09375 57.796875 11.40625 57.796875 
C 13.59375 57.796875 15.5 59.59375 15.5 61.890625 
z
M 3.796875 42.890625 
L 3.796875 40.296875 
C 9.40625 40.296875 10.203125 39.6875 10.203125 34.859375 
L 10.203125 6.921875 
C 10.203125 3.09375 9.796875 2.59375 3.40625 2.59375 
L 3.40625 0 
C 5.796875 0.1875 10.09375 0.1875 12.59375 0.1875 
C 15 0.1875 19.09375 0.1875 21.40625 0 
L 21.40625 2.59375 
C 15.5 2.59375 15.296875 3.203125 15.296875 6.8125 
L 15.296875 44 
z
" id="CMR17-105"/>
       <path d="M 39 34.109375 
C 41.5 40.296875 46 40.390625 47.40625 40.390625 
L 47.40625 43 
C 45.5 42.890625 43 42.796875 41.09375 42.796875 
C 39 42.796875 35.703125 42.796875 33.703125 43 
L 33.703125 40.390625 
C 37.5 40.09375 37.59375 37.25 37.59375 36.4375 
C 37.59375 35.4375 37.40625 34.921875 36.90625 33.71875 
L 26 6.390625 
L 14.09375 35.9375 
C 13.59375 37.15625 13.59375 37.859375 13.59375 37.96875 
C 13.59375 40.1875 15.90625 40.390625 18.296875 40.390625 
L 18.296875 43 
C 15.90625 42.796875 11.59375 42.796875 9.09375 42.796875 
C 6.40625 42.796875 3.203125 42.796875 1 43 
L 1 40.390625 
C 6.40625 40.390625 7 39.890625 8.296875 36.640625 
L 23.203125 -0.484375 
C 18.703125 -12.421875 16.09375 -19.40625 9.796875 -19.40625 
C 8.703125 -19.40625 6.203125 -19.109375 4.40625 -17.28125 
C 6.703125 -17.078125 7.703125 -15.65625 7.703125 -13.9375 
C 7.703125 -12.21875 6.5 -10.703125 4.5 -10.703125 
C 2.296875 -10.703125 1.203125 -12.21875 1.203125 -14.046875 
C 1.203125 -18.09375 5.296875 -21 9.796875 -21 
C 15.59375 -21 19.203125 -15.359375 21.203125 -10.296875 
z
" id="CMR17-121"/>
       <path d="M 38.90625 27.734375 
L 18.90625 47.59375 
C 17.703125 48.796875 17.5 49 16.703125 49 
C 15.703125 49 14.703125 48.09375 14.703125 47 
C 14.703125 46.296875 14.90625 46.09375 16 45 
L 36 24.9375 
L 16 4.890625 
C 14.90625 3.796875 14.703125 3.59375 14.703125 2.890625 
C 14.703125 1.796875 15.703125 0.890625 16.703125 0.890625 
C 17.5 0.890625 17.703125 1.09375 18.90625 2.296875 
L 38.796875 22.15625 
L 59.5 1.484375 
C 59.703125 1.390625 60.40625 0.890625 61 0.890625 
C 62.203125 0.890625 63 1.796875 63 2.890625 
C 63 3.09375 63 3.484375 62.703125 3.984375 
C 62.59375 4.1875 46.703125 19.859375 41.703125 24.9375 
L 60 43.203125 
C 60.5 43.796875 62 45.09375 62.5 45.703125 
C 62.59375 45.890625 63 46.296875 63 47 
C 63 48.09375 62.203125 49 61 49 
C 60.203125 49 59.796875 48.59375 58.703125 47.5 
z
" id="CMSY10-2"/>
       <path d="M 26.59375 63.796875 
C 26.59375 65.890625 26.5 66 25.09375 66 
C 21.203125 61.359375 15.296875 59.890625 9.703125 59.6875 
C 9.40625 59.6875 8.90625 59.6875 8.796875 59.5 
C 8.703125 59.296875 8.703125 59.09375 8.703125 57 
C 11.796875 57 17 57.59375 21 59.984375 
L 21 7.296875 
C 21 3.796875 20.796875 2.59375 12.203125 2.59375 
L 9.203125 2.59375 
L 9.203125 0 
C 14 0.09375 19 0.1875 23.796875 0.1875 
C 28.59375 0.1875 33.59375 0.09375 38.40625 0 
L 38.40625 2.59375 
L 35.40625 2.59375 
C 26.796875 2.59375 26.59375 3.6875 26.59375 7.296875 
z
" id="CMR17-49"/>
       <path d="M 15 23.703125 
C 15 33.34375 19.09375 42.390625 26.59375 42.390625 
C 27.296875 42.390625 28 42.296875 28.703125 41.984375 
C 28.703125 41.984375 26.5 41.28125 26.5 38.671875 
C 26.5 36.265625 28.40625 35.265625 29.90625 35.265625 
C 31.09375 35.265625 33.296875 35.96875 33.296875 38.78125 
C 33.296875 41.984375 30.09375 44 26.703125 44 
C 19.09375 44 15.796875 36.5625 14.796875 33.046875 
L 14.703125 33.046875 
L 14.703125 44 
L 3.09375 42.890625 
L 3.09375 40.28125 
C 9 40.28125 9.90625 39.6875 9.90625 34.859375 
L 9.90625 6.921875 
C 9.90625 3.09375 9.5 2.59375 3.09375 2.59375 
L 3.09375 0 
C 5.5 0.1875 10.09375 0.1875 12.703125 0.1875 
C 15.59375 0.1875 20.703125 0.1875 23.40625 0 
L 23.40625 2.59375 
C 16.203125 2.59375 15 2.59375 15 7.109375 
z
" id="CMR17-114"/>
       <path d="M 15 69 
L 3.09375 67.890625 
L 3.09375 65.296875 
C 9 65.296875 9.90625 64.703125 9.90625 60.046875 
L 9.90625 -0.203125 
L 11.703125 -0.203125 
L 14.59375 6.953125 
C 17.5 2.203125 21.796875 -1 27.59375 -1 
C 37.59375 -1 47.703125 7.859375 47.703125 21.59375 
C 47.703125 34.515625 38.703125 44 28.59375 44 
C 22.40625 44 18 40.671875 15 36.734375 
z
M 15.203125 31.59375 
C 15.203125 33.40625 15.203125 33.703125 16.59375 35.828125 
C 20.5 41.890625 26.09375 42.390625 28 42.390625 
C 31 42.390625 41.296875 40.78125 41.296875 21.6875 
C 41.296875 1.703125 29.5 0.59375 27.09375 0.59375 
C 24 0.59375 19.5 1.796875 16.296875 7.65625 
C 15.203125 9.578125 15.203125 9.78125 15.203125 11.59375 
z
" id="CMR17-98"/>
       <path d="M 16.59375 4.09375 
C 16.59375 6.59375 14.59375 8.1875 12.5 8.1875 
C 10.5 8.1875 8.40625 6.59375 8.40625 4.09375 
C 8.40625 1.59375 10.40625 0 12.5 0 
C 14.5 0 16.59375 1.59375 16.59375 4.09375 
z
" id="CMR17-46"/>
       <path d="M 29.40625 42.890625 
L 29.40625 40.296875 
C 35.296875 40.296875 36.203125 39.6875 36.203125 34.828125 
L 36.203125 16.453125 
C 36.203125 7.96875 31.703125 0.59375 24.296875 0.59375 
C 16.09375 0.59375 15.40625 5.546875 15.40625 10.796875 
L 15.40625 44 
L 3.296875 42.890625 
L 3.296875 40.296875 
C 7.296875 40.296875 10 40.296875 10.09375 36.25 
L 10.09375 16.859375 
C 10.09375 10.09375 10.09375 5.75 12.703125 2.921875 
C 14 1.609375 16.5 -1 23.703125 -1 
C 32.203125 -1 35.5 6.25 36.296875 8.375 
L 36.40625 8.375 
L 36.40625 -1 
L 48.296875 -0.203125 
L 48.296875 2.40625 
C 42.40625 2.40625 41.5 3.015625 41.5 7.859375 
L 41.5 44 
z
" id="CMR17-117"/>
      </defs>
      <use transform="scale(0.996264)" xlink:href="#CMR17-73"/>
      <use transform="translate(32.638409 0)scale(0.996264)" xlink:href="#CMR17-110"/>
      <use transform="translate(80.931325 0)scale(0.996264)" xlink:href="#CMR17-116"/>
      <use transform="translate(116.212093 0)scale(0.996264)" xlink:href="#CMR17-101"/>
      <use transform="translate(156.697753 0)scale(0.996264)" xlink:href="#CMR17-110"/>
      <use transform="translate(207.593123 0)scale(0.996264)" xlink:href="#CMR17-115"/>
      <use transform="translate(243.394461 0)scale(0.996264)" xlink:href="#CMR17-105"/>
      <use transform="translate(268.265519 0)scale(0.996264)" xlink:href="#CMR17-116"/>
      <use transform="translate(300.943833 0)scale(0.996264)" xlink:href="#CMR17-121"/>
      <use transform="translate(379.312715 0)scale(0.996264)" xlink:href="#CMSY10-2"/>
      <use transform="translate(456.800183 0)scale(0.996264)" xlink:href="#CMR17-49"/>
      <use transform="translate(502.49066 0)scale(0.996264)" xlink:href="#CMR17-48"/>
      <use transform="translate(548.181137 36.153639)scale(0.697382)" xlink:href="#CMR17-49"/>
      <use transform="translate(580.164319 36.153639)scale(0.697382)" xlink:href="#CMR17-50"/>
      <use transform="translate(642.721599 0)scale(0.996264)" xlink:href="#CMR17-40"/>
      <use transform="translate(678.002367 0)scale(0.996264)" xlink:href="#CMR17-97"/>
      <use transform="translate(723.692844 0)scale(0.996264)" xlink:href="#CMR17-114"/>
      <use transform="translate(758.973612 0)scale(0.996264)" xlink:href="#CMR17-98"/>
      <use transform="translate(809.868982 0)scale(0.996264)" xlink:href="#CMR17-46"/>
      <use transform="translate(875.225701 0)scale(0.996264)" xlink:href="#CMR17-117"/>
      <use transform="translate(926.121071 0)scale(0.996264)" xlink:href="#CMR17-110"/>
      <use transform="translate(977.01644 0)scale(0.996264)" xlink:href="#CMR17-105"/>
      <use transform="translate(1001.887499 0)scale(0.996264)" xlink:href="#CMR17-116"/>
      <use transform="translate(1037.168267 0)scale(0.996264)" xlink:href="#CMR17-115"/>
      <use transform="translate(1072.969604 0)scale(0.996264)" xlink:href="#CMR17-41"/>
     </g>
    </g>
   </g>
   <g id="line2d_9">
    <path clip-path="url(#p6c1fea8438)" d="M -1 166.39006 
L 22.329051 166.194848 
L 31.813809 165.917142 
L 37.114116 165.554232 
L 40.461677 165.115236 
L 42.693385 164.626105 
L 44.367166 164.06527 
L 45.761984 163.378926 
L 46.877838 162.5952 
L 47.714728 161.794339 
L 48.551619 160.716775 
L 49.388509 159.217513 
L 49.946436 157.865335 
L 50.504363 156.094432 
L 51.06229 153.713358 
L 51.620217 150.414963 
L 52.178144 145.702609 
L 52.736071 138.799907 
L 53.293998 128.621313 
L 53.851925 114.009511 
L 54.688815 83.309243 
L 55.525706 49.957136 
L 56.083633 35.70771 
L 56.362596 33.146659 
L 56.64156 34.079629 
L 56.920523 38.410612 
L 57.47845 55.266985 
L 59.152231 118.369469 
L 59.710158 131.711403 
L 60.268085 140.901986 
L 60.826012 147.129185 
L 61.383939 151.403576 
L 61.941866 154.419464 
L 62.778756 157.493196 
L 63.615647 159.522754 
L 64.452537 160.932986 
L 65.289428 161.95314 
L 66.405281 162.926921 
L 67.521135 163.617194 
L 68.915953 164.230268 
L 70.868697 164.805787 
L 73.379369 165.271878 
L 76.72693 165.643759 
L 81.748273 165.94906 
L 89.559251 166.176959 
L 103.786388 166.340081 
L 136.146152 166.441144 
L 142.562313 166.449046 
L 142.562313 166.449046 
" style="fill:none;stroke:#008000;stroke-dasharray:3.7,1.6;stroke-dashoffset:0;"/>
   </g>
   <g id="line2d_10">
    <path clip-path="url(#p6c1fea8438)" d="M 54.796287 165.233449 
L 57.027994 164.725022 
L 58.422812 164.213239 
L 59.538666 163.595307 
L 60.375556 162.91743 
L 61.212447 161.92851 
L 61.770374 161.002762 
L 62.328301 159.767303 
L 62.886228 158.110108 
L 63.444155 155.891813 
L 64.002081 152.950036 
L 64.560008 149.111623 
L 65.396899 141.330104 
L 66.233789 130.860284 
L 67.349643 113.199652 
L 69.023424 85.233917 
L 69.860315 75.299885 
L 70.418242 71.654342 
L 70.697205 70.881387 
L 70.976169 70.840212 
L 71.255132 71.531861 
L 71.534096 72.938854 
L 72.092023 77.741684 
L 72.649949 84.785705 
L 73.765803 102.95488 
L 75.439584 130.418007 
L 76.276475 140.988295 
L 77.113365 148.866798 
L 77.950256 154.356571 
L 78.787146 158.00216 
L 79.624037 160.360623 
L 80.460927 161.883287 
L 81.297817 162.887054 
L 82.134708 163.574013 
L 83.250562 164.199046 
L 84.645379 164.715685 
L 86.598124 165.17767 
L 89.387759 165.572312 
L 93.293247 165.879977 
L 99.430444 166.122878 
L 110.31002 166.302905 
L 133.463989 166.420093 
L 203.483823 166.479333 
L 223.848158 166.483535 
L 223.848158 166.483535 
" style="fill:none;stroke:#008000;stroke-dasharray:3.7,1.6;stroke-dashoffset:0;"/>
   </g>
   <g id="line2d_11">
    <path clip-path="url(#p6c1fea8438)" d="M -1 166.425631 
L 35.575082 166.250718 
L 48.407402 165.990111 
L 55.102526 165.648217 
L 59.286978 165.222379 
L 62.076613 164.731112 
L 64.029357 164.195808 
L 65.703138 163.516116 
L 67.097956 162.689988 
L 68.21381 161.75454 
L 69.0507 160.807994 
L 69.88759 159.551125 
L 70.724481 157.839702 
L 71.561371 155.450047 
L 72.398262 152.048111 
L 73.235152 147.189328 
L 74.072043 140.432119 
L 74.908933 131.67138 
L 76.861678 109.901765 
L 77.419605 106.499135 
L 77.698568 105.71221 
L 77.977532 105.591102 
L 78.256495 106.141317 
L 78.535459 107.337947 
L 79.093385 111.434023 
L 79.930276 120.463325 
L 81.604057 139.48358 
L 82.440947 146.48701 
L 83.277838 151.552431 
L 84.114728 155.10377 
L 84.951619 157.594656 
L 85.788509 159.373621 
L 86.6254 160.676069 
L 87.741253 161.926062 
L 88.857107 162.8138 
L 90.251925 163.602152 
L 91.925706 164.254303 
L 93.87845 164.77051 
L 96.668085 165.246584 
L 100.29461 165.619204 
L 105.594916 165.923121 
L 113.963821 166.158396 
L 129.027849 166.328189 
L 162.224504 166.434459 
L 212.716894 166.472063 
L 212.716894 166.472063 
" style="fill:none;stroke:#008000;stroke-dasharray:3.7,1.6;stroke-dashoffset:0;"/>
   </g>
   <g id="line2d_12">
    <path clip-path="url(#p6c1fea8438)" d="M -1 166.420383 
L 40.055925 166.243048 
L 54.840989 165.982631 
L 62.651967 165.642887 
L 67.394346 165.240935 
L 70.741908 164.757589 
L 73.252579 164.184874 
L 75.205324 163.518106 
L 76.600141 162.84777 
L 77.994959 161.922677 
L 79.110813 160.903648 
L 79.947703 159.898557 
L 80.784593 158.597572 
L 81.621484 156.874724 
L 82.458374 154.534066 
L 83.295265 151.267486 
L 84.132155 146.600436 
L 84.690082 142.386516 
L 85.526973 133.84123 
L 86.363863 122.126529 
L 87.479717 102.371867 
L 88.595571 83.541393 
L 89.153498 77.613317 
L 89.432461 76.038026 
L 89.711425 75.502542 
L 89.990388 76.03272 
L 90.269352 77.602961 
L 90.827279 83.522586 
L 91.664169 97.190112 
L 93.33795 126.372815 
L 94.174841 137.0075 
L 95.011731 144.612038 
L 95.848622 149.889326 
L 96.685512 153.562457 
L 97.522402 156.171882 
L 98.359293 158.075344 
L 99.196183 159.500838 
L 100.312037 160.902169 
L 101.427891 161.921583 
L 102.822709 162.84699 
L 104.49649 163.629293 
L 106.449234 164.261135 
L 108.959905 164.807494 
L 112.307467 165.271642 
L 116.770883 165.642799 
L 123.466006 165.948039 
L 134.066619 166.178873 
L 153.315099 166.341933 
L 197.112366 166.442124 
L 220.824262 166.459925 
L 220.824262 166.459925 
" style="fill:none;stroke:#008000;stroke-dasharray:3.7,1.6;stroke-dashoffset:0;"/>
   </g>
   <g id="line2d_13">
    <path clip-path="url(#p6c1fea8438)" d="M 13.565258 166.470293 
L 63.220758 166.328379 
L 74.379297 166.103003 
L 79.679603 165.793964 
L 82.748202 165.414106 
L 84.700946 164.986943 
L 86.095764 164.506917 
L 87.211617 163.938419 
L 88.327471 163.090589 
L 89.164362 162.150368 
L 90.001252 160.773056 
L 90.559179 159.472193 
L 91.117106 157.700482 
L 91.675033 155.22907 
L 92.23296 151.712968 
L 92.790887 146.685788 
L 93.348814 139.707933 
L 95.022595 115.388662 
L 95.301558 114.296249 
L 95.580522 114.865844 
L 95.859485 117.014755 
L 96.417412 124.722094 
L 97.533266 142.319894 
L 98.091193 148.601028 
L 98.64912 153.05608 
L 99.207047 156.16894 
L 99.764974 158.36956 
L 100.601865 160.590817 
L 101.438755 162.028846 
L 102.275646 163.005934 
L 103.3915 163.883157 
L 104.507353 164.468958 
L 105.902171 164.961837 
L 107.854915 165.398859 
L 110.64455 165.760036 
L 114.829002 166.041102 
L 121.803089 166.24894 
L 135.193337 166.387072 
L 170.063772 166.46516 
L 177.037859 166.470237 
L 177.037859 166.470237 
" style="fill:none;stroke:#008000;stroke-dasharray:3.7,1.6;stroke-dashoffset:0;"/>
   </g>
   <g id="line2d_14">
    <path clip-path="url(#p6c1fea8438)" d="M -1 166.473586 
L 65.670394 166.334823 
L 79.618568 166.112688 
L 86.034728 165.812396 
L 89.661253 165.449974 
L 92.171925 164.990572 
L 93.845706 164.480553 
L 95.240523 163.803755 
L 96.077413 163.1928 
L 96.914304 162.300523 
L 97.472231 161.446243 
L 98.030158 160.259587 
L 98.588085 158.569933 
L 99.146012 156.12934 
L 99.703939 152.599888 
L 100.261866 147.559498 
L 100.819793 140.541743 
L 101.37772 131.122989 
L 102.21461 112.047902 
L 103.330464 79.219649 
L 104.446318 46.730981 
L 105.004245 35.112763 
L 105.562172 28.819448 
L 105.841135 27.991286 
L 106.120099 28.770257 
L 106.399062 31.126833 
L 106.956989 40.165501 
L 107.514916 53.816432 
L 110.304551 130.95803 
L 111.141442 144.218925 
L 111.699369 150.220154 
L 112.257296 154.471323 
L 112.815222 157.425096 
L 113.373149 159.46526 
L 113.931076 160.885369 
L 114.767967 162.289299 
L 115.604857 163.185355 
L 116.720711 163.961695 
L 118.115529 164.580025 
L 119.78931 165.053789 
L 122.021017 165.448794 
L 125.368579 165.791251 
L 130.389922 166.056916 
L 139.03779 166.258749 
L 156.054563 166.39323 
L 201.246647 166.467819 
L 229.979886 166.479459 
L 229.979886 166.479459 
" style="fill:none;stroke:#008000;stroke-dasharray:3.7,1.6;stroke-dashoffset:0;"/>
   </g>
   <g id="line2d_15">
    <path clip-path="url(#p6c1fea8438)" d="M -0.044784 166.482803 
L 78.064992 166.353835 
L 90.618348 166.143301 
L 96.197618 165.856202 
L 99.266216 165.51386 
L 101.497924 165.047607 
L 102.892742 164.551351 
L 104.008596 163.921579 
L 104.845486 163.190718 
L 105.403413 162.487543 
L 105.96134 161.504324 
L 106.519267 160.090462 
L 107.077194 158.022951 
L 107.635121 154.996739 
L 108.193048 150.640515 
L 108.750975 144.57801 
L 109.308902 136.547561 
L 110.145792 120.974475 
L 111.819573 87.6129 
L 112.3775 81.144648 
L 112.656464 79.565063 
L 112.935427 79.204483 
L 113.214391 80.080011 
L 113.493354 82.150224 
L 114.051281 89.441218 
L 114.888171 105.638862 
L 116.282989 133.833548 
L 117.119879 146.001911 
L 117.677806 151.680123 
L 118.235733 155.726076 
L 118.79366 158.522899 
L 119.351587 160.431321 
L 119.909514 161.739409 
L 120.746405 163.008465 
L 121.583295 163.802103 
L 122.699149 164.476246 
L 124.093966 165.000771 
L 126.046711 165.442062 
L 128.836346 165.794375 
L 133.020798 166.063112 
L 139.994885 166.260186 
L 153.943059 166.39416 
L 191.324166 166.468387 
L 225.636675 166.482765 
L 225.636675 166.482765 
" style="fill:none;stroke:#008000;stroke-dasharray:3.7,1.6;stroke-dashoffset:0;"/>
   </g>
   <g id="line2d_16">
    <path clip-path="url(#p6c1fea8438)" d="M 47.807749 166.495429 
L 122.569962 166.389556 
L 125.359597 166.19459 
L 126.475451 165.936851 
L 127.312342 165.546882 
L 128.428196 164.707622 
L 129.265086 164.127 
L 129.823013 163.994774 
L 130.38094 164.140701 
L 131.21783 164.731133 
L 132.333684 165.563913 
L 133.170575 165.946506 
L 134.286429 166.198766 
L 136.239173 166.359532 
L 140.981552 166.452504 
L 160.230033 166.490415 
L 211.559314 166.495424 
L 211.559314 166.495424 
" style="fill:none;stroke:#008000;stroke-dasharray:3.7,1.6;stroke-dashoffset:0;"/>
   </g>
   <g id="line2d_17">
    <path clip-path="url(#p6c1fea8438)" d="M 39.493519 166.494874 
L 127.367016 166.385451 
L 130.993541 166.214095 
L 132.109395 166.02098 
L 132.946286 165.673703 
L 133.504213 165.227749 
L 134.06214 164.483987 
L 134.620067 163.301432 
L 135.177994 161.539407 
L 135.735921 159.112373 
L 136.572811 154.365247 
L 137.688665 147.672487 
L 138.246592 145.341616 
L 138.525555 144.655764 
L 138.804519 144.34475 
L 139.083482 144.425721 
L 139.362446 144.894196 
L 139.920373 146.872066 
L 140.757263 151.582671 
L 142.152081 159.666314 
L 142.710008 161.954703 
L 143.267935 163.587746 
L 143.825862 164.667911 
L 144.383789 165.339582 
L 144.941716 165.739417 
L 145.778606 166.05049 
L 147.173423 166.251041 
L 150.242022 166.381856 
L 158.88989 166.461861 
L 199.618558 166.492596 
L 238.115519 166.49487 
L 238.115519 166.49487 
" style="fill:none;stroke:#008000;stroke-dasharray:3.7,1.6;stroke-dashoffset:0;"/>
   </g>
   <g id="line2d_18">
    <path clip-path="url(#p6c1fea8438)" d="M 23.397988 166.429728 
L 85.885809 166.256443 
L 107.087034 166.00003 
L 117.966609 165.670317 
L 124.940697 165.250224 
L 129.683076 164.750894 
L 133.030638 164.193493 
L 135.541309 163.580369 
L 137.773017 162.805199 
L 139.446798 162.003004 
L 140.841615 161.118426 
L 142.236433 159.947778 
L 143.352286 158.716566 
L 144.46814 157.109355 
L 145.305031 155.560665 
L 146.141921 153.60589 
L 146.978812 151.096016 
L 147.815702 147.812137 
L 148.652593 143.428126 
L 149.489483 137.457028 
L 150.326374 129.190782 
L 151.163264 117.694049 
L 152.000154 102.045565 
L 153.116008 74.928349 
L 154.231862 47.602651 
L 154.789789 38.642924 
L 155.068753 36.226271 
L 155.347716 35.393104 
L 155.62668 36.191921 
L 155.905643 38.576214 
L 156.46357 47.483771 
L 157.300461 67.452483 
L 158.695278 101.919341 
L 159.532169 117.599122 
L 160.369059 129.12223 
L 161.205949 137.40776 
L 162.04284 143.392271 
L 162.87973 147.785541 
L 163.716621 151.075882 
L 164.553511 153.590346 
L 165.390402 155.548448 
L 166.506256 157.545101 
L 167.62211 159.047715 
L 168.737964 160.204961 
L 170.132781 161.310888 
L 171.527598 162.150629 
L 173.201379 162.915562 
L 175.154124 163.578652 
L 177.664795 164.192287 
L 180.733393 164.711791 
L 184.917846 165.178571 
L 190.497115 165.562223 
L 198.587056 165.878242 
L 211.140413 166.124686 
L 233.178528 166.305169 
L 279.76543 166.421428 
L 287.297444 166.429722 
L 287.297444 166.429722 
" style="fill:none;stroke:#008000;stroke-dasharray:3.7,1.6;stroke-dashoffset:0;"/>
   </g>
   <g id="line2d_19">
    <path clip-path="url(#p6c1fea8438)" d="M 64.507089 166.49274 
L 148.196134 166.379091 
L 154.612294 166.191136 
L 157.122965 165.939098 
L 158.238819 165.649902 
L 158.796746 165.365727 
L 159.354673 164.874765 
L 159.9126 164.006011 
L 160.470527 162.482203 
L 161.028454 159.900345 
L 161.586381 155.751623 
L 162.144308 149.511859 
L 162.702235 140.818652 
L 163.539125 123.42949 
L 164.933943 91.852912 
L 165.49187 83.642208 
L 165.770833 81.383974 
L 166.049797 80.53159 
L 166.32876 81.129214 
L 166.607724 83.145854 
L 167.165651 90.958824 
L 168.002541 108.98597 
L 169.397359 139.931038 
L 170.234249 152.364055 
L 170.792176 157.684676 
L 171.350103 161.12253 
L 171.90803 163.211972 
L 172.465957 164.424531 
L 173.023884 165.110875 
L 173.581811 165.500946 
L 174.418701 165.811507 
L 175.813519 166.048923 
L 178.603154 166.246009 
L 184.461387 166.385744 
L 199.804378 166.464292 
L 267.592505 166.492737 
L 267.592505 166.492737 
" style="fill:none;stroke:#008000;stroke-dasharray:3.7,1.6;stroke-dashoffset:0;"/>
   </g>
   <g id="line2d_20">
    <path clip-path="url(#p6c1fea8438)" d="M 45.8663 166.477798 
L 128.997418 166.344054 
L 144.898336 166.12628 
L 152.151387 165.829057 
L 156.335839 165.458685 
L 159.125474 165.008243 
L 161.078219 164.491182 
L 162.473036 163.935834 
L 163.58889 163.305579 
L 164.704744 162.408931 
L 165.541634 161.462618 
L 166.378525 160.149416 
L 167.215415 158.270346 
L 167.773342 156.555196 
L 168.331269 154.32935 
L 168.889196 151.451528 
L 169.726087 145.637058 
L 170.562977 137.955686 
L 172.236758 121.170076 
L 172.794685 117.575465 
L 173.073648 116.555781 
L 173.352612 116.12697 
L 173.631575 116.309787 
L 173.910539 117.095358 
L 174.468466 120.298572 
L 175.305356 127.980969 
L 176.979137 144.707234 
L 177.816028 150.779333 
L 178.652918 155.0548 
L 179.489808 157.959042 
L 180.326699 159.935121 
L 181.163589 161.310763 
L 182.00048 162.297951 
L 183.116334 163.229291 
L 184.232188 163.881178 
L 185.627005 164.453441 
L 187.579749 164.984205 
L 190.090421 165.408952 
L 193.716946 165.764812 
L 199.017252 166.037323 
L 207.944084 166.244353 
L 225.23982 166.384541 
L 269.595014 166.46382 
L 289 166.473789 
L 289 166.473789 
" style="fill:none;stroke:#008000;stroke-dasharray:3.7,1.6;stroke-dashoffset:0;"/>
   </g>
   <g id="line2d_21">
    <path clip-path="url(#p6c1fea8438)" d="M 84.146629 166.49524 
L 171.4622 166.385175 
L 173.972871 166.235019 
L 175.088725 165.951581 
L 175.646652 165.620896 
L 176.204579 165.033976 
L 176.762506 164.041554 
L 177.320433 162.470743 
L 177.87836 160.173309 
L 178.71525 155.313042 
L 180.389031 144.33124 
L 180.946958 142.403945 
L 181.225922 142.064752 
L 181.504885 142.175271 
L 181.783849 142.729239 
L 182.341776 145.021282 
L 183.178666 150.40699 
L 184.29452 157.922512 
L 185.131411 161.957908 
L 185.689338 163.702569 
L 186.247265 164.826018 
L 186.805192 165.500754 
L 187.363118 165.884858 
L 188.200009 166.164035 
L 189.594826 166.323779 
L 193.500315 166.428143 
L 207.448489 166.482383 
L 278.305214 166.495237 
L 278.305214 166.495237 
" style="fill:none;stroke:#008000;stroke-dasharray:3.7,1.6;stroke-dashoffset:0;"/>
   </g>
   <g id="line2d_22">
    <path clip-path="url(#p6c1fea8438)" d="M 102.36325 166.492133 
L 182.704733 166.375796 
L 189.678821 166.171605 
L 192.468455 165.896458 
L 193.863273 165.586981 
L 194.700163 165.250548 
L 195.537054 164.66072 
L 196.094981 164.006623 
L 196.652908 163.00816 
L 197.210835 161.514819 
L 197.768762 159.38219 
L 198.605652 154.881981 
L 200.279433 144.648711 
L 200.83736 142.960538 
L 201.116323 142.739143 
L 201.395287 142.960275 
L 201.67425 143.609991 
L 202.232177 146.011939 
L 203.348031 153.099836 
L 204.184922 158.04875 
L 205.021812 161.514282 
L 205.579739 163.007795 
L 206.137666 164.006383 
L 206.695593 164.660563 
L 207.532484 165.250461 
L 208.648337 165.667119 
L 210.322118 165.975296 
L 213.111753 166.202884 
L 218.412059 166.359321 
L 231.24438 166.451899 
L 282.015734 166.490124 
L 289 166.491057 
L 289 166.491057 
" style="fill:none;stroke:#008000;stroke-dasharray:3.7,1.6;stroke-dashoffset:0;"/>
   </g>
   <g id="line2d_23">
    <path clip-path="url(#p6c1fea8438)" d="M 102.536289 166.482814 
L 181.761918 166.354712 
L 194.594238 166.144723 
L 200.452471 165.846618 
L 203.800033 165.463335 
L 205.752778 165.054251 
L 207.147595 164.586354 
L 208.263449 164.016922 
L 209.100339 163.393011 
L 209.93723 162.481894 
L 210.495157 161.619659 
L 211.053084 160.444361 
L 211.611011 158.815736 
L 212.168938 156.546377 
L 212.726865 153.413863 
L 213.284792 149.203734 
L 214.121682 140.651074 
L 216.35339 114.213372 
L 216.632354 112.47488 
L 216.911317 111.458319 
L 217.190281 111.214957 
L 217.469244 111.757203 
L 217.748207 113.057479 
L 218.306134 117.640221 
L 219.143025 127.72938 
L 220.537842 144.918453 
L 221.374733 152.236174 
L 221.93266 155.68109 
L 222.490587 158.192656 
L 223.048514 159.997214 
L 223.885404 161.80493 
L 224.722295 162.947398 
L 225.559185 163.707815 
L 226.675039 164.383296 
L 228.069856 164.924192 
L 230.022601 165.386147 
L 232.533272 165.729662 
L 236.438761 166.014183 
L 242.854921 166.227071 
L 255.129314 166.373633 
L 285.536334 166.458536 
L 289 166.462086 
L 289 166.462086 
" style="fill:none;stroke:#008000;stroke-dasharray:3.7,1.6;stroke-dashoffset:0;"/>
   </g>
   <g id="line2d_24">
    <path clip-path="url(#p6c1fea8438)" d="M 94.605366 166.490312 
L 200.053563 166.370109 
L 211.212102 166.165243 
L 215.954481 165.886316 
L 218.744116 165.519167 
L 220.417897 165.115406 
L 221.812715 164.55751 
L 222.928568 163.842636 
L 223.765459 163.044754 
L 224.602349 161.911943 
L 225.43924 160.34143 
L 226.27613 158.306378 
L 228.228875 153.278104 
L 228.786802 152.524504 
L 229.065765 152.36664 
L 229.344729 152.366884 
L 229.623692 152.525223 
L 230.181619 153.279654 
L 230.739546 154.497271 
L 233.529181 161.442564 
L 234.366071 162.710966 
L 235.202962 163.607921 
L 236.318816 164.407725 
L 237.43467 164.925007 
L 239.108451 165.406877 
L 241.340158 165.769382 
L 244.68772 166.049336 
L 250.26699 166.254656 
L 261.146566 166.391181 
L 289 166.466251 
L 289 166.466251 
" style="fill:none;stroke:#008000;stroke-dasharray:3.7,1.6;stroke-dashoffset:0;"/>
   </g>
   <g id="line2d_25">
    <path clip-path="url(#p6c1fea8438)" d="M 105.651496 166.495046 
L 225.605794 166.382791 
L 229.511283 166.203099 
L 230.627137 165.968834 
L 231.464027 165.557529 
L 232.021954 165.059322 
L 232.579881 164.268167 
L 233.137808 163.04946 
L 233.695735 161.237809 
L 234.253662 158.648898 
L 234.811589 155.10351 
L 235.648479 147.713886 
L 236.48537 137.838051 
L 238.996041 104.593805 
L 239.553968 100.303702 
L 239.832932 99.023259 
L 240.111895 98.373388 
L 240.390859 98.372849 
L 240.669822 99.021659 
L 240.948786 100.301086 
L 241.506713 104.589405 
L 242.343603 114.369676 
L 244.854274 147.709108 
L 245.691165 155.100146 
L 246.528055 160.050071 
L 247.085982 162.227557 
L 247.643909 163.720957 
L 248.201836 164.707339 
L 248.759763 165.337543 
L 249.596654 165.863904 
L 250.433544 166.113916 
L 251.828361 166.27994 
L 255.454887 166.392168 
L 267.72928 166.466984 
L 289 166.487141 
L 289 166.487141 
" style="fill:none;stroke:#008000;stroke-dasharray:3.7,1.6;stroke-dashoffset:0;"/>
   </g>
   <g id="line2d_26">
    <path clip-path="url(#p6c1fea8438)" d="M 54.915594 166.486716 
L 210.577218 166.362922 
L 232.057407 166.151917 
L 241.542165 165.855131 
L 246.842471 165.487792 
L 250.468997 165.023055 
L 252.979668 164.490755 
L 254.932412 163.860217 
L 256.606193 163.07109 
L 258.001011 162.146372 
L 259.116865 161.16323 
L 260.232719 159.90619 
L 261.348572 158.339744 
L 262.74339 155.985282 
L 264.975098 152.08965 
L 265.811988 151.022403 
L 266.369915 150.550842 
L 266.927842 150.309027 
L 267.485769 150.31344 
L 268.043696 150.563779 
L 268.601623 151.042992 
L 269.438513 152.119146 
L 270.554367 153.988893 
L 273.065039 158.370219 
L 274.180893 159.931118 
L 274.180893 159.931118 
" style="fill:none;stroke:#008000;stroke-dasharray:3.7,1.6;stroke-dashoffset:0;"/>
   </g>
   <g id="line2d_27">
    <path clip-path="url(#p6c1fea8438)" d="M 54.915594 166.486716 
L 210.577218 166.362922 
L 232.057407 166.151917 
L 241.542165 165.855131 
L 246.842471 165.487792 
L 250.468997 165.023055 
L 252.979668 164.490755 
L 254.932412 163.860217 
L 256.606193 163.07109 
L 258.001011 162.146372 
L 259.116865 161.16323 
L 260.232719 159.90619 
L 261.348572 158.339744 
L 262.74339 155.985282 
L 264.975098 152.08965 
L 265.811988 151.022403 
L 266.369915 150.550842 
L 266.927842 150.309027 
L 267.485769 150.31344 
L 268.043696 150.563779 
L 268.601623 151.042992 
L 269.438513 152.119146 
L 270.554367 153.988893 
L 273.065039 158.370219 
L 274.180893 159.931118 
L 274.180893 159.931118 
" style="fill:none;stroke:#008000;stroke-dasharray:3.7,1.6;stroke-dashoffset:0;"/>
   </g>
   <g id="line2d_28">
    <path clip-path="url(#p6c1fea8438)" d="M 55.024436 65.509556 
L 56.362066 34.806648 
L 57.699417 51.267845 
L 59.037605 108.789558 
L 60.375235 147.445628 
L 61.712586 158.136159 
L 63.0491 155.23233 
L 64.386451 145.596056 
L 65.723244 129.319815 
L 67.060595 101.946139 
L 69.733902 69.94853 
L 71.070416 57.371435 
L 72.406093 53.117418 
L 73.742607 74.757419 
L 75.078284 87.889386 
L 76.414241 84.560155 
L 77.749918 77.716736 
L 79.085595 92.883232 
L 80.421272 116.927678 
L 81.757228 124.880841 
L 83.092068 127.6552 
L 84.426909 129.319815 
L 85.761749 120.811781 
L 88.431429 75.312291 
L 89.76627 62.365282 
L 91.100552 72.907847 
L 92.434555 90.663745 
L 93.769396 92.32836 
L 95.103399 86.964599 
L 96.436566 102.501011 
L 97.770569 128.395029 
L 99.104572 136.348192 
L 100.437739 129.134858 
L 101.770905 107.3099 
L 103.104072 77.161864 
L 104.437238 39.245623 
L 105.770405 14.27639 
L 107.103571 21.674681 
L 108.435901 67.359128 
L 109.768231 88.074343 
L 111.101676 81.415881 
L 112.43289 66.619299 
L 113.765219 71.798103 
L 115.097549 102.501011 
L 116.429042 136.533149 
L 117.761371 153.752671 
L 119.092864 157.211372 
L 120.424357 159.079441 
L 121.755849 162.37168 
L 123.087342 165.133093 
L 124.417998 165.782293 
L 125.749491 165.14604 
L 127.080146 163.703373 
L 129.741458 161.243441 
L 131.072114 162.186723 
L 132.401933 164.295236 
L 133.73231 162.501151 
L 135.062129 157.710757 
L 137.721766 142.821696 
L 139.051585 138.937594 
L 140.381404 143.191611 
L 141.710107 152.310005 
L 143.039089 155.75021 
L 144.368908 154.843919 
L 147.026036 145.96597 
L 148.354739 139.122551 
L 149.683721 129.504773 
L 151.011866 118.407336 
L 152.340011 96.767335 
L 153.667877 66.434342 
L 154.996022 47.383743 
L 156.324167 40.910238 
L 157.652313 73.462718 
L 158.979342 112.118789 
L 160.307487 130.429559 
L 161.634795 127.285285 
L 162.961825 111.748874 
L 164.288296 86.409728 
L 165.615604 67.544086 
L 166.942633 66.064427 
L 168.269105 95.472634 
L 169.595576 120.626824 
L 170.921769 120.441866 
L 172.24824 116.742721 
L 173.574711 111.194002 
L 174.900067 116.742721 
L 176.226538 133.203918 
L 177.551894 142.821696 
L 178.877528 144.116397 
L 180.203163 142.266825 
L 181.528518 139.86238 
L 182.853316 143.93144 
L 184.178671 152.624432 
L 185.503469 159.708296 
L 188.152785 163.943817 
L 189.477583 165.610282 
L 192.126062 166.000542 
L 193.449744 165.785992 
L 194.773704 165.166385 
L 196.097386 162.834074 
L 197.421068 158.17315 
L 200.067873 145.596056 
L 201.391834 141.157081 
L 202.714679 145.226141 
L 204.037803 155.047372 
L 205.360648 160.096706 
L 206.682934 161.761321 
L 208.005779 162.519646 
L 209.327787 161.668843 
L 210.650911 159.375373 
L 211.972919 155.028877 
L 213.295206 147.815543 
L 214.616377 133.388875 
L 215.938385 116.742721 
L 217.259835 105.830242 
L 218.581843 114.523233 
L 219.903014 135.608363 
L 221.224464 154.085595 
L 222.544798 161.224945 
L 223.865969 160.984501 
L 225.187419 158.191646 
L 226.507753 155.139851 
L 227.828088 151.55168 
L 229.148422 150.441936 
L 230.469035 151.866107 
L 231.789369 154.899407 
L 233.108866 156.064637 
L 234.428364 153.049834 
L 235.748977 143.191611 
L 237.068474 127.470243 
L 238.387134 108.234686 
L 239.706632 96.027506 
L 241.026408 100.466481 
L 242.345068 122.476396 
L 243.663729 135.423405 
L 244.982389 138.752636 
L 246.30105 140.972124 
L 247.61971 149.276705 
L 248.937533 160.189185 
L 250.256473 164.40621 
L 251.574296 164.707691 
L 252.89212 164.591168 
L 255.527767 163.962313 
L 256.844753 163.425937 
L 258.162577 162.020262 
L 260.79655 158.931475 
L 262.113816 156.674996 
L 263.430802 151.995577 
L 264.747789 146.520842 
L 266.063939 144.671269 
L 267.380088 150.275475 
L 268.696238 157.13739 
L 270.012388 158.691031 
L 271.328537 155.213834 
L 272.644687 150.848842 
L 273.96 145.041184 
L 273.96 145.041184 
" style="fill:none;stroke:#ff0000;stroke-linecap:square;stroke-width:1.5;"/>
   </g>
   <g id="line2d_29">
    <path clip-path="url(#p6c1fea8438)" d="M 55.024436 66.31249 
L 55.805534 38.229422 
L 56.196083 30.879147 
L 56.419254 29.581729 
L 56.502943 29.674166 
L 56.642425 30.52823 
L 56.865595 33.649681 
L 57.200352 41.91932 
L 57.758279 62.201155 
L 59.069407 111.006017 
L 59.711023 126.206932 
L 60.296846 135.145334 
L 60.854773 140.519066 
L 61.384804 143.667192 
L 61.859042 145.314072 
L 62.249591 146.008693 
L 62.55645 146.184891 
L 62.807518 146.100328 
L 63.114377 145.722209 
L 63.47703 144.88158 
L 63.923372 143.236984 
L 64.453402 140.345157 
L 65.039225 135.854306 
L 65.708738 128.930913 
L 66.489836 118.428637 
L 67.549897 100.805974 
L 69.418952 69.4604 
L 70.088465 61.944678 
L 70.590599 58.541583 
L 70.953251 57.384641 
L 71.176422 57.215121 
L 71.3438 57.350736 
L 71.566971 57.865573 
L 71.901727 59.295644 
L 72.375965 62.448807 
L 73.184959 69.662962 
L 74.32871 79.494755 
L 74.914533 82.706307 
L 75.360874 84.056469 
L 75.723527 84.529533 
L 76.030387 84.604839 
L 76.504625 84.438711 
L 76.92307 84.38465 
L 77.202033 84.591077 
L 77.480997 85.105854 
L 77.815753 86.235351 
L 78.234198 88.53834 
L 78.764229 92.877756 
L 79.51743 101.157019 
L 81.386486 122.382152 
L 82.083894 127.531656 
L 82.641821 130.131626 
L 83.060267 131.190611 
L 83.367126 131.485468 
L 83.590297 131.443503 
L 83.841364 131.135496 
L 84.17612 130.286047 
L 84.594566 128.490535 
L 85.0967 125.190104 
L 85.654627 119.946756 
L 86.324139 111.381983 
L 87.188926 97.143718 
L 88.751122 71.050541 
L 89.253256 66.116142 
L 89.615908 64.390034 
L 89.839079 64.153056 
L 89.978561 64.323411 
L 90.201732 65.087653 
L 90.536488 67.276718 
L 91.010726 72.09658 
L 92.879781 93.011482 
L 93.214537 94.209053 
L 93.409812 94.327243 
L 93.57719 94.097644 
L 93.828257 93.243058 
L 94.302495 90.564029 
L 94.804629 88.0818 
L 95.0278 87.801057 
L 95.167282 88.019392 
L 95.362556 88.902742 
L 95.64152 91.375336 
L 96.059965 97.443748 
L 98.012709 129.527484 
L 98.514844 133.35729 
L 98.933289 135.066635 
L 99.212252 135.507635 
L 99.407527 135.490524 
L 99.602801 135.203548 
L 99.881765 134.315 
L 100.244417 132.280133 
L 100.690759 128.309141 
L 101.220789 121.302382 
L 101.834509 109.881388 
L 102.58771 91.233413 
L 105.126278 23.592082 
L 105.544723 18.981039 
L 105.823687 17.744694 
L 105.935272 17.67132 
L 105.963169 17.690415 
L 106.10265 18.008211 
L 106.325821 19.269049 
L 106.660577 22.779813 
L 107.134815 30.541769 
L 107.971706 48.774207 
L 108.948078 68.617419 
L 109.478108 75.387467 
L 109.868657 77.950108 
L 110.119725 78.513006 
L 110.259206 78.48467 
L 110.426584 78.157959 
L 110.705548 77.000511 
L 111.179786 73.818057 
L 112.128262 67.358898 
L 112.435121 66.522355 
L 112.6025 66.498843 
L 112.769878 66.816803 
L 112.993048 67.802661 
L 113.327805 70.517316 
L 113.774146 76.348556 
L 114.387866 87.707993 
L 116.898537 138.04508 
L 117.595946 146.142644 
L 118.237562 151.193174 
L 118.851282 154.42671 
L 119.492898 156.668123 
L 120.16241 158.212197 
L 120.887715 159.32802 
L 121.696709 160.167723 
L 122.645185 160.829789 
L 123.761039 161.331938 
L 124.960582 161.631787 
L 126.048539 161.685704 
L 126.913326 161.511933 
L 127.694424 161.119894 
L 129.814546 159.85448 
L 130.344577 159.949047 
L 131.041986 160.333416 
L 132.15784 160.931989 
L 132.715767 160.983216 
L 133.217901 160.810448 
L 133.692139 160.407911 
L 134.166377 159.709787 
L 134.668511 158.56238 
L 135.226438 156.687213 
L 135.868054 153.669797 
L 136.760737 148.217452 
L 137.96028 141.055161 
L 138.462414 139.245916 
L 138.825067 138.649916 
L 139.048238 138.604917 
L 139.271409 138.804091 
L 139.578268 139.454954 
L 139.996714 140.95078 
L 140.666226 144.315631 
L 142.061043 151.43221 
L 142.674763 153.42984 
L 143.176897 154.399555 
L 143.595343 154.792527 
L 143.985891 154.86793 
L 144.37644 154.707177 
L 144.850678 154.249048 
L 145.436502 153.352375 
L 146.13391 151.864543 
L 146.915008 149.643838 
L 147.696106 146.719122 
L 148.449307 143.017109 
L 149.202509 138.126762 
L 149.927814 131.865515 
L 150.653119 123.521845 
L 151.378424 112.445783 
L 152.159522 96.86893 
L 153.191686 71.173283 
L 154.363333 43.175459 
L 154.865467 35.885636 
L 155.200224 33.631003 
L 155.367602 33.369723 
L 155.395498 33.383392 
L 155.53498 33.696417 
L 155.75815 35.031755 
L 156.06501 38.450142 
L 156.511352 46.212303 
L 157.236657 63.350194 
L 158.826749 101.420047 
L 159.607847 114.578864 
L 160.249463 121.967652 
L 160.751597 125.538115 
L 161.114249 126.83716 
L 161.33742 127.068074 
L 161.504798 126.942661 
L 161.727969 126.361523 
L 162.034829 124.760286 
L 162.425378 121.33619 
L 162.927512 114.67499 
L 163.597024 102.415867 
L 165.326598 69.131676 
L 165.745043 65.350816 
L 166.024007 64.449176 
L 166.135592 64.469637 
L 166.275074 64.802019 
L 166.498245 66.028654 
L 166.833001 69.369975 
L 167.307239 76.669092 
L 168.227818 95.259127 
L 169.120501 111.540733 
L 169.678428 118.10972 
L 170.096874 120.8014 
L 170.403733 121.601502 
L 170.599008 121.643112 
L 170.794282 121.363194 
L 171.073246 120.490594 
L 171.547484 118.103978 
L 172.774923 111.552967 
L 173.109679 110.802318 
L 173.33285 110.712133 
L 173.528124 110.92198 
L 173.779192 111.593495 
L 174.141844 113.331755 
L 174.643978 117.028735 
L 175.480869 125.185796 
L 176.652515 136.13183 
L 177.266235 139.877369 
L 177.712577 141.402851 
L 178.019437 141.847201 
L 178.242607 141.873521 
L 178.465778 141.667839 
L 178.772638 141.050018 
L 179.246876 139.514328 
L 180.613797 134.748421 
L 180.948553 134.369279 
L 181.171724 134.417196 
L 181.394895 134.723914 
L 181.701754 135.572906 
L 182.1202 137.478968 
L 182.733919 141.494768 
L 184.826146 156.211604 
L 185.495658 158.997955 
L 186.109378 160.653238 
L 186.695201 161.643931 
L 187.336817 162.300664 
L 188.090018 162.746238 
L 189.15008 163.091311 
L 190.712275 163.347768 
L 192.469745 163.41688 
L 193.836666 163.266312 
L 194.785142 162.956626 
L 195.510447 162.486445 
L 196.09627 161.838693 
L 196.654197 160.865088 
L 197.212124 159.390859 
L 197.797948 157.147048 
L 198.46746 153.628918 
L 200.643375 141.252182 
L 200.978131 140.664515 
L 201.201302 140.620832 
L 201.424473 140.858847 
L 201.703436 141.536054 
L 202.121882 143.246016 
L 202.763498 146.980614 
L 204.297797 156.180134 
L 204.967309 158.790796 
L 205.581029 160.334318 
L 206.138956 161.187435 
L 206.696883 161.666484 
L 207.282706 161.890335 
L 207.924322 161.903152 
L 208.621731 161.698643 
L 209.347036 161.248737 
L 210.016548 160.569871 
L 210.658164 159.585553 
L 211.243987 158.269983 
L 211.829811 156.375903 
L 212.415634 153.67084 
L 213.029354 149.684295 
L 213.698866 143.720402 
L 214.50786 134.321579 
L 216.237434 113.483363 
L 216.711672 110.431701 
L 217.018532 109.569158 
L 217.213806 109.510256 
L 217.381184 109.765549 
L 217.632251 110.665186 
L 217.994904 112.981153 
L 218.497038 117.817862 
L 219.417618 129.319067 
L 220.561368 142.822029 
L 221.314569 149.187869 
L 221.956185 152.89014 
L 222.569905 155.202641 
L 223.127832 156.495338 
L 223.629966 157.145885 
L 224.076308 157.39094 
L 224.494753 157.373849 
L 224.941095 157.117129 
L 225.443229 156.5571 
L 226.084845 155.470265 
L 227.033321 153.338743 
L 228.177071 150.881223 
L 228.707102 150.222274 
L 229.09765 150.04752 
L 229.432407 150.127553 
L 229.822955 150.482015 
L 230.32509 151.291503 
L 231.189877 153.219202 
L 232.138352 155.155862 
L 232.61259 155.694292 
L 232.975243 155.802117 
L 233.282103 155.644792 
L 233.616859 155.176229 
L 234.007408 154.190187 
L 234.453749 152.417722 
L 234.98378 149.32952 
L 235.5975 144.339464 
L 236.350701 136.208512 
L 237.466555 121.303584 
L 238.777683 104.445264 
L 239.391403 99.097592 
L 239.837745 96.864756 
L 240.144604 96.249807 
L 240.311982 96.242965 
L 240.507257 96.52952 
L 240.78622 97.481124 
L 241.148873 99.629 
L 241.651007 104.117545 
L 242.376312 112.945096 
L 245.082258 148.164092 
L 245.835459 154.290669 
L 246.504972 158.095799 
L 247.146588 160.546407 
L 247.760308 162.057045 
L 248.346131 162.954168 
L 248.95985 163.506108 
L 249.657259 163.827007 
L 250.522046 163.965903 
L 251.749485 163.919829 
L 253.451163 163.625493 
L 255.180736 163.107769 
L 256.687139 162.427161 
L 257.998267 161.590182 
L 259.19781 160.554854 
L 260.341561 159.266682 
L 261.541104 157.562452 
L 263.01961 155.035521 
L 265.111836 151.474927 
L 265.948727 150.483335 
L 266.590343 150.031502 
L 267.14827 149.893108 
L 267.6783 149.991291 
L 268.236227 150.330037 
L 268.90574 151.02297 
L 269.770526 152.280043 
L 271.221137 154.862108 
L 273.118088 158.126737 
L 273.954979 159.32306 
L 273.954979 159.32306 
" style="fill:none;stroke:#0000ff;stroke-linecap:square;stroke-width:1.5;"/>
   </g>
   <g id="patch_3">
    <path d="M 55.024436 166.496228 
L 55.024436 14.27639 
" style="fill:none;stroke:#000000;stroke-linecap:square;stroke-linejoin:miter;stroke-width:0.8;"/>
   </g>
   <g id="patch_4">
    <path d="M 273.96 166.496228 
L 273.96 14.27639 
" style="fill:none;stroke:#000000;stroke-linecap:square;stroke-linejoin:miter;stroke-width:0.8;"/>
   </g>
   <g id="patch_5">
    <path d="M 55.024436 166.496228 
L 273.96 166.496228 
" style="fill:none;stroke:#000000;stroke-linecap:square;stroke-linejoin:miter;stroke-width:0.8;"/>
   </g>
   <g id="patch_6">
    <path d="M 55.024436 14.27639 
L 273.96 14.27639 
" style="fill:none;stroke:#000000;stroke-linecap:square;stroke-linejoin:miter;stroke-width:0.8;"/>
   </g>
  </g>
 </g>
 <defs>
  <clipPath id="p6c1fea8438">
   <rect height="152.219837" width="218.935564" x="55.024436" y="14.27639"/>
  </clipPath>
 </defs>
</svg>
