<?xml version="1.0" encoding="utf-8" standalone="no"?>
<!DOCTYPE svg PUBLIC "-//W3C//DTD SVG 1.1//EN"
  "http://www.w3.org/Graphics/SVG/1.1/DTD/svg11.dtd">
<!-- Created with matplotlib (https://matplotlib.org/) -->
<svg height="216pt" version="1.1" viewBox="0 0 288 216" width="288pt" xmlns="http://www.w3.org/2000/svg" xmlns:xlink="http://www.w3.org/1999/xlink">
 <metadata>
  <rdf:RDF xmlns:cc="http://creativecommons.org/ns#" xmlns:dc="http://purl.org/dc/elements/1.1/" xmlns:rdf="http://www.w3.org/1999/02/22-rdf-syntax-ns#">
   <cc:Work>
    <dc:type rdf:resource="http://purl.org/dc/dcmitype/StillImage"/>
    <dc:date>2021-03-23T22:55:49.999936</dc:date>
    <dc:format>image/svg+xml</dc:format>
    <dc:creator>
     <cc:Agent>
      <dc:title>Matplotlib v3.3.2, https://matplotlib.org/</dc:title>
     </cc:Agent>
    </dc:creator>
   </cc:Work>
  </rdf:RDF>
 </metadata>
 <defs>
  <style type="text/css">*{stroke-linecap:butt;stroke-linejoin:round;}</style>
 </defs>
 <g id="figure_1">
  <g id="patch_1">
   <path d="M 0 216 
L 288 216 
L 288 0 
L 0 0 
z
" style="fill:#ffffff;"/>
  </g>
  <g id="axes_1">
   <g id="patch_2">
    <path d="M 55.024436 166.496228 
L 273.96 166.496228 
L 273.96 14.04 
L 55.024436 14.04 
z
" style="fill:#ffffff;"/>
   </g>
   <g id="matplotlib.axis_1">
    <g id="xtick_1">
     <g id="line2d_1">
      <defs>
       <path d="M 0 0 
L 0 3.5 
" id="m4e67d1c56a" style="stroke:#000000;stroke-width:0.8;"/>
      </defs>
      <g>
       <use style="stroke:#000000;stroke-width:0.8;" x="106.96409" xlink:href="#m4e67d1c56a" y="166.496228"/>
      </g>
     </g>
     <g id="text_1">
      <!-- $\mathdefault{384}$ -->
      <g transform="translate(97.45298 182.490256)scale(0.13 -0.13)">
       <defs>
        <path d="M 22.09375 34 
C 31 34 34.90625 26.140625 34.90625 17.09375 
C 34.90625 5.03125 28.5 0.390625 22.703125 0.390625 
C 17.40625 0.390625 8.796875 3.015625 6.09375 10.796875 
C 6.59375 10.59375 7.09375 10.59375 7.59375 10.59375 
C 10 10.59375 11.796875 12.1875 11.796875 14.796875 
C 11.796875 17.6875 9.59375 19 7.59375 19 
C 5.90625 19 3.296875 18.1875 3.296875 14.484375 
C 3.296875 5.234375 12.296875 -2 22.90625 -2 
C 34 -2 42.5 6.75 42.5 16.984375 
C 42.5 26.84375 34.5 34 25 35.09375 
C 32.59375 36.671875 39.90625 43.375 39.90625 52.390625 
C 39.90625 60.25 32 66 23 66 
C 13.90625 66 5.90625 60.34375 5.90625 52.296875 
C 5.90625 48.796875 8.5 48.1875 9.796875 48.1875 
C 11.90625 48.1875 13.703125 49.484375 13.703125 52.09375 
C 13.703125 54.6875 11.90625 56 9.796875 56 
C 9.40625 56 8.90625 56 8.5 55.796875 
C 11.40625 62.484375 19.296875 63.6875 22.796875 63.6875 
C 26.296875 63.6875 32.90625 61.96875 32.90625 52.296875 
C 32.90625 49.484375 32.5 44.546875 29.09375 40.21875 
C 26.09375 36.390625 22.703125 36.1875 19.40625 35.890625 
C 18.90625 35.890625 16.59375 35.6875 16.203125 35.6875 
C 15.5 35.59375 15.09375 35.5 15.09375 34.796875 
C 15.09375 34.09375 15.203125 34 17.203125 34 
z
" id="CMR17-51"/>
        <path d="M 27.203125 35.765625 
C 33.5 38.96875 39.90625 43.796875 39.90625 51.53125 
C 39.90625 60.6875 31.09375 66 23 66 
C 13.90625 66 5.90625 59.375 5.90625 50.234375 
C 5.90625 47.71875 6.5 43.390625 10.40625 39.578125 
C 11.40625 38.578125 15.59375 35.5625 18.296875 33.65625 
C 13.796875 31.34375 3.296875 25.8125 3.296875 14.765625 
C 3.296875 4.40625 13.09375 -2 22.796875 -2 
C 33.5 -2 42.5 5.71875 42.5 15.96875 
C 42.5 25.109375 36.40625 29.328125 32.40625 32.046875 
z
M 14.09375 44.609375 
C 13.296875 45.109375 9.296875 48.21875 9.296875 52.9375 
C 9.296875 59.078125 15.59375 63.6875 22.796875 63.6875 
C 30.703125 63.6875 36.5 58.0625 36.5 51.53125 
C 36.5 42.1875 26.09375 36.859375 25.59375 36.859375 
C 25.5 36.859375 25.40625 36.859375 24.59375 37.46875 
z
M 32.5 24 
C 34 22.90625 38.796875 19.578125 38.796875 13.453125 
C 38.796875 6.015625 31.40625 0.390625 23 0.390625 
C 13.90625 0.390625 7 6.921875 7 14.859375 
C 7 22.796875 13.09375 29.4375 20 32.546875 
z
" id="CMR17-56"/>
        <path d="M 33.59375 64.796875 
C 33.59375 66.890625 33.5 67 31.703125 67 
L 2 19.59375 
L 2 17 
L 27.796875 17 
L 27.796875 7.1875 
C 27.796875 3.59375 27.59375 2.59375 20.59375 2.59375 
L 18.703125 2.59375 
L 18.703125 0 
C 21.90625 0.1875 27.296875 0.1875 30.703125 0.1875 
C 34.09375 0.1875 39.5 0.1875 42.703125 0 
L 42.703125 2.59375 
L 40.796875 2.59375 
C 33.796875 2.59375 33.59375 3.59375 33.59375 7.1875 
L 33.59375 17 
L 43.796875 17 
L 43.796875 19.59375 
L 33.59375 19.59375 
z
M 28.09375 58.171875 
L 28.09375 19.59375 
L 4 19.59375 
z
" id="CMR17-52"/>
       </defs>
       <use transform="scale(0.996264)" xlink:href="#CMR17-51"/>
       <use transform="translate(45.690477 0)scale(0.996264)" xlink:href="#CMR17-56"/>
       <use transform="translate(91.380954 0)scale(0.996264)" xlink:href="#CMR17-52"/>
      </g>
     </g>
    </g>
    <g id="xtick_2">
     <g id="line2d_2">
      <g>
       <use style="stroke:#000000;stroke-width:0.8;" x="162.756786" xlink:href="#m4e67d1c56a" y="166.496228"/>
      </g>
     </g>
     <g id="text_2">
      <!-- $\mathdefault{386}$ -->
      <g transform="translate(153.245677 182.490256)scale(0.13 -0.13)">
       <defs>
        <path d="M 10.59375 34.34375 
C 10.59375 58 21.796875 63.6875 28.296875 63.6875 
C 30.40625 63.6875 35.5 63.265625 37.5 59.09375 
C 35.90625 59.09375 32.90625 59.09375 32.90625 55.59375 
C 32.90625 52.890625 35.09375 52 36.5 52 
C 37.40625 52 40.09375 52.390625 40.09375 55.796875 
C 40.09375 62.296875 35.09375 66 28.203125 66 
C 16.296875 66 3.796875 53.296875 3.796875 31.421875 
C 3.796875 4.015625 15.09375 -2 23.09375 -2 
C 32.796875 -2 42 6.734375 42 20.234375 
C 42 32.828125 33.90625 42 23.703125 42 
C 17.59375 42 13.09375 37.96875 10.59375 30.921875 
z
M 23.09375 0.390625 
C 10.796875 0.390625 10.796875 18.9375 10.796875 22.65625 
C 10.796875 29.90625 14.203125 40.390625 23.5 40.390625 
C 25.203125 40.390625 30.09375 40.390625 33.40625 33.4375 
C 35.203125 29.515625 35.203125 25.375 35.203125 20.34375 
C 35.203125 14.90625 35.203125 10.875 33.09375 6.84375 
C 30.90625 2.703125 27.703125 0.390625 23.09375 0.390625 
z
" id="CMR17-54"/>
       </defs>
       <use transform="scale(0.996264)" xlink:href="#CMR17-51"/>
       <use transform="translate(45.690477 0)scale(0.996264)" xlink:href="#CMR17-56"/>
       <use transform="translate(91.380954 0)scale(0.996264)" xlink:href="#CMR17-54"/>
      </g>
     </g>
    </g>
    <g id="xtick_3">
     <g id="line2d_3">
      <g>
       <use style="stroke:#000000;stroke-width:0.8;" x="218.549483" xlink:href="#m4e67d1c56a" y="166.496228"/>
      </g>
     </g>
     <g id="text_3">
      <!-- $\mathdefault{388}$ -->
      <g transform="translate(209.038374 182.490256)scale(0.13 -0.13)">
       <use transform="scale(0.996264)" xlink:href="#CMR17-51"/>
       <use transform="translate(45.690477 0)scale(0.996264)" xlink:href="#CMR17-56"/>
       <use transform="translate(91.380954 0)scale(0.996264)" xlink:href="#CMR17-56"/>
      </g>
     </g>
    </g>
    <g id="text_4">
     <!-- Wavelength (nm) -->
     <g transform="translate(116.410539 198.722142)scale(0.13 -0.13)">
      <defs>
       <path d="M 86.296875 58.984375 
C 87.203125 61.6875 88.703125 65.203125 94.5 65.390625 
L 94.5 68 
C 92.796875 67.890625 89.296875 67.796875 87.5 67.796875 
C 85 67.796875 80.59375 67.796875 78.203125 68 
L 78.203125 65.390625 
C 82.703125 65.296875 84.59375 62.796875 84.59375 60.390625 
C 84.59375 59.6875 84.5 59.28125 84.09375 58.1875 
L 68.59375 8.703125 
L 52.296875 60.78125 
C 52 61.796875 51.90625 62.1875 51.90625 62.59375 
C 51.90625 65.390625 56.296875 65.390625 58.203125 65.390625 
L 58.203125 68 
C 55.296875 67.796875 50.296875 67.796875 47.203125 67.796875 
C 44.703125 67.796875 40.203125 67.796875 37.90625 68 
L 37.90625 65.390625 
C 42.5 65.390625 43.703125 65.09375 44.703125 63.296875 
C 45.09375 62.390625 46.703125 57.1875 46.703125 56.875 
C 46.703125 56.484375 46.5 55.875 46.40625 55.578125 
L 31.703125 8.8125 
L 15.40625 60.78125 
C 14.90625 62.1875 14.90625 62.390625 14.90625 62.59375 
C 14.90625 65.390625 19.296875 65.390625 21.296875 65.390625 
L 21.296875 68 
C 18.40625 67.796875 13.40625 67.796875 10.296875 67.796875 
C 7.703125 67.796875 3.296875 67.796875 0.90625 68 
L 0.90625 65.390625 
C 6.90625 65.390625 7.296875 64.796875 8.296875 61.59375 
L 27.796875 -0.3125 
C 28.296875 -1.8125 28.296875 -2 29.203125 -2 
C 30 -2 30.296875 -1.8125 30.703125 -0.40625 
L 47.703125 53.875 
L 64.703125 -0.40625 
C 65.09375 -1.8125 65.40625 -2 66.203125 -2 
C 67.09375 -2 67.09375 -1.8125 67.59375 -0.3125 
z
" id="CMR17-87"/>
       <path d="M 36 25.875 
C 36 32 36 35.546875 31.796875 39.59375 
C 28.09375 42.984375 23.796875 44 20.40625 44 
C 12.5 44 6.796875 37.625 6.796875 30.890625 
C 6.796875 27.1875 9.796875 27 10.40625 27 
C 11.703125 27 14 27.796875 14 30.59375 
C 14 33.09375 12.09375 34.1875 10.40625 34.1875 
C 10 34.1875 9.5 34.09375 9.203125 34 
C 11.296875 40.53125 16.703125 42.390625 20.203125 42.390625 
C 25.203125 42.390625 30.703125 37.828125 30.703125 29.296875 
L 30.703125 25.5 
C 24.796875 25.296875 17.703125 24.5 12.09375 21.453125 
C 5.796875 17.921875 4 12.84375 4 9 
C 4 1.203125 13 -1 18.296875 -1 
C 23.796875 -1 28.90625 2.109375 31.09375 7.890625 
C 31.296875 3.421875 34.09375 -0.609375 38.5 -0.609375 
C 40.59375 -0.609375 45.90625 0.796875 45.90625 8.796875 
L 45.90625 14.46875 
L 44.09375 14.46875 
L 44.09375 8.703125 
C 44.09375 2.515625 41.40625 1.703125 40.09375 1.703125 
C 36 1.703125 36 6.96875 36 11.4375 
z
M 30.703125 13.859375 
C 30.703125 5.046875 24.5 0.59375 19 0.59375 
C 14 0.59375 10.09375 4.34375 10.09375 9 
C 10.09375 12.046875 11.40625 17.40625 17.203125 20.65625 
C 22 23.390625 27.5 23.796875 30.703125 24 
z
" id="CMR17-97"/>
       <path d="M 39.09375 33.953125 
C 40 36.171875 41.59375 40.1875 47.40625 40.390625 
L 47.40625 43 
C 45.5 42.890625 43 42.796875 41.09375 42.796875 
C 39 42.796875 35.703125 42.796875 33.703125 43 
L 33.703125 40.390625 
C 36.203125 40.1875 37.59375 38.984375 37.59375 36.375 
C 37.59375 35.46875 37.59375 35.265625 37 33.859375 
L 26 5.921875 
L 14.09375 36.0625 
C 13.5 37.375 13.5 37.578125 13.5 37.984375 
C 13.5 40.390625 16.796875 40.390625 18.296875 40.390625 
L 18.296875 43 
C 15.90625 42.796875 11.5 42.796875 9 42.796875 
C 6.296875 42.796875 3.203125 42.796875 1 43 
L 1 40.390625 
C 4.796875 40.390625 6.90625 40.390625 8.09375 37.28125 
L 22.59375 0.6875 
C 23.203125 -0.8125 23.296875 -1 24.203125 -1 
C 25.09375 -1 25.203125 -0.8125 25.796875 0.6875 
z
" id="CMR17-118"/>
       <path d="M 38.09375 23.484375 
C 38.5 23.890625 38.5 24.09375 38.5 25.09375 
C 38.5 35.171875 33.09375 44 21.703125 44 
C 11.09375 44 2.703125 33.984375 2.703125 21.78125 
C 2.703125 8.65625 12.203125 -1 22.796875 -1 
C 34 -1 38.40625 9.671875 38.40625 11.796875 
C 38.40625 12.5 37.796875 12.5 37.59375 12.5 
C 36.90625 12.5 36.796875 12.296875 36.40625 11.078125 
C 34.203125 4.21875 28.703125 0.796875 23.5 0.796875 
C 19.203125 0.796875 14.90625 3.21875 12.203125 7.65625 
C 9.09375 12.796875 9.09375 18.75 9.09375 23.484375 
z
M 9.203125 25 
C 9.90625 39.234375 17.59375 42.390625 21.59375 42.390625 
C 28.40625 42.390625 33 36.0625 33.09375 25 
z
" id="CMR17-101"/>
       <path d="M 15.296875 69 
L 3.40625 67.890625 
L 3.40625 65.296875 
C 9.296875 65.296875 10.203125 64.703125 10.203125 59.921875 
L 10.203125 6.859375 
C 10.203125 3.09375 9.796875 2.59375 3.40625 2.59375 
L 3.40625 0 
C 5.796875 0.1875 10.203125 0.1875 12.703125 0.1875 
C 15.296875 0.1875 19.703125 0.1875 22.09375 0 
L 22.09375 2.59375 
C 15.703125 2.59375 15.296875 2.984375 15.296875 6.859375 
z
" id="CMR17-108"/>
       <path d="M 41.5 30.53125 
C 41.5 35.65625 40.5 44 28.703125 44 
C 20.796875 44 16.703125 37.875 15.203125 33.84375 
L 15.09375 33.84375 
L 15.09375 44 
L 3.296875 42.890625 
L 3.296875 40.28125 
C 9.203125 40.28125 10.09375 39.6875 10.09375 34.859375 
L 10.09375 6.921875 
C 10.09375 3.09375 9.703125 2.59375 3.296875 2.59375 
L 3.296875 0 
C 5.703125 0.1875 10.09375 0.1875 12.703125 0.1875 
C 15.296875 0.1875 19.796875 0.1875 22.203125 0 
L 22.203125 2.59375 
C 15.796875 2.59375 15.40625 3 15.40625 6.921875 
L 15.40625 26.21875 
C 15.40625 35.453125 21 42.390625 28 42.390625 
C 35.40625 42.390625 36.203125 35.765625 36.203125 30.9375 
L 36.203125 6.921875 
C 36.203125 3.09375 35.796875 2.59375 29.40625 2.59375 
L 29.40625 0 
C 31.796875 0.1875 36.203125 0.1875 38.796875 0.1875 
C 41.40625 0.1875 45.90625 0.1875 48.296875 0 
L 48.296875 2.59375 
C 41.90625 2.59375 41.5 3 41.5 6.921875 
z
" id="CMR17-110"/>
       <path d="M 11.09375 18.203125 
C 13 16.6875 16.296875 15 20.296875 15 
C 28.203125 15 35 21.234375 35 29.609375 
C 35 32.234375 34.203125 36.265625 31.203125 39.390625 
C 34 42.390625 38.09375 43.390625 40.40625 43.390625 
C 40.796875 43.390625 41.40625 43.390625 41.90625 43.09375 
C 41.5 42.984375 40.59375 42.59375 40.59375 40.984375 
C 40.59375 39.6875 41.5 38.796875 42.796875 38.796875 
C 44.296875 38.796875 45.09375 39.796875 45.09375 41.09375 
C 45.09375 42.984375 43.59375 45 40.40625 45 
C 36.40625 45 32.90625 43.09375 30.09375 40.484375 
C 27.09375 43.1875 23.5 44.1875 20.296875 44.1875 
C 12.40625 44.1875 5.59375 37.984375 5.59375 29.609375 
C 5.59375 23.859375 8.90625 20.21875 9.90625 19.21875 
C 6.90625 15.6875 6.90625 11.59375 6.90625 11.09375 
C 6.90625 8.5 7.90625 4.6875 11.296875 2.59375 
C 6.09375 1.28125 2 -2.875 2 -8.078125 
C 2 -15.5625 11.5 -21 22.90625 -21 
C 33.90625 -21 43.796875 -15.765625 43.796875 -7.96875 
C 43.796875 6 29 6 21.296875 6 
C 19 6 14.90625 6 14.40625 6.09375 
C 11.296875 6.59375 9.203125 9.390625 9.203125 12.890625 
C 9.203125 13.796875 9.203125 16 11.09375 18.203125 
z
M 20.296875 16.6875 
C 11.5 16.6875 11.5 27.59375 11.5 29.609375 
C 11.5 31.625 11.5 42.484375 20.296875 42.484375 
C 29.09375 42.484375 29.09375 31.625 29.09375 29.609375 
C 29.09375 27.59375 29.09375 16.6875 20.296875 16.6875 
z
M 22.90625 -19.3125 
C 12.90625 -19.3125 6 -13.796875 6 -8.078125 
C 6 -4.859375 7.703125 -1.84375 9.90625 -0.171875 
C 12.40625 1.59375 13.40625 1.59375 20.203125 1.59375 
C 28.40625 1.59375 39.796875 1.59375 39.796875 -8.078125 
C 39.796875 -13.796875 32.90625 -19.3125 22.90625 -19.3125 
z
" id="CMR17-103"/>
       <path d="M 15.09375 40.390625 
L 29.09375 40.390625 
L 29.09375 43 
L 15.09375 43 
L 15.09375 62 
L 13.296875 62 
C 13.09375 51.4375 9.59375 42.1875 1.09375 41.984375 
L 1.09375 40.390625 
L 9.796875 40.390625 
L 9.796875 12.15625 
C 9.796875 10.234375 9.796875 -1 21.40625 -1 
C 27.296875 -1 30.703125 4.8125 30.703125 12.25 
L 30.703125 17.984375 
L 28.90625 17.984375 
L 28.90625 12.34375 
C 28.90625 5.421875 26.203125 0.796875 22 0.796875 
C 19.09375 0.796875 15.09375 2.796875 15.09375 11.953125 
z
" id="CMR17-116"/>
       <path d="M 41.5 30.53125 
C 41.5 35.65625 40.5 44 28.703125 44 
C 20.5 44 16.5 37.375 15.296875 34.046875 
L 15.203125 34.046875 
L 15.203125 69 
L 3.296875 67.890625 
L 3.296875 65.296875 
C 9.203125 65.296875 10.09375 64.703125 10.09375 60.046875 
L 10.09375 6.921875 
C 10.09375 3.09375 9.703125 2.59375 3.296875 2.59375 
L 3.296875 0 
C 5.703125 0.1875 10.09375 0.1875 12.703125 0.1875 
C 15.296875 0.1875 19.796875 0.1875 22.203125 0 
L 22.203125 2.59375 
C 15.796875 2.59375 15.40625 3 15.40625 6.921875 
L 15.40625 26.21875 
C 15.40625 35.453125 21 42.390625 28 42.390625 
C 35.40625 42.390625 36.203125 35.765625 36.203125 30.9375 
L 36.203125 6.921875 
C 36.203125 3.09375 35.796875 2.59375 29.40625 2.59375 
L 29.40625 0 
C 31.796875 0.1875 36.203125 0.1875 38.796875 0.1875 
C 41.40625 0.1875 45.90625 0.1875 48.296875 0 
L 48.296875 2.59375 
C 41.90625 2.59375 41.5 3 41.5 6.921875 
z
" id="CMR17-104"/>
       <path d="M 30.59375 -24.40625 
C 30.59375 -24.3125 30.59375 -24.109375 30.296875 -23.8125 
C 25.703125 -19.109375 13.40625 -6.296875 13.40625 24.9375 
C 13.40625 56.171875 25.5 68.875 30.40625 73.890625 
C 30.40625 73.984375 30.59375 74.1875 30.59375 74.484375 
C 30.59375 74.796875 30.296875 75 29.90625 75 
C 28.796875 75 20.296875 67.578125 15.40625 56.5625 
C 10.40625 45.453125 9 34.65625 9 25.046875 
C 9 17.828125 9.703125 5.625 15.703125 -7.296875 
C 20.5 -17.703125 28.703125 -25 29.90625 -25 
C 30.40625 -25 30.59375 -24.8125 30.59375 -24.40625 
z
" id="CMR17-40"/>
       <path d="M 67.59375 30.53125 
C 67.59375 35.5625 66.703125 44 54.796875 44 
C 48 44 43.296875 39.375 41.5 33.953125 
L 41.40625 33.953125 
C 40.203125 42.1875 34.296875 44 28.703125 44 
C 20.796875 44 16.703125 37.875 15.203125 33.84375 
L 15.09375 33.84375 
L 15.09375 44 
L 3.296875 42.890625 
L 3.296875 40.28125 
C 9.203125 40.28125 10.09375 39.6875 10.09375 34.859375 
L 10.09375 6.921875 
C 10.09375 3.09375 9.703125 2.59375 3.296875 2.59375 
L 3.296875 0 
C 5.703125 0.1875 10.09375 0.1875 12.703125 0.1875 
C 15.296875 0.1875 19.796875 0.1875 22.203125 0 
L 22.203125 2.59375 
C 15.796875 2.59375 15.40625 3 15.40625 6.921875 
L 15.40625 26.21875 
C 15.40625 35.453125 21 42.390625 28 42.390625 
C 35.40625 42.390625 36.203125 35.765625 36.203125 30.9375 
L 36.203125 6.921875 
C 36.203125 3.09375 35.796875 2.59375 29.40625 2.59375 
L 29.40625 0 
C 31.796875 0.1875 36.203125 0.1875 38.796875 0.1875 
C 41.40625 0.1875 45.90625 0.1875 48.296875 0 
L 48.296875 2.59375 
C 41.90625 2.59375 41.5 3 41.5 6.921875 
L 41.5 26.21875 
C 41.5 35.453125 47.09375 42.390625 54.09375 42.390625 
C 61.5 42.390625 62.296875 35.765625 62.296875 30.9375 
L 62.296875 6.921875 
C 62.296875 3.09375 61.90625 2.59375 55.5 2.59375 
L 55.5 0 
C 57.90625 0.1875 62.296875 0.1875 64.90625 0.1875 
C 67.5 0.1875 72 0.1875 74.40625 0 
L 74.40625 2.59375 
C 68 2.59375 67.59375 3 67.59375 6.921875 
z
" id="CMR17-109"/>
       <path d="M 26.296875 24.9375 
C 26.296875 32.140625 25.59375 44.359375 19.59375 57.265625 
C 14.796875 67.6875 6.59375 75 5.40625 75 
C 5.09375 75 4.703125 74.890625 4.703125 74.390625 
C 4.703125 74.1875 4.796875 74.09375 4.90625 73.890625 
C 9.703125 68.875 21.90625 56.171875 21.90625 25.046875 
C 21.90625 -6.1875 9.796875 -18.90625 4.90625 -23.90625 
C 4.796875 -24.109375 4.703125 -24.203125 4.703125 -24.40625 
C 4.703125 -24.90625 5.09375 -25 5.40625 -25 
C 6.5 -25 15 -17.609375 19.90625 -6.59375 
C 24.90625 4.515625 26.296875 15.328125 26.296875 24.9375 
z
" id="CMR17-41"/>
      </defs>
      <use transform="scale(0.996264)" xlink:href="#CMR17-87"/>
      <use transform="translate(87.289395 0)scale(0.996264)" xlink:href="#CMR17-97"/>
      <use transform="translate(130.377418 0)scale(0.996264)" xlink:href="#CMR17-118"/>
      <use transform="translate(176.06788 0)scale(0.996264)" xlink:href="#CMR17-101"/>
      <use transform="translate(216.55354 0)scale(0.996264)" xlink:href="#CMR17-108"/>
      <use transform="translate(241.424599 0)scale(0.996264)" xlink:href="#CMR17-101"/>
      <use transform="translate(281.910259 0)scale(0.996264)" xlink:href="#CMR17-110"/>
      <use transform="translate(332.805629 0)scale(0.996264)" xlink:href="#CMR17-103"/>
      <use transform="translate(378.496106 0)scale(0.996264)" xlink:href="#CMR17-116"/>
      <use transform="translate(413.776874 0)scale(0.996264)" xlink:href="#CMR17-104"/>
      <use transform="translate(494.74821 0)scale(0.996264)" xlink:href="#CMR17-40"/>
      <use transform="translate(530.028978 0)scale(0.996264)" xlink:href="#CMR17-110"/>
      <use transform="translate(580.924347 0)scale(0.996264)" xlink:href="#CMR17-109"/>
      <use transform="translate(657.843937 0)scale(0.996264)" xlink:href="#CMR17-41"/>
     </g>
    </g>
   </g>
   <g id="matplotlib.axis_2">
    <g id="ytick_1">
     <g id="line2d_4">
      <defs>
       <path d="M 0 0 
L -3.5 0 
" id="m4e449e2364" style="stroke:#000000;stroke-width:0.8;"/>
      </defs>
      <g>
       <use style="stroke:#000000;stroke-width:0.8;" x="55.024436" xlink:href="#m4e449e2364" y="166.496228"/>
      </g>
     </g>
     <g id="text_5">
      <!-- $\mathdefault{0.0}$ -->
      <g transform="translate(31.820325 170.993242)scale(0.13 -0.13)">
       <defs>
        <path d="M 42 31.84375 
C 42 37.96875 41.90625 48.421875 37.703125 56.453125 
C 34 63.484375 28.09375 66 22.90625 66 
C 18.09375 66 12 63.78125 8.203125 56.5625 
C 4.203125 49.015625 3.796875 39.671875 3.796875 31.84375 
C 3.796875 26.109375 3.90625 17.375 7 9.734375 
C 11.296875 -0.609375 19 -2 22.90625 -2 
C 27.5 -2 34.5 -0.109375 38.59375 9.4375 
C 41.59375 16.375 42 24.5 42 31.84375 
z
M 22.90625 -0.40625 
C 16.5 -0.40625 12.703125 5.125 11.296875 12.75 
C 10.203125 18.6875 10.203125 27.328125 10.203125 32.953125 
C 10.203125 40.6875 10.203125 47.109375 11.5 53.234375 
C 13.40625 61.78125 19 64.390625 22.90625 64.390625 
C 27 64.390625 32.296875 61.671875 34.203125 53.4375 
C 35.5 47.71875 35.59375 40.984375 35.59375 32.953125 
C 35.59375 26.421875 35.59375 18.375 34.40625 12.453125 
C 32.296875 1.5 26.40625 -0.40625 22.90625 -0.40625 
z
" id="CMR17-48"/>
        <path d="M 18.40625 4.796875 
C 18.40625 7.6875 16 9.6875 13.59375 9.6875 
C 10.703125 9.6875 8.703125 7.296875 8.703125 4.890625 
C 8.703125 2 11.09375 0 13.5 0 
C 16.40625 0 18.40625 2.390625 18.40625 4.796875 
z
" id="CMMI12-58"/>
       </defs>
       <use transform="scale(0.996264)" xlink:href="#CMR17-48"/>
       <use transform="translate(45.690477 0)scale(0.996264)" xlink:href="#CMMI12-58"/>
       <use transform="translate(72.787654 0)scale(0.996264)" xlink:href="#CMR17-48"/>
      </g>
     </g>
    </g>
    <g id="ytick_2">
     <g id="line2d_5">
      <g>
       <use style="stroke:#000000;stroke-width:0.8;" x="55.024436" xlink:href="#m4e449e2364" y="121.656161"/>
      </g>
     </g>
     <g id="text_6">
      <!-- $\mathdefault{0.2}$ -->
      <g transform="translate(31.820325 126.153175)scale(0.13 -0.13)">
       <defs>
        <path d="M 41.703125 15.46875 
L 39.90625 15.46875 
C 38.90625 8.390625 38.09375 7.1875 37.703125 6.59375 
C 37.203125 5.796875 30 5.796875 28.59375 5.796875 
L 9.40625 5.796875 
C 13 9.6875 20 16.765625 28.5 24.9375 
C 34.59375 30.71875 41.703125 37.5 41.703125 47.390625 
C 41.703125 59.1875 32.296875 66 21.796875 66 
C 10.796875 66 4.09375 56.296875 4.09375 47.296875 
C 4.09375 43.390625 7 42.890625 8.203125 42.890625 
C 9.203125 42.890625 12.203125 43.484375 12.203125 46.984375 
C 12.203125 50.09375 9.59375 51 8.203125 51 
C 7.59375 51 7 50.890625 6.59375 50.6875 
C 8.5 59.1875 14.296875 63.390625 20.40625 63.390625 
C 29.09375 63.390625 34.796875 56.5 34.796875 47.390625 
C 34.796875 38.703125 29.703125 31.21875 24 24.734375 
L 4.09375 2.296875 
L 4.09375 0 
L 39.296875 0 
z
" id="CMR17-50"/>
       </defs>
       <use transform="scale(0.996264)" xlink:href="#CMR17-48"/>
       <use transform="translate(45.690477 0)scale(0.996264)" xlink:href="#CMMI12-58"/>
       <use transform="translate(72.787654 0)scale(0.996264)" xlink:href="#CMR17-50"/>
      </g>
     </g>
    </g>
    <g id="ytick_3">
     <g id="line2d_6">
      <g>
       <use style="stroke:#000000;stroke-width:0.8;" x="55.024436" xlink:href="#m4e449e2364" y="76.816094"/>
      </g>
     </g>
     <g id="text_7">
      <!-- $\mathdefault{0.4}$ -->
      <g transform="translate(31.820325 81.313108)scale(0.13 -0.13)">
       <use transform="scale(0.996264)" xlink:href="#CMR17-48"/>
       <use transform="translate(45.690477 0)scale(0.996264)" xlink:href="#CMMI12-58"/>
       <use transform="translate(72.787654 0)scale(0.996264)" xlink:href="#CMR17-52"/>
      </g>
     </g>
    </g>
    <g id="ytick_4">
     <g id="line2d_7">
      <g>
       <use style="stroke:#000000;stroke-width:0.8;" x="55.024436" xlink:href="#m4e449e2364" y="31.976027"/>
      </g>
     </g>
     <g id="text_8">
      <!-- $\mathdefault{0.6}$ -->
      <g transform="translate(31.820325 36.473041)scale(0.13 -0.13)">
       <use transform="scale(0.996264)" xlink:href="#CMR17-48"/>
       <use transform="translate(45.690477 0)scale(0.996264)" xlink:href="#CMMI12-58"/>
       <use transform="translate(72.787654 0)scale(0.996264)" xlink:href="#CMR17-54"/>
      </g>
     </g>
    </g>
    <g id="text_9">
     <!-- Intensity $\times 10^\mathrm{12}$ (arb. units) -->
     <g transform="translate(24.582466 167.563203)rotate(-90)scale(0.13 -0.13)">
      <defs>
       <path d="M 19.703125 60.90625 
C 19.703125 65.390625 20.90625 65.390625 28.09375 65.390625 
L 28.09375 68 
C 24.90625 67.796875 19.796875 67.796875 16.40625 67.796875 
C 13 67.796875 7.90625 67.796875 4.703125 68 
L 4.703125 65.390625 
C 11.90625 65.390625 13.09375 65.390625 13.09375 60.90625 
L 13.09375 7.078125 
C 13.09375 2.59375 11.90625 2.59375 4.703125 2.59375 
L 4.703125 0 
C 7.90625 0.1875 13 0.1875 16.40625 0.1875 
C 19.796875 0.1875 24.90625 0.1875 28.09375 0 
L 28.09375 2.59375 
C 20.90625 2.59375 19.703125 2.59375 19.703125 7.078125 
z
" id="CMR17-73"/>
       <path d="M 30.90625 42 
C 30.90625 43.796875 30.796875 43.890625 30.203125 43.890625 
C 29.796875 43.890625 29.703125 43.796875 28.5 42.296875 
C 28.203125 41.890625 27.296875 40.890625 27 40.5 
C 23.796875 43.890625 19.296875 44 17.59375 44 
C 6.5 44 2.5 38.1875 2.5 32.390625 
C 2.5 23.390625 12.703125 21.296875 15.59375 20.6875 
C 21.90625 19.390625 24.09375 19 26.203125 17.1875 
C 27.5 16 29.703125 13.796875 29.703125 10.1875 
C 29.703125 6 27.296875 0.59375 18.09375 0.59375 
C 9.40625 0.59375 6.296875 7.1875 4.5 16 
C 4.203125 17.390625 4.203125 17.5 3.40625 17.5 
C 2.59375 17.5 2.5 17.390625 2.5 15.390625 
L 2.5 1 
C 2.5 -0.8125 2.59375 -0.90625 3.203125 -0.90625 
C 3.703125 -0.90625 3.796875 -0.8125 4.296875 0 
C 4.90625 0.890625 6.40625 3.296875 7 4.296875 
C 9 1.59375 12.5 -1 18.09375 -1 
C 28 -1 33.296875 4.390625 33.296875 12.1875 
C 33.296875 17.296875 30.59375 20 29.296875 21.1875 
C 26.296875 24.296875 22.796875 25 18.59375 25.796875 
C 13.09375 27 6.09375 28.390625 6.09375 34.5 
C 6.09375 37.09375 7.5 42.59375 17.59375 42.59375 
C 28.296875 42.59375 28.90625 32.59375 29.09375 29.390625 
C 29.203125 28.890625 29.703125 28.796875 30 28.796875 
C 30.90625 28.796875 30.90625 29.09375 30.90625 30.796875 
z
" id="CMR17-115"/>
       <path d="M 15.5 61.890625 
C 15.5 64.09375 13.703125 66 11.40625 66 
C 9.203125 66 7.296875 64.1875 7.296875 61.890625 
C 7.296875 59.6875 9.09375 57.796875 11.40625 57.796875 
C 13.59375 57.796875 15.5 59.59375 15.5 61.890625 
z
M 3.796875 42.890625 
L 3.796875 40.296875 
C 9.40625 40.296875 10.203125 39.6875 10.203125 34.859375 
L 10.203125 6.921875 
C 10.203125 3.09375 9.796875 2.59375 3.40625 2.59375 
L 3.40625 0 
C 5.796875 0.1875 10.09375 0.1875 12.59375 0.1875 
C 15 0.1875 19.09375 0.1875 21.40625 0 
L 21.40625 2.59375 
C 15.5 2.59375 15.296875 3.203125 15.296875 6.8125 
L 15.296875 44 
z
" id="CMR17-105"/>
       <path d="M 39 34.109375 
C 41.5 40.296875 46 40.390625 47.40625 40.390625 
L 47.40625 43 
C 45.5 42.890625 43 42.796875 41.09375 42.796875 
C 39 42.796875 35.703125 42.796875 33.703125 43 
L 33.703125 40.390625 
C 37.5 40.09375 37.59375 37.25 37.59375 36.4375 
C 37.59375 35.4375 37.40625 34.921875 36.90625 33.71875 
L 26 6.390625 
L 14.09375 35.9375 
C 13.59375 37.15625 13.59375 37.859375 13.59375 37.96875 
C 13.59375 40.1875 15.90625 40.390625 18.296875 40.390625 
L 18.296875 43 
C 15.90625 42.796875 11.59375 42.796875 9.09375 42.796875 
C 6.40625 42.796875 3.203125 42.796875 1 43 
L 1 40.390625 
C 6.40625 40.390625 7 39.890625 8.296875 36.640625 
L 23.203125 -0.484375 
C 18.703125 -12.421875 16.09375 -19.40625 9.796875 -19.40625 
C 8.703125 -19.40625 6.203125 -19.109375 4.40625 -17.28125 
C 6.703125 -17.078125 7.703125 -15.65625 7.703125 -13.9375 
C 7.703125 -12.21875 6.5 -10.703125 4.5 -10.703125 
C 2.296875 -10.703125 1.203125 -12.21875 1.203125 -14.046875 
C 1.203125 -18.09375 5.296875 -21 9.796875 -21 
C 15.59375 -21 19.203125 -15.359375 21.203125 -10.296875 
z
" id="CMR17-121"/>
       <path d="M 38.90625 27.734375 
L 18.90625 47.59375 
C 17.703125 48.796875 17.5 49 16.703125 49 
C 15.703125 49 14.703125 48.09375 14.703125 47 
C 14.703125 46.296875 14.90625 46.09375 16 45 
L 36 24.9375 
L 16 4.890625 
C 14.90625 3.796875 14.703125 3.59375 14.703125 2.890625 
C 14.703125 1.796875 15.703125 0.890625 16.703125 0.890625 
C 17.5 0.890625 17.703125 1.09375 18.90625 2.296875 
L 38.796875 22.15625 
L 59.5 1.484375 
C 59.703125 1.390625 60.40625 0.890625 61 0.890625 
C 62.203125 0.890625 63 1.796875 63 2.890625 
C 63 3.09375 63 3.484375 62.703125 3.984375 
C 62.59375 4.1875 46.703125 19.859375 41.703125 24.9375 
L 60 43.203125 
C 60.5 43.796875 62 45.09375 62.5 45.703125 
C 62.59375 45.890625 63 46.296875 63 47 
C 63 48.09375 62.203125 49 61 49 
C 60.203125 49 59.796875 48.59375 58.703125 47.5 
z
" id="CMSY10-2"/>
       <path d="M 26.59375 63.796875 
C 26.59375 65.890625 26.5 66 25.09375 66 
C 21.203125 61.359375 15.296875 59.890625 9.703125 59.6875 
C 9.40625 59.6875 8.90625 59.6875 8.796875 59.5 
C 8.703125 59.296875 8.703125 59.09375 8.703125 57 
C 11.796875 57 17 57.59375 21 59.984375 
L 21 7.296875 
C 21 3.796875 20.796875 2.59375 12.203125 2.59375 
L 9.203125 2.59375 
L 9.203125 0 
C 14 0.09375 19 0.1875 23.796875 0.1875 
C 28.59375 0.1875 33.59375 0.09375 38.40625 0 
L 38.40625 2.59375 
L 35.40625 2.59375 
C 26.796875 2.59375 26.59375 3.6875 26.59375 7.296875 
z
" id="CMR17-49"/>
       <path d="M 15 23.703125 
C 15 33.34375 19.09375 42.390625 26.59375 42.390625 
C 27.296875 42.390625 28 42.296875 28.703125 41.984375 
C 28.703125 41.984375 26.5 41.28125 26.5 38.671875 
C 26.5 36.265625 28.40625 35.265625 29.90625 35.265625 
C 31.09375 35.265625 33.296875 35.96875 33.296875 38.78125 
C 33.296875 41.984375 30.09375 44 26.703125 44 
C 19.09375 44 15.796875 36.5625 14.796875 33.046875 
L 14.703125 33.046875 
L 14.703125 44 
L 3.09375 42.890625 
L 3.09375 40.28125 
C 9 40.28125 9.90625 39.6875 9.90625 34.859375 
L 9.90625 6.921875 
C 9.90625 3.09375 9.5 2.59375 3.09375 2.59375 
L 3.09375 0 
C 5.5 0.1875 10.09375 0.1875 12.703125 0.1875 
C 15.59375 0.1875 20.703125 0.1875 23.40625 0 
L 23.40625 2.59375 
C 16.203125 2.59375 15 2.59375 15 7.109375 
z
" id="CMR17-114"/>
       <path d="M 15 69 
L 3.09375 67.890625 
L 3.09375 65.296875 
C 9 65.296875 9.90625 64.703125 9.90625 60.046875 
L 9.90625 -0.203125 
L 11.703125 -0.203125 
L 14.59375 6.953125 
C 17.5 2.203125 21.796875 -1 27.59375 -1 
C 37.59375 -1 47.703125 7.859375 47.703125 21.59375 
C 47.703125 34.515625 38.703125 44 28.59375 44 
C 22.40625 44 18 40.671875 15 36.734375 
z
M 15.203125 31.59375 
C 15.203125 33.40625 15.203125 33.703125 16.59375 35.828125 
C 20.5 41.890625 26.09375 42.390625 28 42.390625 
C 31 42.390625 41.296875 40.78125 41.296875 21.6875 
C 41.296875 1.703125 29.5 0.59375 27.09375 0.59375 
C 24 0.59375 19.5 1.796875 16.296875 7.65625 
C 15.203125 9.578125 15.203125 9.78125 15.203125 11.59375 
z
" id="CMR17-98"/>
       <path d="M 16.59375 4.09375 
C 16.59375 6.59375 14.59375 8.1875 12.5 8.1875 
C 10.5 8.1875 8.40625 6.59375 8.40625 4.09375 
C 8.40625 1.59375 10.40625 0 12.5 0 
C 14.5 0 16.59375 1.59375 16.59375 4.09375 
z
" id="CMR17-46"/>
       <path d="M 29.40625 42.890625 
L 29.40625 40.296875 
C 35.296875 40.296875 36.203125 39.6875 36.203125 34.828125 
L 36.203125 16.453125 
C 36.203125 7.96875 31.703125 0.59375 24.296875 0.59375 
C 16.09375 0.59375 15.40625 5.546875 15.40625 10.796875 
L 15.40625 44 
L 3.296875 42.890625 
L 3.296875 40.296875 
C 7.296875 40.296875 10 40.296875 10.09375 36.25 
L 10.09375 16.859375 
C 10.09375 10.09375 10.09375 5.75 12.703125 2.921875 
C 14 1.609375 16.5 -1 23.703125 -1 
C 32.203125 -1 35.5 6.25 36.296875 8.375 
L 36.40625 8.375 
L 36.40625 -1 
L 48.296875 -0.203125 
L 48.296875 2.40625 
C 42.40625 2.40625 41.5 3.015625 41.5 7.859375 
L 41.5 44 
z
" id="CMR17-117"/>
      </defs>
      <use transform="scale(0.996264)" xlink:href="#CMR17-73"/>
      <use transform="translate(32.638409 0)scale(0.996264)" xlink:href="#CMR17-110"/>
      <use transform="translate(80.931325 0)scale(0.996264)" xlink:href="#CMR17-116"/>
      <use transform="translate(116.212093 0)scale(0.996264)" xlink:href="#CMR17-101"/>
      <use transform="translate(156.697753 0)scale(0.996264)" xlink:href="#CMR17-110"/>
      <use transform="translate(207.593123 0)scale(0.996264)" xlink:href="#CMR17-115"/>
      <use transform="translate(243.394461 0)scale(0.996264)" xlink:href="#CMR17-105"/>
      <use transform="translate(268.265519 0)scale(0.996264)" xlink:href="#CMR17-116"/>
      <use transform="translate(300.943833 0)scale(0.996264)" xlink:href="#CMR17-121"/>
      <use transform="translate(379.312715 0)scale(0.996264)" xlink:href="#CMSY10-2"/>
      <use transform="translate(456.800183 0)scale(0.996264)" xlink:href="#CMR17-49"/>
      <use transform="translate(502.49066 0)scale(0.996264)" xlink:href="#CMR17-48"/>
      <use transform="translate(548.181137 36.153639)scale(0.697382)" xlink:href="#CMR17-49"/>
      <use transform="translate(580.164319 36.153639)scale(0.697382)" xlink:href="#CMR17-50"/>
      <use transform="translate(642.721599 0)scale(0.996264)" xlink:href="#CMR17-40"/>
      <use transform="translate(678.002367 0)scale(0.996264)" xlink:href="#CMR17-97"/>
      <use transform="translate(723.692844 0)scale(0.996264)" xlink:href="#CMR17-114"/>
      <use transform="translate(758.973612 0)scale(0.996264)" xlink:href="#CMR17-98"/>
      <use transform="translate(809.868982 0)scale(0.996264)" xlink:href="#CMR17-46"/>
      <use transform="translate(875.225701 0)scale(0.996264)" xlink:href="#CMR17-117"/>
      <use transform="translate(926.121071 0)scale(0.996264)" xlink:href="#CMR17-110"/>
      <use transform="translate(977.01644 0)scale(0.996264)" xlink:href="#CMR17-105"/>
      <use transform="translate(1001.887499 0)scale(0.996264)" xlink:href="#CMR17-116"/>
      <use transform="translate(1037.168267 0)scale(0.996264)" xlink:href="#CMR17-115"/>
      <use transform="translate(1072.969604 0)scale(0.996264)" xlink:href="#CMR17-41"/>
     </g>
    </g>
   </g>
   <g id="line2d_8">
    <path clip-path="url(#p693010480b)" d="M -1 166.489863 
L 42.783225 166.374456 
L 47.246641 166.187969 
L 48.641458 165.939817 
L 49.199385 165.677989 
L 49.757312 165.157575 
L 50.315239 164.122707 
L 50.873166 162.135897 
L 51.431093 158.534071 
L 51.98902 152.452223 
L 52.546947 142.976406 
L 53.104874 129.461192 
L 53.941764 102.042446 
L 55.336582 53.095415 
L 55.894509 41.499919 
L 56.173472 38.862406 
L 56.452436 38.565333 
L 56.731399 40.625296 
L 57.010363 44.927756 
L 57.56829 59.220734 
L 58.684144 99.472185 
L 59.521034 127.47575 
L 60.078961 141.512196 
L 60.636888 151.468681 
L 61.194815 157.927388 
L 61.752742 161.78935 
L 62.310669 163.937348 
L 62.868596 165.063122 
L 63.426523 165.630819 
L 64.263413 166.001541 
L 65.658231 166.206425 
L 69.005793 166.354709 
L 77.653661 166.449 
L 111.408242 166.48932 
L 152.973801 166.493991 
L 152.973801 166.493991 
" style="fill:none;stroke:#008000;stroke-dasharray:3.7,1.6;stroke-dashoffset:0;"/>
   </g>
   <g id="line2d_9">
    <path clip-path="url(#p693010480b)" d="M -1 166.389083 
L 28.074307 166.191283 
L 39.790774 165.912452 
L 46.206934 165.559762 
L 50.391386 165.122885 
L 53.181021 164.634827 
L 55.412729 164.026861 
L 57.08651 163.348584 
L 58.481327 162.540403 
L 59.597181 161.641442 
L 60.434072 160.744605 
L 61.270962 159.56725 
L 62.107853 157.97788 
L 62.944743 155.764209 
L 63.50267 153.779841 
L 64.060597 151.224994 
L 64.618524 147.913758 
L 65.176451 143.624626 
L 66.013341 134.855636 
L 66.850232 122.833707 
L 67.966086 102.529005 
L 69.08194 82.249344 
L 69.639867 74.847987 
L 70.197794 70.716047 
L 70.476757 70.093812 
L 70.755721 70.479682 
L 71.034684 71.858341 
L 71.592611 77.342358 
L 72.150538 85.732503 
L 74.940173 134.033686 
L 75.777063 143.044985 
L 76.613954 149.282772 
L 77.450844 153.512202 
L 78.287735 156.403928 
L 79.124625 158.432109 
L 79.961516 159.900212 
L 80.798406 160.995924 
L 81.91426 162.072893 
L 83.030114 162.858407 
L 84.424931 163.574842 
L 86.098712 164.184498 
L 88.33042 164.738318 
L 91.120055 165.188688 
L 95.025544 165.576162 
L 100.604813 165.88784 
L 109.531645 166.135374 
L 125.1536 166.312579 
L 158.629218 166.425699 
L 206.05301 166.466432 
L 206.05301 166.466432 
" style="fill:none;stroke:#008000;stroke-dasharray:3.7,1.6;stroke-dashoffset:0;"/>
   </g>
   <g id="line2d_10">
    <path clip-path="url(#p693010480b)" d="M -1 166.440213 
L 37.883293 166.274447 
L 50.157686 166.026662 
L 56.294883 165.708692 
L 60.200372 165.301635 
L 62.711043 164.846025 
L 64.663788 164.282283 
L 66.058605 163.680214 
L 67.174459 163.000404 
L 68.290313 162.038152 
L 69.127203 161.026915 
L 69.964094 159.627105 
L 70.800984 157.622137 
L 71.358911 155.781379 
L 71.916838 153.367447 
L 72.474765 150.19332 
L 73.032692 146.055284 
L 73.869582 137.703909 
L 74.985436 123.004197 
L 76.10129 108.501293 
L 76.659217 103.84358 
L 76.938181 102.588682 
L 77.217144 102.145274 
L 77.496108 102.535973 
L 77.775071 103.74084 
L 78.332998 108.315753 
L 79.169889 118.827207 
L 80.564706 137.498586 
L 81.401597 145.906106 
L 82.238487 151.78729 
L 83.075377 155.714486 
L 83.912268 158.331087 
L 84.749158 160.116692 
L 85.586049 161.37688 
L 86.422939 162.296496 
L 87.538793 163.180244 
L 88.933611 163.939756 
L 90.607392 164.549569 
L 92.560136 165.019886 
L 95.349771 165.443337 
L 99.25526 165.785741 
L 105.113493 166.053951 
L 114.877215 166.254028 
L 134.125695 166.390308 
L 184.618086 166.466514 
L 200.240041 166.473583 
L 200.240041 166.473583 
" style="fill:none;stroke:#008000;stroke-dasharray:3.7,1.6;stroke-dashoffset:0;"/>
   </g>
   <g id="line2d_11">
    <path clip-path="url(#p693010480b)" d="M 54.868247 165.487215 
L 61.005444 165.026335 
L 65.189896 164.503694 
L 68.258495 163.9205 
L 70.769166 163.229483 
L 72.72191 162.480088 
L 74.395691 161.612104 
L 75.790509 160.654979 
L 76.906363 159.672149 
L 78.022217 158.420696 
L 79.138071 156.795076 
L 79.974961 155.236869 
L 80.811852 153.282146 
L 81.648742 150.794862 
L 82.485632 147.587196 
L 83.322523 143.407682 
L 84.159413 137.942231 
L 84.996304 130.850809 
L 85.833194 121.871578 
L 86.949048 107.047836 
L 89.180756 75.861865 
L 89.738683 70.772554 
L 90.29661 67.873165 
L 90.575573 67.349589 
L 90.854537 67.468 
L 91.1335 68.225167 
L 91.412464 69.600548 
L 91.970391 74.044558 
L 92.807281 84.01953 
L 95.87588 126.208914 
L 96.71277 134.306595 
L 97.549661 140.615941 
L 98.386551 145.452893 
L 99.223441 149.153746 
L 100.060332 152.005758 
L 100.897222 154.230337 
L 102.013076 156.494472 
L 103.12893 158.19208 
L 104.244784 159.494519 
L 105.639602 160.734609 
L 107.034419 161.67309 
L 108.7082 162.525627 
L 110.660944 163.26293 
L 113.171616 163.943943 
L 116.240214 164.519659 
L 120.145703 165.008701 
L 125.446009 165.427566 
L 132.978023 165.774191 
L 144.136562 166.044116 
L 162.827116 166.247994 
L 199.092369 166.386278 
L 267.717386 166.454993 
L 267.717386 166.454993 
" style="fill:none;stroke:#008000;stroke-dasharray:3.7,1.6;stroke-dashoffset:0;"/>
   </g>
   <g id="line2d_12">
    <path clip-path="url(#p693010480b)" d="M -1 166.479536 
L 69.953628 166.347584 
L 82.785948 166.130256 
L 88.365218 165.843051 
L 91.71278 165.45848 
L 93.665524 165.030493 
L 95.060342 164.490597 
L 95.897232 163.955734 
L 96.734123 163.097414 
L 97.29205 162.214243 
L 97.849976 160.933016 
L 98.407903 159.06595 
L 98.96583 156.363576 
L 99.523757 152.517231 
L 100.081684 147.178442 
L 100.639611 140.001443 
L 101.476502 125.228745 
L 102.313392 105.58368 
L 105.103027 33.952794 
L 105.660954 27.39012 
L 105.939918 25.957951 
L 106.218881 25.826229 
L 106.497844 26.998811 
L 106.776808 29.44144 
L 107.334735 37.821163 
L 108.171625 57.191149 
L 110.682297 124.057767 
L 111.519187 139.165643 
L 112.356078 149.512425 
L 112.914005 154.212312 
L 113.471932 157.561548 
L 114.029859 159.896403 
L 114.587786 161.503118 
L 115.145712 162.606124 
L 115.982603 163.662843 
L 116.819493 164.303625 
L 117.935347 164.829467 
L 119.330165 165.231735 
L 121.561873 165.612107 
L 124.909434 165.91965 
L 130.209741 166.15451 
L 139.973463 166.326424 
L 161.453651 166.433399 
L 232.589339 166.484265 
L 243.747879 166.486128 
L 243.747879 166.486128 
" style="fill:none;stroke:#008000;stroke-dasharray:3.7,1.6;stroke-dashoffset:0;"/>
   </g>
   <g id="line2d_13">
    <path clip-path="url(#p693010480b)" d="M 22.956223 166.483881 
L 86.280934 166.355766 
L 96.044656 166.144345 
L 100.229108 165.867194 
L 102.739779 165.501429 
L 104.41356 165.034911 
L 105.529414 164.496361 
L 106.366304 163.840318 
L 106.924231 163.174062 
L 107.482158 162.179174 
L 108.040085 160.620799 
L 108.598012 158.10936 
L 109.155939 154.071721 
L 109.713866 147.814195 
L 110.271793 138.758401 
L 111.108684 120.109321 
L 112.224538 93.874877 
L 112.782465 86.221529 
L 113.061428 84.839958 
L 113.340392 85.263685 
L 113.619355 87.461441 
L 114.177282 96.430392 
L 115.293136 123.312407 
L 116.130026 141.138924 
L 116.687953 149.509808 
L 117.24588 155.187219 
L 117.803807 158.80846 
L 118.361734 161.052727 
L 118.919661 162.451155 
L 119.477588 163.352889 
L 120.314479 164.199456 
L 121.151369 164.726164 
L 122.267223 165.176567 
L 123.941004 165.580492 
L 126.451675 165.9069 
L 130.357164 166.14978 
L 137.331251 166.3228 
L 152.674243 166.431767 
L 202.88767 166.483763 
L 203.166633 166.48384 
L 203.166633 166.48384 
" style="fill:none;stroke:#008000;stroke-dasharray:3.7,1.6;stroke-dashoffset:0;"/>
   </g>
   <g id="line2d_14">
    <path clip-path="url(#p693010480b)" d="M 58.688185 166.495326 
L 122.849786 166.388779 
L 125.360458 166.196974 
L 126.476311 165.89412 
L 127.313202 165.37577 
L 128.150092 164.518256 
L 128.986983 163.691989 
L 129.54491 163.529122 
L 130.102837 163.799427 
L 131.218691 164.986569 
L 132.055581 165.681304 
L 132.892472 166.045042 
L 134.008326 166.255209 
L 136.240033 166.393519 
L 142.37723 166.468803 
L 175.015958 166.494048 
L 200.122671 166.495322 
L 200.122671 166.495322 
" style="fill:none;stroke:#008000;stroke-dasharray:3.7,1.6;stroke-dashoffset:0;"/>
   </g>
   <g id="line2d_15">
    <path clip-path="url(#p693010480b)" d="M 36.817315 166.493901 
L 124.132885 166.380866 
L 129.433192 166.19302 
L 131.385936 165.956581 
L 132.50179 165.621411 
L 133.33868 165.086273 
L 133.896607 164.457713 
L 134.454534 163.479567 
L 135.012461 162.020326 
L 135.570388 159.971748 
L 136.407279 155.777942 
L 138.08106 146.527558 
L 138.638987 144.896766 
L 138.91795 144.597129 
L 139.196914 144.669466 
L 139.475877 145.109802 
L 140.033804 146.980847 
L 140.870694 151.457516 
L 142.265512 159.218766 
L 143.102402 162.346196 
L 143.660329 163.702407 
L 144.218256 164.602691 
L 144.776183 165.177916 
L 145.613074 165.667456 
L 146.728928 165.977231 
L 148.681672 166.200845 
L 152.587161 166.356488 
L 162.071919 166.449701 
L 199.174063 166.489505 
L 241.018585 166.493893 
L 241.018585 166.493893 
" style="fill:none;stroke:#008000;stroke-dasharray:3.7,1.6;stroke-dashoffset:0;"/>
   </g>
   <g id="line2d_16">
    <path clip-path="url(#p693010480b)" d="M 54.825103 166.427724 
L 101.690968 166.254138 
L 117.87085 165.995272 
L 126.239754 165.655829 
L 131.261097 165.251684 
L 134.608659 164.790866 
L 137.11933 164.247576 
L 139.072075 163.614116 
L 140.466892 162.971856 
L 141.86171 162.069846 
L 142.977563 161.048169 
L 143.814454 160.008397 
L 144.651344 158.6181 
L 145.488235 156.717842 
L 146.325125 154.080794 
L 147.162016 150.405391 
L 147.998906 145.330521 
L 148.835797 138.491092 
L 149.672687 129.626638 
L 150.788541 114.714353 
L 153.578176 73.695446 
L 154.136103 68.263189 
L 154.69403 64.804338 
L 154.972993 63.904654 
L 155.251957 63.585536 
L 155.53092 63.853349 
L 155.809884 64.702752 
L 156.367811 68.067975 
L 156.925738 73.421425 
L 157.762628 84.287847 
L 161.11019 132.543953 
L 161.94708 140.777133 
L 162.783971 147.044805 
L 163.620861 151.653962 
L 164.457752 154.977428 
L 165.294642 157.361884 
L 166.131533 159.0864 
L 166.968423 160.355922 
L 168.084277 161.579111 
L 169.200131 162.454169 
L 170.594948 163.241871 
L 172.268729 163.907701 
L 174.500437 164.512406 
L 177.290072 165.006717 
L 180.916597 165.412081 
L 186.216903 165.759686 
L 194.306845 166.037308 
L 207.697092 166.243409 
L 233.640696 166.383574 
L 274.090401 166.447314 
L 274.090401 166.447314 
" style="fill:none;stroke:#008000;stroke-dasharray:3.7,1.6;stroke-dashoffset:0;"/>
   </g>
   <g id="line2d_17">
    <path clip-path="url(#p693010480b)" d="M 61.635419 166.496217 
L 157.598857 166.421974 
L 158.435748 166.215751 
L 158.993675 165.86237 
L 159.551602 165.148442 
L 160.109529 163.803506 
L 160.667456 161.44448 
L 161.225383 157.599102 
L 161.783309 151.788151 
L 162.341236 143.675513 
L 163.178127 127.337303 
L 164.851908 91.372329 
L 165.409835 84.28043 
L 165.688798 82.510663 
L 165.967762 82.053715 
L 166.246725 82.931161 
L 166.525689 85.101642 
L 167.083616 92.865569 
L 167.920506 110.254381 
L 169.315324 140.36071 
L 170.152214 152.85454 
L 170.710141 158.326443 
L 171.268068 161.903633 
L 171.825995 164.072536 
L 172.383922 165.295055 
L 172.941849 165.936806 
L 173.499776 166.251008 
L 174.336666 166.432096 
L 176.289411 166.493442 
L 218.970824 166.496185 
L 270.021141 166.496217 
L 270.021141 166.496217 
" style="fill:none;stroke:#008000;stroke-dasharray:3.7,1.6;stroke-dashoffset:0;"/>
   </g>
   <g id="line2d_18">
    <path clip-path="url(#p693010480b)" d="M 50.870366 166.491064 
L 147.949658 166.373912 
L 157.434417 166.173596 
L 161.339905 165.900442 
L 163.29265 165.593215 
L 164.687467 165.162517 
L 165.524358 164.700094 
L 166.361248 163.918249 
L 166.919175 163.095026 
L 167.477102 161.901931 
L 168.035029 160.200247 
L 168.592956 157.842563 
L 169.150883 154.705435 
L 169.987773 148.458704 
L 172.498445 126.835084 
L 173.056372 124.681739 
L 173.335335 124.321051 
L 173.614299 124.462599 
L 173.893262 125.100867 
L 174.451189 127.751221 
L 175.009116 131.881529 
L 177.798751 155.671431 
L 178.635641 159.745518 
L 179.193568 161.578311 
L 179.751495 162.870143 
L 180.309422 163.763563 
L 181.146313 164.610773 
L 181.983203 165.10827 
L 183.099057 165.496708 
L 184.772838 165.815807 
L 187.562473 166.07927 
L 192.304852 166.270424 
L 202.068574 166.400351 
L 229.128032 166.471178 
L 289 166.490426 
L 289 166.490426 
" style="fill:none;stroke:#008000;stroke-dasharray:3.7,1.6;stroke-dashoffset:0;"/>
   </g>
   <g id="line2d_19">
    <path clip-path="url(#p693010480b)" d="M 58.692373 166.491124 
L 156.329593 166.372964 
L 165.814351 166.171596 
L 169.71984 165.903553 
L 171.951548 165.559841 
L 173.346365 165.1554 
L 174.462219 164.594117 
L 175.29911 163.904913 
L 176.136 162.817174 
L 176.693927 161.766537 
L 177.530817 159.544596 
L 178.367708 156.475361 
L 180.599416 147.42151 
L 181.157343 146.408862 
L 181.436306 146.26164 
L 181.71527 146.366237 
L 181.994233 146.717949 
L 182.55216 148.090429 
L 183.389051 151.34102 
L 185.062832 158.445025 
L 185.899722 160.999559 
L 186.736612 162.739446 
L 187.573503 163.855755 
L 188.410393 164.562718 
L 189.526247 165.13708 
L 190.921065 165.549408 
L 192.873809 165.866785 
L 195.942407 166.115151 
L 201.521677 166.30139 
L 213.238143 166.419506 
L 248.666506 166.479178 
L 289 166.489576 
L 289 166.489576 
" style="fill:none;stroke:#008000;stroke-dasharray:3.7,1.6;stroke-dashoffset:0;"/>
   </g>
   <g id="line2d_20">
    <path clip-path="url(#p693010480b)" d="M 89.269907 166.49134 
L 178.538222 166.373786 
L 186.907126 166.177904 
L 190.533652 165.898901 
L 192.486396 165.552634 
L 193.60225 165.185882 
L 194.43914 164.736025 
L 195.276031 164.002249 
L 195.833958 163.251966 
L 196.391885 162.191138 
L 196.949812 160.721364 
L 197.507739 158.762923 
L 198.344629 154.903284 
L 200.01841 146.422385 
L 200.576337 144.79309 
L 200.8553 144.419104 
L 201.134264 144.369711 
L 201.413227 144.647491 
L 201.692191 145.238003 
L 202.250118 147.223734 
L 203.087008 151.455735 
L 204.202862 157.215423 
L 205.039753 160.459792 
L 205.876643 162.603744 
L 206.713534 163.905658 
L 207.550424 164.678132 
L 208.387315 165.149461 
L 209.503168 165.531093 
L 211.176949 165.851395 
L 213.966584 166.112898 
L 218.708963 166.295792 
L 228.751649 166.415972 
L 258.600742 166.477769 
L 289 166.488333 
L 289 166.488333 
" style="fill:none;stroke:#008000;stroke-dasharray:3.7,1.6;stroke-dashoffset:0;"/>
   </g>
   <g id="line2d_21">
    <path clip-path="url(#p693010480b)" d="M 104.524709 166.49572 
L 207.462234 166.388506 
L 208.857052 166.207541 
L 209.693942 165.840563 
L 210.251869 165.328339 
L 210.809796 164.435776 
L 211.367723 162.961357 
L 211.92565 160.664046 
L 212.483577 157.301488 
L 213.041504 152.696394 
L 213.878394 143.465339 
L 215.831139 118.872601 
L 216.389066 114.639244 
L 216.668029 113.482277 
L 216.946993 113.036219 
L 217.225956 113.319358 
L 217.50492 114.320073 
L 218.062847 118.284923 
L 218.620774 124.316645 
L 221.131445 154.636378 
L 221.689372 158.746061 
L 222.247299 161.668992 
L 222.805226 163.617206 
L 223.363153 164.838917 
L 223.92108 165.562835 
L 224.479007 165.970485 
L 225.315897 166.25765 
L 226.710715 166.398908 
L 231.17413 166.461338 
L 257.954625 166.492373 
L 289 166.494988 
L 289 166.494988 
" style="fill:none;stroke:#008000;stroke-dasharray:3.7,1.6;stroke-dashoffset:0;"/>
   </g>
   <g id="line2d_22">
    <path clip-path="url(#p693010480b)" d="M 102.690041 166.493408 
L 208.975129 166.379471 
L 216.507143 166.184245 
L 219.575741 165.924706 
L 221.249522 165.615547 
L 222.365376 165.247192 
L 223.48123 164.620015 
L 224.31812 163.872143 
L 225.155011 162.805944 
L 226.270865 160.927086 
L 227.386719 159.021396 
L 227.944646 158.358492 
L 228.502573 158.045904 
L 229.0605 158.14053 
L 229.618427 158.624895 
L 230.455317 159.881914 
L 232.408061 163.1678 
L 233.244952 164.132057 
L 234.081842 164.795428 
L 235.197696 165.349155 
L 236.592514 165.737293 
L 238.545258 166.018798 
L 241.89282 166.234826 
L 248.30898 166.379194 
L 264.488862 166.461286 
L 289 166.483932 
L 289 166.483932 
" style="fill:none;stroke:#008000;stroke-dasharray:3.7,1.6;stroke-dashoffset:0;"/>
   </g>
   <g id="line2d_23">
    <path clip-path="url(#p693010480b)" d="M 92.062207 166.48654 
L 200.300038 166.362925 
L 215.085103 166.156977 
L 221.501263 165.874155 
L 225.127788 165.515093 
L 227.359496 165.100762 
L 229.033277 164.564506 
L 230.149131 163.981615 
L 230.986022 163.320358 
L 231.822912 162.328697 
L 232.380839 161.38446 
L 232.938766 160.114863 
L 233.496693 158.411124 
L 234.05462 156.147167 
L 234.612547 153.190738 
L 235.449437 147.208859 
L 236.286328 139.225421 
L 237.402182 126.049794 
L 238.796999 109.342399 
L 239.354926 104.227166 
L 239.912853 100.784305 
L 240.191817 99.808957 
L 240.47078 99.370432 
L 240.749743 99.480658 
L 241.028707 100.13663 
L 241.30767 101.320556 
L 241.865597 105.132837 
L 242.702488 113.657106 
L 245.492123 145.77369 
L 246.329013 152.151774 
L 247.165904 156.652219 
L 248.002794 159.655482 
L 248.839685 161.596665 
L 249.676575 162.844014 
L 250.513465 163.660837 
L 251.629319 164.361669 
L 253.024137 164.902859 
L 254.976881 165.356769 
L 257.766516 165.723279 
L 261.950968 166.009021 
L 268.925055 166.224487 
L 274.225362 166.304699 
L 274.225362 166.304699 
" style="fill:none;stroke:#008000;stroke-dasharray:3.7,1.6;stroke-dashoffset:0;"/>
   </g>
   <g id="line2d_24">
    <path clip-path="url(#p693010480b)" d="M 113.559626 166.486188 
L 224.308129 166.36123 
L 239.930084 166.150654 
L 246.904171 165.853811 
L 250.80966 165.486905 
L 253.320331 165.060374 
L 255.273076 164.516892 
L 256.667893 163.924895 
L 257.783747 163.250518 
L 258.899601 162.299712 
L 259.736491 161.321688 
L 260.573382 160.027514 
L 261.410272 158.326296 
L 262.247163 156.15706 
L 265.036798 148.222644 
L 265.594725 147.724312 
L 265.873688 147.74079 
L 266.152651 147.936125 
L 266.710578 148.819658 
L 267.268505 150.223165 
L 270.337104 159.050739 
L 271.173994 160.5812 
L 272.010885 161.739979 
L 273.126739 162.859961 
L 273.963629 163.473668 
L 273.963629 163.473668 
" style="fill:none;stroke:#008000;stroke-dasharray:3.7,1.6;stroke-dashoffset:0;"/>
   </g>
   <g id="line2d_25">
    <path clip-path="url(#p693010480b)" d="M 113.559626 166.486188 
L 224.308129 166.36123 
L 239.930084 166.150654 
L 246.904171 165.853811 
L 250.80966 165.486905 
L 253.320331 165.060374 
L 255.273076 164.516892 
L 256.667893 163.924895 
L 257.783747 163.250518 
L 258.899601 162.299712 
L 259.736491 161.321688 
L 260.573382 160.027514 
L 261.410272 158.326296 
L 262.247163 156.15706 
L 265.036798 148.222644 
L 265.594725 147.724312 
L 265.873688 147.74079 
L 266.152651 147.936125 
L 266.710578 148.819658 
L 267.268505 150.223165 
L 270.337104 159.050739 
L 271.173994 160.5812 
L 272.010885 161.739979 
L 273.126739 162.859961 
L 273.963629 163.473668 
L 273.963629 163.473668 
" style="fill:none;stroke:#008000;stroke-dasharray:3.7,1.6;stroke-dashoffset:0;"/>
   </g>
   <g id="line2d_26">
    <path clip-path="url(#p693010480b)" d="M 55.024436 58.880067 
L 56.362066 34.21803 
L 57.699417 58.431666 
L 59.037605 118.965757 
L 60.375235 150.196863 
L 61.712586 159.389077 
L 63.0491 156.093332 
L 64.386451 147.618559 
L 65.723244 130.624174 
L 67.060595 104.392735 
L 68.397109 87.129309 
L 71.070416 57.310665 
L 72.406093 53.723459 
L 73.742607 81.3001 
L 75.078284 83.093703 
L 76.414241 78.161296 
L 77.749918 75.695092 
L 80.421272 118.293156 
L 81.757228 126.588568 
L 83.092068 131.969376 
L 84.426909 133.762979 
L 85.761749 119.862558 
L 88.431429 75.470892 
L 89.76627 64.709276 
L 91.100552 77.937095 
L 92.434555 88.922912 
L 93.769396 92.734318 
L 95.103399 90.716515 
L 96.436566 109.325142 
L 97.770569 134.211379 
L 99.104572 139.816388 
L 100.437739 127.036969 
L 101.770905 105.513737 
L 103.104072 73.677289 
L 104.437238 37.805235 
L 105.770405 14.04 
L 107.103571 27.940421 
L 108.435901 75.470892 
L 111.101676 78.609696 
L 112.43289 66.727079 
L 113.765219 74.34989 
L 116.429042 140.040588 
L 117.761371 154.72571 
L 119.092864 158.043875 
L 120.424357 160.016838 
L 123.087342 164.964939 
L 124.417998 165.879677 
L 127.080146 163.021122 
L 128.410802 162.191581 
L 129.741458 160.891219 
L 131.072114 162.281261 
L 132.401933 164.231804 
L 133.73231 162.505462 
L 135.062129 157.685155 
L 136.391948 150.847044 
L 137.721766 143.403593 
L 139.051585 141.38579 
L 140.381404 146.945958 
L 141.710107 153.111468 
L 143.039089 155.913972 
L 144.368908 154.88265 
L 145.69789 150.107183 
L 147.026036 146.811438 
L 148.354739 140.713189 
L 151.011866 121.20776 
L 152.340011 101.702331 
L 153.667877 77.712895 
L 154.996022 64.036675 
L 156.324167 61.346271 
L 158.979342 120.086758 
L 160.307487 125.915967 
L 161.634795 126.812768 
L 162.961825 112.015546 
L 164.288296 87.353509 
L 165.615604 70.762685 
L 166.942633 74.57409 
L 168.269105 105.289536 
L 169.595576 128.15797 
L 170.921769 129.054772 
L 172.24824 122.777162 
L 173.574711 120.759359 
L 174.900067 125.691767 
L 176.226538 138.246985 
L 177.551894 145.398976 
L 178.877528 146.049157 
L 180.203163 144.390075 
L 181.528518 141.834191 
L 182.853316 145.780117 
L 184.178671 153.671969 
L 185.503469 160.196198 
L 186.827987 161.2051 
L 188.152785 162.909022 
L 189.477583 165.341596 
L 190.801264 165.375226 
L 192.126062 165.532166 
L 193.449744 166.101635 
L 196.097386 161.855281 
L 200.067873 146.766598 
L 201.391834 143.627794 
L 202.714679 148.403261 
L 204.037803 156.474473 
L 205.360648 161.29478 
L 206.682934 162.483042 
L 208.005779 163.895504 
L 209.327787 163.469523 
L 210.650911 161.33962 
L 211.972919 155.936392 
L 213.295206 148.605041 
L 215.938385 120.310959 
L 217.259835 111.567146 
L 218.581843 121.880361 
L 219.903014 141.834191 
L 221.224464 157.169494 
L 222.544798 161.788021 
L 223.865969 162.303681 
L 225.187419 159.994418 
L 227.828088 156.250272 
L 229.148422 154.83781 
L 230.469035 155.600091 
L 231.789369 158.133555 
L 233.108866 156.855613 
L 234.428364 153.402928 
L 235.748977 142.955193 
L 237.068474 127.93377 
L 238.387134 109.773543 
L 239.706632 100.80553 
L 241.026408 109.549343 
L 242.345068 128.382171 
L 243.663729 137.125984 
L 244.982389 139.816388 
L 246.30105 141.834191 
L 247.61971 150.869464 
L 248.937533 160.689439 
L 250.256473 164.801273 
L 251.574296 164.541201 
L 252.89212 164.406681 
L 254.209943 164.030024 
L 256.844753 162.684822 
L 258.162577 161.698341 
L 260.79655 158.895836 
L 263.430802 154.299729 
L 264.747789 148.358421 
L 266.063939 147.551299 
L 268.696238 157.886935 
L 270.012388 158.492276 
L 271.328537 154.77055 
L 272.644687 152.192246 
L 273.96 146.676918 
L 273.96 146.676918 
" style="fill:none;stroke:#ff0000;stroke-linecap:square;stroke-width:1.5;"/>
   </g>
   <g id="line2d_27">
    <path clip-path="url(#p693010480b)" d="M 55.024436 58.384405 
L 55.666052 40.899652 
L 56.056601 35.09176 
L 56.307668 33.69295 
L 56.391357 33.650406 
L 56.419254 33.683524 
L 56.558736 34.202295 
L 56.781906 36.234617 
L 57.116663 41.885042 
L 57.5909 54.361889 
L 58.427791 83.611248 
L 59.543645 120.696417 
L 60.213157 135.976673 
L 60.771084 144.173584 
L 61.273218 148.578971 
L 61.691664 150.579612 
L 62.054316 151.378513 
L 62.33328 151.53026 
L 62.584347 151.385773 
L 62.891207 150.904027 
L 63.309652 149.783237 
L 63.839683 147.671548 
L 64.453402 144.242553 
L 65.095018 139.342717 
L 65.764531 132.468347 
L 66.489836 122.627682 
L 67.354622 107.596956 
L 69.725812 64.156011 
L 70.20005 59.810426 
L 70.534806 58.300264 
L 70.757977 58.02585 
L 70.897459 58.144426 
L 71.092733 58.668235 
L 71.399593 60.26534 
L 71.845934 63.97194 
L 72.710721 73.546776 
L 73.547612 81.810432 
L 74.049746 84.776406 
L 74.384502 85.700823 
L 74.607673 85.855737 
L 74.802947 85.713731 
L 75.081911 85.124884 
L 75.528252 83.521099 
L 76.448832 80.133651 
L 76.727795 79.76777 
L 76.895174 79.801838 
L 77.090448 80.113493 
L 77.369411 81.102672 
L 77.732064 83.366961 
L 78.234198 88.183743 
L 78.9874 97.951486 
L 80.521699 118.081958 
L 81.219108 124.279277 
L 81.777035 127.50987 
L 82.251272 129.115506 
L 82.613925 129.693035 
L 82.892888 129.779824 
L 83.143956 129.605136 
L 83.450815 129.078435 
L 83.841364 127.924658 
L 84.343499 125.661549 
L 84.929322 121.918675 
L 85.626731 115.917711 
L 86.463621 106.609646 
L 87.663164 90.363557 
L 89.085878 71.71038 
L 89.727494 65.941829 
L 90.173835 63.556676 
L 90.508592 62.776446 
L 90.703866 62.739342 
L 90.89914 63.012879 
L 91.150208 63.8159 
L 91.51286 65.838087 
L 91.987098 69.878951 
L 92.65661 77.730575 
L 93.856153 95.030479 
L 95.278867 114.582423 
L 96.199447 124.343755 
L 96.980544 130.415359 
L 97.62216 133.81738 
L 98.124295 135.423505 
L 98.486947 135.956672 
L 98.738014 135.990586 
L 98.961185 135.772754 
L 99.240149 135.147739 
L 99.602801 133.697274 
L 100.021246 131.031647 
L 100.523381 126.266786 
L 101.109204 118.330863 
L 101.778716 105.990166 
L 102.615607 86.138025 
L 105.014693 26.236975 
L 105.516827 19.624596 
L 105.87948 17.202404 
L 106.10265 16.75755 
L 106.214236 16.83748 
L 106.381614 17.332859 
L 106.632681 18.902984 
L 106.995333 22.824012 
L 107.497468 31.036747 
L 108.306462 48.669889 
L 109.506005 74.151857 
L 110.036035 80.976049 
L 110.398688 83.215721 
L 110.621859 83.56575 
L 110.761341 83.402271 
L 110.956615 82.717249 
L 111.263475 80.725786 
L 111.877194 74.882984 
L 112.463018 70.176503 
L 112.741981 69.3197 
L 112.853567 69.331634 
L 112.993048 69.662744 
L 113.216219 70.962512 
L 113.523079 74.328697 
L 113.941524 81.662416 
L 114.611037 98.061811 
L 116.03375 133.52207 
L 116.703263 144.431274 
L 117.289086 150.659912 
L 117.847013 154.451424 
L 118.40494 156.860097 
L 118.990763 158.478542 
L 119.632379 159.63339 
L 120.385581 160.532729 
L 121.278264 161.248016 
L 122.366221 161.82873 
L 123.649453 162.260736 
L 125.016375 162.490231 
L 126.076436 162.460342 
L 126.829637 162.229277 
L 127.49915 161.780853 
L 128.391833 160.858357 
L 129.117138 160.237209 
L 129.535583 160.140521 
L 129.954028 160.282117 
L 130.511955 160.746328 
L 131.683602 161.76544 
L 132.269425 161.958521 
L 132.799456 161.909642 
L 133.329486 161.638404 
L 133.859517 161.101973 
L 134.389548 160.220559 
L 134.947475 158.807727 
L 135.533298 156.674627 
L 136.230707 153.229735 
L 138.490311 141.211789 
L 138.852963 140.532937 
L 139.10403 140.42027 
L 139.327201 140.56821 
L 139.606165 141.068089 
L 139.996714 142.291661 
L 140.582537 144.970049 
L 142.3958 153.769747 
L 142.981623 155.391141 
L 143.455861 156.135901 
L 143.84641 156.401438 
L 144.209062 156.397667 
L 144.599611 156.15267 
L 145.045953 155.594676 
L 145.60388 154.502931 
L 146.217599 152.784526 
L 146.887112 150.214923 
L 147.58452 146.616541 
L 148.309825 141.668186 
L 149.090923 134.728955 
L 149.95571 124.9309 
L 151.015771 110.139516 
L 153.693821 71.29559 
L 154.335437 65.655887 
L 154.809675 63.232938 
L 155.144431 62.508014 
L 155.339705 62.473491 
L 155.53498 62.726072 
L 155.813943 63.579237 
L 156.176596 65.52576 
L 156.650834 69.391336 
L 157.29245 76.623547 
L 158.296718 90.9061 
L 159.942603 114.152017 
L 160.612115 120.542598 
L 161.058457 123.006883 
L 161.365317 123.688581 
L 161.532695 123.679188 
L 161.700073 123.387819 
L 161.95114 122.407055 
L 162.285896 120.070723 
L 162.732238 115.180898 
L 163.345957 105.645366 
L 165.215013 74.448123 
L 165.605561 71.731123 
L 165.856629 71.204583 
L 165.968214 71.290743 
L 166.135592 71.790355 
L 166.386659 73.355513 
L 166.749312 77.222114 
L 167.279342 85.637877 
L 169.51105 124.536063 
L 169.957392 127.892172 
L 170.292148 129.105788 
L 170.543215 129.354634 
L 170.710593 129.243396 
L 170.96166 128.722034 
L 171.352209 127.263942 
L 173.02599 120.139622 
L 173.304954 119.871219 
L 173.500228 119.939165 
L 173.723399 120.282214 
L 174.030259 121.20984 
L 174.448704 123.260121 
L 175.062424 127.549839 
L 177.182546 143.521716 
L 177.712577 145.619844 
L 178.131022 146.497699 
L 178.437882 146.731257 
L 178.716845 146.677456 
L 179.051601 146.33555 
L 179.553736 145.43155 
L 180.753279 143.151809 
L 181.115931 142.895221 
L 181.394895 142.928941 
L 181.701754 143.219369 
L 182.064407 143.907258 
L 182.538645 145.322673 
L 183.236054 148.191206 
L 185.356176 157.380664 
L 186.137274 159.603474 
L 186.862579 161.039656 
L 187.587884 162.014578 
L 188.368982 162.708448 
L 189.289561 163.222582 
L 190.377519 163.568778 
L 191.632855 163.735795 
L 192.88819 163.685731 
L 193.920355 163.432523 
L 194.729349 163.012046 
L 195.398862 162.416226 
L 196.012581 161.563187 
L 196.598405 160.359258 
L 197.212124 158.568597 
L 197.909533 155.786344 
L 198.885905 150.809596 
L 200.001759 145.345698 
L 200.53179 143.761552 
L 200.894442 143.284534 
L 201.145509 143.274553 
L 201.396576 143.528906 
L 201.731333 144.259701 
L 202.177674 145.839367 
L 202.875083 149.245981 
L 204.548864 157.645358 
L 205.302065 160.191295 
L 205.971578 161.733421 
L 206.64109 162.754246 
L 207.338499 163.432556 
L 208.0917 163.867084 
L 208.844901 164.05869 
L 209.486518 164.00526 
L 210.016548 163.740658 
L 210.490786 163.248872 
L 210.965024 162.409262 
L 211.439262 161.090468 
L 211.941396 159.005744 
L 212.499323 155.652169 
L 213.113043 150.509585 
L 213.866244 142.140617 
L 216.209537 114.255537 
L 216.627983 112.106281 
L 216.906946 111.543251 
L 217.074324 111.553811 
L 217.269599 111.896647 
L 217.548562 112.988308 
L 217.939111 115.619521 
L 218.469142 120.889496 
L 219.417618 133.035692 
L 220.645057 148.027985 
L 221.370362 154.375199 
L 222.011978 158.160273 
L 222.569905 160.226943 
L 223.072039 161.304383 
L 223.518381 161.775392 
L 223.90893 161.891456 
L 224.327375 161.770242 
L 224.801613 161.384871 
L 225.415332 160.579013 
L 226.308016 158.994514 
L 227.786522 156.380181 
L 228.372345 155.783483 
L 228.846583 155.592407 
L 229.292925 155.651979 
L 229.822955 155.972822 
L 230.85512 156.954007 
L 231.552529 157.45908 
L 232.026767 157.552025 
L 232.417316 157.41258 
L 232.807865 157.037459 
L 233.254206 156.274043 
L 233.756341 154.923996 
L 234.314268 152.721857 
L 234.927987 149.326697 
L 235.625396 144.107356 
L 236.43439 136.234814 
L 237.606037 122.298891 
L 239.000854 106.266422 
L 239.64247 101.217283 
L 240.116708 99.043979 
L 240.423568 98.4435 
L 240.618842 98.404864 
L 240.814117 98.634767 
L 241.09308 99.42242 
L 241.455733 101.21946 
L 241.957867 105.002054 
L 242.655276 112.188706 
L 245.835459 147.652549 
L 246.616557 152.881535 
L 247.341862 156.345649 
L 248.039271 158.671378 
L 248.73668 160.266249 
L 249.461985 161.380314 
L 250.215186 162.141873 
L 251.079973 162.695046 
L 252.084242 163.064847 
L 253.255888 163.256996 
L 254.567017 163.248791 
L 255.878145 163.024758 
L 257.077688 162.601799 
L 258.137749 161.998216 
L 259.086225 161.204099 
L 259.951012 160.190771 
L 260.787902 158.858219 
L 261.624793 157.09126 
L 262.545372 154.601964 
L 264.916562 147.848676 
L 265.362903 147.295914 
L 265.69766 147.169233 
L 266.004519 147.280365 
L 266.367172 147.683576 
L 266.84141 148.604007 
L 267.538819 150.540283 
L 270.04949 157.990541 
L 270.970069 159.830812 
L 271.890649 161.193784 
L 272.867021 162.251359 
L 273.954979 163.101722 
L 273.954979 163.101722 
" style="fill:none;stroke:#0000ff;stroke-linecap:square;stroke-width:1.5;"/>
   </g>
   <g id="patch_3">
    <path d="M 55.024436 166.496228 
L 55.024436 14.04 
" style="fill:none;stroke:#000000;stroke-linecap:square;stroke-linejoin:miter;stroke-width:0.8;"/>
   </g>
   <g id="patch_4">
    <path d="M 273.96 166.496228 
L 273.96 14.04 
" style="fill:none;stroke:#000000;stroke-linecap:square;stroke-linejoin:miter;stroke-width:0.8;"/>
   </g>
   <g id="patch_5">
    <path d="M 55.024436 166.496228 
L 273.96 166.496228 
" style="fill:none;stroke:#000000;stroke-linecap:square;stroke-linejoin:miter;stroke-width:0.8;"/>
   </g>
   <g id="patch_6">
    <path d="M 55.024436 14.04 
L 273.96 14.04 
" style="fill:none;stroke:#000000;stroke-linecap:square;stroke-linejoin:miter;stroke-width:0.8;"/>
   </g>
  </g>
 </g>
 <defs>
  <clipPath id="p693010480b">
   <rect height="152.456228" width="218.935564" x="55.024436" y="14.04"/>
  </clipPath>
 </defs>
</svg>
