<?xml version="1.0" encoding="utf-8" standalone="no"?>
<!DOCTYPE svg PUBLIC "-//W3C//DTD SVG 1.1//EN"
  "http://www.w3.org/Graphics/SVG/1.1/DTD/svg11.dtd">
<!-- Created with matplotlib (https://matplotlib.org/) -->
<svg height="216pt" version="1.1" viewBox="0 0 288 216" width="288pt" xmlns="http://www.w3.org/2000/svg" xmlns:xlink="http://www.w3.org/1999/xlink">
 <metadata>
  <rdf:RDF xmlns:cc="http://creativecommons.org/ns#" xmlns:dc="http://purl.org/dc/elements/1.1/" xmlns:rdf="http://www.w3.org/1999/02/22-rdf-syntax-ns#">
   <cc:Work>
    <dc:type rdf:resource="http://purl.org/dc/dcmitype/StillImage"/>
    <dc:date>2021-03-23T22:55:23.495707</dc:date>
    <dc:format>image/svg+xml</dc:format>
    <dc:creator>
     <cc:Agent>
      <dc:title>Matplotlib v3.3.2, https://matplotlib.org/</dc:title>
     </cc:Agent>
    </dc:creator>
   </cc:Work>
  </rdf:RDF>
 </metadata>
 <defs>
  <style type="text/css">*{stroke-linecap:butt;stroke-linejoin:round;}</style>
 </defs>
 <g id="figure_1">
  <g id="patch_1">
   <path d="M 0 216 
L 288 216 
L 288 0 
L 0 0 
z
" style="fill:#ffffff;"/>
  </g>
  <g id="axes_1">
   <g id="patch_2">
    <path d="M 55.024436 166.496228 
L 273.96 166.496228 
L 273.96 14.04 
L 55.024436 14.04 
z
" style="fill:#ffffff;"/>
   </g>
   <g id="matplotlib.axis_1">
    <g id="xtick_1">
     <g id="line2d_1">
      <defs>
       <path d="M 0 0 
L 0 3.5 
" id="m547320b1d4" style="stroke:#000000;stroke-width:0.8;"/>
      </defs>
      <g>
       <use style="stroke:#000000;stroke-width:0.8;" x="106.96409" xlink:href="#m547320b1d4" y="166.496228"/>
      </g>
     </g>
     <g id="text_1">
      <!-- $\mathdefault{384}$ -->
      <g transform="translate(97.45298 182.490256)scale(0.13 -0.13)">
       <defs>
        <path d="M 22.09375 34 
C 31 34 34.90625 26.140625 34.90625 17.09375 
C 34.90625 5.03125 28.5 0.390625 22.703125 0.390625 
C 17.40625 0.390625 8.796875 3.015625 6.09375 10.796875 
C 6.59375 10.59375 7.09375 10.59375 7.59375 10.59375 
C 10 10.59375 11.796875 12.1875 11.796875 14.796875 
C 11.796875 17.6875 9.59375 19 7.59375 19 
C 5.90625 19 3.296875 18.1875 3.296875 14.484375 
C 3.296875 5.234375 12.296875 -2 22.90625 -2 
C 34 -2 42.5 6.75 42.5 16.984375 
C 42.5 26.84375 34.5 34 25 35.09375 
C 32.59375 36.671875 39.90625 43.375 39.90625 52.390625 
C 39.90625 60.25 32 66 23 66 
C 13.90625 66 5.90625 60.34375 5.90625 52.296875 
C 5.90625 48.796875 8.5 48.1875 9.796875 48.1875 
C 11.90625 48.1875 13.703125 49.484375 13.703125 52.09375 
C 13.703125 54.6875 11.90625 56 9.796875 56 
C 9.40625 56 8.90625 56 8.5 55.796875 
C 11.40625 62.484375 19.296875 63.6875 22.796875 63.6875 
C 26.296875 63.6875 32.90625 61.96875 32.90625 52.296875 
C 32.90625 49.484375 32.5 44.546875 29.09375 40.21875 
C 26.09375 36.390625 22.703125 36.1875 19.40625 35.890625 
C 18.90625 35.890625 16.59375 35.6875 16.203125 35.6875 
C 15.5 35.59375 15.09375 35.5 15.09375 34.796875 
C 15.09375 34.09375 15.203125 34 17.203125 34 
z
" id="CMR17-51"/>
        <path d="M 27.203125 35.765625 
C 33.5 38.96875 39.90625 43.796875 39.90625 51.53125 
C 39.90625 60.6875 31.09375 66 23 66 
C 13.90625 66 5.90625 59.375 5.90625 50.234375 
C 5.90625 47.71875 6.5 43.390625 10.40625 39.578125 
C 11.40625 38.578125 15.59375 35.5625 18.296875 33.65625 
C 13.796875 31.34375 3.296875 25.8125 3.296875 14.765625 
C 3.296875 4.40625 13.09375 -2 22.796875 -2 
C 33.5 -2 42.5 5.71875 42.5 15.96875 
C 42.5 25.109375 36.40625 29.328125 32.40625 32.046875 
z
M 14.09375 44.609375 
C 13.296875 45.109375 9.296875 48.21875 9.296875 52.9375 
C 9.296875 59.078125 15.59375 63.6875 22.796875 63.6875 
C 30.703125 63.6875 36.5 58.0625 36.5 51.53125 
C 36.5 42.1875 26.09375 36.859375 25.59375 36.859375 
C 25.5 36.859375 25.40625 36.859375 24.59375 37.46875 
z
M 32.5 24 
C 34 22.90625 38.796875 19.578125 38.796875 13.453125 
C 38.796875 6.015625 31.40625 0.390625 23 0.390625 
C 13.90625 0.390625 7 6.921875 7 14.859375 
C 7 22.796875 13.09375 29.4375 20 32.546875 
z
" id="CMR17-56"/>
        <path d="M 33.59375 64.796875 
C 33.59375 66.890625 33.5 67 31.703125 67 
L 2 19.59375 
L 2 17 
L 27.796875 17 
L 27.796875 7.1875 
C 27.796875 3.59375 27.59375 2.59375 20.59375 2.59375 
L 18.703125 2.59375 
L 18.703125 0 
C 21.90625 0.1875 27.296875 0.1875 30.703125 0.1875 
C 34.09375 0.1875 39.5 0.1875 42.703125 0 
L 42.703125 2.59375 
L 40.796875 2.59375 
C 33.796875 2.59375 33.59375 3.59375 33.59375 7.1875 
L 33.59375 17 
L 43.796875 17 
L 43.796875 19.59375 
L 33.59375 19.59375 
z
M 28.09375 58.171875 
L 28.09375 19.59375 
L 4 19.59375 
z
" id="CMR17-52"/>
       </defs>
       <use transform="scale(0.996264)" xlink:href="#CMR17-51"/>
       <use transform="translate(45.690477 0)scale(0.996264)" xlink:href="#CMR17-56"/>
       <use transform="translate(91.380954 0)scale(0.996264)" xlink:href="#CMR17-52"/>
      </g>
     </g>
    </g>
    <g id="xtick_2">
     <g id="line2d_2">
      <g>
       <use style="stroke:#000000;stroke-width:0.8;" x="162.756786" xlink:href="#m547320b1d4" y="166.496228"/>
      </g>
     </g>
     <g id="text_2">
      <!-- $\mathdefault{386}$ -->
      <g transform="translate(153.245677 182.490256)scale(0.13 -0.13)">
       <defs>
        <path d="M 10.59375 34.34375 
C 10.59375 58 21.796875 63.6875 28.296875 63.6875 
C 30.40625 63.6875 35.5 63.265625 37.5 59.09375 
C 35.90625 59.09375 32.90625 59.09375 32.90625 55.59375 
C 32.90625 52.890625 35.09375 52 36.5 52 
C 37.40625 52 40.09375 52.390625 40.09375 55.796875 
C 40.09375 62.296875 35.09375 66 28.203125 66 
C 16.296875 66 3.796875 53.296875 3.796875 31.421875 
C 3.796875 4.015625 15.09375 -2 23.09375 -2 
C 32.796875 -2 42 6.734375 42 20.234375 
C 42 32.828125 33.90625 42 23.703125 42 
C 17.59375 42 13.09375 37.96875 10.59375 30.921875 
z
M 23.09375 0.390625 
C 10.796875 0.390625 10.796875 18.9375 10.796875 22.65625 
C 10.796875 29.90625 14.203125 40.390625 23.5 40.390625 
C 25.203125 40.390625 30.09375 40.390625 33.40625 33.4375 
C 35.203125 29.515625 35.203125 25.375 35.203125 20.34375 
C 35.203125 14.90625 35.203125 10.875 33.09375 6.84375 
C 30.90625 2.703125 27.703125 0.390625 23.09375 0.390625 
z
" id="CMR17-54"/>
       </defs>
       <use transform="scale(0.996264)" xlink:href="#CMR17-51"/>
       <use transform="translate(45.690477 0)scale(0.996264)" xlink:href="#CMR17-56"/>
       <use transform="translate(91.380954 0)scale(0.996264)" xlink:href="#CMR17-54"/>
      </g>
     </g>
    </g>
    <g id="xtick_3">
     <g id="line2d_3">
      <g>
       <use style="stroke:#000000;stroke-width:0.8;" x="218.549483" xlink:href="#m547320b1d4" y="166.496228"/>
      </g>
     </g>
     <g id="text_3">
      <!-- $\mathdefault{388}$ -->
      <g transform="translate(209.038374 182.490256)scale(0.13 -0.13)">
       <use transform="scale(0.996264)" xlink:href="#CMR17-51"/>
       <use transform="translate(45.690477 0)scale(0.996264)" xlink:href="#CMR17-56"/>
       <use transform="translate(91.380954 0)scale(0.996264)" xlink:href="#CMR17-56"/>
      </g>
     </g>
    </g>
    <g id="text_4">
     <!-- Wavelength (nm) -->
     <g transform="translate(116.410539 198.722142)scale(0.13 -0.13)">
      <defs>
       <path d="M 86.296875 58.984375 
C 87.203125 61.6875 88.703125 65.203125 94.5 65.390625 
L 94.5 68 
C 92.796875 67.890625 89.296875 67.796875 87.5 67.796875 
C 85 67.796875 80.59375 67.796875 78.203125 68 
L 78.203125 65.390625 
C 82.703125 65.296875 84.59375 62.796875 84.59375 60.390625 
C 84.59375 59.6875 84.5 59.28125 84.09375 58.1875 
L 68.59375 8.703125 
L 52.296875 60.78125 
C 52 61.796875 51.90625 62.1875 51.90625 62.59375 
C 51.90625 65.390625 56.296875 65.390625 58.203125 65.390625 
L 58.203125 68 
C 55.296875 67.796875 50.296875 67.796875 47.203125 67.796875 
C 44.703125 67.796875 40.203125 67.796875 37.90625 68 
L 37.90625 65.390625 
C 42.5 65.390625 43.703125 65.09375 44.703125 63.296875 
C 45.09375 62.390625 46.703125 57.1875 46.703125 56.875 
C 46.703125 56.484375 46.5 55.875 46.40625 55.578125 
L 31.703125 8.8125 
L 15.40625 60.78125 
C 14.90625 62.1875 14.90625 62.390625 14.90625 62.59375 
C 14.90625 65.390625 19.296875 65.390625 21.296875 65.390625 
L 21.296875 68 
C 18.40625 67.796875 13.40625 67.796875 10.296875 67.796875 
C 7.703125 67.796875 3.296875 67.796875 0.90625 68 
L 0.90625 65.390625 
C 6.90625 65.390625 7.296875 64.796875 8.296875 61.59375 
L 27.796875 -0.3125 
C 28.296875 -1.8125 28.296875 -2 29.203125 -2 
C 30 -2 30.296875 -1.8125 30.703125 -0.40625 
L 47.703125 53.875 
L 64.703125 -0.40625 
C 65.09375 -1.8125 65.40625 -2 66.203125 -2 
C 67.09375 -2 67.09375 -1.8125 67.59375 -0.3125 
z
" id="CMR17-87"/>
       <path d="M 36 25.875 
C 36 32 36 35.546875 31.796875 39.59375 
C 28.09375 42.984375 23.796875 44 20.40625 44 
C 12.5 44 6.796875 37.625 6.796875 30.890625 
C 6.796875 27.1875 9.796875 27 10.40625 27 
C 11.703125 27 14 27.796875 14 30.59375 
C 14 33.09375 12.09375 34.1875 10.40625 34.1875 
C 10 34.1875 9.5 34.09375 9.203125 34 
C 11.296875 40.53125 16.703125 42.390625 20.203125 42.390625 
C 25.203125 42.390625 30.703125 37.828125 30.703125 29.296875 
L 30.703125 25.5 
C 24.796875 25.296875 17.703125 24.5 12.09375 21.453125 
C 5.796875 17.921875 4 12.84375 4 9 
C 4 1.203125 13 -1 18.296875 -1 
C 23.796875 -1 28.90625 2.109375 31.09375 7.890625 
C 31.296875 3.421875 34.09375 -0.609375 38.5 -0.609375 
C 40.59375 -0.609375 45.90625 0.796875 45.90625 8.796875 
L 45.90625 14.46875 
L 44.09375 14.46875 
L 44.09375 8.703125 
C 44.09375 2.515625 41.40625 1.703125 40.09375 1.703125 
C 36 1.703125 36 6.96875 36 11.4375 
z
M 30.703125 13.859375 
C 30.703125 5.046875 24.5 0.59375 19 0.59375 
C 14 0.59375 10.09375 4.34375 10.09375 9 
C 10.09375 12.046875 11.40625 17.40625 17.203125 20.65625 
C 22 23.390625 27.5 23.796875 30.703125 24 
z
" id="CMR17-97"/>
       <path d="M 39.09375 33.953125 
C 40 36.171875 41.59375 40.1875 47.40625 40.390625 
L 47.40625 43 
C 45.5 42.890625 43 42.796875 41.09375 42.796875 
C 39 42.796875 35.703125 42.796875 33.703125 43 
L 33.703125 40.390625 
C 36.203125 40.1875 37.59375 38.984375 37.59375 36.375 
C 37.59375 35.46875 37.59375 35.265625 37 33.859375 
L 26 5.921875 
L 14.09375 36.0625 
C 13.5 37.375 13.5 37.578125 13.5 37.984375 
C 13.5 40.390625 16.796875 40.390625 18.296875 40.390625 
L 18.296875 43 
C 15.90625 42.796875 11.5 42.796875 9 42.796875 
C 6.296875 42.796875 3.203125 42.796875 1 43 
L 1 40.390625 
C 4.796875 40.390625 6.90625 40.390625 8.09375 37.28125 
L 22.59375 0.6875 
C 23.203125 -0.8125 23.296875 -1 24.203125 -1 
C 25.09375 -1 25.203125 -0.8125 25.796875 0.6875 
z
" id="CMR17-118"/>
       <path d="M 38.09375 23.484375 
C 38.5 23.890625 38.5 24.09375 38.5 25.09375 
C 38.5 35.171875 33.09375 44 21.703125 44 
C 11.09375 44 2.703125 33.984375 2.703125 21.78125 
C 2.703125 8.65625 12.203125 -1 22.796875 -1 
C 34 -1 38.40625 9.671875 38.40625 11.796875 
C 38.40625 12.5 37.796875 12.5 37.59375 12.5 
C 36.90625 12.5 36.796875 12.296875 36.40625 11.078125 
C 34.203125 4.21875 28.703125 0.796875 23.5 0.796875 
C 19.203125 0.796875 14.90625 3.21875 12.203125 7.65625 
C 9.09375 12.796875 9.09375 18.75 9.09375 23.484375 
z
M 9.203125 25 
C 9.90625 39.234375 17.59375 42.390625 21.59375 42.390625 
C 28.40625 42.390625 33 36.0625 33.09375 25 
z
" id="CMR17-101"/>
       <path d="M 15.296875 69 
L 3.40625 67.890625 
L 3.40625 65.296875 
C 9.296875 65.296875 10.203125 64.703125 10.203125 59.921875 
L 10.203125 6.859375 
C 10.203125 3.09375 9.796875 2.59375 3.40625 2.59375 
L 3.40625 0 
C 5.796875 0.1875 10.203125 0.1875 12.703125 0.1875 
C 15.296875 0.1875 19.703125 0.1875 22.09375 0 
L 22.09375 2.59375 
C 15.703125 2.59375 15.296875 2.984375 15.296875 6.859375 
z
" id="CMR17-108"/>
       <path d="M 41.5 30.53125 
C 41.5 35.65625 40.5 44 28.703125 44 
C 20.796875 44 16.703125 37.875 15.203125 33.84375 
L 15.09375 33.84375 
L 15.09375 44 
L 3.296875 42.890625 
L 3.296875 40.28125 
C 9.203125 40.28125 10.09375 39.6875 10.09375 34.859375 
L 10.09375 6.921875 
C 10.09375 3.09375 9.703125 2.59375 3.296875 2.59375 
L 3.296875 0 
C 5.703125 0.1875 10.09375 0.1875 12.703125 0.1875 
C 15.296875 0.1875 19.796875 0.1875 22.203125 0 
L 22.203125 2.59375 
C 15.796875 2.59375 15.40625 3 15.40625 6.921875 
L 15.40625 26.21875 
C 15.40625 35.453125 21 42.390625 28 42.390625 
C 35.40625 42.390625 36.203125 35.765625 36.203125 30.9375 
L 36.203125 6.921875 
C 36.203125 3.09375 35.796875 2.59375 29.40625 2.59375 
L 29.40625 0 
C 31.796875 0.1875 36.203125 0.1875 38.796875 0.1875 
C 41.40625 0.1875 45.90625 0.1875 48.296875 0 
L 48.296875 2.59375 
C 41.90625 2.59375 41.5 3 41.5 6.921875 
z
" id="CMR17-110"/>
       <path d="M 11.09375 18.203125 
C 13 16.6875 16.296875 15 20.296875 15 
C 28.203125 15 35 21.234375 35 29.609375 
C 35 32.234375 34.203125 36.265625 31.203125 39.390625 
C 34 42.390625 38.09375 43.390625 40.40625 43.390625 
C 40.796875 43.390625 41.40625 43.390625 41.90625 43.09375 
C 41.5 42.984375 40.59375 42.59375 40.59375 40.984375 
C 40.59375 39.6875 41.5 38.796875 42.796875 38.796875 
C 44.296875 38.796875 45.09375 39.796875 45.09375 41.09375 
C 45.09375 42.984375 43.59375 45 40.40625 45 
C 36.40625 45 32.90625 43.09375 30.09375 40.484375 
C 27.09375 43.1875 23.5 44.1875 20.296875 44.1875 
C 12.40625 44.1875 5.59375 37.984375 5.59375 29.609375 
C 5.59375 23.859375 8.90625 20.21875 9.90625 19.21875 
C 6.90625 15.6875 6.90625 11.59375 6.90625 11.09375 
C 6.90625 8.5 7.90625 4.6875 11.296875 2.59375 
C 6.09375 1.28125 2 -2.875 2 -8.078125 
C 2 -15.5625 11.5 -21 22.90625 -21 
C 33.90625 -21 43.796875 -15.765625 43.796875 -7.96875 
C 43.796875 6 29 6 21.296875 6 
C 19 6 14.90625 6 14.40625 6.09375 
C 11.296875 6.59375 9.203125 9.390625 9.203125 12.890625 
C 9.203125 13.796875 9.203125 16 11.09375 18.203125 
z
M 20.296875 16.6875 
C 11.5 16.6875 11.5 27.59375 11.5 29.609375 
C 11.5 31.625 11.5 42.484375 20.296875 42.484375 
C 29.09375 42.484375 29.09375 31.625 29.09375 29.609375 
C 29.09375 27.59375 29.09375 16.6875 20.296875 16.6875 
z
M 22.90625 -19.3125 
C 12.90625 -19.3125 6 -13.796875 6 -8.078125 
C 6 -4.859375 7.703125 -1.84375 9.90625 -0.171875 
C 12.40625 1.59375 13.40625 1.59375 20.203125 1.59375 
C 28.40625 1.59375 39.796875 1.59375 39.796875 -8.078125 
C 39.796875 -13.796875 32.90625 -19.3125 22.90625 -19.3125 
z
" id="CMR17-103"/>
       <path d="M 15.09375 40.390625 
L 29.09375 40.390625 
L 29.09375 43 
L 15.09375 43 
L 15.09375 62 
L 13.296875 62 
C 13.09375 51.4375 9.59375 42.1875 1.09375 41.984375 
L 1.09375 40.390625 
L 9.796875 40.390625 
L 9.796875 12.15625 
C 9.796875 10.234375 9.796875 -1 21.40625 -1 
C 27.296875 -1 30.703125 4.8125 30.703125 12.25 
L 30.703125 17.984375 
L 28.90625 17.984375 
L 28.90625 12.34375 
C 28.90625 5.421875 26.203125 0.796875 22 0.796875 
C 19.09375 0.796875 15.09375 2.796875 15.09375 11.953125 
z
" id="CMR17-116"/>
       <path d="M 41.5 30.53125 
C 41.5 35.65625 40.5 44 28.703125 44 
C 20.5 44 16.5 37.375 15.296875 34.046875 
L 15.203125 34.046875 
L 15.203125 69 
L 3.296875 67.890625 
L 3.296875 65.296875 
C 9.203125 65.296875 10.09375 64.703125 10.09375 60.046875 
L 10.09375 6.921875 
C 10.09375 3.09375 9.703125 2.59375 3.296875 2.59375 
L 3.296875 0 
C 5.703125 0.1875 10.09375 0.1875 12.703125 0.1875 
C 15.296875 0.1875 19.796875 0.1875 22.203125 0 
L 22.203125 2.59375 
C 15.796875 2.59375 15.40625 3 15.40625 6.921875 
L 15.40625 26.21875 
C 15.40625 35.453125 21 42.390625 28 42.390625 
C 35.40625 42.390625 36.203125 35.765625 36.203125 30.9375 
L 36.203125 6.921875 
C 36.203125 3.09375 35.796875 2.59375 29.40625 2.59375 
L 29.40625 0 
C 31.796875 0.1875 36.203125 0.1875 38.796875 0.1875 
C 41.40625 0.1875 45.90625 0.1875 48.296875 0 
L 48.296875 2.59375 
C 41.90625 2.59375 41.5 3 41.5 6.921875 
z
" id="CMR17-104"/>
       <path d="M 30.59375 -24.40625 
C 30.59375 -24.3125 30.59375 -24.109375 30.296875 -23.8125 
C 25.703125 -19.109375 13.40625 -6.296875 13.40625 24.9375 
C 13.40625 56.171875 25.5 68.875 30.40625 73.890625 
C 30.40625 73.984375 30.59375 74.1875 30.59375 74.484375 
C 30.59375 74.796875 30.296875 75 29.90625 75 
C 28.796875 75 20.296875 67.578125 15.40625 56.5625 
C 10.40625 45.453125 9 34.65625 9 25.046875 
C 9 17.828125 9.703125 5.625 15.703125 -7.296875 
C 20.5 -17.703125 28.703125 -25 29.90625 -25 
C 30.40625 -25 30.59375 -24.8125 30.59375 -24.40625 
z
" id="CMR17-40"/>
       <path d="M 67.59375 30.53125 
C 67.59375 35.5625 66.703125 44 54.796875 44 
C 48 44 43.296875 39.375 41.5 33.953125 
L 41.40625 33.953125 
C 40.203125 42.1875 34.296875 44 28.703125 44 
C 20.796875 44 16.703125 37.875 15.203125 33.84375 
L 15.09375 33.84375 
L 15.09375 44 
L 3.296875 42.890625 
L 3.296875 40.28125 
C 9.203125 40.28125 10.09375 39.6875 10.09375 34.859375 
L 10.09375 6.921875 
C 10.09375 3.09375 9.703125 2.59375 3.296875 2.59375 
L 3.296875 0 
C 5.703125 0.1875 10.09375 0.1875 12.703125 0.1875 
C 15.296875 0.1875 19.796875 0.1875 22.203125 0 
L 22.203125 2.59375 
C 15.796875 2.59375 15.40625 3 15.40625 6.921875 
L 15.40625 26.21875 
C 15.40625 35.453125 21 42.390625 28 42.390625 
C 35.40625 42.390625 36.203125 35.765625 36.203125 30.9375 
L 36.203125 6.921875 
C 36.203125 3.09375 35.796875 2.59375 29.40625 2.59375 
L 29.40625 0 
C 31.796875 0.1875 36.203125 0.1875 38.796875 0.1875 
C 41.40625 0.1875 45.90625 0.1875 48.296875 0 
L 48.296875 2.59375 
C 41.90625 2.59375 41.5 3 41.5 6.921875 
L 41.5 26.21875 
C 41.5 35.453125 47.09375 42.390625 54.09375 42.390625 
C 61.5 42.390625 62.296875 35.765625 62.296875 30.9375 
L 62.296875 6.921875 
C 62.296875 3.09375 61.90625 2.59375 55.5 2.59375 
L 55.5 0 
C 57.90625 0.1875 62.296875 0.1875 64.90625 0.1875 
C 67.5 0.1875 72 0.1875 74.40625 0 
L 74.40625 2.59375 
C 68 2.59375 67.59375 3 67.59375 6.921875 
z
" id="CMR17-109"/>
       <path d="M 26.296875 24.9375 
C 26.296875 32.140625 25.59375 44.359375 19.59375 57.265625 
C 14.796875 67.6875 6.59375 75 5.40625 75 
C 5.09375 75 4.703125 74.890625 4.703125 74.390625 
C 4.703125 74.1875 4.796875 74.09375 4.90625 73.890625 
C 9.703125 68.875 21.90625 56.171875 21.90625 25.046875 
C 21.90625 -6.1875 9.796875 -18.90625 4.90625 -23.90625 
C 4.796875 -24.109375 4.703125 -24.203125 4.703125 -24.40625 
C 4.703125 -24.90625 5.09375 -25 5.40625 -25 
C 6.5 -25 15 -17.609375 19.90625 -6.59375 
C 24.90625 4.515625 26.296875 15.328125 26.296875 24.9375 
z
" id="CMR17-41"/>
      </defs>
      <use transform="scale(0.996264)" xlink:href="#CMR17-87"/>
      <use transform="translate(87.289395 0)scale(0.996264)" xlink:href="#CMR17-97"/>
      <use transform="translate(130.377418 0)scale(0.996264)" xlink:href="#CMR17-118"/>
      <use transform="translate(176.06788 0)scale(0.996264)" xlink:href="#CMR17-101"/>
      <use transform="translate(216.55354 0)scale(0.996264)" xlink:href="#CMR17-108"/>
      <use transform="translate(241.424599 0)scale(0.996264)" xlink:href="#CMR17-101"/>
      <use transform="translate(281.910259 0)scale(0.996264)" xlink:href="#CMR17-110"/>
      <use transform="translate(332.805629 0)scale(0.996264)" xlink:href="#CMR17-103"/>
      <use transform="translate(378.496106 0)scale(0.996264)" xlink:href="#CMR17-116"/>
      <use transform="translate(413.776874 0)scale(0.996264)" xlink:href="#CMR17-104"/>
      <use transform="translate(494.74821 0)scale(0.996264)" xlink:href="#CMR17-40"/>
      <use transform="translate(530.028978 0)scale(0.996264)" xlink:href="#CMR17-110"/>
      <use transform="translate(580.924347 0)scale(0.996264)" xlink:href="#CMR17-109"/>
      <use transform="translate(657.843937 0)scale(0.996264)" xlink:href="#CMR17-41"/>
     </g>
    </g>
   </g>
   <g id="matplotlib.axis_2">
    <g id="ytick_1">
     <g id="line2d_4">
      <defs>
       <path d="M 0 0 
L -3.5 0 
" id="m4e23aae5a4" style="stroke:#000000;stroke-width:0.8;"/>
      </defs>
      <g>
       <use style="stroke:#000000;stroke-width:0.8;" x="55.024436" xlink:href="#m4e23aae5a4" y="166.496228"/>
      </g>
     </g>
     <g id="text_5">
      <!-- $\mathdefault{0.0}$ -->
      <g transform="translate(31.820325 170.993242)scale(0.13 -0.13)">
       <defs>
        <path d="M 42 31.84375 
C 42 37.96875 41.90625 48.421875 37.703125 56.453125 
C 34 63.484375 28.09375 66 22.90625 66 
C 18.09375 66 12 63.78125 8.203125 56.5625 
C 4.203125 49.015625 3.796875 39.671875 3.796875 31.84375 
C 3.796875 26.109375 3.90625 17.375 7 9.734375 
C 11.296875 -0.609375 19 -2 22.90625 -2 
C 27.5 -2 34.5 -0.109375 38.59375 9.4375 
C 41.59375 16.375 42 24.5 42 31.84375 
z
M 22.90625 -0.40625 
C 16.5 -0.40625 12.703125 5.125 11.296875 12.75 
C 10.203125 18.6875 10.203125 27.328125 10.203125 32.953125 
C 10.203125 40.6875 10.203125 47.109375 11.5 53.234375 
C 13.40625 61.78125 19 64.390625 22.90625 64.390625 
C 27 64.390625 32.296875 61.671875 34.203125 53.4375 
C 35.5 47.71875 35.59375 40.984375 35.59375 32.953125 
C 35.59375 26.421875 35.59375 18.375 34.40625 12.453125 
C 32.296875 1.5 26.40625 -0.40625 22.90625 -0.40625 
z
" id="CMR17-48"/>
        <path d="M 18.40625 4.796875 
C 18.40625 7.6875 16 9.6875 13.59375 9.6875 
C 10.703125 9.6875 8.703125 7.296875 8.703125 4.890625 
C 8.703125 2 11.09375 0 13.5 0 
C 16.40625 0 18.40625 2.390625 18.40625 4.796875 
z
" id="CMMI12-58"/>
       </defs>
       <use transform="scale(0.996264)" xlink:href="#CMR17-48"/>
       <use transform="translate(45.690477 0)scale(0.996264)" xlink:href="#CMMI12-58"/>
       <use transform="translate(72.787654 0)scale(0.996264)" xlink:href="#CMR17-48"/>
      </g>
     </g>
    </g>
    <g id="ytick_2">
     <g id="line2d_5">
      <g>
       <use style="stroke:#000000;stroke-width:0.8;" x="55.024436" xlink:href="#m4e23aae5a4" y="121.656161"/>
      </g>
     </g>
     <g id="text_6">
      <!-- $\mathdefault{0.2}$ -->
      <g transform="translate(31.820325 126.153175)scale(0.13 -0.13)">
       <defs>
        <path d="M 41.703125 15.46875 
L 39.90625 15.46875 
C 38.90625 8.390625 38.09375 7.1875 37.703125 6.59375 
C 37.203125 5.796875 30 5.796875 28.59375 5.796875 
L 9.40625 5.796875 
C 13 9.6875 20 16.765625 28.5 24.9375 
C 34.59375 30.71875 41.703125 37.5 41.703125 47.390625 
C 41.703125 59.1875 32.296875 66 21.796875 66 
C 10.796875 66 4.09375 56.296875 4.09375 47.296875 
C 4.09375 43.390625 7 42.890625 8.203125 42.890625 
C 9.203125 42.890625 12.203125 43.484375 12.203125 46.984375 
C 12.203125 50.09375 9.59375 51 8.203125 51 
C 7.59375 51 7 50.890625 6.59375 50.6875 
C 8.5 59.1875 14.296875 63.390625 20.40625 63.390625 
C 29.09375 63.390625 34.796875 56.5 34.796875 47.390625 
C 34.796875 38.703125 29.703125 31.21875 24 24.734375 
L 4.09375 2.296875 
L 4.09375 0 
L 39.296875 0 
z
" id="CMR17-50"/>
       </defs>
       <use transform="scale(0.996264)" xlink:href="#CMR17-48"/>
       <use transform="translate(45.690477 0)scale(0.996264)" xlink:href="#CMMI12-58"/>
       <use transform="translate(72.787654 0)scale(0.996264)" xlink:href="#CMR17-50"/>
      </g>
     </g>
    </g>
    <g id="ytick_3">
     <g id="line2d_6">
      <g>
       <use style="stroke:#000000;stroke-width:0.8;" x="55.024436" xlink:href="#m4e23aae5a4" y="76.816094"/>
      </g>
     </g>
     <g id="text_7">
      <!-- $\mathdefault{0.4}$ -->
      <g transform="translate(31.820325 81.313108)scale(0.13 -0.13)">
       <use transform="scale(0.996264)" xlink:href="#CMR17-48"/>
       <use transform="translate(45.690477 0)scale(0.996264)" xlink:href="#CMMI12-58"/>
       <use transform="translate(72.787654 0)scale(0.996264)" xlink:href="#CMR17-52"/>
      </g>
     </g>
    </g>
    <g id="ytick_4">
     <g id="line2d_7">
      <g>
       <use style="stroke:#000000;stroke-width:0.8;" x="55.024436" xlink:href="#m4e23aae5a4" y="31.976027"/>
      </g>
     </g>
     <g id="text_8">
      <!-- $\mathdefault{0.6}$ -->
      <g transform="translate(31.820325 36.473041)scale(0.13 -0.13)">
       <use transform="scale(0.996264)" xlink:href="#CMR17-48"/>
       <use transform="translate(45.690477 0)scale(0.996264)" xlink:href="#CMMI12-58"/>
       <use transform="translate(72.787654 0)scale(0.996264)" xlink:href="#CMR17-54"/>
      </g>
     </g>
    </g>
    <g id="text_9">
     <!-- Intensity $\times 10^\mathrm{12}$ (arb. units) -->
     <g transform="translate(24.582466 167.563203)rotate(-90)scale(0.13 -0.13)">
      <defs>
       <path d="M 19.703125 60.90625 
C 19.703125 65.390625 20.90625 65.390625 28.09375 65.390625 
L 28.09375 68 
C 24.90625 67.796875 19.796875 67.796875 16.40625 67.796875 
C 13 67.796875 7.90625 67.796875 4.703125 68 
L 4.703125 65.390625 
C 11.90625 65.390625 13.09375 65.390625 13.09375 60.90625 
L 13.09375 7.078125 
C 13.09375 2.59375 11.90625 2.59375 4.703125 2.59375 
L 4.703125 0 
C 7.90625 0.1875 13 0.1875 16.40625 0.1875 
C 19.796875 0.1875 24.90625 0.1875 28.09375 0 
L 28.09375 2.59375 
C 20.90625 2.59375 19.703125 2.59375 19.703125 7.078125 
z
" id="CMR17-73"/>
       <path d="M 30.90625 42 
C 30.90625 43.796875 30.796875 43.890625 30.203125 43.890625 
C 29.796875 43.890625 29.703125 43.796875 28.5 42.296875 
C 28.203125 41.890625 27.296875 40.890625 27 40.5 
C 23.796875 43.890625 19.296875 44 17.59375 44 
C 6.5 44 2.5 38.1875 2.5 32.390625 
C 2.5 23.390625 12.703125 21.296875 15.59375 20.6875 
C 21.90625 19.390625 24.09375 19 26.203125 17.1875 
C 27.5 16 29.703125 13.796875 29.703125 10.1875 
C 29.703125 6 27.296875 0.59375 18.09375 0.59375 
C 9.40625 0.59375 6.296875 7.1875 4.5 16 
C 4.203125 17.390625 4.203125 17.5 3.40625 17.5 
C 2.59375 17.5 2.5 17.390625 2.5 15.390625 
L 2.5 1 
C 2.5 -0.8125 2.59375 -0.90625 3.203125 -0.90625 
C 3.703125 -0.90625 3.796875 -0.8125 4.296875 0 
C 4.90625 0.890625 6.40625 3.296875 7 4.296875 
C 9 1.59375 12.5 -1 18.09375 -1 
C 28 -1 33.296875 4.390625 33.296875 12.1875 
C 33.296875 17.296875 30.59375 20 29.296875 21.1875 
C 26.296875 24.296875 22.796875 25 18.59375 25.796875 
C 13.09375 27 6.09375 28.390625 6.09375 34.5 
C 6.09375 37.09375 7.5 42.59375 17.59375 42.59375 
C 28.296875 42.59375 28.90625 32.59375 29.09375 29.390625 
C 29.203125 28.890625 29.703125 28.796875 30 28.796875 
C 30.90625 28.796875 30.90625 29.09375 30.90625 30.796875 
z
" id="CMR17-115"/>
       <path d="M 15.5 61.890625 
C 15.5 64.09375 13.703125 66 11.40625 66 
C 9.203125 66 7.296875 64.1875 7.296875 61.890625 
C 7.296875 59.6875 9.09375 57.796875 11.40625 57.796875 
C 13.59375 57.796875 15.5 59.59375 15.5 61.890625 
z
M 3.796875 42.890625 
L 3.796875 40.296875 
C 9.40625 40.296875 10.203125 39.6875 10.203125 34.859375 
L 10.203125 6.921875 
C 10.203125 3.09375 9.796875 2.59375 3.40625 2.59375 
L 3.40625 0 
C 5.796875 0.1875 10.09375 0.1875 12.59375 0.1875 
C 15 0.1875 19.09375 0.1875 21.40625 0 
L 21.40625 2.59375 
C 15.5 2.59375 15.296875 3.203125 15.296875 6.8125 
L 15.296875 44 
z
" id="CMR17-105"/>
       <path d="M 39 34.109375 
C 41.5 40.296875 46 40.390625 47.40625 40.390625 
L 47.40625 43 
C 45.5 42.890625 43 42.796875 41.09375 42.796875 
C 39 42.796875 35.703125 42.796875 33.703125 43 
L 33.703125 40.390625 
C 37.5 40.09375 37.59375 37.25 37.59375 36.4375 
C 37.59375 35.4375 37.40625 34.921875 36.90625 33.71875 
L 26 6.390625 
L 14.09375 35.9375 
C 13.59375 37.15625 13.59375 37.859375 13.59375 37.96875 
C 13.59375 40.1875 15.90625 40.390625 18.296875 40.390625 
L 18.296875 43 
C 15.90625 42.796875 11.59375 42.796875 9.09375 42.796875 
C 6.40625 42.796875 3.203125 42.796875 1 43 
L 1 40.390625 
C 6.40625 40.390625 7 39.890625 8.296875 36.640625 
L 23.203125 -0.484375 
C 18.703125 -12.421875 16.09375 -19.40625 9.796875 -19.40625 
C 8.703125 -19.40625 6.203125 -19.109375 4.40625 -17.28125 
C 6.703125 -17.078125 7.703125 -15.65625 7.703125 -13.9375 
C 7.703125 -12.21875 6.5 -10.703125 4.5 -10.703125 
C 2.296875 -10.703125 1.203125 -12.21875 1.203125 -14.046875 
C 1.203125 -18.09375 5.296875 -21 9.796875 -21 
C 15.59375 -21 19.203125 -15.359375 21.203125 -10.296875 
z
" id="CMR17-121"/>
       <path d="M 38.90625 27.734375 
L 18.90625 47.59375 
C 17.703125 48.796875 17.5 49 16.703125 49 
C 15.703125 49 14.703125 48.09375 14.703125 47 
C 14.703125 46.296875 14.90625 46.09375 16 45 
L 36 24.9375 
L 16 4.890625 
C 14.90625 3.796875 14.703125 3.59375 14.703125 2.890625 
C 14.703125 1.796875 15.703125 0.890625 16.703125 0.890625 
C 17.5 0.890625 17.703125 1.09375 18.90625 2.296875 
L 38.796875 22.15625 
L 59.5 1.484375 
C 59.703125 1.390625 60.40625 0.890625 61 0.890625 
C 62.203125 0.890625 63 1.796875 63 2.890625 
C 63 3.09375 63 3.484375 62.703125 3.984375 
C 62.59375 4.1875 46.703125 19.859375 41.703125 24.9375 
L 60 43.203125 
C 60.5 43.796875 62 45.09375 62.5 45.703125 
C 62.59375 45.890625 63 46.296875 63 47 
C 63 48.09375 62.203125 49 61 49 
C 60.203125 49 59.796875 48.59375 58.703125 47.5 
z
" id="CMSY10-2"/>
       <path d="M 26.59375 63.796875 
C 26.59375 65.890625 26.5 66 25.09375 66 
C 21.203125 61.359375 15.296875 59.890625 9.703125 59.6875 
C 9.40625 59.6875 8.90625 59.6875 8.796875 59.5 
C 8.703125 59.296875 8.703125 59.09375 8.703125 57 
C 11.796875 57 17 57.59375 21 59.984375 
L 21 7.296875 
C 21 3.796875 20.796875 2.59375 12.203125 2.59375 
L 9.203125 2.59375 
L 9.203125 0 
C 14 0.09375 19 0.1875 23.796875 0.1875 
C 28.59375 0.1875 33.59375 0.09375 38.40625 0 
L 38.40625 2.59375 
L 35.40625 2.59375 
C 26.796875 2.59375 26.59375 3.6875 26.59375 7.296875 
z
" id="CMR17-49"/>
       <path d="M 15 23.703125 
C 15 33.34375 19.09375 42.390625 26.59375 42.390625 
C 27.296875 42.390625 28 42.296875 28.703125 41.984375 
C 28.703125 41.984375 26.5 41.28125 26.5 38.671875 
C 26.5 36.265625 28.40625 35.265625 29.90625 35.265625 
C 31.09375 35.265625 33.296875 35.96875 33.296875 38.78125 
C 33.296875 41.984375 30.09375 44 26.703125 44 
C 19.09375 44 15.796875 36.5625 14.796875 33.046875 
L 14.703125 33.046875 
L 14.703125 44 
L 3.09375 42.890625 
L 3.09375 40.28125 
C 9 40.28125 9.90625 39.6875 9.90625 34.859375 
L 9.90625 6.921875 
C 9.90625 3.09375 9.5 2.59375 3.09375 2.59375 
L 3.09375 0 
C 5.5 0.1875 10.09375 0.1875 12.703125 0.1875 
C 15.59375 0.1875 20.703125 0.1875 23.40625 0 
L 23.40625 2.59375 
C 16.203125 2.59375 15 2.59375 15 7.109375 
z
" id="CMR17-114"/>
       <path d="M 15 69 
L 3.09375 67.890625 
L 3.09375 65.296875 
C 9 65.296875 9.90625 64.703125 9.90625 60.046875 
L 9.90625 -0.203125 
L 11.703125 -0.203125 
L 14.59375 6.953125 
C 17.5 2.203125 21.796875 -1 27.59375 -1 
C 37.59375 -1 47.703125 7.859375 47.703125 21.59375 
C 47.703125 34.515625 38.703125 44 28.59375 44 
C 22.40625 44 18 40.671875 15 36.734375 
z
M 15.203125 31.59375 
C 15.203125 33.40625 15.203125 33.703125 16.59375 35.828125 
C 20.5 41.890625 26.09375 42.390625 28 42.390625 
C 31 42.390625 41.296875 40.78125 41.296875 21.6875 
C 41.296875 1.703125 29.5 0.59375 27.09375 0.59375 
C 24 0.59375 19.5 1.796875 16.296875 7.65625 
C 15.203125 9.578125 15.203125 9.78125 15.203125 11.59375 
z
" id="CMR17-98"/>
       <path d="M 16.59375 4.09375 
C 16.59375 6.59375 14.59375 8.1875 12.5 8.1875 
C 10.5 8.1875 8.40625 6.59375 8.40625 4.09375 
C 8.40625 1.59375 10.40625 0 12.5 0 
C 14.5 0 16.59375 1.59375 16.59375 4.09375 
z
" id="CMR17-46"/>
       <path d="M 29.40625 42.890625 
L 29.40625 40.296875 
C 35.296875 40.296875 36.203125 39.6875 36.203125 34.828125 
L 36.203125 16.453125 
C 36.203125 7.96875 31.703125 0.59375 24.296875 0.59375 
C 16.09375 0.59375 15.40625 5.546875 15.40625 10.796875 
L 15.40625 44 
L 3.296875 42.890625 
L 3.296875 40.296875 
C 7.296875 40.296875 10 40.296875 10.09375 36.25 
L 10.09375 16.859375 
C 10.09375 10.09375 10.09375 5.75 12.703125 2.921875 
C 14 1.609375 16.5 -1 23.703125 -1 
C 32.203125 -1 35.5 6.25 36.296875 8.375 
L 36.40625 8.375 
L 36.40625 -1 
L 48.296875 -0.203125 
L 48.296875 2.40625 
C 42.40625 2.40625 41.5 3.015625 41.5 7.859375 
L 41.5 44 
z
" id="CMR17-117"/>
      </defs>
      <use transform="scale(0.996264)" xlink:href="#CMR17-73"/>
      <use transform="translate(32.638409 0)scale(0.996264)" xlink:href="#CMR17-110"/>
      <use transform="translate(80.931325 0)scale(0.996264)" xlink:href="#CMR17-116"/>
      <use transform="translate(116.212093 0)scale(0.996264)" xlink:href="#CMR17-101"/>
      <use transform="translate(156.697753 0)scale(0.996264)" xlink:href="#CMR17-110"/>
      <use transform="translate(207.593123 0)scale(0.996264)" xlink:href="#CMR17-115"/>
      <use transform="translate(243.394461 0)scale(0.996264)" xlink:href="#CMR17-105"/>
      <use transform="translate(268.265519 0)scale(0.996264)" xlink:href="#CMR17-116"/>
      <use transform="translate(300.943833 0)scale(0.996264)" xlink:href="#CMR17-121"/>
      <use transform="translate(379.312715 0)scale(0.996264)" xlink:href="#CMSY10-2"/>
      <use transform="translate(456.800183 0)scale(0.996264)" xlink:href="#CMR17-49"/>
      <use transform="translate(502.49066 0)scale(0.996264)" xlink:href="#CMR17-48"/>
      <use transform="translate(548.181137 36.153639)scale(0.697382)" xlink:href="#CMR17-49"/>
      <use transform="translate(580.164319 36.153639)scale(0.697382)" xlink:href="#CMR17-50"/>
      <use transform="translate(642.721599 0)scale(0.996264)" xlink:href="#CMR17-40"/>
      <use transform="translate(678.002367 0)scale(0.996264)" xlink:href="#CMR17-97"/>
      <use transform="translate(723.692844 0)scale(0.996264)" xlink:href="#CMR17-114"/>
      <use transform="translate(758.973612 0)scale(0.996264)" xlink:href="#CMR17-98"/>
      <use transform="translate(809.868982 0)scale(0.996264)" xlink:href="#CMR17-46"/>
      <use transform="translate(875.225701 0)scale(0.996264)" xlink:href="#CMR17-117"/>
      <use transform="translate(926.121071 0)scale(0.996264)" xlink:href="#CMR17-110"/>
      <use transform="translate(977.01644 0)scale(0.996264)" xlink:href="#CMR17-105"/>
      <use transform="translate(1001.887499 0)scale(0.996264)" xlink:href="#CMR17-116"/>
      <use transform="translate(1037.168267 0)scale(0.996264)" xlink:href="#CMR17-115"/>
      <use transform="translate(1072.969604 0)scale(0.996264)" xlink:href="#CMR17-41"/>
     </g>
    </g>
   </g>
   <g id="line2d_8">
    <path clip-path="url(#p843ee5e1b1)" d="M 10.803554 166.46158 
L 37.026121 166.313391 
L 43.721245 166.087236 
L 47.068807 165.772957 
L 49.021551 165.386747 
L 50.416369 164.883357 
L 51.253259 164.39634 
L 52.090149 163.648558 
L 52.648076 162.90188 
L 53.206003 161.814724 
L 53.76393 160.141327 
L 54.321857 157.367059 
L 54.879784 152.299654 
L 55.158748 148.124051 
L 55.437711 142.124867 
L 55.995638 121.967209 
L 57.111492 68.780936 
L 57.390456 68.579438 
L 57.669419 76.792439 
L 59.064237 141.798354 
L 59.622164 152.140866 
L 60.18009 157.28426 
L 60.738017 160.093419 
L 61.295944 161.784565 
L 61.853871 162.881659 
L 62.690762 163.925039 
L 63.527652 164.572938 
L 64.643506 165.11461 
L 66.038324 165.521046 
L 67.991068 165.844858 
L 71.059666 166.102904 
L 76.359973 166.291123 
L 87.239548 166.413029 
L 103.698394 166.461561 
L 103.698394 166.461561 
" style="fill:none;stroke:#008000;stroke-dasharray:3.7,1.6;stroke-dashoffset:0;"/>
   </g>
   <g id="line2d_9">
    <path clip-path="url(#p843ee5e1b1)" d="M -1 166.438644 
L 35.085514 166.271518 
L 46.523017 166.025205 
L 52.38125 165.702847 
L 56.007776 165.303275 
L 58.518447 164.818645 
L 60.192228 164.310204 
L 61.587045 163.686174 
L 62.702899 162.971994 
L 63.818753 161.946865 
L 64.655644 160.85528 
L 65.492534 159.326525 
L 66.329425 157.11455 
L 66.887352 155.073658 
L 67.445279 152.399441 
L 68.003206 148.910682 
L 68.840096 141.819054 
L 69.95595 129.157395 
L 71.071804 116.666746 
L 71.629731 112.853412 
L 71.908694 111.949377 
L 72.187658 111.793304 
L 72.466621 112.394031 
L 72.745585 113.717713 
L 73.303512 118.210925 
L 74.140402 127.754695 
L 75.256256 140.666292 
L 76.093147 148.077702 
L 76.930037 153.263879 
L 77.766927 156.738954 
L 78.603818 159.071162 
L 79.440708 160.676145 
L 80.277599 161.817056 
L 81.393453 162.88362 
L 82.509307 163.623381 
L 83.904124 164.267222 
L 85.577905 164.789818 
L 87.809613 165.242451 
L 90.878211 165.620106 
L 95.341627 165.925052 
L 102.315714 166.158643 
L 114.869071 166.327866 
L 142.765419 166.434589 
L 192.141956 166.474872 
L 192.141956 166.474872 
" style="fill:none;stroke:#008000;stroke-dasharray:3.7,1.6;stroke-dashoffset:0;"/>
   </g>
   <g id="line2d_10">
    <path clip-path="url(#p843ee5e1b1)" d="M -1 166.441726 
L 37.494926 166.278201 
L 49.490356 166.036274 
L 55.627553 165.717732 
L 59.533041 165.30566 
L 62.043713 164.840777 
L 63.996457 164.2624 
L 65.391275 163.642889 
L 66.507128 162.943217 
L 67.622982 161.955926 
L 68.459873 160.925928 
L 69.296763 159.518096 
L 70.133654 157.544622 
L 70.970544 154.722281 
L 71.807435 150.672159 
L 72.644325 145.037192 
L 73.760179 135.232878 
L 74.876033 125.566099 
L 75.43396 122.507634 
L 75.712923 121.719993 
L 75.991887 121.49194 
L 76.27085 121.835986 
L 76.549814 122.733292 
L 77.107741 125.970731 
L 77.944631 133.142552 
L 79.339449 145.473149 
L 80.176339 150.994164 
L 81.01323 154.948091 
L 81.85012 157.701667 
L 82.687011 159.628985 
L 83.523901 161.006144 
L 84.360791 162.015455 
L 85.476645 162.984707 
L 86.592499 163.672873 
L 87.987317 164.28324 
L 89.940061 164.85411 
L 92.450732 165.31381 
L 95.798294 165.678028 
L 100.819637 165.974608 
L 108.909578 166.199071 
L 123.973606 166.356211 
L 159.401969 166.449855 
L 203.199236 166.476283 
L 203.199236 166.476283 
" style="fill:none;stroke:#008000;stroke-dasharray:3.7,1.6;stroke-dashoffset:0;"/>
   </g>
   <g id="line2d_11">
    <path clip-path="url(#p843ee5e1b1)" d="M -1 166.463481 
L 50.709353 166.316963 
L 63.820637 166.085103 
L 69.957833 165.783045 
L 73.584359 165.416375 
L 76.09503 164.967586 
L 78.047774 164.392745 
L 79.442592 163.758318 
L 80.558446 163.019931 
L 81.395336 162.252754 
L 82.232227 161.204723 
L 83.069117 159.726163 
L 83.627044 158.383145 
L 84.184971 156.627925 
L 84.742898 154.306604 
L 85.300825 151.223805 
L 85.858752 147.168819 
L 86.695642 138.991284 
L 88.648387 117.372188 
L 88.92735 115.855836 
L 89.206314 115.138925 
L 89.485277 115.271293 
L 89.764241 116.243668 
L 90.322168 120.391007 
L 91.159058 129.973446 
L 92.274912 142.869153 
L 93.111802 149.943816 
L 93.948693 154.710412 
L 94.785583 157.83068 
L 95.622474 159.904924 
L 96.459364 161.329611 
L 97.296255 162.343003 
L 98.412109 163.291379 
L 99.527963 163.949628 
L 100.92278 164.52256 
L 102.875524 165.048626 
L 105.386196 165.464822 
L 109.012721 165.809221 
L 114.591991 166.078819 
L 123.797786 166.271847 
L 142.488339 166.401832 
L 193.81762 166.471782 
L 199.954817 166.474418 
L 199.954817 166.474418 
" style="fill:none;stroke:#008000;stroke-dasharray:3.7,1.6;stroke-dashoffset:0;"/>
   </g>
   <g id="line2d_12">
    <path clip-path="url(#p843ee5e1b1)" d="M 24.6834 166.469024 
L 73.223046 166.325833 
L 84.381586 166.098196 
L 89.681892 165.786263 
L 92.75049 165.401938 
L 94.703235 164.967563 
L 96.098052 164.475799 
L 97.213906 163.887483 
L 98.050796 163.257993 
L 98.887687 162.367209 
L 99.724577 161.046199 
L 100.282504 159.775097 
L 100.840431 158.000087 
L 101.398358 155.431978 
L 101.956285 151.595487 
L 102.514212 145.779067 
L 103.072139 137.1494 
L 103.90903 118.334067 
L 104.74592 97.713858 
L 105.303847 89.588709 
L 105.58281 88.666339 
L 105.861774 90.062046 
L 106.140737 93.614385 
L 106.698664 105.454336 
L 107.814518 132.814133 
L 108.372445 142.732384 
L 108.930372 149.57062 
L 109.488299 154.095315 
L 110.046226 157.097173 
L 110.604153 159.143706 
L 111.16208 160.588994 
L 111.998971 162.06914 
L 112.835861 163.052846 
L 113.672752 163.740195 
L 114.788605 164.376137 
L 116.183423 164.902411 
L 118.136167 165.362737 
L 120.646839 165.710587 
L 124.552327 166.001509 
L 130.968488 166.22024 
L 142.963917 166.369002 
L 172.255083 166.456234 
L 186.203257 166.468874 
L 186.203257 166.468874 
" style="fill:none;stroke:#008000;stroke-dasharray:3.7,1.6;stroke-dashoffset:0;"/>
   </g>
   <g id="line2d_13">
    <path clip-path="url(#p843ee5e1b1)" d="M 7.200681 166.477091 
L 75.546734 166.342159 
L 88.936981 166.119938 
L 95.074178 165.812606 
L 98.42174 165.454639 
L 100.653448 165.032858 
L 102.327229 164.521959 
L 103.722046 163.859681 
L 104.8379 163.056449 
L 105.674791 162.186794 
L 106.511681 160.944267 
L 107.069608 159.799191 
L 107.627535 158.278911 
L 108.185462 156.228482 
L 108.743389 153.441591 
L 109.301316 149.681 
L 110.138206 141.843623 
L 112.090951 120.018069 
L 112.369914 118.417229 
L 112.648878 117.632487 
L 112.927841 117.72087 
L 113.206805 118.675896 
L 113.764732 122.856423 
L 114.601622 132.532239 
L 115.717476 145.303948 
L 116.554366 152.068448 
L 117.391257 156.463649 
L 118.228147 159.244117 
L 119.065038 161.042985 
L 119.901928 162.254702 
L 120.738819 163.105 
L 121.854673 163.892312 
L 123.24949 164.543122 
L 124.923271 165.046371 
L 127.154979 165.462758 
L 130.223577 165.794986 
L 134.965956 166.063007 
L 143.055897 166.263682 
L 158.956816 166.396273 
L 201.638229 166.469232 
L 218.097075 166.47701 
L 218.097075 166.47701 
" style="fill:none;stroke:#008000;stroke-dasharray:3.7,1.6;stroke-dashoffset:0;"/>
   </g>
   <g id="line2d_14">
    <path clip-path="url(#p843ee5e1b1)" d="M 57.524706 166.495318 
L 122.802161 166.382593 
L 125.312833 166.17547 
L 126.428687 165.846535 
L 127.265577 165.295685 
L 129.218322 163.519916 
L 129.776249 163.616418 
L 130.334176 164.081222 
L 131.728993 165.495908 
L 132.565883 165.949573 
L 133.681737 166.214992 
L 135.634482 166.370478 
L 140.655824 166.458804 
L 162.69394 166.491992 
L 201.1909 166.495317 
L 201.1909 166.495317 
" style="fill:none;stroke:#008000;stroke-dasharray:3.7,1.6;stroke-dashoffset:0;"/>
   </g>
   <g id="line2d_15">
    <path clip-path="url(#p843ee5e1b1)" d="M 47.678018 166.492309 
L 122.440232 166.376272 
L 128.856392 166.172433 
L 131.367063 165.915022 
L 132.761881 165.609543 
L 133.877735 165.147284 
L 134.714625 164.522489 
L 135.272552 163.863574 
L 135.830479 162.909906 
L 136.388406 161.581491 
L 137.225297 158.913791 
L 138.062187 156.122636 
L 138.620114 154.911819 
L 138.899077 154.661212 
L 139.178041 154.683507 
L 139.457004 154.97671 
L 140.014931 156.253033 
L 142.246639 163.000003 
L 142.804566 163.926472 
L 143.641457 164.805571 
L 144.478347 165.313145 
L 145.594201 165.699276 
L 147.267982 165.999664 
L 150.057617 166.223035 
L 155.357923 166.372783 
L 168.469207 166.458449 
L 225.377757 166.491844 
L 230.120137 166.492288 
L 230.120137 166.492288 
" style="fill:none;stroke:#008000;stroke-dasharray:3.7,1.6;stroke-dashoffset:0;"/>
   </g>
   <g id="line2d_16">
    <path clip-path="url(#p843ee5e1b1)" d="M 61.599684 166.479766 
L 123.808541 166.348604 
L 134.96708 166.137656 
L 139.988423 165.855529 
L 143.057021 165.478966 
L 145.009765 165.033331 
L 146.404583 164.504832 
L 147.520437 163.840385 
L 148.357327 163.091505 
L 149.194218 161.96672 
L 149.752145 160.87217 
L 150.310072 159.335575 
L 150.867999 157.127729 
L 151.425925 153.928578 
L 151.983852 149.37167 
L 152.541779 143.204393 
L 154.494524 117.617337 
L 154.773487 115.972343 
L 155.052451 115.407798 
L 155.331414 115.971234 
L 155.610378 117.615213 
L 156.168305 123.53725 
L 158.121049 149.369025 
L 158.678976 153.926688 
L 159.236903 157.12642 
L 159.79483 159.334671 
L 160.352757 160.871534 
L 161.189647 162.397035 
L 162.026538 163.37317 
L 162.863428 164.03487 
L 163.979282 164.631402 
L 165.3741 165.11323 
L 167.326844 165.525443 
L 170.116479 165.855505 
L 174.300931 166.105562 
L 181.553982 166.290825 
L 196.61801 166.412913 
L 240.415277 166.476496 
L 248.505218 166.479766 
L 248.505218 166.479766 
" style="fill:none;stroke:#008000;stroke-dasharray:3.7,1.6;stroke-dashoffset:0;"/>
   </g>
   <g id="line2d_17">
    <path clip-path="url(#p843ee5e1b1)" d="M 85.454933 166.479578 
L 138.736958 166.34861 
L 148.50068 166.132543 
L 152.964096 165.830419 
L 155.474767 165.458206 
L 157.148548 165.002893 
L 158.264402 164.507598 
L 159.101293 163.951882 
L 159.938183 163.121414 
L 160.49611 162.315295 
L 161.054037 161.178721 
L 161.611964 159.514929 
L 162.169891 156.99865 
L 162.727818 153.147067 
L 163.285745 147.414584 
L 164.122636 135.028138 
L 164.959526 121.853148 
L 165.238489 118.805097 
L 165.517453 117.005223 
L 165.796416 116.656292 
L 166.07538 117.798597 
L 166.354343 120.301412 
L 166.91227 128.202898 
L 168.028124 145.775771 
L 168.586051 152.001792 
L 169.143978 156.244162 
L 169.701905 159.022005 
L 170.259832 160.84898 
L 170.817759 162.086518 
L 171.65465 163.297454 
L 172.49154 164.067174 
L 173.607394 164.723638 
L 175.002211 165.226234 
L 176.954956 165.634851 
L 179.744591 165.946144 
L 184.208006 166.180863 
L 192.297947 166.344026 
L 210.709537 166.443195 
L 245.858936 166.479524 
L 245.858936 166.479524 
" style="fill:none;stroke:#008000;stroke-dasharray:3.7,1.6;stroke-dashoffset:0;"/>
   </g>
   <g id="line2d_18">
    <path clip-path="url(#p843ee5e1b1)" d="M 66.707606 166.487146 
L 145.654272 166.362763 
L 155.975921 166.159247 
L 160.7183 165.862491 
L 163.228972 165.514085 
L 164.902753 165.093331 
L 166.018607 164.642692 
L 167.134461 163.936752 
L 167.971351 163.113023 
L 168.808241 161.851721 
L 169.366168 160.634426 
L 169.924095 158.995043 
L 170.760986 155.553128 
L 171.87684 149.434907 
L 172.71373 145.269301 
L 173.271657 143.787831 
L 173.550621 143.61163 
L 173.829584 143.837813 
L 174.108548 144.45009 
L 174.666475 146.639703 
L 177.177146 159.111835 
L 178.014036 161.364072 
L 178.850927 162.800554 
L 179.687817 163.72977 
L 180.524708 164.353426 
L 181.640562 164.905254 
L 183.035379 165.340258 
L 184.988124 165.702328 
L 188.056722 166.003265 
L 193.078065 166.224419 
L 202.562823 166.373143 
L 225.995756 166.458564 
L 280.114672 166.487104 
L 280.114672 166.487104 
" style="fill:none;stroke:#008000;stroke-dasharray:3.7,1.6;stroke-dashoffset:0;"/>
   </g>
   <g id="line2d_19">
    <path clip-path="url(#p843ee5e1b1)" d="M 84.858939 166.491707 
L 162.968714 166.375098 
L 170.221765 166.171401 
L 173.290363 165.884749 
L 174.964144 165.530963 
L 176.079998 165.090036 
L 176.916888 164.530576 
L 177.474815 163.965801 
L 178.032742 163.166269 
L 178.590669 162.049952 
L 179.42756 159.677137 
L 181.101341 154.283775 
L 181.380304 153.828475 
L 181.659267 153.624298 
L 181.938231 153.68784 
L 182.217194 154.013903 
L 182.775121 155.33171 
L 185.006829 162.345947 
L 185.84372 163.780897 
L 186.68061 164.637878 
L 187.517501 165.156258 
L 188.633355 165.568848 
L 190.307135 165.903873 
L 192.817807 166.145537 
L 197.281223 166.319364 
L 207.044945 166.429827 
L 238.567818 166.483089 
L 278.459596 166.491693 
L 278.459596 166.491693 
" style="fill:none;stroke:#008000;stroke-dasharray:3.7,1.6;stroke-dashoffset:0;"/>
   </g>
   <g id="line2d_20">
    <path clip-path="url(#p843ee5e1b1)" d="M 99.706255 166.489559 
L 178.094994 166.369107 
L 187.021825 166.162049 
L 190.927314 165.866228 
L 193.159022 165.479506 
L 194.55384 165.026031 
L 195.669693 164.408694 
L 196.506584 163.664667 
L 197.064511 162.946767 
L 197.622438 161.967975 
L 198.180365 160.643856 
L 199.017255 157.892436 
L 200.691036 151.529457 
L 200.97 150.942201 
L 201.248963 150.639705 
L 201.527927 150.646652 
L 201.80689 150.962469 
L 202.364817 152.396619 
L 203.480671 156.841652 
L 204.317561 159.868392 
L 205.154452 161.993099 
L 205.991342 163.349079 
L 206.828233 164.205601 
L 207.665123 164.763623 
L 208.780977 165.241999 
L 210.454758 165.660239 
L 212.686466 165.957185 
L 216.312991 166.187075 
L 223.008115 166.348828 
L 238.351107 166.445783 
L 289 166.487247 
L 289 166.487247 
" style="fill:none;stroke:#008000;stroke-dasharray:3.7,1.6;stroke-dashoffset:0;"/>
   </g>
   <g id="line2d_21">
    <path clip-path="url(#p843ee5e1b1)" d="M 142.272786 166.484522 
L 195.833775 166.359102 
L 203.923716 166.154112 
L 207.550241 165.870167 
L 209.502986 165.539961 
L 210.897803 165.1098 
L 212.013657 164.509754 
L 212.850548 163.751857 
L 213.408475 162.969107 
L 213.966402 161.793471 
L 214.524328 159.953603 
L 215.082255 157.023553 
L 215.640182 152.494558 
L 216.198109 146.121942 
L 217.313963 131.701919 
L 217.592927 129.37265 
L 217.87189 128.155386 
L 218.150854 128.199261 
L 218.429817 129.49881 
L 218.987744 135.111402 
L 220.382562 152.679854 
L 220.940489 157.147177 
L 221.498416 160.03153 
L 222.056343 161.842595 
L 222.61427 163.001157 
L 223.172196 163.773743 
L 224.009087 164.52311 
L 225.124941 165.117523 
L 226.519758 165.544358 
L 228.472503 165.872486 
L 231.541101 166.126023 
L 236.841407 166.306063 
L 248.27891 166.422859 
L 283.428309 166.480543 
L 289 166.482909 
L 289 166.482909 
" style="fill:none;stroke:#008000;stroke-dasharray:3.7,1.6;stroke-dashoffset:0;"/>
   </g>
   <g id="line2d_22">
    <path clip-path="url(#p843ee5e1b1)" d="M 101.020195 166.49371 
L 209.815954 166.38024 
L 217.347968 166.174669 
L 220.416566 165.894507 
L 222.090347 165.562006 
L 223.485164 165.046636 
L 224.601018 164.342434 
L 225.716872 163.27505 
L 227.669617 161.119246 
L 228.227544 160.803864 
L 228.785471 160.763303 
L 229.343398 161.006107 
L 230.180288 161.780977 
L 232.411996 164.215801 
L 233.52785 164.967053 
L 234.643704 165.432818 
L 236.038521 165.777884 
L 238.270229 166.065167 
L 241.896754 166.266434 
L 249.149805 166.39957 
L 268.956212 166.4711 
L 289 166.485003 
L 289 166.485003 
" style="fill:none;stroke:#008000;stroke-dasharray:3.7,1.6;stroke-dashoffset:0;"/>
   </g>
   <g id="line2d_23">
    <path clip-path="url(#p843ee5e1b1)" d="M 156.532789 166.484304 
L 215.394084 166.357351 
L 224.320915 166.150042 
L 228.226404 165.874324 
L 230.458112 165.536298 
L 232.131893 165.059697 
L 233.247747 164.509694 
L 234.084637 163.855674 
L 234.642564 163.219348 
L 235.200491 162.321383 
L 235.758418 161.009934 
L 236.316345 159.044296 
L 236.874272 156.091548 
L 237.432199 151.821771 
L 238.26909 143.01281 
L 239.10598 134.167784 
L 239.384943 132.221659 
L 239.663907 131.132121 
L 239.94287 131.014251 
L 240.221834 131.880744 
L 240.500797 133.63939 
L 241.058724 139.063449 
L 242.174578 151.22178 
L 242.732505 155.660206 
L 243.290432 158.753639 
L 243.848359 160.817281 
L 244.406286 162.191589 
L 244.964213 163.129067 
L 245.801104 164.050117 
L 246.637994 164.636946 
L 247.753848 165.138149 
L 249.148665 165.522359 
L 251.380373 165.867097 
L 254.727935 166.120186 
L 260.586168 166.303302 
L 272.860562 166.420254 
L 289 166.461978 
L 289 166.461978 
" style="fill:none;stroke:#008000;stroke-dasharray:3.7,1.6;stroke-dashoffset:0;"/>
   </g>
   <g id="line2d_24">
    <path clip-path="url(#p843ee5e1b1)" d="M 191.140445 166.492998 
L 253.349302 166.379465 
L 258.091681 166.187932 
L 260.044425 165.934224 
L 261.160279 165.614546 
L 261.99717 165.15477 
L 262.555097 164.631592 
L 263.113024 163.807904 
L 263.670951 162.558754 
L 264.507841 159.906275 
L 265.344731 157.46308 
L 265.623695 157.074785 
L 265.902658 157.005278 
L 266.181622 157.263875 
L 266.739549 158.593062 
L 268.134366 162.970411 
L 268.692293 164.085898 
L 269.25022 164.808715 
L 270.087111 165.432037 
L 271.202965 165.844477 
L 272.876746 166.124421 
L 275.66638 166.307819 
L 281.803577 166.425358 
L 289 166.462625 
L 289 166.462625 
" style="fill:none;stroke:#008000;stroke-dasharray:3.7,1.6;stroke-dashoffset:0;"/>
   </g>
   <g id="line2d_25">
    <path clip-path="url(#p843ee5e1b1)" d="M 191.140445 166.492998 
L 253.349302 166.379465 
L 258.091681 166.187932 
L 260.044425 165.934224 
L 261.160279 165.614546 
L 261.99717 165.15477 
L 262.555097 164.631592 
L 263.113024 163.807904 
L 263.670951 162.558754 
L 264.507841 159.906275 
L 265.344731 157.46308 
L 265.623695 157.074785 
L 265.902658 157.005278 
L 266.181622 157.263875 
L 266.739549 158.593062 
L 268.134366 162.970411 
L 268.692293 164.085898 
L 269.25022 164.808715 
L 270.087111 165.432037 
L 271.202965 165.844477 
L 272.876746 166.124421 
L 275.66638 166.307819 
L 281.803577 166.425358 
L 289 166.462625 
L 289 166.462625 
" style="fill:none;stroke:#008000;stroke-dasharray:3.7,1.6;stroke-dashoffset:0;"/>
   </g>
   <g id="line2d_26">
    <path clip-path="url(#p843ee5e1b1)" d="M 55.024436 58.880067 
L 56.362066 34.21803 
L 57.699417 58.431666 
L 59.037605 118.965757 
L 60.375235 150.196863 
L 61.712586 159.389077 
L 63.0491 156.093332 
L 64.386451 147.618559 
L 65.723244 130.624174 
L 67.060595 104.392735 
L 68.397109 87.129309 
L 71.070416 57.310665 
L 72.406093 53.723459 
L 73.742607 81.3001 
L 75.078284 83.093703 
L 76.414241 78.161296 
L 77.749918 75.695092 
L 80.421272 118.293156 
L 81.757228 126.588568 
L 83.092068 131.969376 
L 84.426909 133.762979 
L 85.761749 119.862558 
L 88.431429 75.470892 
L 89.76627 64.709276 
L 91.100552 77.937095 
L 92.434555 88.922912 
L 93.769396 92.734318 
L 95.103399 90.716515 
L 96.436566 109.325142 
L 97.770569 134.211379 
L 99.104572 139.816388 
L 100.437739 127.036969 
L 101.770905 105.513737 
L 103.104072 73.677289 
L 104.437238 37.805235 
L 105.770405 14.04 
L 107.103571 27.940421 
L 108.435901 75.470892 
L 111.101676 78.609696 
L 112.43289 66.727079 
L 113.765219 74.34989 
L 116.429042 140.040588 
L 117.761371 154.72571 
L 119.092864 158.043875 
L 120.424357 160.016838 
L 123.087342 164.964939 
L 124.417998 165.879677 
L 127.080146 163.021122 
L 128.410802 162.191581 
L 129.741458 160.891219 
L 131.072114 162.281261 
L 132.401933 164.231804 
L 133.73231 162.505462 
L 135.062129 157.685155 
L 136.391948 150.847044 
L 137.721766 143.403593 
L 139.051585 141.38579 
L 140.381404 146.945958 
L 141.710107 153.111468 
L 143.039089 155.913972 
L 144.368908 154.88265 
L 145.69789 150.107183 
L 147.026036 146.811438 
L 148.354739 140.713189 
L 151.011866 121.20776 
L 152.340011 101.702331 
L 153.667877 77.712895 
L 154.996022 64.036675 
L 156.324167 61.346271 
L 158.979342 120.086758 
L 160.307487 125.915967 
L 161.634795 126.812768 
L 162.961825 112.015546 
L 164.288296 87.353509 
L 165.615604 70.762685 
L 166.942633 74.57409 
L 168.269105 105.289536 
L 169.595576 128.15797 
L 170.921769 129.054772 
L 172.24824 122.777162 
L 173.574711 120.759359 
L 174.900067 125.691767 
L 176.226538 138.246985 
L 177.551894 145.398976 
L 178.877528 146.049157 
L 180.203163 144.390075 
L 181.528518 141.834191 
L 182.853316 145.780117 
L 184.178671 153.671969 
L 185.503469 160.196198 
L 186.827987 161.2051 
L 188.152785 162.909022 
L 189.477583 165.341596 
L 190.801264 165.375226 
L 192.126062 165.532166 
L 193.449744 166.101635 
L 196.097386 161.855281 
L 200.067873 146.766598 
L 201.391834 143.627794 
L 202.714679 148.403261 
L 204.037803 156.474473 
L 205.360648 161.29478 
L 206.682934 162.483042 
L 208.005779 163.895504 
L 209.327787 163.469523 
L 210.650911 161.33962 
L 211.972919 155.936392 
L 213.295206 148.605041 
L 215.938385 120.310959 
L 217.259835 111.567146 
L 218.581843 121.880361 
L 219.903014 141.834191 
L 221.224464 157.169494 
L 222.544798 161.788021 
L 223.865969 162.303681 
L 225.187419 159.994418 
L 227.828088 156.250272 
L 229.148422 154.83781 
L 230.469035 155.600091 
L 231.789369 158.133555 
L 233.108866 156.855613 
L 234.428364 153.402928 
L 235.748977 142.955193 
L 237.068474 127.93377 
L 238.387134 109.773543 
L 239.706632 100.80553 
L 241.026408 109.549343 
L 242.345068 128.382171 
L 243.663729 137.125984 
L 244.982389 139.816388 
L 246.30105 141.834191 
L 247.61971 150.869464 
L 248.937533 160.689439 
L 250.256473 164.801273 
L 251.574296 164.541201 
L 252.89212 164.406681 
L 254.209943 164.030024 
L 256.844753 162.684822 
L 258.162577 161.698341 
L 260.79655 158.895836 
L 263.430802 154.299729 
L 264.747789 148.358421 
L 266.063939 147.551299 
L 268.696238 157.886935 
L 270.012388 158.492276 
L 271.328537 154.77055 
L 272.644687 152.192246 
L 273.96 146.676918 
L 273.96 146.676918 
" style="fill:none;stroke:#ff0000;stroke-linecap:square;stroke-width:1.5;"/>
   </g>
   <g id="line2d_27">
    <path clip-path="url(#p843ee5e1b1)" d="M 55.024436 148.286601 
L 55.414985 140.656508 
L 55.805534 128.232533 
L 56.279772 105.238733 
L 57.032973 68.703044 
L 57.256144 65.80219 
L 57.311937 65.955883 
L 57.423522 67.318577 
L 57.646693 73.891256 
L 58.065138 95.088721 
L 58.790443 130.335094 
L 59.264681 143.068496 
L 59.711023 149.591161 
L 60.185261 153.409017 
L 60.659499 155.567562 
L 61.161633 156.878283 
L 61.663767 157.599072 
L 62.165902 157.939318 
L 62.668036 158.007243 
L 63.198066 157.844636 
L 63.78389 157.417971 
L 64.425506 156.65581 
L 65.095018 155.492482 
L 65.764531 153.862071 
L 66.434043 151.609634 
L 67.075659 148.652716 
L 67.717275 144.63712 
L 68.386787 138.988686 
L 69.139989 130.56145 
L 70.144257 116.399156 
L 71.455386 98.315554 
L 72.069105 92.805203 
L 72.515447 90.500068 
L 72.878099 89.619897 
L 73.129167 89.451968 
L 73.352337 89.549736 
L 73.659197 89.981409 
L 74.133435 91.123909 
L 74.775051 93.30569 
L 75.388771 96.179469 
L 75.974594 100.031947 
L 76.644106 106.073572 
L 77.620479 117.299957 
L 79.071089 133.676715 
L 79.880083 140.374386 
L 80.605388 144.657525 
L 81.2749 147.37034 
L 81.88862 148.992096 
L 82.418651 149.821262 
L 82.864992 150.14113 
L 83.227645 150.149766 
L 83.590297 149.924915 
L 83.980846 149.401371 
L 84.427188 148.401298 
L 84.929322 146.674985 
L 85.459353 144.021319 
L 86.045176 139.911209 
L 86.742585 133.299067 
L 88.806914 112.232659 
L 89.141671 111.150287 
L 89.336945 111.069305 
L 89.504323 111.330159 
L 89.75539 112.279175 
L 90.118043 114.728499 
L 90.648073 120.068243 
L 92.879781 144.586845 
L 93.57719 149.143113 
L 94.274599 152.296184 
L 94.944111 154.367128 
L 95.613623 155.775916 
L 96.283136 156.703251 
L 96.924752 157.242685 
L 97.538471 157.488415 
L 98.124295 157.49193 
L 98.682222 157.277309 
L 99.240149 156.819784 
L 99.798076 156.059969 
L 100.356003 154.893157 
L 100.886033 153.245062 
L 101.416064 150.80932 
L 101.918198 147.399494 
L 102.420332 142.391825 
L 102.950363 134.688951 
L 103.564083 122.056456 
L 105.26576 84.152534 
L 105.516827 82.703333 
L 105.600516 82.630607 
L 105.628412 82.652351 
L 105.739998 82.967308 
L 105.935272 84.369254 
L 106.242132 88.52958 
L 106.744266 98.932404 
L 107.943809 124.578653 
L 108.47384 131.113709 
L 108.892285 133.80613 
L 109.171249 134.517997 
L 109.338627 134.569933 
L 109.506005 134.361781 
L 109.757072 133.599176 
L 110.119725 131.651427 
L 110.649755 127.394237 
L 112.211951 113.95129 
L 112.546707 112.959967 
L 112.714085 112.900539 
L 112.881463 113.14512 
L 113.13253 114.078055 
L 113.467286 116.309704 
L 113.969421 121.354084 
L 116.424299 148.650846 
L 117.121708 152.912927 
L 117.819117 155.85135 
L 118.544422 157.961203 
L 119.297623 159.492842 
L 120.134514 160.693161 
L 121.055093 161.624307 
L 122.087258 162.355934 
L 123.286801 162.931002 
L 124.570033 163.303527 
L 125.685887 163.413786 
L 126.494881 163.288117 
L 127.164393 162.958947 
L 127.889698 162.329858 
L 129.005552 161.355176 
L 129.423998 161.279824 
L 129.842443 161.439143 
L 130.40037 161.930838 
L 131.739395 163.1889 
L 132.408907 163.465442 
L 133.106316 163.510157 
L 133.859517 163.328976 
L 134.556926 162.927963 
L 135.170645 162.314974 
L 135.756469 161.402665 
L 136.370188 160.001443 
L 137.12339 157.655571 
L 138.378725 153.717234 
L 138.797171 153.096634 
L 139.076134 153.008643 
L 139.327201 153.162454 
L 139.661957 153.688279 
L 140.136195 154.929458 
L 142.256318 161.112165 
L 142.897934 162.048579 
L 143.53955 162.6059 
L 144.236959 162.923405 
L 145.045953 163.046177 
L 145.966532 162.958583 
L 146.915008 162.64418 
L 147.779795 162.126506 
L 148.532996 161.424332 
L 149.202509 160.502937 
L 149.816228 159.276742 
L 150.402052 157.574764 
L 150.959979 155.213459 
L 151.517906 151.792313 
L 152.103729 146.663819 
L 152.773241 138.614058 
L 154.586504 115.163812 
L 154.92126 113.676645 
L 155.088638 113.528786 
L 155.116534 113.543694 
L 155.256016 113.786812 
L 155.479187 114.744861 
L 155.813943 117.374801 
L 156.343974 123.719705 
L 158.073547 146.016464 
L 158.687267 150.705971 
L 159.245194 153.436158 
L 159.747328 154.924459 
L 160.19367 155.641047 
L 160.556322 155.862965 
L 160.863182 155.811178 
L 161.197938 155.495609 
L 161.560591 154.813442 
L 161.979036 153.494086 
L 162.425378 151.275398 
L 162.899616 147.710866 
L 163.429646 141.907603 
L 164.127055 131.449478 
L 165.15922 116.106207 
L 165.521872 113.497657 
L 165.745043 113.075704 
L 165.856629 113.22131 
L 166.051903 114.036672 
L 166.330867 116.338593 
L 166.777208 122.139482 
L 168.3673 144.468068 
L 168.897331 148.368343 
L 169.343672 150.198281 
L 169.706325 150.878715 
L 169.957392 150.989211 
L 170.208459 150.838438 
L 170.515319 150.335487 
L 170.933764 149.158948 
L 171.547484 146.667235 
L 172.858612 141.181767 
L 173.249161 140.439868 
L 173.500228 140.33438 
L 173.723399 140.500558 
L 174.002362 141.046202 
L 174.392911 142.375886 
L 175.006631 145.408524 
L 176.568826 153.434555 
L 177.182546 155.394112 
L 177.68468 156.348744 
L 178.075229 156.696916 
L 178.409985 156.728489 
L 178.744742 156.521257 
L 179.13529 155.994704 
L 179.665321 154.863616 
L 181.255413 151.148294 
L 181.590169 150.957771 
L 181.841236 151.051972 
L 182.148096 151.447142 
L 182.566541 152.432861 
L 183.208157 154.625823 
L 184.658767 159.684993 
L 185.384072 161.354571 
L 186.081481 162.422747 
L 186.834683 163.169262 
L 187.699469 163.707084 
L 188.759531 164.099437 
L 190.126452 164.358543 
L 191.74444 164.434438 
L 193.306635 164.292832 
L 194.589867 163.960344 
L 195.56624 163.488034 
L 196.375234 162.850475 
L 197.072642 162.009031 
L 197.714258 160.872666 
L 198.355874 159.260157 
L 199.08118 156.781247 
L 200.866546 150.290522 
L 201.229198 149.812912 
L 201.480266 149.783727 
L 201.731333 150.005459 
L 202.066089 150.663442 
L 202.540327 152.158535 
L 204.911516 160.514173 
L 205.608925 161.811751 
L 206.33423 162.697982 
L 207.115328 163.301923 
L 208.008011 163.706888 
L 209.040176 163.924216 
L 210.15603 163.927886 
L 211.188195 163.713717 
L 212.052982 163.314553 
L 212.778287 162.73154 
L 213.392006 161.938624 
L 213.922037 160.879666 
L 214.424171 159.347948 
L 214.898409 157.160885 
L 215.400543 153.705179 
L 215.95847 148.137097 
L 216.823257 136.735342 
L 217.492769 129.203589 
L 217.827526 127.371655 
L 218.0228 127.116426 
L 218.134386 127.252441 
L 218.32966 127.973387 
L 218.63652 130.235224 
L 219.138654 136.068911 
L 220.449782 152.109119 
L 221.035606 156.420741 
L 221.593533 158.963897 
L 222.123563 160.431289 
L 222.68149 161.349592 
L 223.239417 161.85751 
L 223.797344 162.082663 
L 224.383168 162.084551 
L 225.024784 161.853672 
L 225.750089 161.342755 
L 226.921735 160.188507 
L 227.842315 159.414997 
L 228.428138 159.198952 
L 228.930272 159.244432 
L 229.488199 159.535796 
L 230.241401 160.21415 
L 231.970974 161.842311 
L 232.724176 162.209387 
L 233.365792 162.289207 
L 233.979511 162.141605 
L 234.537438 161.779725 
L 235.067469 161.171345 
L 235.5975 160.197015 
L 236.099634 158.777575 
L 236.601768 156.653976 
L 237.131799 153.36561 
L 237.745518 147.966405 
L 239.502988 131.019589 
L 239.781952 130.355438 
L 239.921434 130.392928 
L 240.088812 130.764282 
L 240.339879 131.955051 
L 240.730428 135.080144 
L 241.483629 143.406017 
L 242.404209 152.718712 
L 243.045825 157.05785 
L 243.631648 159.642097 
L 244.245368 161.392036 
L 244.886984 162.576688 
L 245.612289 163.452772 
L 246.449179 164.114708 
L 247.481344 164.643028 
L 248.848265 165.077986 
L 250.71732 165.422925 
L 253.367474 165.671897 
L 256.742932 165.764876 
L 259.337292 165.637537 
L 260.815799 165.361478 
L 261.736378 164.97554 
L 262.40589 164.45604 
L 262.963817 163.737654 
L 263.521744 162.623733 
L 264.16336 160.775814 
L 265.3908 157.101403 
L 265.725556 156.739122 
L 265.948727 156.757019 
L 266.199794 157.025846 
L 266.562446 157.816454 
L 267.231959 159.982111 
L 268.152538 162.764522 
L 268.766258 163.957112 
L 269.379978 164.695582 
L 270.077386 165.194162 
L 270.997966 165.564626 
L 272.33699 165.844742 
L 273.954979 166.017184 
L 273.954979 166.017184 
" style="fill:none;stroke:#0000ff;stroke-linecap:square;stroke-width:1.5;"/>
   </g>
   <g id="patch_3">
    <path d="M 55.024436 166.496228 
L 55.024436 14.04 
" style="fill:none;stroke:#000000;stroke-linecap:square;stroke-linejoin:miter;stroke-width:0.8;"/>
   </g>
   <g id="patch_4">
    <path d="M 273.96 166.496228 
L 273.96 14.04 
" style="fill:none;stroke:#000000;stroke-linecap:square;stroke-linejoin:miter;stroke-width:0.8;"/>
   </g>
   <g id="patch_5">
    <path d="M 55.024436 166.496228 
L 273.96 166.496228 
" style="fill:none;stroke:#000000;stroke-linecap:square;stroke-linejoin:miter;stroke-width:0.8;"/>
   </g>
   <g id="patch_6">
    <path d="M 55.024436 14.04 
L 273.96 14.04 
" style="fill:none;stroke:#000000;stroke-linecap:square;stroke-linejoin:miter;stroke-width:0.8;"/>
   </g>
  </g>
 </g>
 <defs>
  <clipPath id="p843ee5e1b1">
   <rect height="152.456228" width="218.935564" x="55.024436" y="14.04"/>
  </clipPath>
 </defs>
</svg>
