<?xml version="1.0" encoding="utf-8" standalone="no"?>
<!DOCTYPE svg PUBLIC "-//W3C//DTD SVG 1.1//EN"
  "http://www.w3.org/Graphics/SVG/1.1/DTD/svg11.dtd">
<!-- Created with matplotlib (https://matplotlib.org/) -->
<svg height="216pt" version="1.1" viewBox="0 0 288 216" width="288pt" xmlns="http://www.w3.org/2000/svg" xmlns:xlink="http://www.w3.org/1999/xlink">
 <metadata>
  <rdf:RDF xmlns:cc="http://creativecommons.org/ns#" xmlns:dc="http://purl.org/dc/elements/1.1/" xmlns:rdf="http://www.w3.org/1999/02/22-rdf-syntax-ns#">
   <cc:Work>
    <dc:type rdf:resource="http://purl.org/dc/dcmitype/StillImage"/>
    <dc:date>2021-03-23T22:55:19.722734</dc:date>
    <dc:format>image/svg+xml</dc:format>
    <dc:creator>
     <cc:Agent>
      <dc:title>Matplotlib v3.3.2, https://matplotlib.org/</dc:title>
     </cc:Agent>
    </dc:creator>
   </cc:Work>
  </rdf:RDF>
 </metadata>
 <defs>
  <style type="text/css">*{stroke-linecap:butt;stroke-linejoin:round;}</style>
 </defs>
 <g id="figure_1">
  <g id="patch_1">
   <path d="M 0 216 
L 288 216 
L 288 0 
L 0 0 
z
" style="fill:#ffffff;"/>
  </g>
  <g id="axes_1">
   <g id="patch_2">
    <path d="M 55.024436 166.496228 
L 273.96 166.496228 
L 273.96 14.04 
L 55.024436 14.04 
z
" style="fill:#ffffff;"/>
   </g>
   <g id="matplotlib.axis_1">
    <g id="xtick_1">
     <g id="line2d_1">
      <defs>
       <path d="M 0 0 
L 0 3.5 
" id="mef99db5b3a" style="stroke:#000000;stroke-width:0.8;"/>
      </defs>
      <g>
       <use style="stroke:#000000;stroke-width:0.8;" x="106.96409" xlink:href="#mef99db5b3a" y="166.496228"/>
      </g>
     </g>
     <g id="text_1">
      <!-- $\mathdefault{384}$ -->
      <g transform="translate(97.45298 182.490256)scale(0.13 -0.13)">
       <defs>
        <path d="M 22.09375 34 
C 31 34 34.90625 26.140625 34.90625 17.09375 
C 34.90625 5.03125 28.5 0.390625 22.703125 0.390625 
C 17.40625 0.390625 8.796875 3.015625 6.09375 10.796875 
C 6.59375 10.59375 7.09375 10.59375 7.59375 10.59375 
C 10 10.59375 11.796875 12.1875 11.796875 14.796875 
C 11.796875 17.6875 9.59375 19 7.59375 19 
C 5.90625 19 3.296875 18.1875 3.296875 14.484375 
C 3.296875 5.234375 12.296875 -2 22.90625 -2 
C 34 -2 42.5 6.75 42.5 16.984375 
C 42.5 26.84375 34.5 34 25 35.09375 
C 32.59375 36.671875 39.90625 43.375 39.90625 52.390625 
C 39.90625 60.25 32 66 23 66 
C 13.90625 66 5.90625 60.34375 5.90625 52.296875 
C 5.90625 48.796875 8.5 48.1875 9.796875 48.1875 
C 11.90625 48.1875 13.703125 49.484375 13.703125 52.09375 
C 13.703125 54.6875 11.90625 56 9.796875 56 
C 9.40625 56 8.90625 56 8.5 55.796875 
C 11.40625 62.484375 19.296875 63.6875 22.796875 63.6875 
C 26.296875 63.6875 32.90625 61.96875 32.90625 52.296875 
C 32.90625 49.484375 32.5 44.546875 29.09375 40.21875 
C 26.09375 36.390625 22.703125 36.1875 19.40625 35.890625 
C 18.90625 35.890625 16.59375 35.6875 16.203125 35.6875 
C 15.5 35.59375 15.09375 35.5 15.09375 34.796875 
C 15.09375 34.09375 15.203125 34 17.203125 34 
z
" id="CMR17-51"/>
        <path d="M 27.203125 35.765625 
C 33.5 38.96875 39.90625 43.796875 39.90625 51.53125 
C 39.90625 60.6875 31.09375 66 23 66 
C 13.90625 66 5.90625 59.375 5.90625 50.234375 
C 5.90625 47.71875 6.5 43.390625 10.40625 39.578125 
C 11.40625 38.578125 15.59375 35.5625 18.296875 33.65625 
C 13.796875 31.34375 3.296875 25.8125 3.296875 14.765625 
C 3.296875 4.40625 13.09375 -2 22.796875 -2 
C 33.5 -2 42.5 5.71875 42.5 15.96875 
C 42.5 25.109375 36.40625 29.328125 32.40625 32.046875 
z
M 14.09375 44.609375 
C 13.296875 45.109375 9.296875 48.21875 9.296875 52.9375 
C 9.296875 59.078125 15.59375 63.6875 22.796875 63.6875 
C 30.703125 63.6875 36.5 58.0625 36.5 51.53125 
C 36.5 42.1875 26.09375 36.859375 25.59375 36.859375 
C 25.5 36.859375 25.40625 36.859375 24.59375 37.46875 
z
M 32.5 24 
C 34 22.90625 38.796875 19.578125 38.796875 13.453125 
C 38.796875 6.015625 31.40625 0.390625 23 0.390625 
C 13.90625 0.390625 7 6.921875 7 14.859375 
C 7 22.796875 13.09375 29.4375 20 32.546875 
z
" id="CMR17-56"/>
        <path d="M 33.59375 64.796875 
C 33.59375 66.890625 33.5 67 31.703125 67 
L 2 19.59375 
L 2 17 
L 27.796875 17 
L 27.796875 7.1875 
C 27.796875 3.59375 27.59375 2.59375 20.59375 2.59375 
L 18.703125 2.59375 
L 18.703125 0 
C 21.90625 0.1875 27.296875 0.1875 30.703125 0.1875 
C 34.09375 0.1875 39.5 0.1875 42.703125 0 
L 42.703125 2.59375 
L 40.796875 2.59375 
C 33.796875 2.59375 33.59375 3.59375 33.59375 7.1875 
L 33.59375 17 
L 43.796875 17 
L 43.796875 19.59375 
L 33.59375 19.59375 
z
M 28.09375 58.171875 
L 28.09375 19.59375 
L 4 19.59375 
z
" id="CMR17-52"/>
       </defs>
       <use transform="scale(0.996264)" xlink:href="#CMR17-51"/>
       <use transform="translate(45.690477 0)scale(0.996264)" xlink:href="#CMR17-56"/>
       <use transform="translate(91.380954 0)scale(0.996264)" xlink:href="#CMR17-52"/>
      </g>
     </g>
    </g>
    <g id="xtick_2">
     <g id="line2d_2">
      <g>
       <use style="stroke:#000000;stroke-width:0.8;" x="162.756786" xlink:href="#mef99db5b3a" y="166.496228"/>
      </g>
     </g>
     <g id="text_2">
      <!-- $\mathdefault{386}$ -->
      <g transform="translate(153.245677 182.490256)scale(0.13 -0.13)">
       <defs>
        <path d="M 10.59375 34.34375 
C 10.59375 58 21.796875 63.6875 28.296875 63.6875 
C 30.40625 63.6875 35.5 63.265625 37.5 59.09375 
C 35.90625 59.09375 32.90625 59.09375 32.90625 55.59375 
C 32.90625 52.890625 35.09375 52 36.5 52 
C 37.40625 52 40.09375 52.390625 40.09375 55.796875 
C 40.09375 62.296875 35.09375 66 28.203125 66 
C 16.296875 66 3.796875 53.296875 3.796875 31.421875 
C 3.796875 4.015625 15.09375 -2 23.09375 -2 
C 32.796875 -2 42 6.734375 42 20.234375 
C 42 32.828125 33.90625 42 23.703125 42 
C 17.59375 42 13.09375 37.96875 10.59375 30.921875 
z
M 23.09375 0.390625 
C 10.796875 0.390625 10.796875 18.9375 10.796875 22.65625 
C 10.796875 29.90625 14.203125 40.390625 23.5 40.390625 
C 25.203125 40.390625 30.09375 40.390625 33.40625 33.4375 
C 35.203125 29.515625 35.203125 25.375 35.203125 20.34375 
C 35.203125 14.90625 35.203125 10.875 33.09375 6.84375 
C 30.90625 2.703125 27.703125 0.390625 23.09375 0.390625 
z
" id="CMR17-54"/>
       </defs>
       <use transform="scale(0.996264)" xlink:href="#CMR17-51"/>
       <use transform="translate(45.690477 0)scale(0.996264)" xlink:href="#CMR17-56"/>
       <use transform="translate(91.380954 0)scale(0.996264)" xlink:href="#CMR17-54"/>
      </g>
     </g>
    </g>
    <g id="xtick_3">
     <g id="line2d_3">
      <g>
       <use style="stroke:#000000;stroke-width:0.8;" x="218.549483" xlink:href="#mef99db5b3a" y="166.496228"/>
      </g>
     </g>
     <g id="text_3">
      <!-- $\mathdefault{388}$ -->
      <g transform="translate(209.038374 182.490256)scale(0.13 -0.13)">
       <use transform="scale(0.996264)" xlink:href="#CMR17-51"/>
       <use transform="translate(45.690477 0)scale(0.996264)" xlink:href="#CMR17-56"/>
       <use transform="translate(91.380954 0)scale(0.996264)" xlink:href="#CMR17-56"/>
      </g>
     </g>
    </g>
    <g id="text_4">
     <!-- Wavelength (nm) -->
     <g transform="translate(116.410539 198.722142)scale(0.13 -0.13)">
      <defs>
       <path d="M 86.296875 58.984375 
C 87.203125 61.6875 88.703125 65.203125 94.5 65.390625 
L 94.5 68 
C 92.796875 67.890625 89.296875 67.796875 87.5 67.796875 
C 85 67.796875 80.59375 67.796875 78.203125 68 
L 78.203125 65.390625 
C 82.703125 65.296875 84.59375 62.796875 84.59375 60.390625 
C 84.59375 59.6875 84.5 59.28125 84.09375 58.1875 
L 68.59375 8.703125 
L 52.296875 60.78125 
C 52 61.796875 51.90625 62.1875 51.90625 62.59375 
C 51.90625 65.390625 56.296875 65.390625 58.203125 65.390625 
L 58.203125 68 
C 55.296875 67.796875 50.296875 67.796875 47.203125 67.796875 
C 44.703125 67.796875 40.203125 67.796875 37.90625 68 
L 37.90625 65.390625 
C 42.5 65.390625 43.703125 65.09375 44.703125 63.296875 
C 45.09375 62.390625 46.703125 57.1875 46.703125 56.875 
C 46.703125 56.484375 46.5 55.875 46.40625 55.578125 
L 31.703125 8.8125 
L 15.40625 60.78125 
C 14.90625 62.1875 14.90625 62.390625 14.90625 62.59375 
C 14.90625 65.390625 19.296875 65.390625 21.296875 65.390625 
L 21.296875 68 
C 18.40625 67.796875 13.40625 67.796875 10.296875 67.796875 
C 7.703125 67.796875 3.296875 67.796875 0.90625 68 
L 0.90625 65.390625 
C 6.90625 65.390625 7.296875 64.796875 8.296875 61.59375 
L 27.796875 -0.3125 
C 28.296875 -1.8125 28.296875 -2 29.203125 -2 
C 30 -2 30.296875 -1.8125 30.703125 -0.40625 
L 47.703125 53.875 
L 64.703125 -0.40625 
C 65.09375 -1.8125 65.40625 -2 66.203125 -2 
C 67.09375 -2 67.09375 -1.8125 67.59375 -0.3125 
z
" id="CMR17-87"/>
       <path d="M 36 25.875 
C 36 32 36 35.546875 31.796875 39.59375 
C 28.09375 42.984375 23.796875 44 20.40625 44 
C 12.5 44 6.796875 37.625 6.796875 30.890625 
C 6.796875 27.1875 9.796875 27 10.40625 27 
C 11.703125 27 14 27.796875 14 30.59375 
C 14 33.09375 12.09375 34.1875 10.40625 34.1875 
C 10 34.1875 9.5 34.09375 9.203125 34 
C 11.296875 40.53125 16.703125 42.390625 20.203125 42.390625 
C 25.203125 42.390625 30.703125 37.828125 30.703125 29.296875 
L 30.703125 25.5 
C 24.796875 25.296875 17.703125 24.5 12.09375 21.453125 
C 5.796875 17.921875 4 12.84375 4 9 
C 4 1.203125 13 -1 18.296875 -1 
C 23.796875 -1 28.90625 2.109375 31.09375 7.890625 
C 31.296875 3.421875 34.09375 -0.609375 38.5 -0.609375 
C 40.59375 -0.609375 45.90625 0.796875 45.90625 8.796875 
L 45.90625 14.46875 
L 44.09375 14.46875 
L 44.09375 8.703125 
C 44.09375 2.515625 41.40625 1.703125 40.09375 1.703125 
C 36 1.703125 36 6.96875 36 11.4375 
z
M 30.703125 13.859375 
C 30.703125 5.046875 24.5 0.59375 19 0.59375 
C 14 0.59375 10.09375 4.34375 10.09375 9 
C 10.09375 12.046875 11.40625 17.40625 17.203125 20.65625 
C 22 23.390625 27.5 23.796875 30.703125 24 
z
" id="CMR17-97"/>
       <path d="M 39.09375 33.953125 
C 40 36.171875 41.59375 40.1875 47.40625 40.390625 
L 47.40625 43 
C 45.5 42.890625 43 42.796875 41.09375 42.796875 
C 39 42.796875 35.703125 42.796875 33.703125 43 
L 33.703125 40.390625 
C 36.203125 40.1875 37.59375 38.984375 37.59375 36.375 
C 37.59375 35.46875 37.59375 35.265625 37 33.859375 
L 26 5.921875 
L 14.09375 36.0625 
C 13.5 37.375 13.5 37.578125 13.5 37.984375 
C 13.5 40.390625 16.796875 40.390625 18.296875 40.390625 
L 18.296875 43 
C 15.90625 42.796875 11.5 42.796875 9 42.796875 
C 6.296875 42.796875 3.203125 42.796875 1 43 
L 1 40.390625 
C 4.796875 40.390625 6.90625 40.390625 8.09375 37.28125 
L 22.59375 0.6875 
C 23.203125 -0.8125 23.296875 -1 24.203125 -1 
C 25.09375 -1 25.203125 -0.8125 25.796875 0.6875 
z
" id="CMR17-118"/>
       <path d="M 38.09375 23.484375 
C 38.5 23.890625 38.5 24.09375 38.5 25.09375 
C 38.5 35.171875 33.09375 44 21.703125 44 
C 11.09375 44 2.703125 33.984375 2.703125 21.78125 
C 2.703125 8.65625 12.203125 -1 22.796875 -1 
C 34 -1 38.40625 9.671875 38.40625 11.796875 
C 38.40625 12.5 37.796875 12.5 37.59375 12.5 
C 36.90625 12.5 36.796875 12.296875 36.40625 11.078125 
C 34.203125 4.21875 28.703125 0.796875 23.5 0.796875 
C 19.203125 0.796875 14.90625 3.21875 12.203125 7.65625 
C 9.09375 12.796875 9.09375 18.75 9.09375 23.484375 
z
M 9.203125 25 
C 9.90625 39.234375 17.59375 42.390625 21.59375 42.390625 
C 28.40625 42.390625 33 36.0625 33.09375 25 
z
" id="CMR17-101"/>
       <path d="M 15.296875 69 
L 3.40625 67.890625 
L 3.40625 65.296875 
C 9.296875 65.296875 10.203125 64.703125 10.203125 59.921875 
L 10.203125 6.859375 
C 10.203125 3.09375 9.796875 2.59375 3.40625 2.59375 
L 3.40625 0 
C 5.796875 0.1875 10.203125 0.1875 12.703125 0.1875 
C 15.296875 0.1875 19.703125 0.1875 22.09375 0 
L 22.09375 2.59375 
C 15.703125 2.59375 15.296875 2.984375 15.296875 6.859375 
z
" id="CMR17-108"/>
       <path d="M 41.5 30.53125 
C 41.5 35.65625 40.5 44 28.703125 44 
C 20.796875 44 16.703125 37.875 15.203125 33.84375 
L 15.09375 33.84375 
L 15.09375 44 
L 3.296875 42.890625 
L 3.296875 40.28125 
C 9.203125 40.28125 10.09375 39.6875 10.09375 34.859375 
L 10.09375 6.921875 
C 10.09375 3.09375 9.703125 2.59375 3.296875 2.59375 
L 3.296875 0 
C 5.703125 0.1875 10.09375 0.1875 12.703125 0.1875 
C 15.296875 0.1875 19.796875 0.1875 22.203125 0 
L 22.203125 2.59375 
C 15.796875 2.59375 15.40625 3 15.40625 6.921875 
L 15.40625 26.21875 
C 15.40625 35.453125 21 42.390625 28 42.390625 
C 35.40625 42.390625 36.203125 35.765625 36.203125 30.9375 
L 36.203125 6.921875 
C 36.203125 3.09375 35.796875 2.59375 29.40625 2.59375 
L 29.40625 0 
C 31.796875 0.1875 36.203125 0.1875 38.796875 0.1875 
C 41.40625 0.1875 45.90625 0.1875 48.296875 0 
L 48.296875 2.59375 
C 41.90625 2.59375 41.5 3 41.5 6.921875 
z
" id="CMR17-110"/>
       <path d="M 11.09375 18.203125 
C 13 16.6875 16.296875 15 20.296875 15 
C 28.203125 15 35 21.234375 35 29.609375 
C 35 32.234375 34.203125 36.265625 31.203125 39.390625 
C 34 42.390625 38.09375 43.390625 40.40625 43.390625 
C 40.796875 43.390625 41.40625 43.390625 41.90625 43.09375 
C 41.5 42.984375 40.59375 42.59375 40.59375 40.984375 
C 40.59375 39.6875 41.5 38.796875 42.796875 38.796875 
C 44.296875 38.796875 45.09375 39.796875 45.09375 41.09375 
C 45.09375 42.984375 43.59375 45 40.40625 45 
C 36.40625 45 32.90625 43.09375 30.09375 40.484375 
C 27.09375 43.1875 23.5 44.1875 20.296875 44.1875 
C 12.40625 44.1875 5.59375 37.984375 5.59375 29.609375 
C 5.59375 23.859375 8.90625 20.21875 9.90625 19.21875 
C 6.90625 15.6875 6.90625 11.59375 6.90625 11.09375 
C 6.90625 8.5 7.90625 4.6875 11.296875 2.59375 
C 6.09375 1.28125 2 -2.875 2 -8.078125 
C 2 -15.5625 11.5 -21 22.90625 -21 
C 33.90625 -21 43.796875 -15.765625 43.796875 -7.96875 
C 43.796875 6 29 6 21.296875 6 
C 19 6 14.90625 6 14.40625 6.09375 
C 11.296875 6.59375 9.203125 9.390625 9.203125 12.890625 
C 9.203125 13.796875 9.203125 16 11.09375 18.203125 
z
M 20.296875 16.6875 
C 11.5 16.6875 11.5 27.59375 11.5 29.609375 
C 11.5 31.625 11.5 42.484375 20.296875 42.484375 
C 29.09375 42.484375 29.09375 31.625 29.09375 29.609375 
C 29.09375 27.59375 29.09375 16.6875 20.296875 16.6875 
z
M 22.90625 -19.3125 
C 12.90625 -19.3125 6 -13.796875 6 -8.078125 
C 6 -4.859375 7.703125 -1.84375 9.90625 -0.171875 
C 12.40625 1.59375 13.40625 1.59375 20.203125 1.59375 
C 28.40625 1.59375 39.796875 1.59375 39.796875 -8.078125 
C 39.796875 -13.796875 32.90625 -19.3125 22.90625 -19.3125 
z
" id="CMR17-103"/>
       <path d="M 15.09375 40.390625 
L 29.09375 40.390625 
L 29.09375 43 
L 15.09375 43 
L 15.09375 62 
L 13.296875 62 
C 13.09375 51.4375 9.59375 42.1875 1.09375 41.984375 
L 1.09375 40.390625 
L 9.796875 40.390625 
L 9.796875 12.15625 
C 9.796875 10.234375 9.796875 -1 21.40625 -1 
C 27.296875 -1 30.703125 4.8125 30.703125 12.25 
L 30.703125 17.984375 
L 28.90625 17.984375 
L 28.90625 12.34375 
C 28.90625 5.421875 26.203125 0.796875 22 0.796875 
C 19.09375 0.796875 15.09375 2.796875 15.09375 11.953125 
z
" id="CMR17-116"/>
       <path d="M 41.5 30.53125 
C 41.5 35.65625 40.5 44 28.703125 44 
C 20.5 44 16.5 37.375 15.296875 34.046875 
L 15.203125 34.046875 
L 15.203125 69 
L 3.296875 67.890625 
L 3.296875 65.296875 
C 9.203125 65.296875 10.09375 64.703125 10.09375 60.046875 
L 10.09375 6.921875 
C 10.09375 3.09375 9.703125 2.59375 3.296875 2.59375 
L 3.296875 0 
C 5.703125 0.1875 10.09375 0.1875 12.703125 0.1875 
C 15.296875 0.1875 19.796875 0.1875 22.203125 0 
L 22.203125 2.59375 
C 15.796875 2.59375 15.40625 3 15.40625 6.921875 
L 15.40625 26.21875 
C 15.40625 35.453125 21 42.390625 28 42.390625 
C 35.40625 42.390625 36.203125 35.765625 36.203125 30.9375 
L 36.203125 6.921875 
C 36.203125 3.09375 35.796875 2.59375 29.40625 2.59375 
L 29.40625 0 
C 31.796875 0.1875 36.203125 0.1875 38.796875 0.1875 
C 41.40625 0.1875 45.90625 0.1875 48.296875 0 
L 48.296875 2.59375 
C 41.90625 2.59375 41.5 3 41.5 6.921875 
z
" id="CMR17-104"/>
       <path d="M 30.59375 -24.40625 
C 30.59375 -24.3125 30.59375 -24.109375 30.296875 -23.8125 
C 25.703125 -19.109375 13.40625 -6.296875 13.40625 24.9375 
C 13.40625 56.171875 25.5 68.875 30.40625 73.890625 
C 30.40625 73.984375 30.59375 74.1875 30.59375 74.484375 
C 30.59375 74.796875 30.296875 75 29.90625 75 
C 28.796875 75 20.296875 67.578125 15.40625 56.5625 
C 10.40625 45.453125 9 34.65625 9 25.046875 
C 9 17.828125 9.703125 5.625 15.703125 -7.296875 
C 20.5 -17.703125 28.703125 -25 29.90625 -25 
C 30.40625 -25 30.59375 -24.8125 30.59375 -24.40625 
z
" id="CMR17-40"/>
       <path d="M 67.59375 30.53125 
C 67.59375 35.5625 66.703125 44 54.796875 44 
C 48 44 43.296875 39.375 41.5 33.953125 
L 41.40625 33.953125 
C 40.203125 42.1875 34.296875 44 28.703125 44 
C 20.796875 44 16.703125 37.875 15.203125 33.84375 
L 15.09375 33.84375 
L 15.09375 44 
L 3.296875 42.890625 
L 3.296875 40.28125 
C 9.203125 40.28125 10.09375 39.6875 10.09375 34.859375 
L 10.09375 6.921875 
C 10.09375 3.09375 9.703125 2.59375 3.296875 2.59375 
L 3.296875 0 
C 5.703125 0.1875 10.09375 0.1875 12.703125 0.1875 
C 15.296875 0.1875 19.796875 0.1875 22.203125 0 
L 22.203125 2.59375 
C 15.796875 2.59375 15.40625 3 15.40625 6.921875 
L 15.40625 26.21875 
C 15.40625 35.453125 21 42.390625 28 42.390625 
C 35.40625 42.390625 36.203125 35.765625 36.203125 30.9375 
L 36.203125 6.921875 
C 36.203125 3.09375 35.796875 2.59375 29.40625 2.59375 
L 29.40625 0 
C 31.796875 0.1875 36.203125 0.1875 38.796875 0.1875 
C 41.40625 0.1875 45.90625 0.1875 48.296875 0 
L 48.296875 2.59375 
C 41.90625 2.59375 41.5 3 41.5 6.921875 
L 41.5 26.21875 
C 41.5 35.453125 47.09375 42.390625 54.09375 42.390625 
C 61.5 42.390625 62.296875 35.765625 62.296875 30.9375 
L 62.296875 6.921875 
C 62.296875 3.09375 61.90625 2.59375 55.5 2.59375 
L 55.5 0 
C 57.90625 0.1875 62.296875 0.1875 64.90625 0.1875 
C 67.5 0.1875 72 0.1875 74.40625 0 
L 74.40625 2.59375 
C 68 2.59375 67.59375 3 67.59375 6.921875 
z
" id="CMR17-109"/>
       <path d="M 26.296875 24.9375 
C 26.296875 32.140625 25.59375 44.359375 19.59375 57.265625 
C 14.796875 67.6875 6.59375 75 5.40625 75 
C 5.09375 75 4.703125 74.890625 4.703125 74.390625 
C 4.703125 74.1875 4.796875 74.09375 4.90625 73.890625 
C 9.703125 68.875 21.90625 56.171875 21.90625 25.046875 
C 21.90625 -6.1875 9.796875 -18.90625 4.90625 -23.90625 
C 4.796875 -24.109375 4.703125 -24.203125 4.703125 -24.40625 
C 4.703125 -24.90625 5.09375 -25 5.40625 -25 
C 6.5 -25 15 -17.609375 19.90625 -6.59375 
C 24.90625 4.515625 26.296875 15.328125 26.296875 24.9375 
z
" id="CMR17-41"/>
      </defs>
      <use transform="scale(0.996264)" xlink:href="#CMR17-87"/>
      <use transform="translate(87.289395 0)scale(0.996264)" xlink:href="#CMR17-97"/>
      <use transform="translate(130.377418 0)scale(0.996264)" xlink:href="#CMR17-118"/>
      <use transform="translate(176.06788 0)scale(0.996264)" xlink:href="#CMR17-101"/>
      <use transform="translate(216.55354 0)scale(0.996264)" xlink:href="#CMR17-108"/>
      <use transform="translate(241.424599 0)scale(0.996264)" xlink:href="#CMR17-101"/>
      <use transform="translate(281.910259 0)scale(0.996264)" xlink:href="#CMR17-110"/>
      <use transform="translate(332.805629 0)scale(0.996264)" xlink:href="#CMR17-103"/>
      <use transform="translate(378.496106 0)scale(0.996264)" xlink:href="#CMR17-116"/>
      <use transform="translate(413.776874 0)scale(0.996264)" xlink:href="#CMR17-104"/>
      <use transform="translate(494.74821 0)scale(0.996264)" xlink:href="#CMR17-40"/>
      <use transform="translate(530.028978 0)scale(0.996264)" xlink:href="#CMR17-110"/>
      <use transform="translate(580.924347 0)scale(0.996264)" xlink:href="#CMR17-109"/>
      <use transform="translate(657.843937 0)scale(0.996264)" xlink:href="#CMR17-41"/>
     </g>
    </g>
   </g>
   <g id="matplotlib.axis_2">
    <g id="ytick_1">
     <g id="line2d_4">
      <defs>
       <path d="M 0 0 
L -3.5 0 
" id="m84266e1cfb" style="stroke:#000000;stroke-width:0.8;"/>
      </defs>
      <g>
       <use style="stroke:#000000;stroke-width:0.8;" x="55.024436" xlink:href="#m84266e1cfb" y="166.496228"/>
      </g>
     </g>
     <g id="text_5">
      <!-- $\mathdefault{0.0}$ -->
      <g transform="translate(31.820325 170.993242)scale(0.13 -0.13)">
       <defs>
        <path d="M 42 31.84375 
C 42 37.96875 41.90625 48.421875 37.703125 56.453125 
C 34 63.484375 28.09375 66 22.90625 66 
C 18.09375 66 12 63.78125 8.203125 56.5625 
C 4.203125 49.015625 3.796875 39.671875 3.796875 31.84375 
C 3.796875 26.109375 3.90625 17.375 7 9.734375 
C 11.296875 -0.609375 19 -2 22.90625 -2 
C 27.5 -2 34.5 -0.109375 38.59375 9.4375 
C 41.59375 16.375 42 24.5 42 31.84375 
z
M 22.90625 -0.40625 
C 16.5 -0.40625 12.703125 5.125 11.296875 12.75 
C 10.203125 18.6875 10.203125 27.328125 10.203125 32.953125 
C 10.203125 40.6875 10.203125 47.109375 11.5 53.234375 
C 13.40625 61.78125 19 64.390625 22.90625 64.390625 
C 27 64.390625 32.296875 61.671875 34.203125 53.4375 
C 35.5 47.71875 35.59375 40.984375 35.59375 32.953125 
C 35.59375 26.421875 35.59375 18.375 34.40625 12.453125 
C 32.296875 1.5 26.40625 -0.40625 22.90625 -0.40625 
z
" id="CMR17-48"/>
        <path d="M 18.40625 4.796875 
C 18.40625 7.6875 16 9.6875 13.59375 9.6875 
C 10.703125 9.6875 8.703125 7.296875 8.703125 4.890625 
C 8.703125 2 11.09375 0 13.5 0 
C 16.40625 0 18.40625 2.390625 18.40625 4.796875 
z
" id="CMMI12-58"/>
       </defs>
       <use transform="scale(0.996264)" xlink:href="#CMR17-48"/>
       <use transform="translate(45.690477 0)scale(0.996264)" xlink:href="#CMMI12-58"/>
       <use transform="translate(72.787654 0)scale(0.996264)" xlink:href="#CMR17-48"/>
      </g>
     </g>
    </g>
    <g id="ytick_2">
     <g id="line2d_5">
      <g>
       <use style="stroke:#000000;stroke-width:0.8;" x="55.024436" xlink:href="#m84266e1cfb" y="121.656161"/>
      </g>
     </g>
     <g id="text_6">
      <!-- $\mathdefault{0.2}$ -->
      <g transform="translate(31.820325 126.153175)scale(0.13 -0.13)">
       <defs>
        <path d="M 41.703125 15.46875 
L 39.90625 15.46875 
C 38.90625 8.390625 38.09375 7.1875 37.703125 6.59375 
C 37.203125 5.796875 30 5.796875 28.59375 5.796875 
L 9.40625 5.796875 
C 13 9.6875 20 16.765625 28.5 24.9375 
C 34.59375 30.71875 41.703125 37.5 41.703125 47.390625 
C 41.703125 59.1875 32.296875 66 21.796875 66 
C 10.796875 66 4.09375 56.296875 4.09375 47.296875 
C 4.09375 43.390625 7 42.890625 8.203125 42.890625 
C 9.203125 42.890625 12.203125 43.484375 12.203125 46.984375 
C 12.203125 50.09375 9.59375 51 8.203125 51 
C 7.59375 51 7 50.890625 6.59375 50.6875 
C 8.5 59.1875 14.296875 63.390625 20.40625 63.390625 
C 29.09375 63.390625 34.796875 56.5 34.796875 47.390625 
C 34.796875 38.703125 29.703125 31.21875 24 24.734375 
L 4.09375 2.296875 
L 4.09375 0 
L 39.296875 0 
z
" id="CMR17-50"/>
       </defs>
       <use transform="scale(0.996264)" xlink:href="#CMR17-48"/>
       <use transform="translate(45.690477 0)scale(0.996264)" xlink:href="#CMMI12-58"/>
       <use transform="translate(72.787654 0)scale(0.996264)" xlink:href="#CMR17-50"/>
      </g>
     </g>
    </g>
    <g id="ytick_3">
     <g id="line2d_6">
      <g>
       <use style="stroke:#000000;stroke-width:0.8;" x="55.024436" xlink:href="#m84266e1cfb" y="76.816094"/>
      </g>
     </g>
     <g id="text_7">
      <!-- $\mathdefault{0.4}$ -->
      <g transform="translate(31.820325 81.313108)scale(0.13 -0.13)">
       <use transform="scale(0.996264)" xlink:href="#CMR17-48"/>
       <use transform="translate(45.690477 0)scale(0.996264)" xlink:href="#CMMI12-58"/>
       <use transform="translate(72.787654 0)scale(0.996264)" xlink:href="#CMR17-52"/>
      </g>
     </g>
    </g>
    <g id="ytick_4">
     <g id="line2d_7">
      <g>
       <use style="stroke:#000000;stroke-width:0.8;" x="55.024436" xlink:href="#m84266e1cfb" y="31.976027"/>
      </g>
     </g>
     <g id="text_8">
      <!-- $\mathdefault{0.6}$ -->
      <g transform="translate(31.820325 36.473041)scale(0.13 -0.13)">
       <use transform="scale(0.996264)" xlink:href="#CMR17-48"/>
       <use transform="translate(45.690477 0)scale(0.996264)" xlink:href="#CMMI12-58"/>
       <use transform="translate(72.787654 0)scale(0.996264)" xlink:href="#CMR17-54"/>
      </g>
     </g>
    </g>
    <g id="text_9">
     <!-- Intensity $\times 10^\mathrm{12}$ (arb. units) -->
     <g transform="translate(24.582466 167.563203)rotate(-90)scale(0.13 -0.13)">
      <defs>
       <path d="M 19.703125 60.90625 
C 19.703125 65.390625 20.90625 65.390625 28.09375 65.390625 
L 28.09375 68 
C 24.90625 67.796875 19.796875 67.796875 16.40625 67.796875 
C 13 67.796875 7.90625 67.796875 4.703125 68 
L 4.703125 65.390625 
C 11.90625 65.390625 13.09375 65.390625 13.09375 60.90625 
L 13.09375 7.078125 
C 13.09375 2.59375 11.90625 2.59375 4.703125 2.59375 
L 4.703125 0 
C 7.90625 0.1875 13 0.1875 16.40625 0.1875 
C 19.796875 0.1875 24.90625 0.1875 28.09375 0 
L 28.09375 2.59375 
C 20.90625 2.59375 19.703125 2.59375 19.703125 7.078125 
z
" id="CMR17-73"/>
       <path d="M 30.90625 42 
C 30.90625 43.796875 30.796875 43.890625 30.203125 43.890625 
C 29.796875 43.890625 29.703125 43.796875 28.5 42.296875 
C 28.203125 41.890625 27.296875 40.890625 27 40.5 
C 23.796875 43.890625 19.296875 44 17.59375 44 
C 6.5 44 2.5 38.1875 2.5 32.390625 
C 2.5 23.390625 12.703125 21.296875 15.59375 20.6875 
C 21.90625 19.390625 24.09375 19 26.203125 17.1875 
C 27.5 16 29.703125 13.796875 29.703125 10.1875 
C 29.703125 6 27.296875 0.59375 18.09375 0.59375 
C 9.40625 0.59375 6.296875 7.1875 4.5 16 
C 4.203125 17.390625 4.203125 17.5 3.40625 17.5 
C 2.59375 17.5 2.5 17.390625 2.5 15.390625 
L 2.5 1 
C 2.5 -0.8125 2.59375 -0.90625 3.203125 -0.90625 
C 3.703125 -0.90625 3.796875 -0.8125 4.296875 0 
C 4.90625 0.890625 6.40625 3.296875 7 4.296875 
C 9 1.59375 12.5 -1 18.09375 -1 
C 28 -1 33.296875 4.390625 33.296875 12.1875 
C 33.296875 17.296875 30.59375 20 29.296875 21.1875 
C 26.296875 24.296875 22.796875 25 18.59375 25.796875 
C 13.09375 27 6.09375 28.390625 6.09375 34.5 
C 6.09375 37.09375 7.5 42.59375 17.59375 42.59375 
C 28.296875 42.59375 28.90625 32.59375 29.09375 29.390625 
C 29.203125 28.890625 29.703125 28.796875 30 28.796875 
C 30.90625 28.796875 30.90625 29.09375 30.90625 30.796875 
z
" id="CMR17-115"/>
       <path d="M 15.5 61.890625 
C 15.5 64.09375 13.703125 66 11.40625 66 
C 9.203125 66 7.296875 64.1875 7.296875 61.890625 
C 7.296875 59.6875 9.09375 57.796875 11.40625 57.796875 
C 13.59375 57.796875 15.5 59.59375 15.5 61.890625 
z
M 3.796875 42.890625 
L 3.796875 40.296875 
C 9.40625 40.296875 10.203125 39.6875 10.203125 34.859375 
L 10.203125 6.921875 
C 10.203125 3.09375 9.796875 2.59375 3.40625 2.59375 
L 3.40625 0 
C 5.796875 0.1875 10.09375 0.1875 12.59375 0.1875 
C 15 0.1875 19.09375 0.1875 21.40625 0 
L 21.40625 2.59375 
C 15.5 2.59375 15.296875 3.203125 15.296875 6.8125 
L 15.296875 44 
z
" id="CMR17-105"/>
       <path d="M 39 34.109375 
C 41.5 40.296875 46 40.390625 47.40625 40.390625 
L 47.40625 43 
C 45.5 42.890625 43 42.796875 41.09375 42.796875 
C 39 42.796875 35.703125 42.796875 33.703125 43 
L 33.703125 40.390625 
C 37.5 40.09375 37.59375 37.25 37.59375 36.4375 
C 37.59375 35.4375 37.40625 34.921875 36.90625 33.71875 
L 26 6.390625 
L 14.09375 35.9375 
C 13.59375 37.15625 13.59375 37.859375 13.59375 37.96875 
C 13.59375 40.1875 15.90625 40.390625 18.296875 40.390625 
L 18.296875 43 
C 15.90625 42.796875 11.59375 42.796875 9.09375 42.796875 
C 6.40625 42.796875 3.203125 42.796875 1 43 
L 1 40.390625 
C 6.40625 40.390625 7 39.890625 8.296875 36.640625 
L 23.203125 -0.484375 
C 18.703125 -12.421875 16.09375 -19.40625 9.796875 -19.40625 
C 8.703125 -19.40625 6.203125 -19.109375 4.40625 -17.28125 
C 6.703125 -17.078125 7.703125 -15.65625 7.703125 -13.9375 
C 7.703125 -12.21875 6.5 -10.703125 4.5 -10.703125 
C 2.296875 -10.703125 1.203125 -12.21875 1.203125 -14.046875 
C 1.203125 -18.09375 5.296875 -21 9.796875 -21 
C 15.59375 -21 19.203125 -15.359375 21.203125 -10.296875 
z
" id="CMR17-121"/>
       <path d="M 38.90625 27.734375 
L 18.90625 47.59375 
C 17.703125 48.796875 17.5 49 16.703125 49 
C 15.703125 49 14.703125 48.09375 14.703125 47 
C 14.703125 46.296875 14.90625 46.09375 16 45 
L 36 24.9375 
L 16 4.890625 
C 14.90625 3.796875 14.703125 3.59375 14.703125 2.890625 
C 14.703125 1.796875 15.703125 0.890625 16.703125 0.890625 
C 17.5 0.890625 17.703125 1.09375 18.90625 2.296875 
L 38.796875 22.15625 
L 59.5 1.484375 
C 59.703125 1.390625 60.40625 0.890625 61 0.890625 
C 62.203125 0.890625 63 1.796875 63 2.890625 
C 63 3.09375 63 3.484375 62.703125 3.984375 
C 62.59375 4.1875 46.703125 19.859375 41.703125 24.9375 
L 60 43.203125 
C 60.5 43.796875 62 45.09375 62.5 45.703125 
C 62.59375 45.890625 63 46.296875 63 47 
C 63 48.09375 62.203125 49 61 49 
C 60.203125 49 59.796875 48.59375 58.703125 47.5 
z
" id="CMSY10-2"/>
       <path d="M 26.59375 63.796875 
C 26.59375 65.890625 26.5 66 25.09375 66 
C 21.203125 61.359375 15.296875 59.890625 9.703125 59.6875 
C 9.40625 59.6875 8.90625 59.6875 8.796875 59.5 
C 8.703125 59.296875 8.703125 59.09375 8.703125 57 
C 11.796875 57 17 57.59375 21 59.984375 
L 21 7.296875 
C 21 3.796875 20.796875 2.59375 12.203125 2.59375 
L 9.203125 2.59375 
L 9.203125 0 
C 14 0.09375 19 0.1875 23.796875 0.1875 
C 28.59375 0.1875 33.59375 0.09375 38.40625 0 
L 38.40625 2.59375 
L 35.40625 2.59375 
C 26.796875 2.59375 26.59375 3.6875 26.59375 7.296875 
z
" id="CMR17-49"/>
       <path d="M 15 23.703125 
C 15 33.34375 19.09375 42.390625 26.59375 42.390625 
C 27.296875 42.390625 28 42.296875 28.703125 41.984375 
C 28.703125 41.984375 26.5 41.28125 26.5 38.671875 
C 26.5 36.265625 28.40625 35.265625 29.90625 35.265625 
C 31.09375 35.265625 33.296875 35.96875 33.296875 38.78125 
C 33.296875 41.984375 30.09375 44 26.703125 44 
C 19.09375 44 15.796875 36.5625 14.796875 33.046875 
L 14.703125 33.046875 
L 14.703125 44 
L 3.09375 42.890625 
L 3.09375 40.28125 
C 9 40.28125 9.90625 39.6875 9.90625 34.859375 
L 9.90625 6.921875 
C 9.90625 3.09375 9.5 2.59375 3.09375 2.59375 
L 3.09375 0 
C 5.5 0.1875 10.09375 0.1875 12.703125 0.1875 
C 15.59375 0.1875 20.703125 0.1875 23.40625 0 
L 23.40625 2.59375 
C 16.203125 2.59375 15 2.59375 15 7.109375 
z
" id="CMR17-114"/>
       <path d="M 15 69 
L 3.09375 67.890625 
L 3.09375 65.296875 
C 9 65.296875 9.90625 64.703125 9.90625 60.046875 
L 9.90625 -0.203125 
L 11.703125 -0.203125 
L 14.59375 6.953125 
C 17.5 2.203125 21.796875 -1 27.59375 -1 
C 37.59375 -1 47.703125 7.859375 47.703125 21.59375 
C 47.703125 34.515625 38.703125 44 28.59375 44 
C 22.40625 44 18 40.671875 15 36.734375 
z
M 15.203125 31.59375 
C 15.203125 33.40625 15.203125 33.703125 16.59375 35.828125 
C 20.5 41.890625 26.09375 42.390625 28 42.390625 
C 31 42.390625 41.296875 40.78125 41.296875 21.6875 
C 41.296875 1.703125 29.5 0.59375 27.09375 0.59375 
C 24 0.59375 19.5 1.796875 16.296875 7.65625 
C 15.203125 9.578125 15.203125 9.78125 15.203125 11.59375 
z
" id="CMR17-98"/>
       <path d="M 16.59375 4.09375 
C 16.59375 6.59375 14.59375 8.1875 12.5 8.1875 
C 10.5 8.1875 8.40625 6.59375 8.40625 4.09375 
C 8.40625 1.59375 10.40625 0 12.5 0 
C 14.5 0 16.59375 1.59375 16.59375 4.09375 
z
" id="CMR17-46"/>
       <path d="M 29.40625 42.890625 
L 29.40625 40.296875 
C 35.296875 40.296875 36.203125 39.6875 36.203125 34.828125 
L 36.203125 16.453125 
C 36.203125 7.96875 31.703125 0.59375 24.296875 0.59375 
C 16.09375 0.59375 15.40625 5.546875 15.40625 10.796875 
L 15.40625 44 
L 3.296875 42.890625 
L 3.296875 40.296875 
C 7.296875 40.296875 10 40.296875 10.09375 36.25 
L 10.09375 16.859375 
C 10.09375 10.09375 10.09375 5.75 12.703125 2.921875 
C 14 1.609375 16.5 -1 23.703125 -1 
C 32.203125 -1 35.5 6.25 36.296875 8.375 
L 36.40625 8.375 
L 36.40625 -1 
L 48.296875 -0.203125 
L 48.296875 2.40625 
C 42.40625 2.40625 41.5 3.015625 41.5 7.859375 
L 41.5 44 
z
" id="CMR17-117"/>
      </defs>
      <use transform="scale(0.996264)" xlink:href="#CMR17-73"/>
      <use transform="translate(32.638409 0)scale(0.996264)" xlink:href="#CMR17-110"/>
      <use transform="translate(80.931325 0)scale(0.996264)" xlink:href="#CMR17-116"/>
      <use transform="translate(116.212093 0)scale(0.996264)" xlink:href="#CMR17-101"/>
      <use transform="translate(156.697753 0)scale(0.996264)" xlink:href="#CMR17-110"/>
      <use transform="translate(207.593123 0)scale(0.996264)" xlink:href="#CMR17-115"/>
      <use transform="translate(243.394461 0)scale(0.996264)" xlink:href="#CMR17-105"/>
      <use transform="translate(268.265519 0)scale(0.996264)" xlink:href="#CMR17-116"/>
      <use transform="translate(300.943833 0)scale(0.996264)" xlink:href="#CMR17-121"/>
      <use transform="translate(379.312715 0)scale(0.996264)" xlink:href="#CMSY10-2"/>
      <use transform="translate(456.800183 0)scale(0.996264)" xlink:href="#CMR17-49"/>
      <use transform="translate(502.49066 0)scale(0.996264)" xlink:href="#CMR17-48"/>
      <use transform="translate(548.181137 36.153639)scale(0.697382)" xlink:href="#CMR17-49"/>
      <use transform="translate(580.164319 36.153639)scale(0.697382)" xlink:href="#CMR17-50"/>
      <use transform="translate(642.721599 0)scale(0.996264)" xlink:href="#CMR17-40"/>
      <use transform="translate(678.002367 0)scale(0.996264)" xlink:href="#CMR17-97"/>
      <use transform="translate(723.692844 0)scale(0.996264)" xlink:href="#CMR17-114"/>
      <use transform="translate(758.973612 0)scale(0.996264)" xlink:href="#CMR17-98"/>
      <use transform="translate(809.868982 0)scale(0.996264)" xlink:href="#CMR17-46"/>
      <use transform="translate(875.225701 0)scale(0.996264)" xlink:href="#CMR17-117"/>
      <use transform="translate(926.121071 0)scale(0.996264)" xlink:href="#CMR17-110"/>
      <use transform="translate(977.01644 0)scale(0.996264)" xlink:href="#CMR17-105"/>
      <use transform="translate(1001.887499 0)scale(0.996264)" xlink:href="#CMR17-116"/>
      <use transform="translate(1037.168267 0)scale(0.996264)" xlink:href="#CMR17-115"/>
      <use transform="translate(1072.969604 0)scale(0.996264)" xlink:href="#CMR17-41"/>
     </g>
    </g>
   </g>
   <g id="line2d_8">
    <path clip-path="url(#p9b6ba7cfe5)" d="M 55.024436 58.880067 
L 56.362066 34.21803 
L 57.699417 58.431666 
L 59.037605 118.965757 
L 60.375235 150.196863 
L 61.712586 159.389077 
L 63.0491 156.093332 
L 64.386451 147.618559 
L 65.723244 130.624174 
L 67.060595 104.392735 
L 68.397109 87.129309 
L 71.070416 57.310665 
L 72.406093 53.723459 
L 73.742607 81.3001 
L 75.078284 83.093703 
L 76.414241 78.161296 
L 77.749918 75.695092 
L 80.421272 118.293156 
L 81.757228 126.588568 
L 83.092068 131.969376 
L 84.426909 133.762979 
L 85.761749 119.862558 
L 88.431429 75.470892 
L 89.76627 64.709276 
L 91.100552 77.937095 
L 92.434555 88.922912 
L 93.769396 92.734318 
L 95.103399 90.716515 
L 96.436566 109.325142 
L 97.770569 134.211379 
L 99.104572 139.816388 
L 100.437739 127.036969 
L 101.770905 105.513737 
L 103.104072 73.677289 
L 104.437238 37.805235 
L 105.770405 14.04 
L 107.103571 27.940421 
L 108.435901 75.470892 
L 111.101676 78.609696 
L 112.43289 66.727079 
L 113.765219 74.34989 
L 116.429042 140.040588 
L 117.761371 154.72571 
L 119.092864 158.043875 
L 120.424357 160.016838 
L 123.087342 164.964939 
L 124.417998 165.879677 
L 127.080146 163.021122 
L 128.410802 162.191581 
L 129.741458 160.891219 
L 131.072114 162.281261 
L 132.401933 164.231804 
L 133.73231 162.505462 
L 135.062129 157.685155 
L 136.391948 150.847044 
L 137.721766 143.403593 
L 139.051585 141.38579 
L 140.381404 146.945958 
L 141.710107 153.111468 
L 143.039089 155.913972 
L 144.368908 154.88265 
L 145.69789 150.107183 
L 147.026036 146.811438 
L 148.354739 140.713189 
L 151.011866 121.20776 
L 152.340011 101.702331 
L 153.667877 77.712895 
L 154.996022 64.036675 
L 156.324167 61.346271 
L 158.979342 120.086758 
L 160.307487 125.915967 
L 161.634795 126.812768 
L 162.961825 112.015546 
L 164.288296 87.353509 
L 165.615604 70.762685 
L 166.942633 74.57409 
L 168.269105 105.289536 
L 169.595576 128.15797 
L 170.921769 129.054772 
L 172.24824 122.777162 
L 173.574711 120.759359 
L 174.900067 125.691767 
L 176.226538 138.246985 
L 177.551894 145.398976 
L 178.877528 146.049157 
L 180.203163 144.390075 
L 181.528518 141.834191 
L 182.853316 145.780117 
L 184.178671 153.671969 
L 185.503469 160.196198 
L 186.827987 161.2051 
L 188.152785 162.909022 
L 189.477583 165.341596 
L 190.801264 165.375226 
L 192.126062 165.532166 
L 193.449744 166.101635 
L 196.097386 161.855281 
L 200.067873 146.766598 
L 201.391834 143.627794 
L 202.714679 148.403261 
L 204.037803 156.474473 
L 205.360648 161.29478 
L 206.682934 162.483042 
L 208.005779 163.895504 
L 209.327787 163.469523 
L 210.650911 161.33962 
L 211.972919 155.936392 
L 213.295206 148.605041 
L 215.938385 120.310959 
L 217.259835 111.567146 
L 218.581843 121.880361 
L 219.903014 141.834191 
L 221.224464 157.169494 
L 222.544798 161.788021 
L 223.865969 162.303681 
L 225.187419 159.994418 
L 227.828088 156.250272 
L 229.148422 154.83781 
L 230.469035 155.600091 
L 231.789369 158.133555 
L 233.108866 156.855613 
L 234.428364 153.402928 
L 235.748977 142.955193 
L 237.068474 127.93377 
L 238.387134 109.773543 
L 239.706632 100.80553 
L 241.026408 109.549343 
L 242.345068 128.382171 
L 243.663729 137.125984 
L 244.982389 139.816388 
L 246.30105 141.834191 
L 247.61971 150.869464 
L 248.937533 160.689439 
L 250.256473 164.801273 
L 251.574296 164.541201 
L 252.89212 164.406681 
L 254.209943 164.030024 
L 256.844753 162.684822 
L 258.162577 161.698341 
L 260.79655 158.895836 
L 263.430802 154.299729 
L 264.747789 148.358421 
L 266.063939 147.551299 
L 268.696238 157.886935 
L 270.012388 158.492276 
L 271.328537 154.77055 
L 272.644687 152.192246 
L 273.96 146.676918 
L 273.96 146.676918 
" style="fill:none;stroke:#ff0000;stroke-linecap:square;stroke-width:1.5;"/>
   </g>
   <g id="line2d_9">
    <path clip-path="url(#p9b6ba7cfe5)" d="M 55.024436 58.607283 
L 56.362066 43.250813 
L 57.699417 65.231235 
L 59.037605 113.595825 
L 60.375235 145.951398 
L 61.712586 156.967482 
L 63.0491 155.051627 
L 64.386451 145.981582 
L 65.723244 128.914363 
L 67.060595 106.029309 
L 68.397109 87.701166 
L 69.733902 72.629806 
L 71.070416 59.633252 
L 72.406093 59.455517 
L 73.742607 76.608648 
L 75.078284 81.753587 
L 76.414241 78.689377 
L 77.749918 80.280506 
L 80.421272 116.024779 
L 81.757228 125.986161 
L 83.092068 131.228701 
L 84.426909 130.795415 
L 85.761749 118.217516 
L 88.431429 77.652898 
L 89.76627 69.209714 
L 91.100552 77.586399 
L 92.434555 87.554839 
L 93.769396 91.702659 
L 95.103399 94.563118 
L 96.436566 110.497868 
L 97.770569 130.571449 
L 99.104572 136.278248 
L 100.437739 125.292169 
L 101.770905 103.539494 
L 104.437238 40.197123 
L 105.770405 21.246862 
L 107.103571 34.18566 
L 108.435901 67.025009 
L 109.768231 76.80254 
L 111.101676 76.174592 
L 112.43289 70.420234 
L 113.765219 79.198111 
L 116.429042 136.659844 
L 117.761371 152.525968 
L 119.092864 157.748556 
L 123.087342 164.658367 
L 124.417998 165.423438 
L 125.749491 164.402659 
L 127.080146 163.120007 
L 128.410802 162.116544 
L 129.741458 161.395104 
L 131.072114 162.382352 
L 132.401933 163.532829 
L 133.73231 161.902514 
L 135.062129 157.292047 
L 137.721766 144.448604 
L 139.051585 142.830351 
L 140.381404 147.07753 
L 141.710107 152.467221 
L 143.039089 155.165957 
L 144.368908 154.170621 
L 147.026036 146.277213 
L 148.354739 140.036271 
L 149.683721 130.975036 
L 151.011866 119.37779 
L 152.340011 100.862069 
L 153.667877 79.677869 
L 154.996022 66.271909 
L 156.324167 67.292543 
L 157.652313 90.330765 
L 158.979342 115.51823 
L 160.307487 124.823897 
L 161.634795 123.799401 
L 162.961825 110.126309 
L 164.288296 88.918217 
L 165.615604 74.745239 
L 166.942633 79.69006 
L 168.269105 103.832773 
L 169.595576 123.959058 
L 170.921769 127.630117 
L 172.24824 123.578186 
L 173.574711 122.118453 
L 174.900067 127.132977 
L 176.226538 137.235196 
L 177.551894 144.141029 
L 178.877528 145.582853 
L 180.203163 144.238585 
L 181.528518 143.073359 
L 182.853316 146.545496 
L 184.178671 153.407961 
L 185.503469 159.152706 
L 186.827987 161.315982 
L 189.477583 164.892408 
L 190.801264 165.390084 
L 192.126062 165.59886 
L 193.449744 165.579663 
L 194.773704 163.901647 
L 196.097386 161.263546 
L 197.421068 156.697389 
L 200.067873 147.136229 
L 201.391834 145.145894 
L 202.714679 149.046254 
L 204.037803 155.858306 
L 205.360648 160.594647 
L 206.682934 162.501907 
L 208.005779 163.541129 
L 209.327787 163.125262 
L 210.650911 160.703758 
L 211.972919 155.52985 
L 213.295206 147.380614 
L 215.938385 121.493175 
L 217.259835 115.245236 
L 218.581843 123.771671 
L 219.903014 140.95306 
L 221.224464 155.100176 
L 222.544798 160.950587 
L 223.865969 161.752145 
L 225.187419 160.070877 
L 227.828088 156.353102 
L 229.148422 155.260492 
L 230.469035 155.929243 
L 231.789369 157.407683 
L 233.108866 156.395147 
L 234.428364 152.045684 
L 235.748977 142.040048 
L 238.387134 111.587199 
L 239.706632 104.256777 
L 241.026408 111.503412 
L 242.345068 126.479958 
L 243.663729 135.926709 
L 246.30105 143.170251 
L 247.61971 151.025702 
L 248.937533 159.585772 
L 250.256473 163.944494 
L 251.574296 164.544733 
L 252.89212 164.359948 
L 254.209943 163.980703 
L 255.527767 163.382777 
L 256.844753 162.631435 
L 258.162577 161.619952 
L 259.479563 160.298241 
L 260.79655 158.724825 
L 262.113816 156.570561 
L 263.430802 153.625603 
L 264.747789 149.349197 
L 266.063939 148.745816 
L 268.696238 157.026872 
L 270.012388 157.651344 
L 273.96 149.611119 
L 273.96 149.611119 
" style="fill:none;stroke:#0000ff;stroke-linecap:square;stroke-width:1.5;"/>
   </g>
   <g id="patch_3">
    <path d="M 55.024436 166.496228 
L 55.024436 14.04 
" style="fill:none;stroke:#000000;stroke-linecap:square;stroke-linejoin:miter;stroke-width:0.8;"/>
   </g>
   <g id="patch_4">
    <path d="M 273.96 166.496228 
L 273.96 14.04 
" style="fill:none;stroke:#000000;stroke-linecap:square;stroke-linejoin:miter;stroke-width:0.8;"/>
   </g>
   <g id="patch_5">
    <path d="M 55.024436 166.496228 
L 273.96 166.496228 
" style="fill:none;stroke:#000000;stroke-linecap:square;stroke-linejoin:miter;stroke-width:0.8;"/>
   </g>
   <g id="patch_6">
    <path d="M 55.024436 14.04 
L 273.96 14.04 
" style="fill:none;stroke:#000000;stroke-linecap:square;stroke-linejoin:miter;stroke-width:0.8;"/>
   </g>
  </g>
 </g>
 <defs>
  <clipPath id="p9b6ba7cfe5">
   <rect height="152.456228" width="218.935564" x="55.024436" y="14.04"/>
  </clipPath>
 </defs>
</svg>
